<svg width="400" height="400" viewBox="-75 -100 150 100" xmlns="http://www.w3.org/2000/svg" xmlns:xlink="http://www.w3.org/1999/xlink"
     fill="gold" stroke="#000" stroke-width="1.5" >
  <path id="z" d="
      M-26 0C-8.4 8.4 4.3-16.3-9.7-54.6-20-83-65.3-70-42.7-33.8-41-31-39-32.5-40-34.9-41.2-42.8-36.3-47.5-28-46-7.6-42-8.57-.05-30-11-31.3-9.45-32.8-3.6-26 0Z
      M0-124c-2 0-2 2-2 2l0 0c-2 6-10 12-16 20-6 8-6 24 0 32a85 66 0 0112 26c2 10 2 16 0 32-2 8-4 10-8 14-2 2 0 6 6 10 0 0 6 4 6 8 0 2 2 2 2 2"
  />
  <use xlink:href="#z" transform="scale(-1,1)"/>
  <path d="m-12-30h24c4 0 7 3 7 7 0 4-3 7-7 7h-24a7 7 90 01-7-7c0-4 3-7 7-7z"/>
</svg>
