<svg width="400" height="400" viewBox="-75 -100 150 100" xmlns="http://www.w3.org/2000/svg" xmlns:xlink="http://www.w3.org/1999/xlink"
     fill="gold" stroke="#000" stroke-width="1.5" >
  <path id="z" d="
      M-26 0C-8.4 8.4 4-17-9.7-54.6-20-83-65-70-42.7-33.8-41-31-39-32.5-40-34.9-41.2-42.8-36.3-47.5-28-46-7.6-42-8 0-30-11-31-9-32.8-3.6-26 0Z
      M0-124c-2 0-2 2-2 2l0 0c-2 6-10 12-16 20-6 8-6 24 0 32a85 66 0 0112 26c2 10 2 16 0 32-2 8-4 10-8 14-2 2 0 6 6 10 0 0 6 4 6 8 0 2 2 2 2 2"
  />
  <use xlink:href="#z" transform="scale(-1,1)"/>
  <path d="M-12-30H12a1 1 0 010 14H-12a1 1 0 010-14Z"/>
</svg>
