<svg width="400" height="400" viewBox="-10 -10 20 10" xmlns="http://www.w3.org/2000/svg" xmlns:xlink="http://www.w3.org/1999/xlink"
     fill="gold" stroke="#000" stroke-width=".175" >
  <path id="a" d="M-2.6 0C-.84.84.43-1.63-.97-5.46-2-8.3-6.53-7-4.27-3.38-4.1-3.1-3.9-3.25-4-3.49-4.12-4.28-3.63-4.75-2.8-4.6-.76-4.2-.857-.005-3-1.1-3.13-.945-3.28-.36-2.6 0Z"/>
  <use xlink:href="#a" transform="scale(-1,1)"/>
  <path d="m-.15-12.3v0c-.21.67-.98 1.51-1.58 2.13-.93.97-.7 2.43-.07 3.21a8.51 6.57 0 011.16 2.55c.1.46.3 1.49.16 3.08-.07.79-.55 1.18-1 1.54-.22.18.1.61.85 1.17.08.06.3.22.41.6.05.1.4.1.43 0 .11-.38.34-.54.42-.6.75-.56 1.07-.99.85-1.17-.45-.36-.93-.75-1-1.54-.13-1.6.06-2.62.16-3.08.14-.74.46-1.7 1.16-2.55.64-.78.86-2.24-.07-3.21-.6-.63-1.37-1.46-1.58-2.12v-.03c0-.13-.08-.19-.15-.19s-.15.06-.15.19z"/>
  <path d="M-1.15-3h2.3c.4 0 .7.3.7.7 0 .4-.3.7-.7.7h-2.3a.7.7 0 01-.7-.7c0-.4.3-.7.7-.7z"/>
</svg>
