<svg xmlns="http://www.w3.org/2000/svg" xmlns:xlink="http://www.w3.org/1999/xlink" width="1406" height="1206" viewBox="-603.25 -703.25 1206.25 1406.25">
    <g id="cast">
        <rect width="185" height="16" x="-92.5" y="84" fill="#ff0" stroke="#000" stroke-width="5" rx="7" ry="8"/>
        <path fill="#ff0" stroke="#000" stroke-width="5" d="M-83 84H83l-8-65H-77l-8 65z"/>
        <path fill="#ff0" stroke="#000" stroke-width="5" d="M-42 84A63 65 0 010 19a63 65 0 0142 65z"/>
        <path fill="#ff0" stroke="#000" stroke-width="5" d="M-24 84A36 43 0 010 41a36 43 0 0124 43z"/>
        <rect width="170" height="14" x="-85" y="5" fill="#ff0" stroke="#000" stroke-width="5" rx="7" ry="8"/>
        <rect width="177" height="14" x="-88.5" y="-9" fill="#ff0" stroke="#000" stroke-width="5" rx="7" ry="8"/>
        <path fill="#ff0" stroke="#000" stroke-width="5"
              d="M-76-9h42l-1-35h-40z M34-9h42l-1-35H35z M-21-9h42l-2.5-65h-37z" />
        <path fill="#ff0" stroke="#000" stroke-width="5"
              d="M-82-70h12v9h9v-9h12v9h9v-9h12v20a5 6 0 01-5 6h-44a5 6 0 01-5-6z"/>
        <path fill="#ff0" stroke="#000" stroke-width="5"
              d="M-28-100h12v9h9v-9H5v9h9v-9h12v20a5 6 0 01-5 6h-44a5 6 0 01-5-6z" />
        <path fill="#ff0" stroke="#000" stroke-width="5"
              d="M28-70h12v9h9v-9h12v9h9v-9h12v20a5 6 0 01-5 6H33a5 6 0 01-5-6z" />
        <path d="M51-19h8v-13a4 4 0 00-8 0z M-4-39h8v-13a4 4 0 00-8 0z M-59-19h8v-13a4 4 0 00-8 0z" fill="#000"/>
    </g>

    <path fill="#fff" stroke="#000" stroke-width="6.5"
          d="M-600-700H600v800a600 600 0 01-1200 0z"/>
    <path fill="red" stroke="#000" stroke-width="5" fill-rule="evenodd"
          d="M-575-675H575v775a575 575 0 01-1150 0zm230 230h690v545a345 345 0 01-690 0z"/>

    <g id="escudete">
        <path fill="#039" d="M-75-95H75V20a75 75 0 01-150 0z"/>
        <g transform="translate(0 -15)">
            <circle id="dot" r="15" fill="#fff"/>
            <use x="-40" y="-40" xlink:href="#dot"/>
            <use x="-40" y="40" xlink:href="#dot"/>
            <use x="40" y="-40" xlink:href="#dot"/>
            <use x="40" y="40" xlink:href="#dot"/>
        </g>
    </g>

    <use y="-280" xlink:href="#escudete"/>
    <use y="280" xlink:href="#escudete"/>
    <use x="-210" xlink:href="#escudete"/>
    <use x="210" xlink:href="#escudete"/>
    <use y="-560" xlink:href="#cast"/>
    <use x="-465" y="-560" xlink:href="#cast"/>
    <use x="465" y="-560" xlink:href="#cast"/>
    <use x="-465" y="-92" xlink:href="#cast"/>
    <use x="465" y="-92" xlink:href="#cast"/>
    <use transform="rotate(-45 297.4 623.82)" xlink:href="#cast"/>
    <use transform="rotate(45 -297.4 623.82)" xlink:href="#cast"/>
</svg>