<svg xmlns="http://www.w3.org/2000/svg" xmlns:xlink="http://www.w3.org/1999/xlink" width="1406" height="1206" viewBox="-603.25 -703.25 1206.25 1406.25">
    <pattern id="k" fill="#ff0" stroke="#000" stroke-width="5" width="465" height="560" patternUnits="userSpaceOnUse">
        <path id="c" d="M0-9l-80 0A1 1 0 00-80 4l80 0-77 0A1 1 0 00-77 18l77 0-77 0-8 66 85 0-85 0A1 1 0 00-85 100l85 0
        M0 40A36 43 0 00-24 84M0 18A63 65 0 00-42 84 M-76-9H-34L-35-44H-75ZM-82-70H-70V-61H-61V-70H-49V-61H-40V-70H-28V-50A5 6 0 01-33-44H-77A5 6 0 01-82-50Z
        M0-9-21-9-19-74 0-74-22-74A5 6 0 01-27-80L-27-100-15-100-15-91-6-91-6-100 0-100"/>
        <use xlink:href="#c" transform="scale(-1,1)"/>
        <path d="M51-19h8v-13a4 4 0 00-8 0zM-4-39h8v-13a4 4 0 00-8 0zm-55 20h8v-13a4 4 0 00-8 0z" fill="#000"/>
    </pattern>

    <path stroke="#000" fill="#fff" stroke-width="6.5" d="M-600-700H600v800a600 600 0 01-1200 0z"/>
    <path stroke="#000" fill="red" stroke-width="5" d="M-575-675H575V100A575 575 0 01-575 100ZM345 100 345-447-345-445V100A1 1 0 00345 100Z"/>
    <path fill="url(#k)" d="M-598 236V-660H598V230H168V-161H-183V236"/>
    <pattern id="e" fill="#039" width="210" height="280" patternUnits="userSpaceOnUse">
        <path d="M-75-95H75V20A75 75 0 01-75 20ZM0 0A1 1 0 000-30 1 1 0 000 0M40-40a1 1 0 000-30 1 1 0 000 30
        m-80 0a1 1 0 000-30 1 1 0 000 30m0 80a1 1 0 000-30 1 1 0 000 30m80 0a1 1 0 000-30 1 1 0 000 30"/>
    </pattern>
    <path fill="url(#e)" d="M-300-170H-100V-400H100V-170H300V170H100V400H-100V170H-300Z"/>

<!--    <use y="-560" xlink:href="#k"/>-->
<!--    <use x="-465" y="-560" xlink:href="#k"/>-->
<!--    <use x="465" y="-560" xlink:href="#k"/>-->
<!--    <use x="-465" y="-92" xlink:href="#k"/>-->
<!--    <use x="465" y="-92" xlink:href="#k"/>-->
<!--    <use transform="rotate(-45 297.4 623.82)" xlink:href="#k"/>-->
<!--    <use transform="rotate(45 -297.4 623.82)" xlink:href="#k"/>-->
</svg>