<svg xmlns="http://www.w3.org/2000/svg" xmlns:xlink="http://www.w3.org/1999/xlink" width="1200" height="600" fill="#fff">
    <clipPath id="a"><path d="M0 0v150h700v150H600zm600 0H300v350H0v-50z"/></clipPath>
    <path fill="#012169" d="M0 0h1200v600H0z"/>
    <path stroke="#fff" stroke-width="60" d="m0 0 600 300m0-300L0 300"/>
    <path stroke="#c8102e" stroke-width="40" d="m0 0 600 300m0-300L0 300" clip-path="url(#a)"/>
    <path stroke="#fff" stroke-width="100" d="M300 0v350M0 150h700"/>
    <path stroke="#c8102e" stroke-width="60" d="M300 0v350M0 150h700"/>
    <path fill="#012169" d="M0 300h600V0h200v400H0z"/>
    <g transform="translate(900 230)">
        <path fill="#fff" stroke="#cc3" stroke-width="10" d="M-120-75c0 149 12 202 52 242 41 40 54 46 68 53 12-7 27-16 65-52 37-37 55-89 55-243-26 11-40 15-58 16-25-1-47-11-61-16-9 4-24 15-55 15-30 0-41-4-65-15z"/>
        <path id="d" fill="#f90" d="M-38 53c8.73-10.23 13.05-31.13 16.92-38.22 8.93 2.05 8.83 3.4 19.78-2.96C-16 7.84-17.11 8.19-18.8 1.72c6.17-19.16 40.07-23.06 51.95-15.78 12.28 7.06 4.47 8.6 21.28 20C56.87-4.4 44.97-8.96 43.19-16.7c2.53-5.97 13.84-4.75 20.08-11.54-3.9-5.65-16.12 1.42-21.47 2.34-19.17 4.09-45.37-16.2-61.48-9.78-5.78-4.15-6.97-10.6-6.74-19.3-12.55 10.6-6.27 21.57-9.12 26.8-7.4 12.75-16.83 25.5-11.83 42.25 3.8 12.71 6.63 10.2 5.44 20.16-1.2 6.44-.56 23.86 3.93 18.76z"/>
        <use xlink:href="#d" transform="rotate(120 1.62 37.6)"/>
        <use xlink:href="#d" transform="rotate(-120 -1.62 37.6)"/>
        <path fill="#9cf" d="M-85 139c11 25 60 70 85 78 25-11 70-60 85-78z"/>
        <circle cx="-40" cy="15" r="3"/>
        <circle cx="44" cy="15" r="3"/>
        <circle  cx="-5" cy="84" r="3"/>
    </g>
</svg>