<svg xmlns="http://www.w3.org/2000/svg" xmlns:xlink="http://www.w3.org/1999/xlink"
     width="980" height="700" viewBox="-490 -350 980 700">
    <path d="M-490-350h980v700h-980z" fill="red"/>
    <path id="a" d="m0 217 0-365c-5-4-12-12-16-17-1-1-1-2 1-3 2-1 3-1 6-1-6-6-11-8-23-11 4-2 9-2 14-1-3-5-10-12-20-16 6-4 8-5 14-10-11-1-21-3-29-6-7-3-14-5-18-5-8 0-19 2-19 8-19-4-21 4-20 12 2-3 4-5 6-5 7 0 11 3 15 8-6 2-12 1-17 0-10-2-11-6-15-10-4-5-9-3-7 3 4 10 21 12 28 12 6 0 11-1 15 0-2 3-3 3-9 4-9 1-13-2-15-3 0 3 6 7 13 8 14 3 25 5 34 10 12 7 23 20 24 30 1 14-3 21-12 24-10 2-22-6-19-23 2-15-5-18-23-27-9-4-16-7-23-10-5-2-7 3-9 6-23-3-44-20-53-36-6-12-18 0-15 12 3 11 11 19 23 26 11 6 25 12 39 12 8 1 7 13-2 14-18 0-32-1-45-14-10-10-16 1-14 8 6 20 34 26 59 20 15-4 8 7 3 10-11 8-32 17-50 0-9-7-15-2-12 7 8 24 40 21 61 9 5-3 11 4 5 9-27 19-40 19-52 13-16-7-17 11-8 16 10 6 35 2 53-10 10-7 9 3 4 7-21 19-31 25-51 22-15-2-14 13-5 19 12 7 37-6 55-21 8-5 9 3 5 11-11 15-22 23-32 27-12 5-19 4-28 1-6-2-9 10-5 14 5 5 15 7 27 3 14-5 27-16 36-28 8-8 8 2 4 9-19 31-37 41-58 39-10-2-13 7-6 15 10 8 26 8 37-1 11-11 32-34 43-46 8-7 11-1 8 12-2 8-7 15-21 21-10 5-3 13 5 13 4 0 10-3 18-11 8-10 8-16 13-30 4-8 12-5 11 3-3 15-6 17-13 23-7 6 4 9 8 7 12-8 16-18 20-28 3-7 11-4 7 8-9 26-23 36-50 42-4 1-4 3-2 5 4 4 6 6 10 11 0 0-29 7-45 12l-22-15c2-6-8-12-15-7-9-4-12-2-16 4 7-3 9-2 12 2 2 7 10 11 17 7l16 12-28-1c-2-8-15-8-19-1-6 0-9 2-10 10 5-5 7-5 10-3 4 5 14 6 17-1l28 1-16 9c-9-5-21 3-18 11-5 4-5 8-2 15 1-5 3-9 7-12 8 3 16 0 16-8l22-13 22 9c-1 5 8 10 15 7 6 0 7 4 7 9 4-6 3-11-3-15 0-7-8-11-15-7l-18-7c16-5 42-10 46-10 5 4 7 6 12 10 2 2 5 1 8-3 10-15 20-43 35-47 6-1 12 3 10 15-2 19-15 33-32 45-9 6-13 3-21 3-10 1-12 7-5 12 8 5 14 5 19 4 7-2 10-6 14-10 5-5 12 1 7 7-9 10-17 17-28 17-12 1-9 8-2 11 14 6 26-5 32-12 5-5 9-5 7 3-4 15-11 21-22 21-8 0-9 6-2 11 14 10 25-7 30-18 3-9 9-4 9 3 0 11-7 21-13 27-7 6 26 39 26 39zm-70-422c5 0 8 2 8 4 0 2-3 4-8 4-6 0-9-2-9-4 0-2 3-4 9-4z" />
    <use xlink:href="#a" transform="scale(-1,1)"/>
</svg>