<svg xmlns="http://www.w3.org/2000/svg" width="980" height="700">
    <path d="M980 0H0v700h980z" fill="red"/>
    <g transform="translate(490,350)">
        <path d="m26.51 178.996c-6.15-5.332-13.605-16.13-13.5-26.538c.55-7.761 5.873-12.27 9.312-2.796c4.862 10.457 15.29 27.749 29.66 17.605c6.278-4.608 6.18-11.392-2.428-10.614c-10.63-.728-17.16-6.577-21.917-21.636c-.865-8.282 2.58-8.075 7.387-2.747c6.18 7.09 18.478 17.806 32.046 12.063c7.54-3.16 9.668-9.68-1.723-11.285c-10.784.157-19.587-6.834-28.35-17.498c-4.805-5.9 2.282-11.856 6.537-6.834c3.795 3.26 9.11 9.266 13.665 10.094c5.267 1.034 11.796.52 19.03-3.31c7.798-6.527 5.266-11.236-4.2-12.32c-7.338.364-11.335 3.153-20.8-3.16c-17.014-11.5-30.54-26.865-32.653-45.347c-1.388-12.156 5.148-15.837 10.582-14.438c14.78 3.802 24.449 31.422 34.675 46.595c3.348 4.373 6.424 4.444 8.6 3.096c4.102-3.517 7.378-6.408 11.48-10.34c0 0 30.085 5.406 46.468 10.746l-18.242 6.483c-6.907-3.814-15.243.298-15.243 6.915c-6.536 4.52-6.01 9.819-3.19 14.933c.86-3.561 1.594-8.186 6.757-8.801c7.369 3.048 15.955-1.302 15.955-7.057l21.519-8.458 21.74 12.308c0 8.32 7.883 10.956 16.085 8.71c3.865 2.4 6.35 6.564 7.659 11.017c2.42-6.422 1.915-10.956-1.875-14.107c2.175-8.303-9.46-16.287-18.467-10.97l-15.64-8.98 26.77-.75c3.107 5.5 14.337 5.803 17.613 0c2.8-.767 5.166-1.255 10.625 2.803c-1.72-6.566-5.068-9.373-10.09-9.373c-3.816-6.761-17.626-6.73-19.62.882l-27.881.775 16.543-11.778c6.175 3.646 14.84-.407 16.575-7.03c2.462-2.927 5.498-4.302 11.474-2.316c-3.08-5.455-7.42-7.083-15.258-3.38c-7.15-5.418-16.574 1.153-15.144 6.608l-22.01 14.975c-15.976-4.767-44.91-12.19-44.91-12.19c3.445-3.624 6.94-6.991 10.379-10.665c1.242-2.152-.656-4.658-3.293-5.18c-25.816-5.328-40.597-15.735-49.553-42.186c-3.746-11.078 4.353-14.388 7.136-7.612c3.85 9.424 8.098 19.724 19.69 27.7c3.998 2.796 15.899.513 8.86-6.164c-7.29-6.006-10.428-8.588-14.02-23.19c0-7.398 7.54-10.715 11.746-3.624c4.5 14.545 4.96 20.808 13.107 30.18c6.173 7.092 14.223 11.857 18.22 11.75c7.192-.1 14.432-7.87 4.813-13.511c-14.125-5.642-19.287-13.353-21.366-20.708c-2.274-12.833.21-19.046 7.952-12.733c10.98 12.476 31.94 35.717 42.92 46.538c12.305 9.424 26.423 9.73 37.66.157c6.432-7.404 4.15-15.372-5.921-13.667c-22.726 1.918-39.935-9.367-58.817-39.862c-3.697-6.884-4.71-16.771 3.445-9.416c9.41 12.733 23.13 23.554 35.89 28.212c12.806 4.602 23.38 2.06 27.481-1.968c4.943-4.942 3.643-17.392-4.91-14.39c-7.038 2.484-16.957 3.104-27.28-.883c-10.331-4.038-21.06-12.733-32.45-27.485c-3.9-8.332-2.63-15.373 5.265-11.08c18.68 15.845 42.775 28.678 55.072 20.967c9.062-5.643 9.215-20.138-2.274-19.204c-23.137 3.153-31.891-1.968-54.115-21.585c-5.058-3.781-4.708-13.361 3.34-7.248c18.68 12.063 44.19 16.77 54.214 10.458c9.013-5.643 7.694-22.885-7.491-16.778c-12.151 7.404-25.565 7.197-52.442-12.006c-6.78-5.642-1.723-12.997 3.844-9.837c21.617 12.32 53.104 17.598 61.3-7.454c3.188-9.574-2.58-15.166-11.035-8.54c-18.576 17.185-39.635 8.746-51.423.1c-3.376-1.99-9.57-12.062 1.31-10.193c28.147 6.42 55.986.828 61.05-19.103c2.937-6.47-2.84-17.912-13.113-8.332c-13.512 13.354-27.84 13.817-45.857 13.717c-9.166-1.918-9.263-12.012-1.57-13.51c14.223.306 28.244-5.907 39.482-12.22c10.986-6.313 20.096-15.166 22.984-27.435c1.77-10.972-8.81-22.62-15.186-10.972c-9.417 17.028-30.273 33.078-53.46 35.975c-1.207-2.02-4.248-7.198-7.994-5.743c-6.808 2.64-14.92 6.172-23.272 10.139c-18.004 8.549-25.507 12.669-23.345 27.44c2.257 15.413-9.626 25.153-19.44 22.463c-8.56-2.304-13.282-10.036-11.748-23.447c1.229-10.686 11.957-23.612 24.046-30.39c7.826-4.38 19.642-6.776 33.865-9.936c8.656-1.705 13.065-5.072 13.568-8.596c0 0-5.917 4.33-15.388 3.68c-4.478-.32-7.478-2.29-8.608-4.3c3.293-.67 9.264.107 14.628.107c7.135-.057 23.702-1.655 28.097-11.7c1.367-6.626-2.987-7.817-7.038-3.573c-4.353 4.587-6.146 8.71-14.88 10.25c-5.314.935-10.63 2.02-17.466.365c3.85-4.573 9.968-9.252 15.186-8.39c1.716.286 3.997 1.87 5.824 4.716c1.116-7.248-.865-15.43-20.25-12.013c.308-5.485-11.238-7.868-18.17-7.761c-3.948.1-11.998 2.433-17.816 5.222c-9.214 2.853-18.324 4.922-29.06 5.7c6.23 5.328 7.395 5.642 13.616 10.143c-9.41 3.517-16.7 10.765-19.991 15.53c0 0 10.986-.307 13.77.934c-11.496 3.36-16.659 5.379-22.733 11.592c2.127.364 5.314.984 6.682 1.505c1.423.514 1.053 1.448-.098 2.326c-2.476 1.89-12.708 13.774-15.694 16.62c-2.986-2.846-13.218-14.73-15.694-16.62c-1.151-.878-1.521-1.812-.098-2.326c1.367-.52 4.555-1.141 6.682-1.505c-6.075-6.213-11.237-8.232-22.733-11.592c2.784-1.241 13.77-.934 13.77-.934c-3.293-4.765-10.582-12.013-19.992-15.53c6.222-4.501 7.387-4.815 13.616-10.144c-10.735-.777-19.845-2.846-29.06-5.7c-5.817-2.788-13.867-5.121-17.815-5.221c-6.933-.107-18.478 2.276-18.17 7.76c-19.385-3.416-21.366 4.766-20.25 12.014c1.827-2.846 4.108-4.43 5.824-4.715c5.218-.863 11.335 3.816 15.186 8.389c-6.836 1.655-12.152.57-17.467-.364c-8.733-1.54-10.526-5.664-14.88-10.25c-4.051-4.245-8.404-3.054-7.037 3.573c4.395 10.044 20.96 11.642 28.097 11.699c5.364 0 11.335-.778 14.628-.107c-1.13 2.012-4.13 3.98-8.608 4.3c-9.472.65-15.388-3.68-15.388-3.68c.503 3.524 4.91 6.89 13.568 8.596c14.223 3.16 26.039 5.557 33.865 9.937c12.089 6.777 22.817 19.703 24.045 30.389c1.534 13.41-3.188 21.143-11.747 23.447c-9.814 2.69-21.697-7.05-19.44-22.463c2.162-14.771-5.341-18.891-23.345-27.44c-8.352-3.967-16.464-7.5-23.272-10.14c-3.746-1.454-6.787 3.725-7.994 5.744c-23.187-2.897-44.043-18.947-53.46-35.975c-6.376-11.648-16.957 0-15.186 10.972c2.888 12.27 11.998 21.122 22.984 27.435c11.238 6.313 25.259 12.526 39.482 12.22c7.693 1.498 7.596 11.592-1.57 13.51c-18.018.1-32.345-.363-45.857-13.717c-10.274-9.58-16.05 1.862-13.113 8.332c5.064 19.93 32.903 25.523 61.049 19.103c10.88-1.87 4.687 8.204 1.31 10.194c-11.787 8.645-32.846 17.084-51.422-.1c-8.454-6.627-14.224-1.035-11.035 8.539c8.196 25.052 39.683 19.774 61.3 7.454c5.567-3.16 10.624 4.195 3.844 9.837c-26.877 19.203-40.29 19.41-52.442 12.006c-15.185-6.107-16.504 11.135-7.491 16.778c10.023 6.313 35.533 1.605 54.213-10.458c8.05-6.113 8.398 3.467 3.34 7.248c-22.223 19.617-30.977 24.738-54.114 21.585c-11.49-.934-11.336 13.56-2.274 19.204c12.297 7.71 36.39-5.122 55.07-20.966c7.897-4.294 9.166 2.747 5.267 11.079c-11.39 14.752-22.12 23.447-32.45 27.485c-10.323 3.987-20.242 3.367-27.28.884c-8.553-3.003-9.853 9.447-4.911 14.389c4.103 4.028 14.676 6.57 27.483 1.968c12.758-4.658 26.479-15.48 35.889-28.212c8.154-7.355 7.142 2.532 3.445 9.416c-18.882 30.495-36.09 41.78-58.817 39.862c-10.072-1.705-12.353 6.263-5.922 13.667c11.238 9.573 25.356 9.267 37.66-.157c10.98-10.821 31.94-34.062 42.92-46.538c7.743-6.313 10.227-.1 7.953 12.733c-2.08 7.355-7.24 15.066-21.366 20.708c-9.62 5.643-2.38 13.41 4.813 13.51c3.997.108 12.047-4.657 18.22-11.748c8.147-9.373 8.608-15.636 13.107-30.181c4.206-7.091 11.746-3.774 11.746 3.623c-3.592 14.603-6.731 17.185-14.02 23.19c-7.04 6.678 4.862 8.96 8.859 6.165c11.593-7.976 15.84-18.276 19.69-27.7c2.784-6.776 10.883-3.466 7.137 7.612c-8.956 26.45-23.737 36.858-49.553 42.187c-2.637.52-4.535 3.027-3.294 5.179c3.44 3.674 6.935 7.04 10.38 10.665c0 0-28.935 7.423-44.911 12.19l-22.01-14.975c1.43-5.455-7.993-12.026-15.144-6.61c-7.839-3.701-12.178-2.073-15.258 3.382c5.976-1.986 9.012-.611 11.474 2.315c1.735 6.624 10.4 10.677 16.575 7.03l16.543 11.78-27.88-.776c-1.995-7.611-15.805-7.643-19.622-.882c-5.02 0-8.37 2.807-10.09 9.373c5.46-4.058 7.827-3.57 10.626-2.803c3.276 5.803 14.506 5.5 17.612 0l26.771.75-15.64 8.98c-9.007-5.317-20.642 2.667-18.467 10.97c-3.79 3.15-4.296 7.685-1.875 14.107c1.308-4.453 3.794-8.617 7.66-11.018c8.2 2.247 16.084-.388 16.084-8.71l21.74-12.307 21.52 8.458c0 5.755 8.585 10.105 15.954 7.057c5.163.615 5.897 5.24 6.757 8.8c2.82-5.113 3.346-10.412-3.19-14.932c0-6.617-8.336-10.73-15.243-6.915l-18.242-6.483c16.383-5.34 46.469-10.745 46.469-10.745c4.101 3.93 7.377 6.822 11.48 10.34c2.176 1.347 5.252 1.276 8.6-3.097c10.226-15.173 19.894-42.793 34.675-46.595c5.434-1.4 11.97 2.282 10.582 14.438c-2.114 18.482-15.64 33.848-32.652 45.347c-9.466 6.313-13.463 3.524-20.801 3.16c-9.466 1.084-11.998 5.793-4.2 12.32c7.234 3.83 13.763 4.344 19.03 3.31c4.555-.828 9.87-6.834 13.665-10.094c4.255-5.022 11.342.934 6.536 6.834c-8.762 10.664-17.565 17.655-28.35 17.498c-11.39 1.605-9.262 8.125-1.722 11.285c13.568 5.743 25.865-4.972 32.046-12.063c4.806-5.328 8.252-5.535 7.387 2.747c-4.758 15.059-11.287 20.908-21.917 21.636c-8.608-.778-8.706 6.006-2.428 10.614c14.37 10.144 24.798-7.148 29.66-17.605c3.439-9.473 8.76-4.965 9.312 2.796c.105 10.408-7.35 21.206-13.5 26.538c-6.148 5.334 26.508 39.236 26.508 39.236s32.657-33.904 26.509-39.237zm43.763-383.94c-5.083 0-8.223 1.78-8.223 3.94c0 2.194 3.14 3.982 8.223 3.982c5.053 0 8.262-1.95 8.262-4.147c0-2.16-3.21-3.776-8.262-3.776zm-140.544 0c5.083 0 8.223 1.78 8.223 3.94c0 2.194-3.14 3.982-8.223 3.982c-5.053 0-8.262-1.95-8.262-4.147c0-2.16 3.21-3.776 8.262-3.776z" fill-rule="evenodd"/>
    </g>
</svg>