<svg xmlns="http://www.w3.org/2000/svg" xmlns:xlink="http://www.w3.org/1999/xlink" width="1800" height="900" fill="#fff" viewBox="0 0 960 480">
    <clipPath id="b">
        <path d="M0 0v30h60V0Z"/>
    </clipPath>
    <clipPath id="a">
        <path d="M30 15h30v15Zv15H0ZH0V0ZV0h30Z"/>
    </clipPath>
    <path id="S" d="m0-100 18 64 60-26L39-9l59 31-67 3 13 65L0 40l-44 50 13-65-67-3 59-31-39-53 60 26Z"/>
    <use xlink:href="#S" id="d" transform="scale(.72)"/>
    <use xlink:href="#S" id="e" transform="scale(.34286)"/>
    <path fill="#012169" d="M0 0h920v480H0z"/>
    <g clip-path="url(#b)" transform="scale(8)">
        <path stroke="#fff" stroke-width="6" d="m0 0 60 30m0-30L0 30"/>
        <path stroke="#C8102E" stroke-width="4" d="m0 0 60 30m0-30L0 30" clip-path="url(#a)"/>
        <path fill="#fff" d="M25 0v10H0v10h25v12h10V20h25V10H35V0z"/>
        <path fill="#C8102E" d="M27 0v12H0v6h27v12h6V18h27v-6H33V0z"/>
    </g>
    <use xlink:href="#d" x="240" y="360"/>
    <use xlink:href="#e" x="720" y="80"/>
    <use xlink:href="#e" x="720" y="400"/>
    <use xlink:href="#e" x="600" y="210"/>
    <use xlink:href="#e" x="826.6" y="178"/>
    <path d="m768 235 15 45-39-28h48l-39 28"/>
</svg>