<svg xmlns="http://www.w3.org/2000/svg" xmlns:xlink="http://www.w3.org/1999/xlink"
     width="720" height="504" fill="#009b3a" viewBox="-2100 -1470 4200 2940">
    <defs>
        <path id="O" fill-rule="evenodd" d="M0 0a31.5 35 0 0 0 0-70A31.5 35 0 0 0 0 0m0-13a18.5 22 0 0 0 0-44 18.5 22 0 0 0 0 44"/>
        <path id="D" fill-rule="evenodd" d="M-31.5 0h33a30 30 0 0 0 30-30v-10a30 30 0 0 0-30-30h-33zm13-13h19a19 19 0 0 0 19-19v-6a19 19 0 0 0-19-19h-19z"/>
        <path id="E" d="M0 0h63v-13H12v-18h40v-12H12v-14h48v-13H0z" transform="translate(-31.5)"/>
        <path id="M" d="M-31.5 0h12v-48l14 48h11l14-48V0h12v-70H14L0-22l-14-48h-17.5z"/>
        <path id="e" d="M-26.25 0h52.5v-12h-40.5v-16h33v-12h-33v-11H25v-12h-51.25z"/>
        <path id="P" fill-rule="evenodd" d="M-31.5 0h13v-26h28a22 22 0 0 0 0-44h-40zm13-39h27a9 9 0 0 0 0-18h-27z"/>
        <path id="S" d="M-15.75-22C-15.75-15-9-11.5 1-11.5s14.74-3.25 14.75-7.75c0-14.25-46.75-5.25-46.5-30.25C-30.5-71-6-70 3-70s26 4 25.75 21.25H13.5c0-7.5-7-10.25-15-10.25-7.75 0-13.25 1.25-13.25 8.5-.25 11.75 46.25 4 46.25 28.75C31.5-3.5 13.5 0 0 0c-11.5 0-31.55-4.5-31.5-22z"/>
        <g id="R"><use xlink:href="#P"/><path d="M28 0c0-10 0-32-15-32H-6c22 0 22 22 22 32"/></g>
        <g id="G"><clipPath id="gcut"><path d="M-31.5 0v-70h63V0zM0-47v12h31.5v-12z"/></clipPath><use xlink:href="#O" clip-path="url(#gcut)"/><path d="M5-35h26.5v10H5z"/><path d="M21.5-35h10V0h-10z"/></g>
        <path id="s" fill="#fff" d="m0-25 15 45-39-28h48l-39 28"/>
        <use xlink:href="#s" id="s1" transform="scale(1.26)"/>
        <use xlink:href="#s" id="s2" transform="scale(1.05)"/>
        <use xlink:href="#s" id="s3" transform="scale(.84)"/>
        <use xlink:href="#s" id="s4" transform="scale(.6)"/>
        <use xlink:href="#s" id="s5" transform="scale(.42)"/>
        <clipPath id="z"><circle r="735"/></clipPath>
    </defs>
    <path d="M-2100 -1470h4200v2940h-4200z"/>
    <path fill="#fedf00" d="M-1743 0 0 1113 1743 0 0-1113z"/>
    <circle r="735" fill="#002776"/>
    <circle cx="-425" cy="1470" r="1725" fill="none" stroke="#fff" stroke-width="100" clip-path="url(#z)"/>
    <g transform="translate(-420 1470)">
        <use xlink:href="#O" y="-1697.5" transform="rotate(-7)"/>
        <use xlink:href="#R" y="-1697.5" transform="rotate(-4)"/>
        <use xlink:href="#D" y="-1697.5" transform="rotate(-1)"/>
        <use xlink:href="#E" y="-1697.5" transform="rotate(2)"/>
        <use xlink:href="#M" y="-1697.5" transform="rotate(5)"/>
        <use xlink:href="#e" y="-1697.5" transform="rotate(9.75)"/>
        <use xlink:href="#P" y="-1697.5" transform="rotate(14.5)"/>
        <use xlink:href="#R" y="-1697.5" transform="rotate(17.5)"/>
        <use xlink:href="#O" y="-1697.5" transform="rotate(20.5)"/>
        <use xlink:href="#G" y="-1697.5" transform="rotate(23.5)"/>
        <use xlink:href="#R" y="-1697.5" transform="rotate(26.5)"/>
        <use xlink:href="#E" y="-1697.5" transform="rotate(29.5)"/>
        <use xlink:href="#S" y="-1697.5" transform="rotate(32.5)"/>
        <use xlink:href="#S" y="-1697.5" transform="rotate(35.5)"/>
        <use xlink:href="#O" y="-1697.5" transform="rotate(38.5)"/>
    </g>
    <use xlink:href="#s1" id="αCMi" x="-600" y="-132"/>
    <use xlink:href="#s1" id="αCMa" x="-535" y="177"/>
    <use xlink:href="#s2" id="βCMa" x="-625" y="243"/>
    <use xlink:href="#s4" id="γCMa" x="-463" y="132"/>
    <use xlink:href="#s2" id="δCMa" x="-382" y="250"/>
    <use xlink:href="#s3" id="εCMa" x="-404" y="323"/>
    <use xlink:href="#s1" id="αVir" x="228" y="-228"/>
    <use xlink:href="#s1" id="αSco" x="515" y="258"/>
    <use xlink:href="#s3" id="βSco" x="617" y="265"/>
    <use xlink:href="#s2" id="εSco" x="545" y="323"/>
    <use xlink:href="#s2" id="θSco" x="368" y="477"/>
    <use xlink:href="#s3" id="ιSco" x="367" y="551"/>
    <use xlink:href="#s3" id="κSco" x="441" y="419"/>
    <use xlink:href="#s2" id="λSco" x="500" y="382"/>
    <use xlink:href="#s3" id="μSco" x="365" y="405"/>
    <use xlink:href="#s2" id="αHya" x="-280" y="30"/>
    <use xlink:href="#s3" id="γHya" x="200" y="-37"/>
    <use xlink:href="#s1" id="αCru" y="330"/>
    <use xlink:href="#s2" id="βCru" x="85" y="184"/>
    <use xlink:href="#s2" id="γCru" y="118"/>
    <use xlink:href="#s3" id="δCru" x="-74" y="184"/>
    <use xlink:href="#s4" id="εCru" x="-37" y="235"/>
    <use xlink:href="#s2" id="αTrA" x="220" y="495"/>
    <use xlink:href="#s3" id="βTrA" x="283" y="430"/>
    <use xlink:href="#s3" id="γTrA" x="162" y="412"/>
    <use xlink:href="#s1" id="αCar" x="-295" y="390"/>
    <use xlink:href="#s5" id="σOct" y="575"/>
</svg>