<svg xmlns="http://www.w3.org/2000/svg" xmlns:xlink="http://www.w3.org/1999/xlink"
     width="1200" height="600" viewBox="0 0 9600 4800" fill="#fff">
    <path fill="#d52b1e" d="M0 0h9600v4800H0z"/>
    <path id="a" d="m2400 0h2400v4800h-2400zm2400 4430 0-4030-332 652a65 65 0 01-91 27l-327-189 204 1052a65 65 0 01-111 57l-423-454-105 247a65 65 0 01-73 38l-542-115 186 572a65 65 0 01-34 79l-212 99 941 762a65 65 0 0120 73l-116 320 859-151a95 95 0 01111 98l-45 863z"/>
    <use xlink:href="#a" transform="scale(-1,1)translate(-9600,0)"/>
</svg>
