<svg xmlns="http://www.w3.org/2000/svg" width="400" height="200">
    <g fill-rule="evenodd">
        <path d="M0 0H400V100z" fill="#0bac24"/>
        <path d="M0 0L400 100L0 200" fill="#eb0433" />
        <path d="M86.955 50.911c-3.206.777-6.448 3.554-8.362 7.161-.764 1.44-1.993 1.754-1.993.51 0-1.455 1.088-2.906 3.4-4.536 2.584-1.82 2.743-2.149 1.142-2.349-2.858-.358-5.83 1.002-8.971 4.102-3.074 3.035-3.771 4.62-3.771 8.576 0 2.227-.018 2.322-.537 2.864-1.847 1.928-2.025-2.355-.277-6.639.781-1.913.794-1.867-.403-1.412-2.676 1.017-5.189 3.093-6.032 4.982-1.214 2.724-2.102 7.95-1.76 10.367.157 1.107.334 1.575 1.302 3.422.673 1.285-.118 2.196-1.033 1.191-.374-.41-.706-1.501-1.292-4.25-.206-.966-.109-4.121.166-5.392l.129-.591-.83.657c-2.109 1.67-4.514 5.438-5.122 8.026-1.088 4.632.823 11.612 4.028 14.714 1.478 1.43 1.887 2.286 1.091 2.286-1.357 0-3.509-2.838-5.452-7.19-1.143-2.559-1.209-2.588-1.744-.766-1.555 5.296-1.538 9.169.06 13.103 1.461 3.599 6.108 9.199 9.169 11.05 1.06.641 1.609 1.398 1.265 1.742-.192.192-2.466-.655-3.699-1.377-1.621-.95-4.718-4.14-6.029-6.211-1.283-2.026-1.4-2.088-1.4-.75 0 5.893 2.256 11.327 6.385 15.378 5.115 5.018 8.103 6.62 14.113 7.567 1.698.267 1.462.772-.438.934-3.416.292-9.485-.936-12.599-2.548-.85-.44-.945-.19-.416 1.096 4.701 11.411 18.433 16.826 37.131 14.642 1.453-.17 1.426-.135-2.276 2.93-1.76 1.458-3.218 2.752-3.241 2.875-.035.195 2.506 2.54 2.898 2.674.078.027 1.673-1.389 3.543-3.147 3.971-3.733 3.732-3.622 3.558-1.652-.243 2.745-.373 2.475 1.5 3.125 1.968.683 1.82.776 1.974-1.23.186-2.403.111-2.412 3.055.373 3.071 2.906 2.636 2.777 4.401 1.306 1.809-1.507 1.938-1.208-1.874-4.332-1.807-1.481-3.292-2.764-3.3-2.853-.008-.088.999-.088 2.236 0 18.864 1.348 29.954-2.821 35.223-13.239.5-.99.97-2.053 1.043-2.363l.134-.563-.775.336c-5.211 2.261-14.175 3.582-14.175 2.09 0-.211.328-.348 1.1-.462 5.312-.784 8.212-2.222 12.672-6.28 5.291-4.815 7.272-8.919 7.653-15.855l.115-2.103-1.248 1.86c-2.365 3.522-5.143 6.059-7.946 7.255-2.847 1.215-2.912.159-.097-1.6 2.162-1.351 6.699-6.74 8.233-9.78 1.913-3.789 2.017-9.494.267-14.605-.418-1.221-.512-1.177-1.237.57-1.907 4.597-4.392 8-5.842 8-.788 0-.38-.841 1.103-2.275 1.743-1.686 2.668-3.422 3.577-6.717 1.73-6.273.517-10.927-4.014-15.4-1.36-1.342-1.607-1.356-1.25-.07.827 2.976-.559 9.462-2.021 9.462-.578 0-.49-1.419.147-2.383 1.397-2.111 1.402-5.176.017-10.473-1.025-3.921-3.208-6.261-7.136-7.647-.982-.346-.993-.565.12 2.303 1.47 3.785 1.064 7.756-.592 5.789-.477-.568-.506-.714-.403-2.05.374-4.824-2.81-9.891-7.737-12.316-2.178-1.072-6.181-1.652-6.181-.895 0 .374.575.944 1.84 1.823 2.685 1.867 3.76 3.219 3.76 4.729 0 1.155-1.261 1.124-1.792-.044-2.066-4.539-6.745-7.844-11.09-7.833-2.205.006-2.225.739-.049 1.768 1.313.62 2.242 1.506 2.451 2.336.235.936-.048.915-1.091-.08-2.301-2.194-5.909-3.271-8.129-2.427l-.526.2.454.808c.935 1.662 2.83 2.566 6.472 3.084 2.843.405 3.518.742 1.883.938-2.262.272-3.237.196-4.225-.33-2.084-1.109-2.088-.33-.008 1.702 2.447 2.391 4.544 3.183 7.642 2.885 3.48-.335 6.614-.224 7.544.266 1.152.607 1.244.847.326.847-.419 0-1.527.135-2.462.3-.935.165-2.212.3-2.838.3-1.51 0-1.532.113-.364 1.859C118.985 67.73 121.733 70 123.18 70c.279 0 .533.311.887 1.084 2.218 4.845 6.028 7.718 10.668 8.044 2.137.15 2.17.178 2.891 2.437l.34 1.064-.78-.131c-.43-.073-1.491-.16-2.36-.195-2.057-.081-5.212-2.004-5.229-3.188-.002-.118-.082-.091-.178.06-.188.298-.111 1.395.199 2.825.887 4.089 4.307 8.377 9.332 11.7l1.45.959v.957c0 .527-.087 1.187-.194 1.467l-.193.509-1.463-1.046c-.804-.575-1.909-1.271-2.456-1.545-1.488-.748-3.005-2.342-3.355-3.524l-.289-.977-.228.835c-1.572 5.735-.078 13.069 3.696 18.153.97 1.306 1.028 1.575.572 2.666-.604 1.446-1.49 2.064-1.49 1.039 0-.793-.4-1.414-1.926-2.993-1.651-1.708-1.945-2.4-2.636-6.2l-.164-.9-.534 1.037c-2.613 5.077-3.978 12.4-3.523 18.903.242 3.472.269 3.401-1.877 5.079-1.436 1.124-1.743 1.234-1.341.482.648-1.21.797-2.363.749-5.818-.051-3.689.219-5.136 1.284-6.882.663-1.088.326-1.187-1.289-.379-3.701 1.851-7.168 5.859-10.18 11.767-2.862 5.613-5.29 8.392-8.993 10.29-1.997 1.024-1.997 1.024-1.848-1.341.151-2.407-.215-8.731-.646-11.138a62.261 62.261 0 01-.349-2.081c-.015-.155.783-.828 1.773-1.497.99-.669 2.416-1.833 3.17-2.588l1.369-1.371 1.144.513c5.513 2.474 9.91.503 12.485-5.598.621-1.471.556-1.535-.535-.53-1.07.986-1.397 1.161-2.483 1.327-1.077.164-1.08.172.347-1.188 1.648-1.573 2.335-2.71 2.589-4.287.115-.715.3-1.614.412-1.999.111-.384.202-.72.202-.746 0-.026-.593.279-1.319.677-1.226.675-1.481.735-3.662.875-2.46.157-4.021.622-4.736 1.411-1.895 2.094-.785-2.114 1.181-4.476l1.003-1.205-1.084.129c-1.271.151-3.056.771-3.658 1.27-2.714 2.249-3.482 4.355-3.252 8.922.174 3.448-.142 3.936-4.179 6.452-1.707 1.064-1.944 1.024-2.3-.383-.115-.455-.563-2.042-.996-3.527-1.139-3.908-1.652-8.788-1.309-12.452l.145-1.548.833-.002c1.076-.002 2.423-.651 4.514-2.174 2.071-1.508 2.411-1.535 4.901-.382 3.678 1.702 6.325.995 8.507-2.274.978-1.464 1.074-1.982.261-1.404-1.528 1.085-3.468 1.341-4.844.639-1.365-.696-1.277-.818.794-1.101 2.335-.318 5.037-2.246 5.985-4.269.588-1.256.519-1.351-.605-.841-1.133.514-2.191.513-3.205-.004-1.125-.575-3.132-.571-4.113.008-.392.231-.76.373-.818.315-.242-.243 1.127-2.025 1.994-2.594 1.158-.761 1.121-.947-.254-1.269-2.685-.628-4.667.499-5.964 3.389-.493 1.1-.712 1.852-1.136 3.917-.171.829-4.623 5.646-5.219 5.646-.815 0-.218-1.733 2.443-7.1 1.267-2.556 2.25-4.826 2.512-5.8.658-2.455.653-2.447 1.739-2.769 1.327-.394 2.531-1.019 3.821-1.983.967-.722 1.124-.779 1.5-.544 3.711 2.319 6.839 1.684 8.593-1.744.627-1.227.329-1.358-1.193-.523-1.831 1.004-4.08.708-4.08-.537 0-.769.293-.929 1.935-1.06 2.124-.169 3.319-.937 4.086-2.624.631-1.39.507-1.747-.421-1.216-.312.178-1.086.288-2.056.293-1.868.008-2.706.322-3.441 1.286-1.078 1.413-2.302.828-1.541-.736.226-.464.56-1.272.742-1.795.182-.524.506-1.046.719-1.16.666-.357.208-.638-.794-.488-2.619.393-3.649 2.045-3.792 6.081-.118 3.361-.872 4.473-3.539 5.22-1.166.326-1.324.161-1.059-1.101.74-3.519.116-10.34-1.243-13.573l-.584-1.392.713-.789c2.207-2.443 1.549-6.765-1.329-8.729-1.299-.886-1.296-.89-1.296 1.766 0 1.311-.07 2.453-.155 2.538-.385.385-3.136-2.857-3.626-4.274-.319-.921-.479-.931-1.061-.067-.659.977-.61 2.467.152 4.62.331.935.657 1.865.724 2.068.164.495-1.675-.417-2.575-1.277-.821-.784-.835-.773-.695.567.331 3.171 1.969 4.43 5.773 4.438 1.858.003 2.15.05 2.242.354.843 2.777 1.296 11.329.75 14.15-.712 3.679-2.594 6.979-3.577 6.272-2.668-1.917-4.457-3.69-4.308-4.269.842-3.263-.689-6.995-3.954-9.638-1.601-1.296-1.69-1.232-.946.684.332.853.651 2.087.711 2.741l.108 1.19-.982-.701C89.275 76.175 88.755 76 87.183 76c-1.725 0-2.762-.474-3.509-1.604-.778-1.174-.952-1.026-.807.686.238 2.816 1.186 4.457 3.105 5.374 1.139.545 1.307 1.038.412 1.217-.987.198-2.768.15-3.209-.087-.715-.382.055.795 1.272 1.946 2.656 2.512 4.571 2.854 9.662 1.728.333-.074 3.97 2.54 5.741 4.125.082.074-.265.805-.771 1.625-3.536 5.724-4.938 12.824-3.818 19.34.332 1.935.181 2.071-1.194 1.076-2.165-1.569-2.746-2.899-2.688-6.158.086-4.862-1.237-7.289-4.899-8.992-2.312-1.075-3.655-1.256-2.657-.357.868.781 1.573 2.318 1.575 3.431.002 1.272-.045 1.28-1.012.181-.975-1.107-2.235-1.62-3.544-1.442-3.296.449-4.652.055-5.144-1.495-.312-.984-.552-.344-.427 1.138.3 3.549 2.532 5.976 6.148 6.688 1.35.265 1.459.51.566 1.262-1.121.943-2.832.574-5.416-1.166-1.365-.919-1.404-.719-.304 1.543 2.207 4.538 6.132 6.071 10.935 4.273a69.139 69.139 0 011.825-.664c.656-.205 6.711 6.042 7.667 7.909 1.389 2.714 2.779 11.727 2.677 17.357-.078 4.347-.031 4.209-1.313 3.863-4.871-1.317-8.461-4.708-11.784-11.129-3.378-6.526-6.435-10.134-10.214-12.054-1.813-.922-1.942-.857-1.271.636 1.015 2.256 1.218 3.524 1.163 7.262-.047 3.155-.019 3.456.402 4.369.544 1.178.48 1.295-.409.746-1.61-.995-2.79-2.557-2.632-3.483.958-5.619-.454-14.447-3.342-20.889-.617-1.376-.657-1.348-.926.663-.305 2.278-.967 3.664-2.521 5.275-1.435 1.487-1.922 2.306-1.922 3.232v.645l-.489-.459c-1.429-1.343-1.528-2.625-.328-4.269 3.443-4.719 5.023-11.756 3.838-17.098-.263-1.185-.621-1.848-.621-1.148 0 1.153-1.507 2.771-3.824 4.107-.812.468-1.955 1.207-2.541 1.642-1.26.936-1.212.96-1.366-.69l-.122-1.302.938-.677c6.345-4.574 8.883-7.74 10.019-12.496.635-2.659.448-2.887-1.076-1.32-1.475 1.517-2.248 1.861-4.378 1.95-.94.039-1.977.13-2.305.202l-.598.131.143-.771c.079-.425.368-1.186.643-1.693l.499-.921 1.834-.121c3.635-.241 6.094-1.592 8.579-4.713 1.059-1.329 2.42-3.621 2.445-4.116.006-.105.28-.248.61-.317 1.956-.411 4.154-2.236 5.887-4.891 1.264-1.936 1.268-1.9-.237-1.9-.687 0-2.015-.135-2.95-.3-.935-.165-2.06-.303-2.5-.306l-.8-.007.474-.395c1.205-1.004 2.626-1.116 8.544-.673 2.998.224 5.233-.703 7.597-3.15 1.806-1.87 1.706-2.501-.234-1.469-.993.528-1.996.604-4.281.327-1.606-.195-.871-.519 2.266-.999 3.283-.502 4.919-1.257 5.897-2.721 1.806-2.702-4.844-1.869-7.817.979-1.005.964-1.346 1.116-1.346.601 0-.934.99-1.984 2.532-2.685 2.996-1.363 1.194-2.405-2.577-1.491M70.789 68.693c.566.381 1.543.842 2.17 1.026 2.222.65 2.22.648.887.665-.984.013-1.64-.135-3.046-.684-.985-.385-1.928-.7-2.096-.7-.462 0-.363-.51.146-.756.686-.331.831-.297 1.939.449m60.021-.388c.681.352.773.695.186.695-.223 0-1.211.315-2.196.7-1.416.553-2.054.696-3.046.68-1.173-.02-1.209-.033-.554-.215 1.925-.533 2.364-.709 3.487-1.4 1.411-.868 1.357-.856 2.123-.46" fill="#fbc724"/>
        <path d="M0 200H400V100z" fill="#3c8bdc"/>
    </g>
</svg>