<svg xmlns="http://www.w3.org/2000/svg" xmlns:xlink="http://www.w3.org/1999/xlink" width="600" height="300">
    <clipPath id="c">
        <path d="M0 0v75h350v75h-50zm300 0H150v200H0v-50z"/>
    </clipPath>
    <clipPath id="b">
        <path d="M0 0h300v150H0z"/>
    </clipPath>
    <path fill="#fff" d="M0 0h600v300H0z"/>
    <pattern id="a" x="30" y="4" width="116" height="50" patternUnits="userSpaceOnUse">
        <path id="a" fill="#012169" d="M116 26 116 0C98 0 89 20 71 20 36 20 27 0 0 0L0 26C27 26 36 46 71 46 89 46 98 26 116 26Z"/>
    </pattern>
    <path fill="url(#a)" d="M0 0H600V300H0z"/>
    <path fill="#fff" d="M0 0h290v152H0z"/>
    <g clip-path="url(#b)">
        <path fill="#012169" d="M0 0h300v150H0z"/>
        <path stroke="#fff" stroke-width="30" d="M0 0l300 150m0-150L0 150"/>
        <path stroke="#c8102e" stroke-width="20" d="M0 0l300 150m0-150L0 150" clip-path="url(#c)"/>
        <path stroke="#fff" stroke-width="50" d="M150 0v200M0 75h350"/>
        <path stroke="#c8102e" stroke-width="30" d="M150 0v200M0 75h350"/>
    </g>
    <path fill="#a24300" stroke="#000" stroke-width=".75" d="M446.52306 79.222214L444.45399 283.383c-.27981 11.58476 10.34506 11.63062 10.34506 0l-2.06906-204.160786z"/>
    <g transform="matrix(.43857 0 0 .37683 122.200387 25.057689)">
        <g transform="matrix(-.31451 .10485 -.1383 -.30323 1046.472 373.319)">
            <g id="d" fill="none" stroke="#000">
                <path fill="#006d00" stroke-width="4.45265468" d="M673.2285 325.1613l17.717 70.866 35.433-53.15-17.717 88.583 35.433-35.433-35.433 88.582 35.433-35.433-35.433 88.583 35.433-35.433-35.433 106.299 35.433-35.433-35.433 106.299 35.433-35.433-35.433 106.299-17.716 53.151-17.717 17.72-17.717-17.72-17.716-53.151-35.433-106.299 35.433 35.433-35.433-106.299 35.433 35.433-35.433-106.299 35.433 35.433-35.433-88.583 35.433 35.433-35.433-88.582 35.433 35.433-17.717-88.583 35.433 53.15z"/>
                <path d="M496.063 549.213v496.067M425.197 868.11l70.866 106.299 70.866-106.299" transform="translate(177.1655 -224.0517)"/>
                <path d="M425.197 797.244l70.866 106.299 70.866-106.299" transform="translate(177.1655 -224.0517)"/>
                <path d="M425.197 726.378l70.866 106.299 70.866-106.299" transform="translate(177.1655 -224.0517)"/>
                <path d="M425.197 673.228l70.866 88.583 70.866-88.583" transform="translate(177.1655 -224.0517)"/>
                <path d="M425.197 620.079l70.866 88.582 70.866-88.582" transform="translate(177.1655 -224.0517)"/>
                <path d="M442.913 566.929l53.15 106.299 53.15-106.299" transform="translate(177.1655 -224.0517)"/>
            </g>
        </g>
        <use transform="matrix(.23652 -.28186 .29496 .22762 354.5673 204.654)" xlink:href="#d"/>
        <use transform="matrix(.15164 .33524 -.3329 .1673 907.5388 -153.4696)" xlink:href="#d"/>
        <use transform="matrix(-.20952 .30246 -.3147 -.19945 1141.363 167.5798)" xlink:href="#d"/>
        <use transform="matrix(-.20772 -.25838 .23618 -.23515 689.9856 567.2772)" xlink:href="#d"/>
        <g transform="matrix(-.36218 -.09947 -.2098 .31773 1222.415 -24.22945)">
            <g id="e" fill="none" stroke="#000">
                <path fill="#006d00" stroke-width="3.33574655" d="M744.0947 425.1968l28.643 70.866 42.223-53.15-10.184 88.583 27.9-35.433-17.716 88.582 25.249-35.433-25.249 88.583 35.433-35.433-35.433 106.299 35.433-35.433-35.433 106.299 35.433-35.433-35.433 106.299-17.716 53.151-17.717 17.72-17.717-17.72-17.716-53.151-35.433-106.299 35.433 35.433-35.433-106.299 35.433 35.433-35.433-106.299 35.433 35.433-45.617-88.583 45.617 35.433-53.15-88.582 42.966 35.433-25.25-88.583 35.433 53.15z"/>
                <path d="M467.208 584.646l28.855 124.016v336.618" transform="translate(283.4647 -124.0162)"/>
                <path d="M436.23 885.827l59.833 88.582 60.682-88.582" transform="translate(283.4647 -124.0162)"/>
                <path d="M434.533 814.961l61.53 88.582 60.682-88.582" transform="translate(283.4647 -124.0162)"/>
                <path d="M435.381 744.095l60.682 88.582 59.833-88.582" transform="translate(283.4647 -124.0162)"/>
                <path d="M432.835 690.945l63.228 70.866 53.149-70.866" transform="translate(283.4647 -124.0162)"/>
                <path d="M425.197 637.796l70.866 70.865 45.406-70.865" transform="translate(283.4647 -124.0162)"/>
                <path d="M436.124 593.238l53.15 86.886 35.327-95.478" transform="translate(283.4647 -124.0162)"/>
            </g>
        </g>
        <use transform="matrix(.36088 .10411 .01321 .38053 452.7614 -239.2657)" xlink:href="#e"/>
        <g fill="none" stroke="#000">
            <path fill="#006d00" stroke-width="3.52269083" d="M354.331 531.496l88.583 88.583 17.716-53.149v88.582l35.433-35.433-17.716 88.583 35.432-35.434-17.716 88.584 35.433-35.433-17.716 106.299 35.433-35.433-35.433 106.299 35.433-35.433-17.717 106.298-17.716 53.151-17.717 17.72-17.717-17.72-17.716-53.151-53.15-82.294 35.434 11.429-35.433-106.299 35.433 35.433-53.15-106.299 35.433 35.433-53.15-88.584 53.15 35.434-70.866-88.583 53.149 35.433-70.866-70.866 70.866 35.433z" transform="matrix(.04613 -.36474 .32602 .0648 386.004742 315.20953)"/>
            <path d="M378.962 560.015l63.952 95.497 17.716 53.15 8.859 45.205 8.858 78.811 9.315 70.866 8.401 141.736" transform="matrix(.04613 -.36474 .32602 .0648 386.004742 315.20953)"/>
            <path d="M425.197 903.544l63.665 70.866 50.749-88.583" transform="matrix(.04613 -.36474 .32602 .0648 386.004742 315.20953)"/>
            <path d="M417.082 814.961l70.579 88.583 50.75-88.583" transform="matrix(.04613 -.36474 .32602 .0648 386.004742 315.20953)"/>
            <path d="M407.48 752.443l70.867 80.235 45.948-88.583M372.047 637.796l88.583 70.866 25.831-70.866" transform="matrix(.04613 -.36474 .32602 .0648 386.004742 315.20953)"/>
            <path d="M360.618 602.363l82.296 53.149 10.515-53.149M389.764 690.945l81.095 70.866 33.946-70.866" transform="matrix(.04613 -.36474 .32602 .0648 386.004742 315.20953)"/>
        </g>
    </g>
    <path fill="#fff" d="M451.74894 194.51833h28.44541s1.87178-4.24946 2.08249-6.13191c.25312-2.26129.24523-2.98669-.2771-5.06977-.5411-2.1579-1.32671-3.64073-2.67869-5.08259-1.27512-1.35988-3.07131-2.20231-4.91093-2.66152-1.64081-.40957-3.49476-.5849-4.93403-.26532-2.73383.60704-4.50986 1.56842-7.48184 2.5786-2.14379.72869-3.78236.97852-5.95008 1.11105-1.32589.0811-2.85855-.27523-4.29523-.60528zM447.50904 194.51833h-28.44555s-1.87137-4.24946-2.08208-6.13191c-.25312-2.26129-.24523-2.98669.2771-5.06977.54109-2.1579 1.32671-3.64073 2.67869-5.08259 1.27512-1.35988 3.07131-2.20231 4.91092-2.66152 1.64081-.40957 3.49476-.5849 4.93403-.26532 2.73383.60704 4.50987 1.56842 7.48184 2.5786 2.14379.72869 3.78237.97852 5.95008 1.11105 1.32589.0811 2.8583-.27523 4.29497-.60528z" color="#000" font-family="Bitstream Vera Sans" font-weight="400" opacity=".995" overflow="visible" style="line-height:normal;-inkscape-font-specification:'Bitstream Vera Sans';text-indent:0;text-align:start;text-decoration-line:none;text-transform:none;marker:none"/>
    <path fill="#fff" d="M445.75981096 220.31866978c-4.03089525.05128553-8.0617905.13675338-12.06093867.41026014-2.95176288.23931962-6.31614836.51282639-9.18852113.95727367l-.73000394.1367582c-1.80913633.376073-2.06306827 2.70088047-1.11087947 3.96585286 1.9360799 2.61541262 13.40985414 4.64962458 26.9625478 4.64962458 13.53679771 0 25.01057195-2.03421196 26.94665185-4.64962458.9521888-1.2649724.69825686-3.58977986-1.11087947-3.96585286l-.73000394-.1367582c-2.85652161-.44444728-6.23675825-.71795405-9.18852113-.95727367-3.99914816-.27350676-8.03004342-.3589746-12.06093867-.41026014h-3.85630865z"/>
    <path d="M452.31395055 222.81442742c-.99978704-.17094535-1.92022875-.39316658-2.79302743-.63249102-.76175104-.22222123-1.47590383-.46154085-2.17416069-.71795404.2063337.35897943.5078191.71795404 1.23782305.99146562-.58716444-.01707427-1.36476663.22222123-1.65044566.35897944.28567903.1196598 1.09502831.3589746 1.68219275.34188103-.71410802.27350677-.98389111.6324862-1.14262656.99146563.6189563-.23931962 1.28546607-.46154567 1.98372293-.66667333.88869461-.2564132 1.82503225-.47863925 2.8565216-.66667333zM441.77651395 222.8657033c-.99978704-.13674856-1.92022875-.32478265-2.7930722-.5470087-.7776022-.18803891-1.50760615-.41026496-2.19001185-.64957976.19043776.3589746.50786388.70086047 1.25371898.95727366-.60306037 0-1.36476662.27350676-1.63454972.41026497.28563425.11965498 1.09498353.32478264 1.68214797.29060033-.69825686.29060033-.96803995.66667333-1.12673062 1.02564794.61891152-.25640837 1.26957013-.51282638 1.96782699-.73504761.88869461-.29060033 1.82503225-.52992478 2.84067045-.75215083zM431.31842269 223.41272165c-.99978704-.0683791-1.95197584-.1880341-2.84067045-.34188587-.7776022-.13674855-1.52350208-.29060033-2.22175893-.47863442.22218484.34188587.55546212.66667334 1.31716838.85470743-.58716444.05128553-1.33301954.376073-1.60280263.52991995.30153018.08547267 1.11087946.23931962 1.6980439.17094534-.6824057.34188586-.92044171.73505243-1.0473853 1.11112061.6030156-.3076939 1.23782305-.61539262 1.92022876-.88889456.85694752-.35897943 1.77738923-.68377172 2.77717627-.95727848zM462.85143192 223.03665347c-.99978704.15384212-1.93612468.32478264-2.80892336.5470087-.77764697.1880389-1.50765092.41026496-2.19001184.66667333.20628891-.35897461.5078191-.71795887 1.2536742-.95727366-.58716444-.01707428-1.36476663-.27350677-1.63454972-.41026015.28563425-.1196598 1.09498353-.32479229 1.68219274-.30769872-.69830163-.29060033-.96808473-.64957494-1.11087946-1.02564794.61891152.27350676 1.26957013.51282638 1.96782699.75214118.87284346.27350676 1.80913632.52992477 2.84067045.73505726zM473.2777761 223.97682874c-.99978705.0683791-1.93607991.17094534-2.82477453.32479229-.77764697.13675338-1.52350207.3076939-2.23765486.49572799.23808078-.34188104.57131328-.66667333 1.33306431-.85470742-.60306036-.05128071-1.34891547-.376073-1.61869856-.52991995.30153018-.10256625 1.11087947-.2564132 1.71393983-.17094535-.6824057-.34188104-.93633764-.7350476-1.06328122-1.11112061.60306037.30769872 1.23782305.59829905 1.92022875.88889938.85694753.34188104 1.77738923.66667334 2.77717627.95727367z"/>
    <path fill="#ccc" d="M449.63201554 225.27599309c-16.1553281 0-25.9469096 1.00855437-25.13756031 1.77779394 5.66548975 2.54703834 16.82183787 3.36755863 25.13756031 3.3846522 8.29982651-.01707428 19.45617463-.83761386 25.12166438-3.3846522.80934928-.76923957-8.98223221-1.77779394-25.12166438-1.77779394z"/>
    <path fill="none" stroke="#000" stroke-width=".616" d="M1143.5233 822.71304c.319-.8506-1.0987-1.09869-2.5872-1.27589-5.777-.74427-12.1918-1.24045-17.8979-1.66575-8.9312-.56706-17.9333-.74426-26.9354-.85058H1078.8429c-9.0021.10632-18.0042.28352-26.9354.85058-5.7061.4253-12.1209.92148-17.8979 1.66575-1.4885.1772-2.9062.42529-2.5872 1.27589" transform="matrix(.44777 0 0 .48232 -37.31666277 -169.70933628)"/>
    <path fill="none" stroke="#000" stroke-width=".616" d="M1078.8429 808.64283c-9.0021.10633-18.0042.28353-26.9354.85059-6.5921.49618-14.1057 1.06324-20.5205 1.98471l-1.6303.28354c-4.0403.77971-4.6074 5.59972-2.4809 8.22238 4.3238 5.42252 29.9479 9.64004 60.2148 9.64004 30.2314 0 55.8555-4.21752 60.1793-9.64004 2.1265-2.62266 1.5594-7.44267-2.4809-8.22238l-1.6303-.28354c-6.3794-.92147-13.9284-1.48853-20.5205-1.98471-8.9312-.56706-17.9333-.74426-26.9354-.85059h-8.6122z" transform="matrix(.44777 0 0 .48232 -37.31666277 -169.70933628)"/>
    <g stroke-width="1.17646">
        <g stroke-width="2.41697">
            <path fill="#c8102e" fill-rule="evenodd" d="M471.40452937 216.48864538l1.95178826-6.14044996.78829636-2.5421301 1.95366686-1.30796826 1.97866654-4.8445703.93209186-1.26695445.14387332-4.46359868s-1.3670577-3.16626354-3.48262787-4.303311c-3.02627502-1.6265158-7.1340954-1.40281476-7.1340954-1.40281476s-.94889912-2.7032668-2.68928488-3.75522406c-1.74039687-1.05195724-3.6728879-1.30552223-5.70123148-1.30552223-2.02834358 0-5.66855068 1.9536421-7.63709063 2.5279126-1.02338689.2985498-3.33457497 1.3055235-3.33457497 1.3055235s-2.31118364-1.0069737-3.33457608-1.3055235c-1.9685344-.57427176-5.60874039-2.5279126-7.63708508-2.5279126-2.0283458 0-3.89769064.21540023-5.70123037 1.30552223-1.67725735 1.01379376-3.97986283 3.75522406-3.97986283 3.75522406s-2.6363709-.38547326-4.48844605.8149408c-2.31017543 1.49733025-3.93812924 4.64670664-3.93812924 4.64670664l.15950451 4.87698135.3637884 1.86418797 1.49283317 1.84843034 1.94610136 3.73322628 1.39426722 3.68188385 1.49231295 4.80544028z"/>
            <path fill="none" stroke="#000" d="M1219.6137 702.29723l17.5585-48.60101 7.0916-20.12069 17.5754-10.35243 17.8003-38.34426 8.3852-10.02781 1.2943-35.32891s-12.2982-25.06064-31.3301-34.06025c-27.2247-12.8737-64.1791-11.10313-64.1791-11.10313s-8.5364-21.39607-24.1931-29.7222c-15.6568-8.32613-33.0417-10.33307-51.2889-10.33307s-50.9949 15.46287-68.7041 20.00816c-9.2065 2.36299-29.9982 10.33308-29.9982 10.33308s-20.79166-7.97009-29.99821-10.33308c-17.70915-4.5453-50.45684-20.00816-68.70405-20.00816-18.24722 0-35.06405 1.70487-51.28889 10.33307-15.08879 8.02407-35.80328 29.7222-35.80328 29.7222s-23.71708-3.05098-40.37855 6.45017c-20.78259 11.85121-35.42784 36.77819-35.42784 36.77819l1.43492 38.60079 3.27268 14.75485 13.42969 14.63013 17.50734 29.54809 12.54298 29.14172 13.42501 38.03455z" transform="matrix(.11116 0 0 .12634 335.8332845 127.75754698)"/>
        </g>
        <g color="#000" font-family="Bitstream Vera Sans" font-weight="400">
            <path fill="#fed100" d="M473.91384256 173.81117099c2.11564898.50555573 4.36034649 1.50971575 6.1285795 3.39549718 1.63901791 1.7479729 2.72919192 3.81132589 3.35752321 6.31720407.58811374 2.34535551.6059869 3.74032304.34454933 6.07600312-.33640682 3.00525064-2.05263428 6.02144268-2.05263428 6.02144268l-2.95832456-.5685509s1.78264602-4.04701318 1.98332327-5.83982053c.24106372-2.15360815.23355225-2.84446264-.26391012-4.82835531-.5153238-2.05513557-1.26352894-3.46735665-2.55113118-4.84055762-1.21439708-1.29512791-2.9250578-2.09744315-4.67707382-2.53477813-1.56266696-.39006967-3.32833828-.55705106-4.69906634-.25268817-2.60365047.57812525-4.2951173 1.49372817-7.1255733 2.45581309-2.04169784.69398277-3.6022418.93191141-5.66673678 1.05813168-1.26275246.07720381-2.72234668-.26211849-4.0906069-.57644487-1.3682602-.31432639-2.51447699-.63961692-2.51447699-.63961692l.76973786-3.18229155s1.09353094.31191574 2.38252193.6080309c1.288991.29611515 2.8990656.53637358 3.27688402.51327283 1.94636647-.11899844 3.08896124-.2939572 4.91899144-.9159946 2.6200129-.89055394 4.47459494-1.87788998 7.43346843-2.54267463 1.99385388-.4479681 4.03888285-.19319526 6.00395528.27637768z" overflow="visible" style="line-height:normal;-inkscape-font-specification:'Bitstream Vera Sans';text-indent:0;text-align:start;text-decoration-line:none;text-transform:none;marker:none"/>
            <path fill="none" stroke="#000" d="M358.40625 213.625c-9.01862 2.00071-18.58735 5.97462-26.125 13.4375-6.98683 6.91751-11.63404 15.08312-14.3125 25-2.50702 9.28162-2.58321 14.80213-1.46875 24.04546 1.43404 11.89312 8.75 23.82954 8.75 23.82954l12.61079-2.25001s-7.59909-16.01584-8.45454-23.11078c-1.02761-8.52279-.99559-11.25681 1.125-19.10796 2.19673-8.13309 5.38619-13.72188 10.875-19.15625 5.17675-5.1254 12.46898-8.30052 19.9375-10.03125 6.66136-1.54368 14.18809-2.2045 20.03125-1 11.09888 2.2879 18.30929 5.91135 30.375 9.71875 8.70338 2.7464 15.35569 3.68799 24.15625 4.1875 5.38288.30553 11.60486-1.03732 17.4375-2.28125s10.71875-2.53125 10.71875-2.53125l-3.28125-12.59375s-4.66152 1.23439-10.15625 2.40625-12.35818 2.12267-13.96875 2.03125c-8.297-.47093-13.16767-1.16332-20.96875-3.625-11.16863-3.52432-19.07437-7.43165-31.6875-10.0625-8.49943-1.77281-17.21701-.76456-25.59375 1.09375z" overflow="visible" style="line-height:normal;-inkscape-font-specification:'Bitstream Vera Sans';text-indent:0;text-align:start;text-decoration-line:none;text-transform:none;marker:none" transform="matrix(-.23459 0 0 .25269 557.9912089 119.8306622)"/>
        </g>
        <path fill="#fff" stroke="#000" stroke-width="1.76779" d="M2700.1897 785.0257a10.48851 10.660453 0 11-20.977 0 10.48851 10.660453 0 1120.977 0z" overflow="visible" style="marker:none" transform="matrix(-.15612 0 0 .16816 903.66192699 60.08625431)"/>
        <path fill="#fff" stroke="#000" stroke-width="1.76779" d="M2700.1897 785.0257a10.48851 10.660453 0 11-20.977 0 10.48851 10.660453 0 1120.977 0z" overflow="visible" style="marker:none" transform="matrix(-.15612 0 0 .16816 904.45029338 55.84960877)"/>
        <path fill="#fff" stroke="#000" stroke-width="1.76779" d="M2700.1897 785.0257a10.48851 10.660453 0 11-20.977 0 10.48851 10.660453 0 1120.977 0z" overflow="visible" style="marker:none" transform="matrix(-.15612 0 0 .16816 904.21230275 51.3678557)"/>
        <path fill="#fff" stroke="#000" stroke-width="1.76779" d="M2700.1897 785.0257a10.48851 10.660453 0 11-20.977 0 10.48851 10.660453 0 1120.977 0z" overflow="visible" style="marker:none" transform="matrix(-.15612 0 0 .16816 902.61202684 47.11592253)"/>
        <path fill="#fff" stroke="#000" stroke-width="1.76779" d="M2700.1897 785.0257a10.48851 10.660453 0 11-20.977 0 10.48851 10.660453 0 1120.977 0z" overflow="visible" style="marker:none" transform="matrix(-.15612 0 0 .16816 899.62484341 43.78331942)"/>
        <path fill="#fff" stroke="#000" stroke-width="1.76779" d="M2700.1897 785.0257a10.48851 10.660453 0 11-20.977 0 10.48851 10.660453 0 1120.977 0z" overflow="visible" style="marker:none" transform="matrix(-.15612 0 0 .16816 895.89086472 41.59989155)"/>
        <path fill="#fff" stroke="#000" stroke-width="1.76779" d="M2700.1897 785.0257a10.48851 10.660453 0 11-20.977 0 10.48851 10.660453 0 1120.977 0z" overflow="visible" style="marker:none" transform="matrix(-.15612 0 0 .16816 891.6234615 40.45071632)"/>
        <path fill="#fff" stroke="#000" stroke-width="1.76779" d="M2700.1897 785.0257a10.48851 10.660453 0 11-20.977 0 10.48851 10.660453 0 1120.977 0z" overflow="visible" style="marker:none" transform="matrix(-.15612 0 0 .16816 887.24937292 40.68056147)"/>
        <path fill="#fff" stroke="#000" stroke-width="1.76779" d="M2700.1897 785.0257a10.48851 10.660453 0 11-20.977 0 10.48851 10.660453 0 1120.977 0z" overflow="visible" style="marker:none" transform="matrix(-.15612 0 0 .16816 875.40732695 44.0131393)"/>
        <path fill="#fff" stroke="#000" stroke-width="1.76779" d="M2700.1897 785.0257a10.48851 10.660453 0 11-20.977 0 10.48851 10.660453 0 1120.977 0z" overflow="visible" style="marker:none" transform="matrix(-.15612 0 0 .16816 883.08865274 41.94465927)"/>
        <path fill="#fff" stroke="#000" stroke-width="1.76779" d="M2700.1897 785.0257a10.48851 10.660453 0 11-20.977 0 10.48851 10.660453 0 1120.977 0z" overflow="visible" style="marker:none" transform="matrix(-.15612 0 0 .16816 879.24799102 43.2087318)"/>
        <g>
            <g color="#000" font-family="Bitstream Vera Sans" font-weight="400">
                <path fill="#fed100" d="M425.33374821 173.81117099c-2.11564898.50555573-4.3603465 1.50971575-6.1285795 3.39549718-1.63901791 1.7479729-2.72919192 3.81132589-3.35752321 6.31720407-.58811374 2.34535551-.6059869 3.74032304-.34454933 6.07600312.33640682 3.00525064 2.05263428 6.02144268 2.05263428 6.02144268l2.95832456-.5685509s-1.78264602-4.04701318-1.98332327-5.83982053c-.24106372-2.15360815-.23355225-2.84446264.26391012-4.82835531.5153238-2.05513557 1.26352894-3.46735665 2.55113118-4.84055762 1.21439708-1.29512791 2.9250578-2.09744315 4.67707382-2.53477813 1.56266696-.39006967 3.32833828-.55705106 4.69906634-.25268817 2.60365047.57812525 4.2951173 1.49372817 7.1255733 2.45581309 2.04169784.69398277 3.60224179.93191141 5.66673678 1.05813168 1.26275246.07720381 2.72234668-.26211849 4.09060689-.57644487 1.3682602-.31432639 2.514477-.63961692 2.514477-.63961692l-.76973786-3.18229155s-1.09353094.31191574-2.38252194.6080309c-1.28899099.29611515-2.89906559.53637358-3.276884.51327283-1.94636648-.11899844-3.08896125-.2939572-4.91899145-.9159946-2.6200129-.89055394-4.47459494-1.87788998-7.43346843-2.54267463-1.99385388-.4479681-4.03888286-.19319526-6.00395528.27637768z" overflow="visible" style="line-height:normal;-inkscape-font-specification:'Bitstream Vera Sans';text-indent:0;text-align:start;text-decoration-line:none;text-transform:none;marker:none"/>
                <path fill="none" stroke="#000" d="M358.40625 213.625c-9.01862 2.00071-18.58735 5.97462-26.125 13.4375-6.98683 6.91751-11.63404 15.08312-14.3125 25-2.50702 9.28162-2.58321 14.80213-1.46875 24.04546 1.43404 11.89312 8.75 23.82954 8.75 23.82954l12.61079-2.25001s-7.59909-16.01584-8.45454-23.11078c-1.02761-8.52279-.99559-11.25681 1.125-19.10796 2.19673-8.13309 5.38619-13.72188 10.875-19.15625 5.17675-5.1254 12.46898-8.30052 19.9375-10.03125 6.66136-1.54368 14.18809-2.2045 20.03125-1 11.09888 2.2879 18.30929 5.91135 30.375 9.71875 8.70338 2.7464 15.35569 3.68799 24.15625 4.1875 5.38288.30553 11.60486-1.03732 17.4375-2.28125s10.71875-2.53125 10.71875-2.53125l-3.28125-12.59375s-4.66152 1.23439-10.15625 2.40625-12.35818 2.12267-13.96875 2.03125c-8.297-.47093-13.16767-1.16332-20.96875-3.625-11.16863-3.52432-19.07437-7.43165-31.6875-10.0625-8.49943-1.77281-17.21701-.76456-25.59375 1.09375z" overflow="visible" style="line-height:normal;-inkscape-font-specification:'Bitstream Vera Sans';text-indent:0;text-align:start;text-decoration-line:none;text-transform:none;marker:none" transform="matrix(.23459 0 0 .25269 341.25638186 119.8306622)"/>
            </g>
            <path fill="#fff" stroke="#000" stroke-width="1.76779" d="M2700.1897 785.0257a10.48851 10.660453 0 11-20.977 0 10.48851 10.660453 0 1120.977 0z" overflow="visible" style="marker:none" transform="matrix(.15612 0 0 .16816 -4.41433622 60.08625431)"/>
            <path fill="#fff" stroke="#000" stroke-width="1.76779" d="M2700.1897 785.0257a10.48851 10.660453 0 11-20.977 0 10.48851 10.660453 0 1120.977 0z" overflow="visible" style="marker:none" transform="matrix(.15612 0 0 .16816 -5.2027026 55.84960877)"/>
            <path fill="#fff" stroke="#000" stroke-width="1.76779" d="M2700.1897 785.0257a10.48851 10.660453 0 11-20.977 0 10.48851 10.660453 0 1120.977 0z" overflow="visible" style="marker:none" transform="matrix(.15612 0 0 .16816 -4.96471198 51.3678557)"/>
            <path fill="#fff" stroke="#000" stroke-width="1.76779" d="M2700.1897 785.0257a10.48851 10.660453 0 11-20.977 0 10.48851 10.660453 0 1120.977 0z" overflow="visible" style="marker:none" transform="matrix(.15612 0 0 .16816 -3.36443607 47.11592253)"/>
            <path fill="#fff" stroke="#000" stroke-width="1.76779" d="M2700.1897 785.0257a10.48851 10.660453 0 11-20.977 0 10.48851 10.660453 0 1120.977 0z" overflow="visible" style="marker:none" transform="matrix(.15612 0 0 .16816 -.37725264 43.78331942)"/>
            <path fill="#fff" stroke="#000" stroke-width="1.76779" d="M2700.1897 785.0257a10.48851 10.660453 0 11-20.977 0 10.48851 10.660453 0 1120.977 0z" overflow="visible" style="marker:none" transform="matrix(.15612 0 0 .16816 3.35672605 41.59989155)"/>
            <path fill="#fff" stroke="#000" stroke-width="1.76779" d="M2700.1897 785.0257a10.48851 10.660453 0 11-20.977 0 10.48851 10.660453 0 1120.977 0z" overflow="visible" style="marker:none" transform="matrix(.15612 0 0 .16816 7.62412926 40.45071632)"/>
            <path fill="#fff" stroke="#000" stroke-width="1.76779" d="M2700.1897 785.0257a10.48851 10.660453 0 11-20.977 0 10.48851 10.660453 0 1120.977 0z" overflow="visible" style="marker:none" transform="matrix(.15612 0 0 .16816 11.99821785 40.68056147)"/>
            <path fill="#fff" stroke="#000" stroke-width="1.76779" d="M2700.1897 785.0257a10.48851 10.660453 0 11-20.977 0 10.48851 10.660453 0 1120.977 0z" overflow="visible" style="marker:none" transform="matrix(.15612 0 0 .16816 23.84026382 44.0131393)"/>
            <path fill="#fff" stroke="#000" stroke-width="1.76779" d="M2700.1897 785.0257a10.48851 10.660453 0 11-20.977 0 10.48851 10.660453 0 1120.977 0z" overflow="visible" style="marker:none" transform="matrix(.15612 0 0 .16816 16.15893803 41.94465927)"/>
            <path fill="#fff" stroke="#000" stroke-width="1.76779" d="M2700.1897 785.0257a10.48851 10.660453 0 11-20.977 0 10.48851 10.660453 0 1120.977 0z" overflow="visible" style="marker:none" transform="matrix(.15612 0 0 .16816 19.99959975 43.2087318)"/>
        </g>
        <g>
            <g stroke-width=".972282">
                <path fill="#fed100" stroke="#000" d="M185.95983 37.046559c1.56725-1.983919 3.43923-3.457652 4.95647-5.474907 1.59409-2.119424 2.81027-4.797822 3.43535-7.503048-2.77102.690875-5.44941 1.907055-7.56884 3.501145-2.01725 1.51724-3.49099 3.38922-5.47491 4.95647V7.1155227c1.98392 1.56725 3.45766 3.4392313 5.47491 4.9564713 2.11943 1.59409 4.79782 2.81027 7.56884 3.501145-.62508-2.705226-1.84126-5.383624-3.43535-7.5030494-1.51724-2.0172551-3.38922-3.4909877-4.95647-5.474907l28.15166 9e-7c-1.56725 1.9839197-3.43923 3.4576517-4.95647 5.4749067-1.59409 2.1194248-2.81027 4.7978218-3.43535 7.5030478 2.77102-.690875 5.44941-1.907055 7.56884-3.501144 2.01725-1.51724 3.49099-3.3892208 5.47491-4.9564708V32.526218c-1.98392-1.56725-3.45766-3.43923-5.47491-4.95647-2.11943-1.59409-4.79782-2.81027-7.56884-3.501145.62508 2.705226 1.84126 5.383624 3.43535 7.503048 1.51724 2.017255 3.38922 3.490988 4.95647 5.474907z" transform="matrix(.28385 0 0 .30575 392.84367373 156.53615055)"/>
                <path fill="#fff" stroke="#000" stroke-width="1.46098" d="M2700.1897 785.0257a10.48851 10.660453 0 11-20.977 0 10.48851 10.660453 0 1120.977 0z" overflow="visible" style="marker:none" transform="matrix(.1889 0 0 .20348 -58.46660149 2.86065863)"/>
            </g>
            <g stroke-width="1.24742">
                <g stroke-width=".674872">
                    <path fill="#fed100" d="M454.12077388 172.73148317a4.49696963 4.8440022 0 11-8.99393068 0 4.49696963 4.8440022 0 118.99393068 0z" overflow="visible" style="marker:none"/>
                    <path fill="none" stroke="#000" stroke-width=".64894" d="M2700.1897 785.0257a10.48851 10.660453 0 11-20.977 0 10.48851 10.660453 0 1120.977 0z" overflow="visible" style="marker:none" transform="matrix(.42875 0 0 .45439 -703.5909581 -183.9762681)"/>
                </g>
                <path fill="#fed100" d="M448.66277784 167.5152874v4.0662218h-3.77493685v2.07034736h9.47191113v-2.07034736h-3.78185065v-4.0662218z"/>
                <path fill="none" stroke="#000" d="M195.84375 28.437483v17.0625h-17.0625v8.6875h42.8125v-8.6875H204.5v-17.0625z" transform="matrix(.22124 0 0 .23831 405.33396975 160.7382511)"/>
            </g>
            <g transform="matrix(.23459 0 0 .25269 403.88255112 167.7471982)">
                <rect width="25.321815" height="71.720367" x="182.32555" y="34.934082" fill="#fed100" fill-rule="evenodd" overflow="visible" ry="6.3860378" style="marker:none"/>
                <rect width="25.321815" height="71.720367" x="182.32555" y="34.934082" fill="none" stroke="#000" overflow="visible" ry="6.3860378" style="marker:none"/>
            </g>
            <g stroke-width="1.1536">
                <g transform="matrix(.26907 0 0 .22912 385.92764765 -39.09595844)">
                    <rect width="7.0406027" height="79.25563" x="221.33458" y="941.21753" fill="#fed100" fill-rule="evenodd" overflow="visible" ry="3.7999027" style="marker:none"/>
                    <path fill="none" stroke="#000" d="M224.8549 941.21755c1.95025 0 3.5203 1.69475 3.5203 3.7999v71.65585c0 2.1051-1.57005 3.7999-3.5203 3.7999-1.95025 0-3.5203-1.6948-3.5203-3.7999v-71.65585c0-2.10515 1.57005-3.7999 3.5203-3.7999z" overflow="visible" style="marker:none"/>
                </g>
                <g transform="matrix(.26907 0 0 .22912 387.16108615 -39.09595086)">
                    <rect width="7.0406027" height="79.25563" x="240.49425" y="941.21753" fill="#fed100" fill-rule="evenodd" overflow="visible" ry="3.7999027" style="marker:none"/>
                    <rect width="7.0406027" height="79.25563" x="240.49425" y="941.21753" fill="none" stroke="#000" overflow="visible" ry="3.7999027" style="marker:none"/>
                </g>
            </g>
            <g stroke-width=".883893">
                <path fill="#fff" stroke="#000" stroke-width="1.76779" d="M2700.1897 785.0257a10.48851 10.660453 0 11-20.977 0 10.48851 10.660453 0 1120.977 0z" overflow="visible" style="marker:none" transform="matrix(.15612 0 0 .16816 29.71437564 44.94757998)"/>
                <path fill="#fff" stroke="#000" stroke-width="1.76779" d="M2700.1897 785.0257a10.48851 10.660453 0 11-20.977 0 10.48851 10.660453 0 1120.977 0z" overflow="visible" style="marker:none" transform="matrix(.15612 0 0 .16816 29.71437564 48.51217609)"/>
                <path fill="#fff" stroke="#000" stroke-width="1.76779" d="M2700.1897 785.0257a10.48851 10.660453 0 11-20.977 0 10.48851 10.660453 0 1120.977 0z" overflow="visible" style="marker:none" transform="matrix(.15612 0 0 .16816 29.71437564 52.08205338)"/>
                <path fill="#fff" stroke="#000" stroke-width="1.76779" d="M2700.1897 785.0257a10.48851 10.660453 0 11-20.977 0 10.48851 10.660453 0 1120.977 0z" overflow="visible" style="marker:none" transform="matrix(.15612 0 0 .16816 29.71437564 55.6519054)"/>
                <path fill="#fff" stroke="#000" stroke-width="1.76779" d="M2700.1897 785.0257a10.48851 10.660453 0 11-20.977 0 10.48851 10.660453 0 1120.977 0z" overflow="visible" style="marker:none" transform="matrix(.15612 0 0 .16816 29.71437564 59.22178269)"/>
            </g>
        </g>
        <g>
            <path fill="#fed100" d="M479.03015544 202.56609995c-1.57633398 3.796109-2.8388237 7.50231155-4.07602732 11.31593184h-50.81724285c-1.1959703-3.68649287-2.41556583-7.65192821-3.91945004-11.31593184 0 0 3.16264964 4.76696219 5.5311644 5.91970032 1.31559313.64028653 2.96109972.83119244 4.32134879.31030106 1.79260188-.68645266 4.17730547-4.18931705 4.17730547-4.18931705s2.14438117 2.70338431 3.60112281 3.41353912c1.3672984.66654084 2.96612223.69362901 4.4653968.6206274 1.32667267-.0645871 2.79618522-.11846021 3.88921415-.93095373 1.65506834-1.23026286 3.31303383-5.43059711 3.31303383-5.43059711s1.60406918 3.3046558 2.8808992 4.49964338c1.05359723.98606502 2.37653527 1.72222144 3.74517082 2.017058 1.3686379.29483654 2.8642928.19959837 4.17730547-.31030107 1.78002803-.691279 4.60943777-3.56868966 4.60943777-3.56868966s1.94747138 2.60180367 3.31303618 3.25836333c1.32192463.63558653 2.91220949.82267685 4.32134879.46547686 1.49123294-.3780215 2.74417263-1.54142306 3.88921414-2.63771066 1.0219937-.97848437 2.5777216-3.4371402 2.5777216-3.4371402z"/>
            <path fill="none" stroke="#000" d="M-147.29195 1086.9489c-6.71962 15.0229-12.10138 29.69-17.37535 44.7822H-381.2918c-5.0982-14.5891-10.29711-30.2821-16.70789-44.7822 0 0 13.48179 18.865 23.57833 23.4269 5.60813 2.5339 12.62262 3.2894 18.42111 1.228 7.64153-2.7166 17.80708-16.579 17.80708-16.579s9.1411 10.6985 15.35092 13.5089c5.82854 2.6378 12.64403 2.745 19.03516 2.4561 5.65536-.2556 11.91962-.4688 16.579-3.6842 7.05525-4.8687 14.12285-21.4913 14.12285-21.4913s6.83785 13.078 12.28074 17.8071c4.49129 3.9023 10.13073 6.8156 15.96497 7.9824 5.83425 1.1668 12.20995.7899 17.80708-1.228 7.58793-2.7357 19.64918-14.1229 19.64918-14.1229s8.30171 10.2965 14.12286 12.8948c5.63512 2.5153 12.41421 3.2557 18.42111 1.8421 6.35685-1.496 11.6979-6.1001 16.579-10.4386 4.35657-3.8723 10.98835-13.6023 10.98835-13.6023z" transform="matrix(.23459 0 0 .25269 513.58289899 -72.09302068)"/>
            <path fill="#fed100" d="M449.62379416 204.71677944s-1.15872964 1.9212639-1.8712377 2.57769722c-.98950345.91164835-1.64032927 1.46081553-2.91134622 1.89240692-1.26881183.43085858-3.03864003.67316126-4.3670158.5947774-1.28479423-.07583172-2.6066907-.47707526-3.76466733-1.081379-1.00650628-.52526288-2.61017197-2.05463272-2.61017197-2.05463272-.77957877 1.08954082-1.77227963 1.85485746-2.7171154 2.42039884-1.20827907.72324406-2.4020677.78841233-3.65624133.71561287-2.54928263-.14802472-4.92748113-1.86337305-6.8351361-5.34127184-1.23691507-3.15114774-2.65962756-6.342296-4.43639952-9.68846847 2.04782056-.78070535 4.43432109-1.1966048 7.08139122-1.33181823-1.07660786 3.26751063-2.19348722 6.45059815-1.79844778 9.08072816 2.22403276-1.7942123 2.94340014-4.23674662 3.7093025-6.6592175l2.5852706 9.80720664c-1.56912748-.29635268-.73465306-.64561826-4.85547238-1.48704457.82570557 1.6770408 2.71602222 3.74794663 4.8000536 3.95179018 1.40134398.13708332 2.41854038-.32922741 3.30928748-1.1614306.63987297-.59783493 1.22335596-1.3884962 1.21568497-2.27917143-.00438677-.5101016-.008797-1.02020319-.01318377-1.53030478-.00281505-.32771128-.37827353-.79154567-.68250677-.7961446-.28990233-.0042957-.3701099.50241988-.44750242.80337148-.15484839.60220643.15608935 1.272765 0 1.8745924-.17208817.66350858-.50220806 1.18745749-1.04417623 1.55319833-.45141534.30466612-1.54139933.3749387-1.54139933.3749387l.3480564-1.44610909c.24555136-1.02020319-.67381532-1.81200154-.8950072-2.83864828-.14238009-.66085535-.22084937-1.3999177 0-2.03525154.23892195-.68733707.72236541-1.35630371 1.34251197-1.66033811.22627771-.1109301.49785178-.1260914.74583816-.10711451.35070722.02683548 1.04417388.26779891 1.04417388.26779891s-.19900934-1.033722-.1491667-1.6603381c.06044364-.75990912.65801357-2.16755907.99445323-2.8386483.55865667-1.11435479 1.44701333-2.1183354 1.54832198-2.22623324.0972761.1054215 1.06024073 1.07081662 1.68951506 2.14059723.3789679.64425374.7676735 1.57523274.87704958 2.3287741.09019627.6213602.0578796 1.9352881.0578796 1.9352881s1.02428092-.45301933 1.372403-.50608384c.2461613-.0375242.51805675-.04275484.7509498.0509672.63828247.25683225 1.16376154.8879462 1.44649725 1.55569994.26135078.61726665.23080524 1.36039726.13145304 2.03032412-.15434636 1.04074674-.72200648 1.84596284-.41116024 2.84529398l.44061261 1.4165193s-1.0918771.01162366-1.56187874-.25849998c-.56427738-.32427472-.92744117-.82222202-1.14196608-1.47120102-.19458035-.58866235-.081662-1.30958168-.41941066-1.81647413-.14942943-.22428602-.3585565-.47265321-.64747357-.44655052-.30319872.02736612-.51607449.56094245-.52881255.88840104l-.05363592 1.37750425c-.01646799.42317687.16253814.86305642.37290618 1.20547415.51547394.83902578 1.28260788 1.347965 2.14825889 1.72583488.93756592.40927902 1.78311753.56660267 2.79467917.57933815.8439095.0106129 2.31060232-.13827096 3.11017492-.42926665.98505332-.35846342 1.5644592-.81383276 2.326512-1.57576338.42953307-.4294688.71656641-1.05328007.90560582-1.65081177.21772468-.68822148.13932343-1.87593165.13932343-1.87593165-.98019034.40018224-1.83241126.93820588-2.6005422 1.56681822-.86810947.71043277-1.62881339 1.53657145-2.34545252 2.4101397l-.0696629-11.85587591c1.0210671 1.21330748 1.76348732 2.30004346 2.78455676 3.2138144.85980275.76946072 1.30163521 1.06293275 2.16143797 1.36345479-.2456147-.9537462-.32859273-1.53230102-.96253769-2.48604723-.87897788-1.32236769-1.73498267-2.74227301-2.79920435-4.0646407 1.95960655-.35151451 3.91806128-.44629784 5.90377265-.44629784 1.98570902 0 3.94416375.09478333 5.9037703.44629783-1.06422167 1.3223677-1.92022647 2.74227302-2.79920435 4.06464071-.63394495.9537462-.71692299 1.53230102-.96253769 2.48604723.85980276-.30052204 1.30163522-.59399407 2.16143798-1.3634548 1.02106943-.91377093 1.76348966-2.00050691 2.78455675-3.2138144l-.0696629 11.85587592c-.71663913-.87356825-1.47734305-1.69970693-2.34545252-2.4101397-.76813094-.62861234-1.62035185-1.16663598-2.6005422-1.56681822 0 0-.07840124 1.18771017.13932344 1.87593165.1890394.5975317.47607274 1.22134297.90560582 1.65081177.7620528.76193062 1.34145867 1.21729996 2.326512 1.57576338.7995726.2909957 2.26626542.43987956 3.11017492.42926665 1.01156163-.0126344 1.85711324-.17005913 2.79467917-.57933815.865651-.37786988 1.63278495-.8868091 2.14825889-1.72583488.21036803-.34241773.38937416-.78229728.37290617-1.20547415l-.05363592-1.37750425c-.01273806-.3274586-.22561383-.86103492-.52881254-.88840104-.28891708-.0261027-.49804415.2222645-.64747358.44655052-.33774865.50689245-.2248303 1.22781178-.41941066 1.81647413-.21452491.648979-.5776887 1.1469263-1.14196607 1.47120102-.47000164.27009837-1.56187875.25849999-1.56187875.25849999l.44061261-1.4165193c.31084625-.99933115-.25681387-1.80454725-.41116024-2.84529399-.09935219-.66992686-.12989773-1.41305747.13145305-2.03032412.2827357-.66775374.80821477-1.2988677 1.44649724-1.55569994.23289306-.09372204.50478851-.0884914.7509498-.0509672.34812208.05306451 1.37240301.50608385 1.37240301.50608385s-.03231667-1.31392791.0578796-1.9352881c.10937608-.75354137.49808167-1.68452037.87704957-2.32877411.62927433-1.0697806 1.59223897-2.03517573 1.68951507-2.14059723.10130864.10789784.9896653 1.11187845 1.54832198 2.22623325.33643966.67108922.93400959 2.07873917.99445322 2.83864828.04984265.6266161-.1491667 1.66033811-.1491667 1.66033811s.69346666-.24096343 1.04417389-.26779891c.24798637-.01895161.51956044-.00379032.74583815.10711451.62014657.3040344 1.10359003.97300104 1.34251197 1.66033811.22084937.63533385.1423801 1.37439619 0 2.03525154-.22119187 1.02664674-1.14055856 1.8184451-.8950072 2.83864828l.3480564 1.44610909s-1.08998399-.07027258-1.54139932-.3749387c-.54196817-.36574084-.87208807-.88968975-1.04417623-1.55319833-.15608935-.6018274.15484838-1.27238597 0-1.8745924-.07739253-.3009516-.15760009-.80774298-.44750243-.80337148-.30423324.00454839-.67969172.46843332-.68250676.7961446-.00438677.5101016-.008797 1.02020319-.01318378 1.53030478-.00767098.89067524.575812 1.6813365 1.21568497 2.27917142.8907471.8322032 1.9079435 1.29851393 3.30928749 1.1614306 2.08403137-.20384354 3.97434803-2.27474937 4.8000536-3.95179017-4.12081932.84142631-3.2863449 1.19069189-4.85547238 1.48704457l2.58527059-9.80720663c.76590236 2.42247087 1.48526975 4.8650052 3.7093025 6.6592175.39503945-2.63013002-.72183992-5.81321754-1.79844777-9.08072817 2.64707013.13521344 5.03357065.55111288 7.08139122 1.33181823-1.77677197 3.34617246-3.19948446 6.53732073-4.43639953 9.68846847-1.90765496 3.4778988-4.28585346 5.19324712-6.8351361 5.34127184-1.25417362.07279946-2.44796226.00758065-3.65624132-.71561287-.94483577-.56554138-1.93753663-1.33085802-2.7171154-2.42039884 0 0-1.6036657 1.52936984-2.61017198 2.05463272-1.15797662.60430374-2.4798731 1.00554728-3.76466733 1.081379-1.32837577.07838386-3.09820396-.16391882-4.3670158-.5947774-1.27101695-.43159139-1.92184277-.98075857-2.9113462-1.89240692-.71250807-.65643331-1.87124007-2.57769722-1.87124007-2.57769722z"/>
            <path fill="#fed100" d="M427.72599841 209.78166097c-2.54928263-.14802472-4.92748113-1.86337305-6.8351361-5.34127184-1.23691507-3.15114774-2.65962756-6.342296-4.43639952-9.68846847 2.04782056-.78070535 4.43432109-1.1966048 7.08139122-1.33181823-1.07660786 3.26751063-2.19348722 6.45059815-1.79844778 9.08072816 2.22403276-1.7942123 2.94340014-4.23674662 3.7093025-6.6592175l2.5852706 9.80720664c-1.56912748-.29635268-.73465306-.64561826-4.85547238-1.48704457.82570557 1.6770408 2.71602222 3.74794663 4.8000536 3.95179018zm43.54503172-1.66809563c2.08403137-.20384355 3.97434803-2.27474938 4.8000536-3.95179018-4.12081932.84142631-3.2863449 1.19069189-4.85547238 1.48704457l2.58527059-9.80720663c.76590236 2.42247087 1.48526975 4.8650052 3.7093025 6.6592175.39503945-2.63013002-.72183992-5.81321754-1.79844777-9.08072817 2.64707013.13521344 5.03357065.55111288 7.08139122 1.33181823-1.77677197 3.34617246-3.19948446 6.53732073-4.43639953 9.68846847-1.90765496 3.4778988-4.28585346 5.19324712-6.8351361 5.34127184l-.04881985.09690591z"/>
            <path fill="#fed100" d="M440.47419445 209.78166097c-1.28479424-.07583171-2.60669071-.47707525-3.76466734-1.08137899-1.00650628-.52526288-2.61017197-2.05463272-2.61017197-2.05463272-.77957877 1.08954082-1.77227963 1.85485746-2.7171154 2.42039884-1.20827907.72324406-2.4020677.78841233-3.65624133.71561287l-.0439897.47325966.29455184-2.1413553c1.40134398.13708333 2.41854038-.3292274 3.30928748-1.1614306.63987297-.59783492 1.22335596-1.38849618 1.21568497-2.27917142-.00438677-.5101016-.008797-1.02020319-.01318377-1.53030478-.00281505-.32771128-.37827353-.79154567-.68250677-.7961446-.28990233-.0042957-.3701099.50241988-.44750242.80337148-.15484839.60220643.15608935 1.272765 0 1.8745924-.17208817.66350858-.50220806 1.18745749-1.04417623 1.55319833-.45141534.30466612-1.54139933.3749387-1.54139933.3749387l.3480564-1.44610909c.24555136-1.02020319-.67381532-1.81200154-.8950072-2.83864828-.14238009-.66085535-.22084937-1.3999177 0-2.03525154.23892195-.68733707.72236541-1.35630371 1.34251197-1.66033811.22627771-.1109301.49785178-.1260914.74583816-.10711451.35070722.02683548 1.04417388.26779891 1.04417388.26779891s-.19900934-1.033722-.1491667-1.6603381c.06044364-.75990912.65801357-2.16755907.99445323-2.8386483.55865667-1.11435479 1.44701333-2.1183354 1.54832198-2.22623324.0972761.1054215 1.06024073 1.07081662 1.68951506 2.14059723.3789679.64425374.7676735 1.57523274.87704958 2.3287741.09019627.6213602.0578796 1.9352881.0578796 1.9352881s1.02428092-.45301933 1.372403-.50608384c.2461613-.0375242.51805675-.04275484.7509498.0509672.63828247.25683225 1.16376154.8879462 1.44649725 1.55569994.26135078.61726665.23080524 1.36039726.13145304 2.03032412-.15434636 1.04074674-.72200648 1.84596284-.41116024 2.84529398l.44061261 1.4165193s-1.0918771.01162366-1.56187874-.25849998c-.56427738-.32427472-.92744117-.82222202-1.14196608-1.47120102-.19458035-.58866235-.081662-1.30958168-.41941066-1.81647413-.14942943-.22428602-.3585565-.47265321-.64747357-.44655052-.30319872.02736612-.51607449.56094245-.52881255.88840104l-.05363592 1.37750425c-.01646799.42317687.16253814.86305642.37290618 1.20547415.51547394.83902578 1.28260788 1.347965 2.14825889 1.72583488.93756592.40927902 1.78311753.56660267 2.79467917.57933815z"/>
            <path d="M465.7628787 204.63713213l-.0295509-.05321613c-.03540384-.64925696.16860924-1.760908.16860924-1.760908.11357754-.55338707.55399778-1.14543544 1.09962551-1.35819887.2941202-.11477097.65124573-.15883978.96767045.00783333.19297343.10165645.34854668.18049515.47650438.32374407.1279577.1432742.20740286.33162795.29323347.6001344.1254875.39260159.0708499.80198168.00731911 1.152915-.1047946.5788075-.09320836 1.08491663.0586467 1.47663382.10721319.2765672.3229908.48402418.6011286.66330643-.0516865-.19795591-.08896234-.2938258-.11729338-.51328547-.04199338-.32531074.00903159-.66123438.12462422-.95546448.20134818-.51247686.47923967-.91644943.66710614-1.36608275.17917504-.42886235.27289715-.91478168.24191762-1.37401715-.02555354-.37880482-.1294708-.77009244-.32988766-1.04233867-.21732822-.29519031-.54889786-.53994407-.8797004-.60801826-.29430553-.06056935-.77773961.0473285-1.16560304.18163225-.38786343.1342785-.68176782.28427419-.68176782.28427419l-.34454932.17369784.0586467-.40270913c.20156399-1.35445909.37966461-2.04207411 0-3.308623-.15610109-.52076503-.41678564-1.0951505-.8577079-1.76093326-.21412612-.32333978-.45323338-.70937148-.72575284-1.06604082-.7103264.87104136-1.20546168 1.7536053-1.48815985 2.64534184-.3094786.97623544-.32170527 2.27411765-.24924845 3.31653213l.02932334.41850214-.32988765-.213193s-.3750503-.24773548-.82838455-.48169945c-.45333425-.2339387-1.00576734-.440486-1.2389114-.41850214-.4395734.0414914-.73297342.26779892-1.0189863.66330643-.24276213.33569623-.29506325.62669191-.34454933 1.0897177-.03126104.29251182.0371257.84258868.0806392 1.20026878.05099213.41915912.28009192.85994835.34454933 1.3897849.02130048.17501181.07170848.31257525.10996255.48169944.03825406.16909892.05737054.36758547.01466167.60013438-.0295204.16073494-.07357345.27692096-.13195506.47379031.1124609-.05877527.18974317-.08818817.24924845-.13425322.2175112-.16834086.30581436-.466993.44718104-.82914567.07609526-.19492365.09284944-.36996074.10263171-.57643224.00978227-.2064715.01923612-.44917848.11729339-.7185946.167502-.46019568.36462057-1.0067349.7990612-1.3423806.35562652-.2747731.8300548-.3512618 1.24624224-.21321826.24657886.08179516.42297638.2456887.54981276.43432041.12683638.18860645.21194915.39479999.3005643.60013439.11346728.26289676.18130274.6562817.23458678 1.00284351.05328404.34656182.0806392.63962955.0806392.63962955l.00731911.03158602-.0073191.03946989-.30291018 1.08451232-.38617206-.0937473.29323347-1.0371333c-.00211128-.02021505-.03125634-.2710586-.0806392-.59222525-.0513182-.3337758-.12882568-.73218922-.1979326-.8923177-.0907405-.21023656-.17235324-.39290483-.26391012-.52905321-.09155687-.13617365-.1845283-.2233258-.34454932-.27639032-.2870005-.09518763-.6594375-.03711989-.90169292.15004624-.3075245.2375774-.49399518.69739406-.6597753 1.15286447-.07199468.1978043-.07809394.37589891-.08797004.58436665-.0098761.20844246-.020151.45092202-.12462423.71856932-.12944029.33157741-.23659718.73997202-.58646694 1.01075266-.25781086.19954784-.72575283.39482525-.72575283.39482525l-.41052686.18163225.14661674-.45011342s.20663341-.66027417.24924844-.89231771c.02949225-.16058333.0174298-.27659247-.01466167-.41850214-.03210085-.14190967-.09024553-.30673816-.11729339-.52907847-.05099212-.41913386-.28009191-.85992309-.34454932-1.3897849-.04201215-.34529837-.12465707-.89107954-.0806392-1.3029107.05133931-.4803602.12618657-.8973462.42518852-1.31081985.3275019-.45286772.7425821-.768829 1.2975581-.82123653.4386327-.04141559.97814006.21369838 1.45150567.4579973.30447722.15714677.3969912.22941558.54981276.32374407-.04962918-1.00056932-.03455229-2.15449508.27124096-3.11910687.32419892-1.02265427.87958311-2.03070316 1.72274663-3.00858108l.14661673-.16581397.14661674.16581397c.3918819.45430805.65965566.95324083.90169291 1.31872899.46137823.69666126.74704628 1.31455963.9163546 1.8793682.36268991 1.20992147.22967452 2.03580746.05864669 3.1506929.1334869-.06056935.18012041-.09392419.41052685-.17369784.4146204-.14357741.92004699-.27929623 1.3562048-.18951612.44585797.09175107.84763708.38590536 1.12161801.75806449.27194707.36937955.38831618.84129997.4178577 1.27920855.03665183.54335536-.07476046 1.09939566-.2785718 1.58721016-.21087005.50469407-.48978903.90687255-.66710614 1.35819888-.08928373.22726773-.1330412.49089729-.10263171.72647846.04552156.35262633.2199251.92390373.2199251.92390373l.12462422.40270913-.3812035-.13425322c-.60848526-.22239086-1.00685818-.62512525-1.20225723-1.1291876-.19539905-.50406234-.19448651-1.09259834-.0806392-1.7214381.05976567-.33018763.09159206-.6602489.0073191-.92387847-.07798368-.24397042-.13479825-.36331504-.20526342-.44220428-.07046518-.07891451-.1787739-.137993-.36654184-.23692042-.17335024-.09137204-.44125303-.07739839-.6597753.00783333-.3625304.14137903-.79639396.66393815-.8357154 1.03442953-.06943533.65423492-.24188242 1.31958813-.53491649 1.73429994zm11.4358707-.7711032l.1026317-.22110214-.2199251-.07899032c-1.63727728-.55841557-3.14908348-.13584516-4.5744421.51328546.5760419-1.69520907 1.0147567-3.38844718 1.32688144-5.08534927 1.55404824 3.007823 2.87270038 3.9916391 4.1125994 4.60364983l.22725594.11057634.05131585-.26850644c.36988-2.05357143.39857935-4.78967886-1.16560304-8.85985344 1.75280658.098043 3.49584731.32442633 5.22688659 1.15286447l.1612784-.39479998c-1.90045784-.90955105-3.7987997-1.13555534-5.67406762-1.22397093l-.32255681-.01566666.13195506.3158602c1.6063869 4.01680684 1.6066121 6.63111858 1.28289642 8.64666044-1.19135832-.6245188-2.39718126-1.56770263-3.93665932-4.72999392l-.27124095-.55275535-.10263172.6159274c-.3343706 1.99340637-.8561385 3.9897692-1.56146822 5.98555085l-.17594008.48958332.4398502-.22110215c1.43957694-.70366072 2.89525825-1.16188544 4.46447956-.71856932l.03865756.02610268zm-54.67340373.06314677c1.56699743-.440486 3.01934292.01566667 4.45714873.71856933l.4398502.22110214-.16860925-.4894317c-.7053297-1.99578165-1.22709761-3.99214448-1.56146822-5.98555085l-.10263171-.6159274-.27124096.55275535c-1.54009971 3.16358-2.75216266 4.1055004-3.94399016 4.72999392-.32371567-2.01554186-.31615963-4.6298536 1.29022727-8.64666044l.12462422-.3158602-.31522598.01566666c-1.87526791.0884156-3.77360978.31441988-5.67406762 1.22397093l.1612784.39479998c1.73317402-.8294489 3.47187724-1.05504888 5.2268866-1.15286447-1.5642997 4.0703262-1.53549244 6.80623147-1.16560305 8.85985344l.04398502.26850644.23458678-.11057634c1.23901697-.61158116 2.56000325-1.59307252 4.1125994-4.5957407.31204733 1.69392038.75185061 3.38518752 1.32688144 5.07744014-1.42535862-.64913062-2.93716483-1.07170103-4.5744421-.51328546l-.21992511.07899032.10263171.22110214-.04248835.02299462.51899274.0402785zm12.87490574.95465588l-.22922413-.92291824c.00408181-.03893925.02595234-.26054677.07330837-.56854837.0513182-.3337758.13615651-.73218922.20526343-.8923177.09074051-.21023656.17235325-.39290483.26391012-.52905322.09155687-.13617365.1845283-.2233258.34454933-.2763903.2870005-.09518764.65210666-.0371199.89436208.15004622.3075245.23757741.50132601.69739406.66710614 1.15286448.07198999.1978043.07809159.3758989.08797004.58436664.0098761.20844247.020151.45092203.12462422.71856933.1294403.3315774.23659719.73997202.58646694 1.01075265.25781087.19954784.72575284.39482526.72575284.39482526l.40319602.18163225-.1392859-.45011343s-.20663342-.66027417-.24924845-.8923177c-.02949225-.16058333-.0174298-.27659247.01466167-.41850214.03210086-.14190967.0829147-.30673816.10996255-.52907848.05099213-.41913385.28009192-.85992308.34454933-1.3897849.04201215-.34529837.1319879-.89107953.08797004-1.3029107-.05133931-.4803602-.12618657-.8973462-.42518853-1.31081984-.3275019-.45286773-.74258209-.768829-1.2975581-.82123653-.4386327-.0414156-.97814005.21369838-1.45150567.4579973-.30447721.15714676-.3969912.22941558-.54981275.32374407.04962917-1.00056932.03455228-2.15449508-.27124096-3.11910688-.32419893-1.02265426-.87958312-2.03070315-1.72274663-3.00858107l-.14661674-.16581397-.14661673.16581397c-.3918819.45430805-.6669865.95324083-.90902375 1.31872898-.46137824.69666127-.73971544 1.31455963-.90902376 1.87936822-.36268992 1.20992146-.22967452 2.03580745-.0586467 3.1506929-.13345172-.06064517-.1781147-.09324194-.41052685-.17369785-.4146204-.14357742-.92004698-.27929623-1.35620479-.18951612-.44585797.09175107-.84763709.38590536-1.12161802.75806448-.27194706.36937956-.38831618.84129997-.4178577 1.27920856-.03665183.54335536.07476047 1.09939566.2785718 1.58721016.21087006.50469406.48978904.90687254.66710615 1.35819887.08928841.22726774.12571036.4908973.09530087.72647847-.04552156.35262633-.21259426.92387846-.21259426.92390373l-.12462423.40270913.38120351-.13425323c.60848526-.22239085 1.00685817-.62512524 1.20225723-1.12918759.19539905-.50406235.1944865-1.09259835.0806392-1.7214381-.0597774-.33018763-.0916038-.6602489-.0073191-.92387847.07798367-.24397042.13479824-.36331504.20526342-.44220428.07046518-.07891452.17144305-.13799301.359211-.23692043.17335024-.09129623.44858387-.07732257.66710614.00783334.3625304.14137902.75797098.66969944.83571539 1.03442953 0 0-.00000939.00783333 0 .00783333.0018767.0106129.18914497 1.13934566.1612784 1.6503822l.47047786.0896285c-.03920884-.71505697-.24322192-1.826708-.24322192-1.826708-.11357753-.55338708-.54666694-1.14543545-1.09229467-1.35819888-.2941202-.11472043-.65857656-.15878924-.97500128.00783333-.19297343.10165645-.34121585.18049516-.46917355.32374408-.1279577.14327418-.2147337.33162794-.3005643.60013438-.12549924.3926016-.07086163.8019817-.00731912 1.15291501.1047946.57880751.09320837 1.08491663-.05864669 1.47663382-.1072132.2765672-.31565996.48402418-.59379777.66330643.0516865-.1979559.08896234-.2938258.11729338-.51328547.04199338-.32531074-.00903159-.66123438-.12462422-.95546448-.20134817-.51247686-.47923967-.91644943-.66710614-1.36608274-.17917503-.42886235-.28022798-.91478169-.24924845-1.37401716.02555354-.37880482.12947079-.77009244.32988765-1.04233867.21732823-.29519031.5562287-.53994407.88703125-.60801826.29430553-.06056935.77040877.0473285 1.1582722.18163226.38786343.13427848.68909865.28427418.68909865.28427418l.34454932.17369784-.06597753-.40270912c-.20156399-1.3544591-.37233378-2.04207412.00731911-3.308623.15610108-.52076504.4094548-1.0951505.85037706-1.76093327.2142528-.32351666.46033901-.7091946.73308367-1.06604082.71006602.87083921 1.20552267 1.7537822 1.48815986 2.64534184.3094786.97623545.31437443 2.27411766.24191761 3.31653213l-.02198078.41850214.32988765-.213193s.36771946-.24773548.82105371-.48169945c.45333426-.2339387 1.01309818-.44051127 1.24624225-.41850213.43957339.0414914.73297341.26779891 1.0189863.66330642.24276212.33569623.29506325.62669192.34454933 1.0897177.03126103.29251182-.04445654.84258869-.08797004 1.20026878-.05099213.41915912-.27276109.85994836-.3372185 1.3897849-.02130047.17501182-.07170848.31257525-.10996254.48169944-.03825407.16909892-.06470138.36758547-.02198078.60013439.0295204.16073494.07357345.27692095.13195506.4737903-.1124609-.05877526-.18974317-.08818817-.24924845-.13425322-.2175112-.16834085-.30581436-.466993-.44718104-.82914567-.07609526-.19492365-.08551627-.36996074-.09530088-.57643223-.00978227-.2064715-.01923612-.44917848-.11729339-.7185946-.167502-.46019568-.36462057-1.00673491-.7990612-1.3423806-.35562651-.2747731-.8300548-.35126181-1.24624224-.21321827-.24657885.08179516-.43030722.2456887-.5571436.43432041-.12683637.18860645-.2046183.39479999-.29323346.6001344-.11346728.26289676-.18130274.65628169-.23458678 1.0028435-.05328404.34656182-.08797004.63960428-.08797004.63962955v.03158602l.00731911.03946989.23655496.9466204.11665062.01364516.27186027-.10825161zm15.17289901-3.4972547l.00731911-.26845591.24191761.06317204c1.11546246.30125483 1.96822292.70836072 2.6757554 1.16077361.89772606.57400643 1.5606636 1.21843705 2.25789771 1.83989832l.1172934-7.13055673c-.59414263.70656664-1.15176008 1.4634435-1.97199509 2.06888434-.66985315.4944602-1.9258495 1.14429834-3.10094393 1.2871177l-.2785718.03158601.0586467-.29215805c.16541417-.80364944.16059341-1.36171124.53515108-2.31366336.35532155-.90308222 1.10451899-2.21276497 2.5951162-4.4062751-1.28914347-.15343226-2.41230273-.32374408-4.0906069-.32374408-1.67779276 0-2.79463693.17033709-4.08327604.32374407 1.4905972 2.19351014 2.23979464 3.50319289 2.5951162 4.40627511.37455766.95195212.3697369 1.51001392.53515108 2.31366336l.05864669.29215805-.2785718-.03158602c-1.17509442-.14281935-2.43109078-.7926575-3.10094393-1.2871177-.81705635-.60309083-1.38045872-1.35668274-1.97199508-2.06100046l.1172934 7.11476372c.69436277-.61933869 1.36356846-1.26015587 2.2578977-1.83198918.70753248-.45241289 1.5529621-.85951878 2.66842457-1.16077361l.24924845-.06317204v.2684559l-.40181196.30259408c-.94192924.28586612-1.69496452.6304317-2.31062109 1.02406931-.98597056.6304317-1.69842233 1.36658813-2.5364695 2.08467735l-.31522598.26850644-.00731911-.43432042-.12462423-8.13340024-.01466167-.53696234.35188016.37903224c.77368126.84044083 1.35368299 1.75678919 2.25789771 2.42421443.55752362.41155321 1.6506933.96188276 2.6537629 1.15291501-.11175245-.6476903-.1609711-1.15417845-.46184272-1.91886337-.35240329-.8956532-1.07793092-2.20851981-2.7344021-4.61944284l-.20526342-.30009246.34454932-.0394699c1.42740188-.15934515 2.60512837-.37114837 4.45714873-.37114837l.00002346.00015161c1.85202036 0 3.02974685.21180322 4.45714872.37114838l.35188017.03946989-.20526343.30009246c-1.65647117 2.41092303-2.38932964 3.72378965-2.74173293 4.61944284-.3019296.76736342-.3418117 1.27554458-.45451188 1.92674725 1.00346604-.1907543 2.088641-.74904353 2.64643206-1.16079889.90421472-.66742524 1.49154728-1.5837736 2.26522854-2.42421442l.34454933-.37903225-.00731911.53696235-.13195506 8.13340024v.43432041l-.32255682-.26850644c-.83804718-.71808922-1.5431681-1.45424565-2.52913867-2.08467734-.61565657-.39363762-1.36869184-.7382032-2.30921356-1.01863653z" color="#000" font-family="Bitstream Vera Sans" font-weight="400" overflow="visible" style="line-height:normal;-inkscape-font-specification:'Bitstream Vera Sans';text-indent:0;text-align:start;text-decoration-line:none;text-transform:none;marker:none"/>
            <path fill="none" stroke="#000" d="M-272.64583 1095.4601s-4.93945 7.6033-7.97674 10.2011c-4.21807 3.6078-6.99242 5.7811-12.41053 7.4891-5.40871 1.7051-12.95316 2.664-18.61578 2.3538-5.47684-.3001-11.11184-1.888-16.04808-4.2795-4.29055-2.0787-11.12668-8.1311-11.12668-8.1311-3.3232 4.3118-7.5549 7.3405-11.58256 9.5786-5.15067 2.8622-10.23957 3.1201-15.58588 2.832-10.86712-.5858-21.00494-7.3742-29.13692-21.1378-5.27274-12.4705-11.3375-25.0993-18.91155-38.3416 8.72948-3.0896 18.90269-4.7355 30.18666-5.2706-4.58938 12.931-9.35043 25.5279-7.66645 35.9365 9.48064-7.1005 12.54717-16.7667 15.81207-26.3535l11.02053 38.8115c-6.6889-1.1728-3.13169-2.555-20.69798-5.8849 3.51983 6.6368 11.5779 14.8323 20.46174 15.639 5.97367.5425 10.30979-1.3029 14.10688-4.5963 2.72766-2.3659 5.21494-5.4949 5.18224-9.0197-.0187-2.0187-.0375-4.0374-.0562-6.0561-.012-1.2969-1.61251-3.1325-2.9094-3.1507-1.2358-.017-1.57771 1.9883-1.90762 3.1793-.66009 2.3832.66538 5.0369 0 7.4186-.73358 2.6258-2.14082 4.6993-4.45113 6.1467-1.9243 1.2057-6.5707 1.4838-6.5707 1.4838l1.4837-5.7229c1.04674-4.0374-2.87235-7.1709-3.81525-11.2338-.60694-2.6153-.94144-5.5401 0-8.0544 1.01848-2.7201 3.07931-5.3675 5.72288-6.5707.96458-.439 2.12225-.499 3.17937-.4239 1.495.1062 4.45112 1.0598 4.45112 1.0598s-.84834-4.0909-.63587-6.5707c.25766-3.0073 2.80499-8.578 4.23917-11.2338 2.38145-4.41 6.16835-8.3832 6.60021-8.8102.41467.4172 4.51961 4.2377 7.20209 8.4713 1.61547 2.5496 3.27245 6.2339 3.7387 9.216.38449 2.459.24673 7.6588.24673 7.6588s4.36632-1.7928 5.8503-2.0028c1.04934-.1485 2.20838-.1692 3.20116.2017 2.72088 1.0164 4.9609 3.514 6.16615 6.1566 1.11409 2.4428.98388 5.3837.56036 8.0349-.65795 4.1187-3.07778 7.3053-1.7527 11.2601l1.87825 5.6058s-4.65447.046-6.658-1.023c-2.40541-1.2833-3.95351-3.2539-4.86799-5.8222-.82946-2.3296-.34811-5.1826-1.78787-7.1886-.63699-.8876-1.52846-1.8705-2.76006-1.7672-1.29248.1083-2.19993 2.2199-2.25423 3.5158l-.22864 5.4514c-.0702 1.6747.69287 3.4155 1.58963 4.7706 2.19737 3.3204 5.46752 5.3345 9.15763 6.8299 3.99667 1.6197 7.6011 2.2423 11.9132 2.2927 3.59743.042 9.84967-.5472 13.2581-1.6988 4.1991-1.4186 6.669-3.2207 9.91749-6.236 1.83102-1.6996 3.05459-4.1683 3.86043-6.533.92812-2.7236.59391-7.4239.59391-7.4239-4.17837 1.5837-7.81123 3.7129-11.08563 6.2006-3.70059 2.8115-6.94333 6.0809-9.99823 9.538l-.29696-46.919c4.35262 4.8016 7.51742 9.1023 11.87005 12.7185 3.66518 3.0451 5.54863 4.2065 9.21381 5.3958-1.04701-3.7744-1.40073-6.064-4.10312-9.8384-3.74692-5.2332-7.39591-10.8524-11.93249-16.0856 8.35344-1.3911 16.70197-1.7662 25.16669-1.7662 8.46471 0 16.81324.3751 25.16668 1.7662-4.53658 5.2332-8.18557 10.8524-11.93249 16.0856-2.70239 3.7744-3.05611 6.064-4.10312 9.8384 3.66518-1.1893 5.54863-2.3507 9.21381-5.3958 4.35263-3.6162 7.51743-7.9169 11.87005-12.7185l-.29696 46.919c-3.0549-3.4571-6.29764-6.7265-9.99823-9.538-3.2744-2.4877-6.90726-4.6169-11.08563-6.2006 0 0-.33421 4.7003.59391 7.4239.80584 2.3647 2.02941 4.8334 3.86043 6.533 3.24849 3.0153 5.71839 4.8174 9.91749 6.236 3.40843 1.1516 9.66067 1.7408 13.2581 1.6988 4.3121-.05 7.91653-.673 11.9132-2.2927 3.69011-1.4954 6.96026-3.5095 9.15763-6.8299.89676-1.3551 1.65983-3.0959 1.58963-4.7706l-.22864-5.4514c-.0543-1.2959-.96175-3.4075-2.25423-3.5158-1.2316-.1033-2.12307.8796-2.76006 1.7672-1.43976 2.006-.95841 4.859-1.78787 7.1886-.91448 2.5683-2.46258 4.5389-4.86799 5.8222-2.00353 1.0689-6.658 1.023-6.658 1.023l1.87825-5.6058c1.32508-3.9548-1.09475-7.1414-1.7527-11.2601-.42352-2.6512-.55373-5.5921.56036-8.0349 1.20525-2.6426 3.44527-5.1402 6.16615-6.1566.99278-.3709 2.15182-.3502 3.20116-.2017 1.48398.21 5.8503 2.0028 5.8503 2.0028s-.13776-5.1998.24673-7.6588c.46625-2.9821 2.12323-6.6664 3.7387-9.216 2.68248-4.2336 6.78742-8.0541 7.20209-8.4713.43186.427 4.21876 4.4002 6.60021 8.8102 1.43418 2.6558 3.98151 8.2265 4.23917 11.2338.21247 2.4798-.63587 6.5707-.63587 6.5707s2.95612-.9536 4.45112-1.0598c1.05712-.075 2.21479-.015 3.17937.4239 2.64357 1.2032 4.7044 3.8506 5.72288 6.5707.94144 2.5143.60694 5.4391 0 8.0544-.9429 4.0629-4.86199 7.1964-3.81525 11.2338l1.4837 5.7229s-4.6464-.2781-6.5707-1.4838c-2.31031-1.4474-3.71755-3.5209-4.45113-6.1467-.66538-2.3817.66009-5.0354 0-7.4186-.32991-1.191-.67182-3.1966-1.90762-3.1793-1.29689.018-2.8974 1.8538-2.9094 3.1507-.0187 2.0187-.0375 4.0374-.0562 6.0561-.0327 3.5248 2.45458 6.6538 5.18224 9.0197 3.79709 3.2934 8.13321 5.1388 14.10688 4.5963 8.88384-.8067 16.94191-9.0022 20.46174-15.639-17.56629 3.3299-14.00908 4.7121-20.69798 5.8849l11.02053-38.8115c3.2649 9.5868 6.33143 19.253 15.81207 26.3535 1.68398-10.4086-3.07707-23.0055-7.66645-35.9365 11.28397.5351 21.45718 2.181 30.18666 5.2706-7.57405 13.2423-13.63881 25.8711-18.91155 38.3416-8.13198 13.7636-18.2698 20.552-29.13692 21.1378-5.34631.2881-10.43521.03-15.58588-2.832-4.02766-2.2381-8.25936-5.2668-11.58256-9.5786 0 0-6.83613 6.0524-11.12668 8.1311-4.93624 2.3915-10.57124 3.9794-16.04808 4.2795-5.66262.3102-13.20707-.6487-18.61578-2.3538-5.41811-1.708-8.19246-3.8813-12.41053-7.4891-3.03729-2.5978-7.97675-10.2011-7.97675-10.2011z" transform="matrix(.23459 0 0 .25269 513.58290016 -72.09302068)"/>
            <g stroke-width=".803539">
                <path fill="#fff" stroke="#000" stroke-width="1.60708" d="M2700.1897 785.0257a10.48851 10.660453 0 11-20.977 0 10.48851 10.660453 0 1120.977 0z" overflow="visible" style="marker:none" transform="matrix(.17173 0 0 .18498 -12.2765563 55.5170695)"/>
                <path fill="#fff" stroke="#000" stroke-width="1.60708" d="M2700.1897 785.0257a10.48851 10.660453 0 11-20.977 0 10.48851 10.660453 0 1120.977 0z" overflow="visible" style="marker:none" transform="matrix(.17173 0 0 .18498 -40.77510078 58.22955059)"/>
                <path fill="#fff" stroke="#000" stroke-width="1.60708" d="M2700.1897 785.0257a10.48851 10.660453 0 11-20.977 0 10.48851 10.660453 0 1120.977 0z" overflow="visible" style="marker:none" transform="matrix(-.17173 0 0 .18498 940.02269145 58.22955059)"/>
            </g>
            <g>
                <path fill="#fed100" d="M432.27720885 203.64537207l3.9591632-.2314191.56354613.93033247-.46677862.99053122-3.95916319.2314191-.68242978-.92335824z"/>
                <path fill="none" stroke="#000" d="M-346.45864 1090.7071h16.90201l2.19927 3.8065-2.19927 3.8064h-16.90201l-2.7068-3.8064z" transform="matrix(.23424 -.0137 .01271 .25232 499.56845609 -76.30215968)"/>
                <g>
                    <path fill="#f6e078" d="M466.97038343 203.64537208l-3.95916318-.2314191-.56354612.93033247.4667786.9905312 3.95916318.2314191.68242978-.92335823z"/>
                    <path fill="#fed100" stroke="#000" d="M-346.45864 1090.7071h16.90201l2.19927 3.8065-2.19927 3.8064h-16.90201l-2.7068-3.8064z" transform="matrix(-.23424 -.0137 -.01271 .25232 399.6791367 -76.30215833)"/>
                </g>
            </g>
        </g>
        <g>
            <path fill="#fed100" fill-rule="evenodd" d="M424.622033 220.20529027s2.82809371-.22343698 7.81113672-.52645557c4.98304302-.30301607 10.32176884-.4621439 13.04511252-.4621439h8.30143716c2.63794705 0 8.10224952.15912783 13.04511251.4621439 4.94287707.30301859 7.75431512.55705863 7.75431512.55705863l1.7330403-8.33998544s-17.75820715-1.72608-26.68318534-1.72607747c-8.92497819.00000253-26.68318768 1.7260901-26.68318768 1.7260901z"/>
            <path fill="none" stroke="#000" d="M496.50058 341.72544c38.01199-.0193 76.02023 2.041 113.8632 6.23428l-6.92787 33.31224c-37.64029-3.37881-68.45072-4.28271-106.50894-4.58075m.5045-34.96577c-38.01198-.0193-76.02022 2.041-113.8632 6.23428l6.92787 33.31225c37.6403-3.37882 68.45072-4.28271 106.50894-4.58076" transform="matrix(.23459 0 0 .25269 333.04213822 123.9111025)"/>
            <g stroke-width="1.33004" color="#000" font-family="Bitstream Vera Sans" font-weight="400">
                <path fill="#fed100" d="M432.3500811 210.46332628l-.00740013.0061008h-.00740014c-3.170992.24574868-6.84089794.51383176-10.04325514.9838023-.45281487.5830328-.49037057 1.11471525.33353984 1.5398645 3.07453169-.4512106 6.69948653-.72568387 9.87277922-.97158117 4.30368025-.26870293 8.6428954-.43667037 12.97099372-.48274507h8.30143599c2.58899493 0 8.05673574.17017702 12.97099372.48884587 4.89186308.317216 9.88760322.9654706 9.88760322.9654706.8525219-.46890488.7599182-.99346583.29647986-1.5398645 0 0-5.04195305-.66607987-10.03584315-.98991289-4.97147148-.32238016-10.43233396-.48884587-13.11923365-.48884587h-8.30143599c-4.3794771.01409832-8.75221344.23659358-13.11925737.48886543z" overflow="visible" style="line-height:normal;-inkscape-font-specification:'Bitstream Vera Sans';text-indent:0;text-align:start;text-decoration-line:none;text-transform:none;marker:none"/>
                <path fill="none" stroke="#000" d="M-644.32223 561.76862l-.0312.0312h-.0312c-13.36934 1.25678-28.84217 2.62778-42.34375 5.03125-1.90913 2.98168-2.06747 5.70075 1.40625 7.875 12.96265-2.30753 28.24596-3.71121 41.625-4.96875 18.14491-1.37417 36.43964-2.23317 54.6875-2.4688h35c10.91556 0 33.96831.8703 54.6875 2.5 20.62477 1.62227 41.6875 4.9375 41.6875 4.9375 3.59435-2.39802 3.20392-5.08067 1.25-7.875 0 0-21.25757-3.40639-42.3125-5.0625-20.96041-1.64868-43.98416-2.5-55.3125-2.5h-35c-18.46448.0721-36.90054 1.20996-55.3126 2.5001z" overflow="visible" style="line-height:normal;-inkscape-font-specification:'Bitstream Vera Sans';text-indent:0;text-align:start;text-decoration-line:none;text-transform:none;marker:none" transform="matrix(.23718 0 0 .19554 585.17293097 100.6160183)"/>
            </g>
            <g stroke-width="1.37932" color="#000" font-family="Bitstream Vera Sans" font-weight="400">
                <path fill="#fed100" d="M433.56235653 219.15280472l-.00688079.0061008h-.0068808c-2.94845072.24574869-6.36080143.51383176-9.33841614.98380232-.42103617.58303278-.4559562 1.11471523.3101319 1.53986449 2.85876004-.4512106 6.22931434-.72568388 9.17990429-.97158117 4.00164654-.26870293 8.03633411-.43667037 12.06068506-.48274507h7.71883844c2.4072984 0 7.49131134.17017702 12.06068505.48884587 4.5485505.317216 9.19368793.96547059 9.19368793.96547059.79269163-.46890487.70658688-.99346582.2756728-1.5398645 0 0-4.6881071-.66607987-9.33152432-.98991288-4.62257196-.32238016-9.70018929-.48884587-12.19852146-.48884587h-7.71883844c-4.07212394.01409832-8.13798019.23659358-12.19854352.48886542z" overflow="visible" style="line-height:normal;-inkscape-font-specification:'Bitstream Vera Sans';text-indent:0;text-align:start;text-decoration-line:none;text-transform:none;marker:none"/>
                <path fill="none" stroke="#000" d="M-644.32223 561.76862l-.0312.0312h-.0312c-13.36934 1.25678-28.84217 2.62778-42.34375 5.03125-1.90913 2.98168-2.06747 5.70075 1.40625 7.875 12.96265-2.30753 28.24596-3.71121 41.625-4.96875 18.14491-1.37417 36.43964-1.77813 54.6875-2.01376h35c10.91556 0 33.96831.41526 54.6875 2.04496 20.62477 1.62227 41.6875 4.9375 41.6875 4.9375 3.59435-2.39802 3.20392-5.08067 1.25-7.875 0 0-21.25757-3.40639-42.3125-5.0625-20.96041-1.64868-43.98416-2.04496-55.3125-2.04496h-35c-18.46448.0721-36.90054.75492-55.3126 2.04506z" overflow="visible" style="line-height:normal;-inkscape-font-specification:'Bitstream Vera Sans';text-indent:0;text-align:start;text-decoration-line:none;text-transform:none;marker:none" transform="matrix(.22054 0 0 .19554 575.66004782 109.30549674)"/>
            </g>
            <g>
                <g stroke-width="2.66007">
                    <rect width="89.492676" height="59.168652" x="2840.0945" y="823.56537" fill="none" stroke="#000" overflow="visible" ry="3.0061483" style="marker:none" transform="matrix(.1186 0 0 .09777 107.50491857 131.63676887)"/>
                    <g transform="matrix(.1186 0 0 .09777 107.50491623 131.6367709)">
                        <rect width="70.262749" height="43.636868" x="2849.7095" y="831.33124" fill="#012169" fill-rule="evenodd" stroke="#a0892c" overflow="visible" ry="5.1772556" style="marker:none"/>
                        <path fill="#2b96f6" fill-rule="evenodd" stroke="#a0892c" d="M2918.4592 873.45505c-.9358.93579-2.2301 1.51306-3.6642 1.51306h-59.9083c-1.4341 0-2.7284-.57727-3.6642-1.51306-.9357-.93579-1.513-2.2301-1.513-3.6642v-33.28236c0-1.4341.5773-2.72841 1.513-3.6642.9358-.93579 68.1724 39.67497 67.2367 40.61076z" overflow="visible" style="marker:none"/>
                        <path fill="#012169" fill-rule="evenodd" stroke="#000" d="M2918.4592 873.45505c-.9358.93581-2.2301 1.51306-3.6642 1.51306h-59.9083c-1.4341 0-2.7284-.57727-3.6642-1.51306-.9357-.93579-1.513-2.2301-1.513-3.6642v-33.28236c0-1.4341.5773-2.72843 1.513-3.6642.4751-.47512 18.0398 9.75875 35.0964 20.07263 16.5393 10.00109 32.601 20.07746 32.1403 20.53813z" overflow="visible" style="marker:none"/>
                        <path fill="#012169" fill-rule="evenodd" stroke="#000" d="M2918.4592 832.84429c.9357.93579 1.513 2.2301 1.513 3.6642v33.28236c0 1.4341-.5773 2.72841-1.513 3.6642-.9358.93579-2.2301 1.51306-3.6642 1.51306h-59.9083c-1.4341 0-2.7284-.57727-3.6642-1.51306-.9357-.93579 66.3009-41.54655 67.2367-40.61076z" overflow="visible" style="marker:none"/>
                        <path fill="#012169" fill-rule="evenodd" stroke="#000" d="M2918.4592 873.45505c-.9358.93579-2.2301 1.51306-3.6642 1.51306h-59.9083c-1.4341 0-2.7284-.57725-3.6642-1.51306-.4748-.47478 16.6003-11.16327 33.6609-21.45655 0 0 34.5115 20.52076 33.5758 21.45655z" overflow="visible" style="marker:none"/>
                        <rect width="70.262749" height="43.636868" x="2849.7095" y="831.33124" fill="none" stroke="#000" overflow="visible" ry="5.1772556" style="marker:none"/>
                        <rect width="39.366543" height="22.303528" x="2865.1575" y="841.29156" fill="#012169" fill-rule="evenodd" stroke="#000" overflow="visible" ry="0" style="marker:none"/>
                    </g>
                </g>
                <g stroke-width="1.42758" transform="matrix(.20308 -.0215 .0319 .19463 320.5242974 157.95155496)">
                    <rect width="35.828732" height="22.673826" x="494.62906" y="340.21054" fill="#fed100" fill-rule="evenodd" stroke="#000" stroke-width="1.42838" overflow="visible" ry="10.770632" style="marker:none"/>
                    <rect width="29.954123" height="16.541948" x="497.56638" y="343.27649" fill="#306947" fill-rule="evenodd" overflow="visible" ry="8.2709742" style="marker:none"/>
                    <rect width="29.954123" height="16.541948" x="497.56638" y="343.27649" fill="none" stroke="#000" stroke-width="1.42838" overflow="visible" ry="8.2709742" style="marker:none"/>
                </g>
                <g stroke-width="1.36121">
                    <path fill="#fed100" stroke="#000" d="M626.1653 310.88312l-23.70093-12.77075 23.70093-12.0817 2.88143 13.14658z" transform="matrix(-.19192 .03609 .03628 .22389 532.88007857 127.0351087)"/>
                    <path fill="#c8102e" d="M423.85989605 218.46981771l2.96184292-2.69296041-3.61557861-1.34090671-.77444267 2.12484498z"/>
                    <path fill="#c8102e" d="M423.85989605 218.46981771l2.96184292-2.69296041-4.35545963.7774394z"/>
                    <path fill="none" stroke="#000" d="M452.4043 250.5605l22.95329-.0249" transform="matrix(-.19192 .03609 .03628 .22389 504.564176 143.33665921)"/>
                    <path fill="none" stroke="#000" d="M626.1653 307.46566l-17.18272-9.25855 17.18272-8.75898 5.83709 8.3988z" transform="matrix(-.19192 .03609 .03628 .22389 532.88007857 127.0351087)"/>
                </g>
                <g stroke-width="1.45242">
                    <path fill="#fff" stroke="#000" stroke-width="3.2276" d="M2700.1897 785.0257a10.48851 10.660453 0 11-20.977 0 10.48851 10.660453 0 1120.977 0z" overflow="visible" style="marker:none" transform="matrix(.0855 0 0 .0921 211.76843796 141.24698482)"/>
                    <path fill="#fff" stroke="#000" stroke-width="3.2258" d="M2700.1897 785.0257a10.48851 10.660453 0 11-20.977 0 10.48851 10.660453 0 1120.977 0z" overflow="visible" style="marker:none" transform="matrix(.0855 0 0 .0921 211.95183755 144.32691594)"/>
                    <g>
                        <path fill="#fff" stroke="#000" stroke-width="3.2276" d="M2700.1897 785.0257a10.48851 10.660453 0 11-20.977 0 10.48851 10.660453 0 1120.977 0z" overflow="visible" style="marker:none" transform="matrix(.0855 0 0 .0921 199.70227717 141.95774103)"/>
                        <path fill="#fff" stroke="#000" stroke-width="3.2276" d="M2700.1897 785.0257a10.48851 10.660453 0 11-20.977 0 10.48851 10.660453 0 1120.977 0z" overflow="visible" style="marker:none" transform="matrix(.0855 0 0 .0921 199.88567676 145.03767215)"/>
                    </g>
                </g>
                <g>
                    <g stroke-width="1.42758" transform="matrix(-.20308 -.0215 -.0319 .19463 578.72329546 157.95155496)">
                        <rect width="35.828732" height="22.673826" x="494.62906" y="340.21054" fill="#fed100" fill-rule="evenodd" stroke="#000" stroke-width="1.42838" overflow="visible" ry="10.770632" style="marker:none"/>
                        <rect width="29.954123" height="16.541948" x="497.56638" y="343.27649" fill="#306947" fill-rule="evenodd" overflow="visible" ry="8.2709742" style="marker:none"/>
                        <rect width="29.954123" height="16.541948" x="497.56638" y="343.27649" fill="none" stroke="#000" stroke-width="1.42838" overflow="visible" ry="8.2709742" style="marker:none"/>
                    </g>
                    <g stroke-width="1.36121">
                        <path fill="#fed100" stroke="#000" d="M626.1653 310.88312l-23.70093-12.77075 23.70093-12.0817 2.88143 13.14658z" transform="matrix(.19192 .03609 -.03628 .22389 366.3675143 127.0351087)"/>
                        <path fill="#c8102e" d="M475.38769681 218.46981771l-2.9618429-2.69296041 3.6155786-1.34090671.77444266 2.12484498z"/>
                        <path fill="#c8102e" d="M475.38769681 218.46981771l-2.9618429-2.69296041 4.35545962.7774394z"/>
                        <path fill="none" stroke="#000" d="M452.4043 250.5605l22.95329-.0249" transform="matrix(.19192 .03609 -.03628 .22389 394.68341687 143.33665921)"/>
                        <path fill="none" stroke="#000" d="M626.1653 307.46566l-17.18272-9.25855 17.18272-8.75898 5.83709 8.3988z" transform="matrix(.19192 .03609 -.03628 .22389 366.3675143 127.0351087)"/>
                    </g>
                    <g stroke-width="1.45242">
                        <path fill="#fff" stroke="#000" stroke-width="3.2276" d="M2700.1897 785.0257a10.48851 10.660453 0 11-20.977 0 10.48851 10.660453 0 1120.977 0z" overflow="visible" style="marker:none" transform="matrix(-.0855 0 0 .0921 687.4791549 141.24698482)"/>
                        <path fill="#fff" stroke="#000" stroke-width="3.2276" d="M2700.1897 785.0257a10.48851 10.660453 0 11-20.977 0 10.48851 10.660453 0 1120.977 0z" overflow="visible" style="marker:none" transform="matrix(-.0855 0 0 .0921 687.29575531 144.32691594)"/>
                        <g>
                            <path fill="#fff" stroke="#000" stroke-width="3.2276" d="M2700.1897 785.0257a10.48851 10.660453 0 11-20.977 0 10.48851 10.660453 0 1120.977 0z" overflow="visible" style="marker:none" transform="matrix(-.0855 0 0 .0921 699.5453157 141.95774103)"/>
                            <path fill="#fff" stroke="#000" stroke-width="3.2276" d="M2700.1897 785.0257a10.48851 10.660453 0 11-20.977 0 10.48851 10.660453 0 1120.977 0z" overflow="visible" style="marker:none" transform="matrix(-.0855 0 0 .0921 699.3619161 145.03767215)"/>
                        </g>
                    </g>
                </g>
            </g>
        </g>
    </g>
</svg>