<svg xmlns="http://www.w3.org/2000/svg" xmlns:xlink="http://www.w3.org/1999/xlink" width="630" height="360">
    <path fill="#da0000" d="M0 0h630v360H0z"/>
    <path fill="#fff" d="M0 0h630v240H0z"/>
    <path fill="#239f40" d="M0 0h630v120H0z"/>
    <g transform="translate(8.4 100.4)">
        <g id="e">
            <g id="c" fill="none" stroke="#fff" stroke-width="2.8">
                <path id="b" d="m0 1.4h36.4M1.4 14V7h11.2v5.6h11.2V7h-7M5.6 12.6h2.8m28 0h-7V7h11.2m0-7v12.6h11.2V0m-5.6 0v12.6"/>
                <path id="a" d="M0 7h9m1 0h9" transform="scale(2.8)"/>
                <use xlink:href="#a" y="120"/>
                <use xlink:href="#b" y="145.2"/>
            </g>
            <g id="d">
                <use xlink:href="#c" x="56"/>
                <use xlink:href="#c" x="112"/>
                <use xlink:href="#c" x="168"/>
            </g>
        </g>
        <use xlink:href="#d" x="168"/>
        <use xlink:href="#e" x="392"/>
    </g>
    <g fill="#da0000" transform="matrix(45 0 0 45 315 180)">
        <g id="f">
            <path d="M-.54815.83638a.91205.91205 0 0 0 .8767-1.55876A1 1 0 0 1-.54816.83638"/>
            <path d="M.61834.6614a.76393.76393 0 0 0-.1967-1.40245A1 1 0 0 1 .61834.66141M0 1l-.05-1L0-.78728a.31.31 0 0 0 .11803.09909v.58778L.07781.8929zM-.02-.85 0-.83122A.14431.14431 0 0 0 .25207-.9677.1364.1364 0 0 1 0-.92463"/>
        </g>
        <use xlink:href="#f" transform="scale(-1 1)"/>
    </g>
</svg>