<svg xmlns="http://www.w3.org/2000/svg" width="900" height="600" viewBox="0 0 90 60">
    <path fill="#003580" d="m0 60V0h90z"/>
    <path fill="#009543" d="m90 0v60H0z"/>
    <path stroke="#fff" stroke-width="20" d="m0 60L90 0"/>
    <path stroke="#d21034" stroke-width="15" d="m0 60L90 0"/>
    <g fill="#ffce00" transform="translate(18 16.3415)">
        <path d="m0-10 1.55 4.2 3.45-2.86-.76 4.42 4.42-.76-2.86 3.45L10 0 5.8 1.55l2.86 3.45-4.42-.76.76 4.42-3.45-2.86L0 10-1.55 5.8-5 8.66l.76-4.42-4.42.76 2.86-3.45-4.2-1.55 4.2-1.55-2.86-3.45 4.42.76-.76-4.42 3.45 2.86z"/>
        <circle r="5.5" stroke="#003580"/>
    </g>
</svg>