<svg xmlns="http://www.w3.org/2000/svg" xmlns:xlink="http://www.w3.org/1999/xlink" width="600" height="300" viewBox="0 0 120 60">
    <path id="s" d="M0-25L15,20L-24-8L24-8L-15,20" fill="#fedd00" transform="scale(.1)"/>
    <clipPath id="a"><path d="M30 15h30v15zv15H0zH0V0zV0h30z"/></clipPath>
    <path fill="#012169" d="M0 0v30h60V0z"/>
    <path stroke="#fff" stroke-width="6" d="m0 0 60 30m0-30L0 30"/>
    <path stroke="#C8102E" stroke-width="4" d="m0 0 60 30m0-30L0 30" clip-path="url(#a)"/>
    <path fill="#fff" d="M25 0v10H0v10h25v12h10V20h25V10H35V0z"/>
    <path fill="#C8102E" d="M27 0v12H0v6h27v12h6V18h27v-6H33V0z"/>
    <path d="M60,0h60V60H0V30H60z" fill="#fedd00"/>
    <g transform="translate(30,15)">
        <circle r="5" fill="#012169"/>
        <use xlink:href="#s" transform="translate(-17.5,0.29)"/>
        <use xlink:href="#s" transform="translate(17.5,0.29)"/>
        <use xlink:href="#s" transform="translate(0,10.29)"/>
        <use xlink:href="#s" transform="translate(0,-9.71)"/>
        <use xlink:href="#s" transform="scale(2)"/>
    </g>
</svg>