<svg xmlns="http://www.w3.org/2000/svg" xmlns:xlink="http://www.w3.org/1999/xlink" width="600" height="300" viewBox="0 0 120 60">
    <clipPath id="t">
        <path d="M30,15 h30 v15 z v15 h-30 z h-30 v-15 z v-15 h30 z"/>
    </clipPath>
    <path id="s" d="M0-25L15,20L-24-8L24-8L-15,20" fill="#fedd00" transform="scale(.1)"/>
    <path d="M0,0 v31 h61 v-31z" fill="#012169"/>
    <path d="M0,0 L60,30 M60,0 L0,30" stroke="#fff" stroke-width="6"/>
    <path d="M0,0 L60,30 M60,0 L0,30" clip-path="url(#t)" stroke="#C8102E" stroke-width="4"/>
    <path d="M30,0 v30 M0,15 h60" stroke="#fff" stroke-width="10"/>
    <path d="M30,0 v30 M0,15 h60" stroke="#C8102E" stroke-width="6"/>
    <path d="M60,0h60V60H0V30H60z" fill="#012169"/>
    <path id="star5" d="M0-25L15,20L-24-8L24-8L-15,20" transform="scale(.04)"/>
    <g transform="scale(0.1)">
        <use fill="#FFF" transform="matrix(45.4 0 0 45.4 900 120)" xlink:href="#star5"/>
        <use fill="#C8102E" transform="matrix(30 0 0 30 900 120)" xlink:href="#star5"/>
        <g transform="rotate(82 900 240)">
            <use fill="#FFF" transform="rotate(-82 519.0221 -457.6658) scale(40.4)" xlink:href="#star5"/>
            <use fill="#C8102E" transform="rotate(-82 519.0221 -457.6658) scale(25)" xlink:href="#star5"/>
        </g>
        <g transform="rotate(82 900 240)">
            <use fill="#FFF" transform="rotate(-82 668.57 -327.6658) scale(45.4)" xlink:href="#star5"/>
            <use fill="#C8102E" transform="rotate(-82 668.57 -327.6658) scale(30)" xlink:href="#star5"/>
        </g>
        <g>
            <use fill="#FFF" transform="matrix(50.4 0 0 50.4 900 480)" xlink:href="#star5"/>
            <use fill="#C8102E" transform="matrix(35 0 0 35 900 480)" xlink:href="#star5"/>
        </g>
    </g>
</svg>