<svg xmlns="http://www.w3.org/2000/svg" xmlns:xlink="http://www.w3.org/1999/xlink" width="1200" height="600">
    <defs>
        <clipPath id="b">
            <path d="M0 0h600v300H0z"/>
        </clipPath>
        <clipPath id="c">
            <path d="M0 0l300 150H0zm300 0h300L300 150zm0 150h300v150zm0 0v150H0z"/>
        </clipPath>
        <path id="star5" d="M0-25L15,20L-24-8L24-8L-15,20" transform="scale(.04)"/>
    </defs>
    <path fill="#012169" d="M0 0h1200v600H0z"/>
    <path stroke="#FFF" stroke-width="60" d="M0 0l600 300M0 300L600 0" clip-path="url(#b)"/>
    <path stroke="#C8102E" stroke-width="40" d="M0 0l600 300M0 300L600 0" clip-path="url(#c)"/>
    <path stroke="#FFF" stroke-width="100" d="M300 0v300M0 150h600" clip-path="url(#b)"/>
    <path stroke="#C8102E" stroke-width="60" d="M300 0v300M0 150h600" clip-path="url(#b)"/>
    <g>
        <use fill="#FFF" transform="matrix(45.4 0 0 45.4 900 120)" xlink:href="#star5"/>
        <use fill="#C8102E" transform="matrix(30 0 0 30 900 120)" xlink:href="#star5"/>
        <g transform="rotate(82 900 240)">
            <use fill="#FFF" transform="rotate(-82 519.0221 -457.6658) scale(40.4)" xlink:href="#star5"/>
            <use fill="#C8102E" transform="rotate(-82 519.0221 -457.6658) scale(25)" xlink:href="#star5"/>
        </g>
        <g transform="rotate(82 900 240)">
            <use fill="#FFF" transform="rotate(-82 668.57 -327.6658) scale(45.4)" xlink:href="#star5"/>
            <use fill="#C8102E" transform="rotate(-82 668.57 -327.6658) scale(30)" xlink:href="#star5"/>
        </g>
        <g>
            <use fill="#FFF" transform="matrix(50.4 0 0 50.4 900 480)" xlink:href="#star5"/>
            <use fill="#C8102E" transform="matrix(35 0 0 35 900 480)" xlink:href="#star5"/>
        </g>
    </g>
</svg>