<svg xmlns="http://www.w3.org/2000/svg" width="1008.17" height="672.12" viewBox="0 0 756.13 504.09">
  <clipPath id="a">
    <path d="M0 167.75h756.13v168.34H0z"/>
  </clipPath>
  <clipPath id="b">
    <path d="M0 335.51h756.13v168.58H0z"/>
  </clipPath>

  <path fill="#c6363c" d="M0 0h756.13v504.08H0z"/>
  <g clip-path="url(#a)" transform="matrix(1 0 0 1.9975 0 -167.2)">
    <path fill="#0c4076" d="M0 167.62h756.13v168.44H0z"/>
  </g>
  <g clip-path="url(#b)">
    <path fill="#fff" d="M0 334.79h756.13v169.29H0z"/>
  </g>
  <g fill="#edb92e" stroke="#21231e" stroke-miterlimit="22.93">
    <path stroke-width=".66" d="M-76.33 345.66c2.38.75 5.4-.48 6.07-.9.34-.22 1.19.19 1.53.37 10.78 5.8 11.67 5.8 14.77.49 2.8-4.8 4.8-15.1 6.1-22.46.94-1.61 2.34-2.74 3.42-4.24.74 13.72-2.89 29.15-8.36 37.4-2.9 4.35-10.34.43-21.48-4.11-3.04-3.3-4.46-4.83-2.05-6.55z" transform="matrix(.12583 -1 .99997 .12583 0 .13)"/>
    <g stroke-width=".67">
      <path d="M-338.23-120.62a18.79 18.79 0 0 0-.7 2.6c-.3 1.49-.16 3.03.34 4.48-1.65 2.31-3.5 4.83-4.84 7.33-.95 1.78-1.69 3.77-1.13 5.8.6 2.18 2.5 3.66 4.2 4.97a35.61 35.61 0 0 0 7.55 4.1c6.19 2.55 11.11 3.8 14.72 3.91l-2.29-2.1c-6.71-2.16-14.63-5-18.44-7.92-4.94-3.76-4.81-4.66 2.34-14.71.22-.32.74-1.12.57-1.48-.35-.72-.98-4.04.07-6.32-.62-1.15-1.51-.55-2.39-.66z" transform="matrix(-.99997 0 0 -1 0 .13)"/>
      <path d="M-277.8-75.86c.06 1.28-.02 1.06-.21-.9-.21.4-.48.57-.81.56-.58 0-.93-.89-.99-2.87l.1-1.52c-18.32.41-29.18-2.35-31.98-7.65-2.3-4.37 1.61-11.59 7.53-19.83.71-1 .7-.92 0-1.74-1-1.19-2.08-3.2-1.27-4.97-3.58-1.96-7.85-2.44-11.57-.82-.62 1.63-1.95 2.4-3.04 3.14-.22.15-1.01.54-1.1.8-1.95 6.24-3.91 12.01-5.6 17.39-5.28 16.88 41.7 18.42 48.94 18.41z" transform="matrix(-.99997 0 0 -1 0 .13)"/>
      <g stroke-linejoin="round">
        <path d="M326.19-148.47c1.81 3.63 3.71 7.2 6.26 10.28-6.51-4.81-9.94-4.09-10.41 2.17-.39.14-.91.14-1.43.14-4.97-7.7-9.8-6.63-14.5 3.2-6.4-10.1-11.89-9.92-16.2.61-7.37-9.2-13.59-9.23-18.64-.2v1.15c.28-.12.09-.16-.57-.07l-.11.2-.55-.1a20 20 0 0 0-.54.1l-.1-.2c-.67-.1-.86-.05-.58.07v-1.15c-5.05-9.03-11.27-9-18.65.2-4.31-10.53-9.8-10.7-16.2-.62-4.69-9.82-9.52-10.88-14.49-3.19-.52 0-1.04 0-1.43-.14-.48-6.26-3.9-6.98-10.4-2.17 2.53-3.09 4.44-6.65 6.25-10.28 18.76.78 37.45 1.75 56.14 2.73 18.7-.98 37.39-1.95 56.15-2.73z" transform="matrix(.99997 0 0 -1 0 .13)"/>
        <path d="m333.88-133.36-2.04.34c-3.92-9.56-7.44-9.8-8.1-.7.88.32.53 1.84 1.52 1.23.53-.32 1.19.59.75 1.09-1.1.81-2.1.69-3.07-.22-.46 1.45-1.58 2.13-2.97 1.52-.61-.27-.4-1.36.2-1.3.98.1.59-.9.9-1.6-6.96-9.05-10.51-7.98-9.65 3.93-1.65.34-3.58.68-5.3 1.3-6.4-12.85-10.96-13.4-14.65-1.88.8.6.57 2.07 1.72 1.6.65-.27 1.2.87.62 1.36-1.35 1.14-2.81.75-3.8-.7-.78 1.57-2.18 2.13-3.66 1.18-.64-.41-.25-1.62.43-1.44 1.31.35.72-1.36 1.71-1.95-2.83-10.83-17.1-11.56-14.77 4.48l-3.67-.13-3.68.13c2.34-16.04-11.94-15.31-14.77-4.48.99.59.4 2.3 1.7 1.95.68-.18 1.08 1.02.44 1.43-1.48.96-2.88.4-3.67-1.18-.98 1.46-2.44 1.84-3.79.71-.58-.49-.03-1.63.62-1.37 1.15.48.93-1 1.72-1.59-3.69-11.52-8.24-10.97-14.64 1.87-1.73-.61-3.65-.95-5.31-1.3.87-11.9-2.7-12.97-9.64-3.91.3.68-.1 1.7.89 1.6.6-.07.81 1.02.2 1.29-1.4.6-2.52-.07-2.97-1.52-.97.9-1.96 1.03-3.07.22-.43-.5.23-1.4.75-1.09.99.6.64-.91 1.52-1.23-.66-9.1-4.18-8.86-8.1.7l-2.04-.34c-.06-2.25.72-4.64 2.11-6.4 5.88-7.45 10.26-5.76 10.42 2.6 7.7-9.03 13.51-7.88 14.55 1.62 6.48-12 16.87-6.25 17.09 1.02 2.85-10.57 18.65-10.5 19.66 1.66 1.02-12.16 16.82-12.23 19.67-1.66.22-7.27 10.6-13.01 17.08-1.02 1.05-9.5 6.87-10.65 14.56-1.63.16-8.35 4.54-10.04 10.42-2.58a10.17 10.17 0 0 1 2.1 6.39z" transform="matrix(.99997 0 0 -1 0 .13)"/>
      </g>
    </g>
    <path stroke-width=".67" d="M121.68 283.2c-.55-.87-.4-1.04-.76-1.32-.46-.36-1.21-.36-1.93-.25-2.92.46-2.51-1.3-1.22-3.26.64-.98 2.14-1.97 2.92-2.81.78-.85.85-1.55 1.16-1.76 1.12-.03 2.09-.03 2.53-.03.44 0 1.4 0 2.52.03.31.2.38.91 1.16 1.76.78.84 2.28 1.83 2.93 2.81 1.29 1.97 1.7 3.72-1.22 3.26-.73-.11-1.48-.1-1.94.25-.36.28-.21.45-.76 1.32-.35.56-.78.98-1.24 1.27-.46.28-.96.12-1.45.12-.5 0-1 .16-1.46-.13-.46-.28-.89-.7-1.24-1.26z" transform="matrix(0 .99572 1 0 0 .13)"/>
  </g>
  <g stroke="#21231e" stroke-miterlimit="22.93">
    <g fill="#edb92e">
      <path stroke-width=".67" d="M-117.15 281.67c-.26-.63-.54-1.32-1.1-1.9-.85-.89-2.27-.31-3.64.83-.43.36-1.2.54-1.96.53-.76 0-1.52-.18-1.94-.53-1.37-1.15-2.79-1.72-3.64-.83-.56.58-.84 1.27-1.1 1.9.33.06.77.06 1.32-.03.72-.11 1.47-.11 1.93.25.36.28.22.45.76 1.32.35.56.77.98 1.23 1.26.46.28.96.13 1.45.13.5 0 1 .15 1.45-.13.46-.28.88-.7 1.24-1.26.54-.87.4-1.04.75-1.32.46-.36 1.2-.36 1.93-.25.55.09.99.09 1.32.03z" transform="matrix(0 -1 .99997 0 0 .13)"/>
      <path stroke-width=".66" d="M-143.23-186.01c2.38.75 5.4-.48 6.07-.9.33-.22 1.19.19 1.52.37 10.79 5.8 11.68 5.8 14.78.48 2.8-4.8 4.8-15.1 6.1-22.45.93-1.61 2.33-2.74 3.42-4.24.74 13.72-2.9 29.15-8.36 37.4-2.9 4.35-10.34.43-21.48-4.11-3.05-3.3-4.47-4.84-2.05-6.55z" transform="matrix(-.12583 -1 -.99997 .12583 0 .13)"/>
      <path stroke-width=".67" d="M201.86-120.62a18.21 18.21 0 0 0-.69 2.6 8.6 8.6 0 0 0 .33 4.48c-1.65 2.31-3.5 4.83-4.83 7.33-.95 1.78-1.7 3.77-1.13 5.8.6 2.18 2.49 3.66 4.2 4.97a35.54 35.54 0 0 0 7.54 4.1c6.2 2.55 11.12 3.8 14.72 3.91l-2.29-2.1c-6.7-2.16-14.63-5-18.44-7.92-4.93-3.76-4.8-4.66 2.34-14.71.23-.32.74-1.12.57-1.48-.34-.72-.98-4.04.07-6.32-.61-1.15-1.51-.55-2.39-.66z" transform="matrix(.99997 0 0 -1 0 .13)"/>
      <path stroke-width=".67" d="M262.29-75.86c.06 1.28-.03 1.06-.21-.9-.21.4-.48.57-.81.56-.58 0-.93-.89-1-2.87l.11-1.52c-18.32.41-29.18-2.35-31.98-7.65-2.3-4.37 1.61-11.59 7.53-19.83.71-1 .69-.92 0-1.74-1-1.19-2.08-3.2-1.27-4.97-3.59-1.96-7.85-2.44-11.57-.82-.62 1.63-1.96 2.4-3.04 3.14-.22.15-1.02.54-1.1.8-1.95 6.24-3.91 12.01-5.6 17.39-5.28 16.88 41.7 18.42 48.94 18.41z" transform="matrix(.99997 0 0 -1 0 .13)"/>
      <path stroke-width=".62" d="M30.17-278.01 46-283.93c-6-15.66-12.92-34.28-18.91-49.93l-15.85 2.96c13.1 38.18 19.49 55.63 18.93 52.89z" transform="matrix(-.41558 1 -.99998 -.41558 0 .13)"/>
      <g stroke-width=".67">
        <path d="M265.47-145.71v-.1c-9.7-.43-26.87-1.38-51.61-2.95l3.62-17.08c16.43.46 35.61 1.18 52.56 1.69 16.95-.51 36.13-1.23 52.57-1.69l3.62 17.08a3110.86 3110.86 0 0 1-51.61 2.95v.1c.98.2-.54.23-4.57.09-4.04.14-5.56.1-4.58-.09z" transform="matrix(.99997 0 0 -1 0 .13)"/>
        <path d="M270.05-147.73h-3l-.62-.01h-.61l-.43-.01h-.66l-.59-.01h-.12l-.49-.01-1.45-.02h-.26l-.61-.01h-.46l-.63-.02h-.03l-.66-.01h-.21l-.45-.02h-.14l-.52-.01-.66-.02h-.03l-.63-.01h-.28l-2.35-.07h-.32l-.9-.03h-.1l-.78-.03-.52-.02-.37-.01h-.1l-.8-.03h-.04l-.66-.03h-.03l-.62-.02-.42-.02-.89-.03a970.41 970.41 0 0 1-3.48-.15l-.17-.01a691.83 691.83 0 0 1-5.1-.26l-.09-.01-.25-.01c-3.4-.2-6.76-.42-10.12-.67h-.12l-.04-.02c-4.91-.36-9.78-.8-14.6-1.3-2.74-.25-3.26 2.98 0 3.28 4.82.5 9.69.93 14.6 1.3h.04c6.74.51 13.55.9 20.45 1.16l.57.03h.27l.66.03h.05c2.81.1 5.65.18 8.5.24h.44l.02.01.76.01h.12l.63.01.26.01h.4l.5.01h.17l.23.01 1.76.03h1.32l1.94.02h5.44c.64 0 1.3 0 1.94-.02h1.32l1.76-.03h.39l.5-.01h.4l.27-.02h.76l.75-.02h.02l.45-.01c2.84-.06 5.68-.14 8.5-.24h.04l.66-.02.18-.01h.09l.57-.02a549.4 549.4 0 0 0 20.45-1.16l.04-.01c4.91-.37 9.77-.8 14.59-1.3 3.27-.3 2.74-3.53 0-3.28-4.82.5-9.68.94-14.59 1.3l-.04.01h-.12c-3.36.26-6.73.48-10.12.68h-.25l-.1.02c-1.7.1-3.4.18-5.1.26h-.16l-3.48.16-.88.03-.43.02-.63.02h-.02l-.66.03h-.04l-.8.02h-.1l-.37.02-.52.02-.8.02h-.09l-.9.03-.31.01-2.35.06h-.28l-.63.02h-.03l-.66.02-.52.01h-.14l-.45.01h-.21l-.66.02h-.03l-.63.01h-.46l-.61.02h-.26l-1.45.02h-.61l-.59.01-.66.01h-1.04l-.62.01h-1l-2 .01z" transform="matrix(.99997 0 0 -1 0 .13)"/>
      </g>
    </g>
    <g fill="#fff" stroke-width=".67">
      <path d="M227.29-107.74a3.53 3.53 0 0 0 3.53-3.53 3.53 3.53 0 0 0-7.06 0 3.53 3.53 0 0 0 3.53 3.53z" transform="matrix(.99998 0 0 -1 0 .13)"/>
      <path d="M197.23-115.13a3.28 3.28 0 0 0 3.28-3.28 3.28 3.28 0 0 0-3.28-3.27 3.28 3.28 0 0 0-3.28 3.27 3.28 3.28 0 0 0 3.28 3.28z" transform="matrix(.99997 0 0 -1 0 .13)"/>
      <path d="M194.1-109.14a3.28 3.28 0 1 0 0-6.55 3.28 3.28 0 0 0 0 6.55zm-2.95 6.05a3.28 3.28 0 1 0 0-6.56 3.28 3.28 0 0 0 0 6.56z" transform="matrix(.99997 0 0 -1 0 .13)"/>
    </g>
    <path fill="#edb92e" stroke-width=".67" d="M270.05-119.56a4.29 4.29 0 0 0 4.29-4.28 4.29 4.29 0 0 0-4.29-4.3 4.29 4.29 0 0 0-4.29 4.3 4.28 4.28 0 0 0 4.29 4.28z" transform="matrix(.99998 0 0 -1 0 .13)"/>
    <path fill="#edb92e" stroke-width=".67" d="M240.42-130.56c1.9 0 1.2-3.32.78-4.04-.55-.95-1-.95-1.56 0-.42.72-1.11 4.04.78 4.04z" transform="matrix(.99925 -.06748 -.06753 -1 0 .13)"/>
    <path fill="#fff" stroke-width=".67" d="M240.24-132.38c4.45 0 2.82-7.8 1.83-9.5-1.3-2.22-2.36-2.22-3.66 0-1 1.7-2.62 9.5 1.83 9.5z" transform="matrix(.99997 -.06753 -.06753 -1 0 .13)"/>
    <path fill="#edb92e" stroke-width=".64" d="M159.39-169.78c1.81 0 1.15-3.17.74-3.86-.53-.9-.96-.9-1.49 0-.4.69-1.06 3.86.75 3.86z" transform="matrix(.99924 -.31799 -.3182 -1 0 .13)"/>
    <path fill="#fff" stroke-width=".64" d="M159.27-171.52c4.25 0 2.7-7.45 1.75-9.08-1.24-2.11-2.26-2.11-3.5 0-.95 1.63-2.5 9.08 1.75 9.08z" transform="matrix(.99997 -.31822 -.31821 -1 0 .13)"/>
    <g stroke-width=".67">
      <path fill="#edb92e" stroke-linejoin="round" d="M260.1-78.92c-9.55.86-19.31-.11-28.98-3.95-8.15-3.23-7.35-12.68 2.59-25.79a13.8 13.8 0 0 1-1.5-6.11c1.05.06 1.8.03 2.72.06-.72 1.58.08 3.53 1 4.9.6.9.7.74 0 1.74-5.92 8.24-9.84 15.47-7.53 19.83 2.8 5.3 13.66 8.06 31.98 7.65l-.1 1.47-.18.2z" transform="matrix(.99997 0 0 -1 0 .13)"/>
      <g fill="#fff">
        <path d="M213.76-81.6a3.4 3.4 0 1 0 0-6.82 3.4 3.4 0 0 0 0 6.81z" transform="matrix(.99997 0 0 -1 0 .13)"/>
        <path d="M220.44-79.43a3.4 3.4 0 1 0 0-6.8 3.4 3.4 0 0 0 0 6.8z" transform="matrix(.99997 0 0 -1 0 .13)"/>
      </g>
    </g>
    <g fill="#edb92e" stroke-width=".67">
      <path d="m221.32-82.33 1.02-1.35c-5.38-2.95-7.6-6.06-7.08-9.19.1-.54 1.72-6.26 5.38-17.35a32.38 32.38 0 0 0 5.58-4.63c-.14-.15.39-.64.23-.77.37-1.7-1.54-1.35-2.82-.93-.61 1.62-2.5 3.35-3.58 4.1-.23.14-1.02.53-1.1.79-1.96 6.24-3.92 12.01-5.6 17.39-1.7 5.4 1.97 9.22 7.97 11.94z" transform="matrix(.99997 0 0 -1 0 .13)"/>
      <path stroke-linejoin="round" d="m190.93-135.37-.28-1.07a10.55 10.55 0 0 0-4.01 0c1.97 1.68 3.37 1.97 4.29 1.07z" transform="matrix(.99997 -.0678 -.0678 -1 0 .13)"/>
      <path d="M119.94-200c.22-.98.38-1.07.46-1.5.1-.55.05-1.31-.4-1.83-1.28-2.13 1.02-2.18 2.74-1.35 1.24.6 2.65.3 3.72-.28 1.26-.67 1.83-.53 2.17-.05.22.33.43.64.6.93.68.57.57 1-.32 1.09-.87 2.12-2.9 2.83-4.7 3.46-2.62.93-3.24 4.3-4.27-.47z" transform="matrix(0 1 -.99966 0 0 .13)"/>
      <path d="M201.13-120.03c1.85-.66 2.06.37 3.31.32-.5-2.83-.99-4.3-3.95-2.78-1.63.84-3.72-.39-4.12-1.3-.14-.33-1.09.36-1.44 1.12-1.45 3.17 3.72 3.52 6.2 2.64z" transform="matrix(.99818 0 0 -1 0 .13)"/>
    </g>
    <g fill="#fff" stroke-width=".67">
      <path d="M257.13-71.61a3.39 3.39 0 1 0 0-6.78 3.39 3.39 0 0 0 0 6.78z" transform="matrix(.99998 0 0 -1 0 .13)"/>
      <path d="M250.19-71.61a3.39 3.39 0 1 0 0-6.78 3.39 3.39 0 1 0 0 6.78z" transform="matrix(.99998 0 0 -1 0 .13)"/>
      <path d="M243.25-72.16a3.38 3.38 0 0 0 3.39-3.39 3.39 3.39 0 1 0-6.78 0 3.38 3.38 0 0 0 3.39 3.39z" transform="matrix(.99998 0 0 -1 0 .13)"/>
      <path d="M236.85-73.38a3.4 3.4 0 0 0 3.39-3.4 3.39 3.39 0 1 0-3.39 3.4z" transform="matrix(.99998 0 0 -1 0 .13)"/>
      <path d="M194.76-90.84a3.4 3.4 0 1 0 0-6.8 3.4 3.4 0 0 0 0 6.8z" transform="matrix(.99997 0 0 -1 0 .13)"/>
      <path d="M200.59-87.16a3.4 3.4 0 0 0 3.4-3.4 3.4 3.4 0 1 0-3.4 3.4zm6.63 3.1a3.4 3.4 0 1 0-3.4-3.39 3.4 3.4 0 0 0 3.4 3.4zm-16.97-12.3a3.4 3.4 0 1 0 0-6.81 3.4 3.4 0 0 0 0 6.8z" transform="matrix(.99997 0 0 -1 0 .13)"/>
    </g>
    <path fill="#edb92e" stroke-width=".67" d="m257.44-155.05 12.6 6.3 12.6-6.3-12.6-6.3z" transform="matrix(.99997 0 0 -1 0 .13)"/>
    <path fill="#0c4076" stroke-width=".67" d="M151.89 270.04c0 3.13 1.7 5.67 3.8 5.67 2.1 0 3.8-2.54 3.8-5.67s-1.7-5.67-3.8-5.67c-2.1 0-3.8 2.54-3.8 5.67z" transform="matrix(0 .99538 1 0 0 .13)"/>
    <path fill="#edb92e" stroke-width=".67" d="m219.03-170.03 12.58 6.29 12.58-6.3-12.58-6.28z" transform="matrix(.99997 -.06114 -.06114 -1 0 .13)"/>
    <path fill="#c6363c" stroke-width=".67" d="M-166.94-231.6c0-3.13-1.7-5.66-3.79-5.66-2.1 0-3.8 2.53-3.79 5.66 0 3.13 1.7 5.66 3.8 5.66 2.08 0 3.78-2.54 3.78-5.66z" transform="matrix(-.06085 -.99538 -1 .06112 0 .13)"/>
    <g stroke-width=".67">
      <path fill="#edb92e" d="m214.76-151.57 13.18-4.99-10.88-7.28c-2.82.94-5.06 10.52-2.3 12.27z" transform="matrix(.99997 0 0 -1 0 .13)"/>
      <path fill="#0c4076" d="M215.01-154c3.12.32 5.82-1.1 6.03-3.18.2-2.08-2.15-4.02-5.26-4.34-2.03-.2-3.29 1.56-3.5 3.45-.23 1.87.6 3.86 2.73 4.07z" transform="matrix(.99997 0 0 -1 0 .13)"/>
      <path fill="#fff" d="M256.37-157.38a1.77 1.77 0 1 0 0-3.54 1.77 1.77 0 0 0 0 3.54zm-27.02-1.5a1.77 1.77 0 1 0 0-3.54 1.77 1.77 0 1 0 0 3.54zm-.95 8.17a1.77 1.77 0 0 0 0-3.54 1.77 1.77 0 0 0 0 3.54zm27.9 1.15a1.77 1.77 0 0 0 0-3.54 1.77 1.77 0 0 0 0 3.54z" transform="matrix(.99997 0 0 -1 0 .13)"/>
    </g>
    <g fill="#edb92e">
      <path stroke-width=".67" d="M133.71 208.48c-.4 1.34 2.56 3.44 2.5 3.93-1.7.66-5.74-.68-8.94-3.07-.53-1.61-1.57-1.76-3.98-2.1-.72-.1-.22-1.48 1-1.5 1.32-.03 2.05-.13 3.17.16.45.11.87.05 1.27-.44 1 2.52 2.22 3.14 4.98 3.02z" transform="matrix(0 1 .99969 0 0 .13)"/>
      <path stroke-linejoin="round" stroke-width=".67" d="M123.33-207.28c.56.23 1.01.3 1.85.36.65.04 1.25-.2 1.78-.61s1-1 1.39-1.67c.24-.4.9-.88 1.64-1.25a5.88 5.88 0 0 1 2.18-.66c1.96-.05 3.68-.44 4.02-1.34.23-.59.2-.83.08-1.29-.35.13-.85.09-1.34.4-.64.41-1.37.77-2 .8-.5.03-.84.27-1.82.07-.63-.12-.87-.54-1.46-.46-1.13.14-3.3 1.04-3.3 2.35-.01 1.3-.15 1.9-1.86 2.58-.59.23-.87.52-1.16.72z" transform="matrix(0 1 -.99969 0 0 .13)"/>
      <path stroke-width=".66" d="M178.91-155.31c.39.21.83.34 1.25.43a3.18 3.18 0 0 0 2.08-.22c2.9-1.38 3.42-6.94-.11-7.72-.67.02-1.19.7-1.58 2.1a10.05 10.05 0 0 1-1.67 3.95c-.4.69-.33 1.2.03 1.46z" transform="matrix(.99836 -.15239 -.15263 -1 0 .13)"/>
      <path stroke-width=".66" d="M180.37-155.9c3.1.68 4.4-5.2 1.51-5.84-1.55-.34-1.42 1.5-1.55 2.56-.17 1.42-2.93 2.62.04 3.28z" transform="matrix(.99846 -.15241 -.15263 -1 0 .13)"/>
    </g>
    <path fill="#0c4076" stroke-width=".66" d="M180.28-156.77c1.5.33 2.96-3.28 1.06-3.76-1.28-.32-2.13.5-2.36 1.55-.24 1.06.24 1.98 1.3 2.21z" transform="matrix(.99998 -.15264 -.15264 -1 0 .13)"/>
    <path fill="#edb92e" stroke-width=".67" d="m-319.05-137.13 12.58 6.29 12.58-6.29-12.58-6.29z" transform="matrix(-.99997 -.06114 .06114 -1 0 .13)"/>
    <path fill="#c6363c" stroke-width=".67" d="M-133.9 306.46c0-3.13-1.7-5.66-3.79-5.66-2.1 0-3.8 2.53-3.8 5.66 0 3.13 1.7 5.66 3.8 5.66 2.1 0 3.79-2.54 3.8-5.66z" transform="matrix(.06085 -.99538 1 .06112 0 .13)"/>
    <path fill="#edb92e" stroke-width=".67" d="m-325.33-151.57 13.18-4.99-10.88-7.28c-2.82.94-5.06 10.52-2.3 12.27z" transform="matrix(-.99997 0 0 -1 0 .13)"/>
    <path fill="#0c4076" stroke-width=".67" d="M-325.08-154c3.11.32 5.81-1.1 6.02-3.18.21-2.08-2.14-4.02-5.25-4.34-2.03-.2-3.29 1.56-3.5 3.45-.23 1.87.6 3.86 2.73 4.07z" transform="matrix(-.99997 0 0 -1 0 .13)"/>
    <g fill="#fff" stroke-width=".67">
      <path d="M-283.73-157.38c.98 0 1.77-.8 1.77-1.77a1.77 1.77 0 0 0-1.77-1.77 1.77 1.77 0 1 0 0 3.54zm-27.01-1.5a1.77 1.77 0 1 0 0-3.53 1.77 1.77 0 0 0 0 3.53zm-.96 8.17a1.77 1.77 0 0 0 0-3.54 1.77 1.77 0 0 0 0 3.54zm27.91 1.15a1.77 1.77 0 0 0 0-3.54 1.77 1.77 0 0 0 0 3.54z" transform="matrix(-.99997 0 0 -1 0 .13)"/>
      <path d="M224.57-101.96a3.53 3.53 0 0 0 3.53-3.53 3.53 3.53 0 0 0-3.53-3.53 3.53 3.53 0 0 0-3.53 3.53 3.53 3.53 0 0 0 3.53 3.53z" transform="matrix(.99998 0 0 -1 0 .13)"/>
      <path d="M221.99-96.1a3.53 3.53 0 0 0 0-7.06 3.53 3.53 0 0 0 0 7.06z" transform="matrix(.99998 0 0 -1 0 .13)"/>
      <path d="M230.44-75.45a3.4 3.4 0 1 0 0-6.8 3.4 3.4 0 0 0 0 6.8z" transform="matrix(.99997 0 0 -1 0 .13)"/>
      <path d="M224.72-78.05a3.53 3.53 0 0 0 3.53-3.52 3.53 3.53 0 0 0-7.06 0 3.53 3.53 0 0 0 3.53 3.52z" transform="matrix(.99998 0 0 -1 0 .13)"/>
      <path d="M220.51-83.03a3.53 3.53 0 0 0 0-7.06 3.53 3.53 0 1 0 0 7.06z" transform="matrix(.99998 0 0 -1 0 .13)"/>
      <path d="M219.83-89.31a3.53 3.53 0 1 0 0-7.06 3.53 3.53 0 0 0 0 7.06z" transform="matrix(.99998 0 0 -1 0 .13)"/>
    </g>
    <path fill="#edb92e" stroke-width=".67" d="M271.77-49.83a1.72 1.72 0 0 1 0 3.44 1.72 1.72 0 0 1-3.45 0 1.73 1.73 0 0 1-1.68-1.72c0-.94.75-1.7 1.68-1.72v-3.54h-3.05a1.72 1.72 0 0 1-3.44.03 1.73 1.73 0 0 1-1.72-1.72c0-.95.77-1.72 1.72-1.72a1.72 1.72 0 0 1 3.44-.04h3.05v-11.76h3.45v11.76h3.04a1.73 1.73 0 0 1 3.44.04 1.72 1.72 0 0 1 0 3.44 1.72 1.72 0 0 1-1.71 1.68 1.72 1.72 0 0 1-1.73-1.7h-3.04z" transform="matrix(.99997 0 0 -1 0 .13)"/>
    <path fill="#0c4076" stroke-width=".67" d="M270.05-60.93a9.52 9.52 0 0 0 9.51-9.52 9.51 9.51 0 0 0-9.51-9.51 9.51 9.51 0 1 0 0 19.03z" transform="matrix(.99998 0 0 -1 0 .13)"/>
    <path fill="#edb92e" stroke-width=".67" d="M270.05-60.93c.59 0 1.16-.06 1.73-.16v-7.49h-3.46v7.5a9.69 9.69 0 0 0 1.73.15z" transform="matrix(.99997 0 0 -1 0 .13)"/>
    <g stroke-width=".67">
      <path fill="#edb92e" d="M279.36-68.52a9.6 9.6 0 0 0 .1-3.27c-3.13.1-6.26.18-9.42.18-3.15 0-6.29-.08-9.42-.18a9.6 9.6 0 0 0-.1 1.34c0 .66.08 1.31.2 1.93 3.1.11 6.2.18 9.32.18s6.23-.07 9.32-.18z" transform="matrix(.99997 0 0 -1 0 .13)"/>
      <path fill="#edb92e" stroke-linejoin="round" d="M262.66-76.4c-2.02 1.25-2.37-.67-2.32-2.6.2-7.29 1.6-14.21-.37-23.13-.78-3.56-2.05-5.57-.82-6.26 3.15-1.75 4.59-3.35 4.09-4.22.93-1.77 3.24-1.42 6.8-.86 3.56-.56 5.88-.9 6.8.86-.5.87.95 2.47 4.09 4.22 1.23.7-.03 2.7-.82 6.26-1.96 8.92-.56 15.84-.37 23.12.05 1.93-.3 3.86-2.31 2.62-3.97-2.45-10.76-2.47-14.77 0z" transform="matrix(.99997 0 0 -1 0 .13)"/>
      <g fill="#fff">
        <path d="M270.05-103.79a3.78 3.78 0 1 0 0-7.56 3.78 3.78 0 0 0 0 7.56z" transform="matrix(.99998 0 0 -1 0 .13)"/>
        <path d="M270.05-97.23a3.78 3.78 0 1 0-3.78-3.78 3.78 3.78 0 0 0 3.78 3.78z" transform="matrix(.99998 0 0 -1 0 .13)"/>
        <path d="M270.05-90.94a3.78 3.78 0 0 0 3.78-3.78 3.78 3.78 0 0 0-7.56 0 3.78 3.78 0 0 0 3.78 3.78zm0 17.9a3.78 3.78 0 0 0 3.78-3.78 3.78 3.78 0 0 0-7.56 0 3.78 3.78 0 0 0 3.78 3.78z" transform="matrix(.99998 0 0 -1 0 .13)"/>
        <path d="M270.05-78.59a3.78 3.78 0 0 0 0-7.56 3.78 3.78 0 0 0 0 7.56z" transform="matrix(.99998 0 0 -1 0 .13)"/>
        <path d="M270.05-84.64a3.78 3.78 0 0 0 3.78-3.78 3.78 3.78 0 0 0-7.56 0 3.78 3.78 0 0 0 3.78 3.78z" transform="matrix(.99998 0 0 -1 0 .13)"/>
      </g>
    </g>
    <g fill="#edb92e">
      <path stroke-linejoin="round" stroke-width=".5" d="M-194.18-91.5c2.28-.54 4.05-.54 5.31 0 2.86-4.88 7.76-9.82 14.82-14.8 1.02-.78 1.65-.91 1.97-.54.28.33-.03.96-1.1 1.98-3.72 2.92-7.05 5.39-9.51 7.89-2.2 2.23-3.65 4.52-5.28 7.08-.23.36-.66.35-2.2-.17-1.14-.39-2.12-.39-2.83-.05a.9.9 0 0 0-.37-.49c-.92-.58-1.16-.96-.81-.9z" transform="matrix(-.89741 -1 -.99997 .89744 0 .13)"/>
      <path stroke-linejoin="round" stroke-width=".5" d="M74.3 207.66c2.27-.55 4.04-.55 5.3 0 2.86-4.88 7.77-9.83 14.83-14.8 1.02-.78 1.64-.91 1.97-.54.28.33-.04.96-1.1 1.98-3.73 2.91-7.05 5.38-9.52 7.88-2.2 2.24-3.64 4.53-5.27 7.09-.23.35-.67.35-2.2-.17-1.14-.39-2.12-.4-2.83-.05a.9.9 0 0 0-.37-.49c-.93-.58-1.16-.96-.81-.9z" transform="matrix(.89741 -1 .99997 .89744 0 .13)"/>
      <path stroke-width=".67" d="M-273.91-110.68c-.55-.87-.4-1.04-.76-1.32-.46-.36-1.21-.36-1.94-.25-2.92.46-2.5-1.3-1.22-3.26.65-.98 2.15-1.97 2.93-2.82.78-.84.85-1.54 1.16-1.75a70.92 70.92 0 0 1 2.53-.03c.44 0 1.4 0 2.52.03.31.2.38.91 1.16 1.75.78.85 2.28 1.84 2.93 2.82 1.3 1.97 1.7 3.72-1.22 3.26-.73-.11-1.48-.1-1.94.25-.36.28-.21.45-.76 1.32-.35.56-.78.98-1.24 1.27-.46.28-.96.12-1.46.12-.49 0-.99.16-1.45-.12-.46-.28-.89-.7-1.24-1.27z" transform="matrix(-.99567 0 0 -1 0 .13)"/>
    </g>
  </g>
  <path fill="#21231e" d="m269.6 120.3-.49-.07a9.7 9.7 0 0 0-2.4-5.3c1.47 1 2.56 3.13 2.89 5.37m.88 0 .5-.07a9.67 9.67 0 0 1 2.39-5.3c-1.47 1-2.56 3.13-2.89 5.37"/>
  <path fill="#edb92e" stroke="#21231e" stroke-miterlimit="22.93" stroke-width=".67" d="M276.73-112.21c-.26-.63-.54-1.32-1.1-1.9-.85-.89-2.27-.32-3.64.83-.43.36-1.2.54-1.96.53-.76 0-1.52-.18-1.94-.53-1.37-1.15-2.79-1.72-3.64-.84-.56.59-.84 1.28-1.1 1.91.34.06.77.06 1.32-.03.72-.11 1.48-.11 1.93.25.36.28.21.45.76 1.31.35.56.77.99 1.23 1.27.46.28.96.13 1.45.13.5 0 1 .15 1.45-.13.46-.28.88-.7 1.24-1.27.53-.86.4-1.03.75-1.31.46-.36 1.2-.36 1.93-.25.56.08.99.09 1.32.03z" transform="matrix(.99997 0 0 -1 0 .13)"/>
  <path fill="#edb92e" stroke="#21231e" stroke-miterlimit="22.93" stroke-width=".67" d="M121.68-256.88c-.55-.87-.4-1.04-.76-1.32-.46-.36-1.21-.36-1.93-.25-2.92.46-2.51-1.29-1.22-3.25.64-.99 2.14-1.98 2.92-2.82.78-.85.85-1.55 1.16-1.76a83.32 83.32 0 0 1 5.05 0c.31.21.38.91 1.16 1.76.78.84 2.28 1.83 2.93 2.82 1.29 1.96 1.7 3.7-1.22 3.25-.73-.11-1.48-.1-1.94.25-.36.28-.21.45-.76 1.32a3.8 3.8 0 0 1-1.24 1.27c-.46.28-.96.13-1.45.13-.5 0-1 .15-1.46-.14-.46-.27-.89-.7-1.24-1.26z" transform="matrix(0 .99572 -1 0 0 .13)"/>
  <path fill="#21231e" d="m266.37 124.42-.07.49a9.65 9.65 0 0 0-5.3 2.4c1-1.47 3.12-2.56 5.37-2.89m0-.89-.07-.49a9.69 9.69 0 0 1-5.3-2.4c1 1.47 3.12 2.57 5.37 2.9"/>
  <path fill="#edb92e" stroke="#21231e" stroke-miterlimit="22.93" stroke-width=".67" d="M-117.15-258.42c-.26-.63-.54-1.32-1.1-1.9-.85-.9-2.27-.32-3.64.83-.43.36-1.2.53-1.96.53s-1.52-.18-1.94-.53c-1.37-1.15-2.79-1.72-3.64-.84-.56.59-.84 1.28-1.1 1.91.33.06.77.05 1.32-.04.72-.1 1.47-.1 1.93.25.36.28.22.45.76 1.32.35.56.77.99 1.23 1.27.46.28.96.13 1.45.13.5 0 1 .15 1.45-.13.46-.28.88-.7 1.24-1.27.54-.87.4-1.04.75-1.32.46-.36 1.2-.36 1.93-.25.55.1.99.1 1.32.04z" transform="matrix(0 -1 -.99997 0 0 .13)"/>
  <path fill="#edb92e" stroke="#21231e" stroke-miterlimit="22.93" stroke-width=".67" d="M-127.07 283.2c-.55-.87-.4-1.04-.76-1.32-.46-.36-1.21-.36-1.93-.25-2.92.46-2.51-1.3-1.22-3.26.64-.98 2.14-1.97 2.92-2.81.78-.85.85-1.55 1.16-1.76 1.12-.03 2.09-.03 2.53-.03.44 0 1.4 0 2.52.03.31.2.38.91 1.16 1.76.78.84 2.28 1.83 2.92 2.81 1.3 1.97 1.7 3.72-1.22 3.26-.72-.11-1.47-.1-1.93.25-.36.28-.21.45-.76 1.32-.35.56-.78.98-1.24 1.27-.46.28-.96.12-1.46.12s-1 .16-1.45-.13c-.46-.28-.89-.7-1.24-1.26z" transform="matrix(0 -.99572 1 0 0 .13)"/>
  <path fill="#21231e" d="m273.71 123.53.07-.49a9.7 9.7 0 0 0 5.3-2.4c-1 1.47-3.12 2.57-5.37 2.9m0 .88.07.49a9.67 9.67 0 0 1 5.3 2.4c-1-1.47-3.12-2.56-5.37-2.89"/>
  <g stroke="#21231e" stroke-miterlimit="22.93" stroke-width=".67">
    <g fill="#edb92e">
      <path d="M130.53 281.67c-.26-.63-.54-1.32-1.1-1.9-.85-.89-2.27-.31-3.64.83-.43.36-1.2.54-1.96.53-.76 0-1.52-.18-1.94-.53-1.37-1.15-2.79-1.72-3.64-.83-.56.58-.84 1.27-1.1 1.9.33.06.77.06 1.32-.03.72-.11 1.47-.11 1.93.25.36.28.21.45.75 1.32.36.56.78.98 1.24 1.26.46.28.95.13 1.45.13s1 .15 1.45-.13c.46-.28.88-.7 1.23-1.26.54-.87.4-1.04.76-1.32.46-.36 1.2-.36 1.93-.25.55.09.99.09 1.32.03z" transform="matrix(0 1 .99997 0 0 .13)"/>
      <path d="M270.05-119.56a4.29 4.29 0 0 0 4.29-4.28 4.29 4.29 0 0 0-4.29-4.3 4.29 4.29 0 0 0-4.29 4.3 4.28 4.28 0 0 0 4.29 4.28z" transform="matrix(.99998 0 0 -1 0 .13)"/>
      <path d="M270.04-120.69a3.15 3.15 0 0 0 0-6.3 3.15 3.15 0 0 0 0 6.3z" transform="matrix(.99998 0 0 -1 0 .13)"/>
    </g>
    <path fill="#0c4076" d="M270.05-121.86a1.98 1.98 0 0 0 1.98-1.98 1.99 1.99 0 0 0-3.96 0c0 1.1.88 1.98 1.98 1.98z" transform="matrix(.99998 0 0 -1 0 .13)"/>
  </g>
  <path fill="#21231e" d="m202.9 127.72.38-.16a3.81 3.81 0 0 1-.71-3.44c-.73.9-.56 2.3.33 3.6"/>
  <path fill="#edb92e" stroke="#21231e" stroke-miterlimit="22.93" stroke-width=".67" d="M230.47-113.1c.74-.93.65-1.15 1.05-1.41.52-.35 1.23-.23 1.88.02 2.7 1.02 2.7-1.1 1.91-3.54-.38-1.18-1.52-2.46-2.04-3.46-.5-.98-.39-1.72-.62-1.97a62.12 62.12 0 0 0-2.2-.32 53.34 53.34 0 0 0-2.16-.27c-.32.18-.56.88-1.44 1.65-.9.76-2.45 1.6-3.28 2.54-1.69 1.91-2.58 3.74.07 3.68.66-.01 1.32.1 1.62.58.23.36.05.53.28 1.6.15.71.41 1.28.75 1.68.34.41.83.32 1.29.4.46.1.88.36 1.39.1.5-.25 1.02-.67 1.5-1.28z" transform="matrix(.99997 0 0 -1 0 .13)"/>
  <path fill="#21231e" d="m230.08 123.97-.44-.02a12.96 12.96 0 0 0-3.5-5.24c1.57.86 3.09 2.98 3.94 5.26m.77-.1.41-.14c-.28-2.2.04-4.14.85-5.99-1.08 1.31-1.53 3.75-1.26 6.12"/>
  <path fill="#edb92e" stroke="#21231e" stroke-miterlimit="22.93" stroke-width=".67" d="M234.66-114.23c-.1-.78-.2-1.63-.6-2.38-.58-1.12-2.03-.69-3.59.39-.49.34-1.23.42-1.92.3-.7-.13-1.32-.44-1.6-.9-.88-1.45-1.95-2.26-2.94-1.43-.66.55-1.1 1.26-1.53 1.91.27.12.65.18 1.16.16.66-.01 1.32.1 1.62.58.23.37.06.53.28 1.6.15.71.41 1.27.75 1.68.34.41.83.32 1.3.4.45.1.87.37 1.38.11a4.6 4.6 0 0 0 1.5-1.29c.74-.92.65-1.15 1.05-1.42.52-.34 1.23-.21 1.89.03.5.2.92.28 1.25.26z" transform="matrix(.99997 0 0 -1 0 .13)"/>
  <path fill="#edb92e" stroke="#21231e" stroke-miterlimit="22.93" stroke-width=".68" d="M219.95-125.32c.43.52.6.4.68.73.1.42-.15 1.09-.47 1.71-1.3 2.53.08 2.31 1.94 1.32.47-.25 1.03-.7 1.57-1.16.55-.47 1.1-.95 1.55-1.28.92-.66 1.5-.68 1.76-.95.41-1.02.75-1.91.9-2.31l.85-2.31c-.06-.29-.6-.37-.99-1.1-.4-.71-.7-2.02-1.17-2.64-.7-.93-1.35-1.48-1.84-1.39-.5.1-.85.82-1 2.42-.04.63-.4 1.3-.8 1.68-.33.3-.4.18-1.2.62a5.25 5.25 0 0 0-1.3 1.04c-.35.38-.4.8-.56 1.23-.16.43-.43.85-.39 1.26.04.4.2.8.47 1.13z" transform="matrix(1 0 0 -.99584 0 .13)"/>
  <path fill="#21231e" d="m228.12 127.65.13.52a4.9 4.9 0 0 0-3.36 2.69c.12-.77.5-1.46 1.07-2a4.93 4.93 0 0 1 2.16-1.2m-.32-.93-.24-.51a8.22 8.22 0 0 1-2.6-.66c-.83-.36-1.65-.86-2.46-1.47a8.75 8.75 0 0 0 5.3 2.64"/>
  <path fill="#edb92e" stroke="#21231e" stroke-linejoin="round" stroke-miterlimit="22.93" stroke-width=".67" d="M219.74-120.74c.55-.2.92-.45 1.55-.97.49-.4.75-.97.84-1.62.1-.66.02-1.4-.16-2.14-.12-.46.02-1.24.3-2 .26-.77.67-1.52 1.08-1.93 1.36-1.35 2.3-2.77 1.93-3.65a1.81 1.81 0 0 0-.82-1c-.16.34-.55.63-.68 1.19a4.27 4.27 0 0 1-.87 1.92c-.33.35-.4.74-1.23 1.26-.54.32-1 .18-1.35.62-.7.86-1.63 2.96-.73 3.92.9.95 1.21 1.48.46 3.1-.25.56-.25.96-.32 1.3z" transform="matrix(.99997 0 0 -1 0 .13)"/>
  <path fill="#edb92e" stroke="#21231e" stroke-miterlimit="22.93" stroke-width=".63" d="M-187.65 182.9c-.34-.82-.18-.94-.45-1.23-.35-.36-1.03-.46-1.7-.46-2.62 0-1.94-1.38-.46-2.84.73-.72 2.22-1.36 3.05-1.96.84-.6 1.02-1.17 1.33-1.3 1 .08 1.9.17 2.29.22.4.03 1.3.12 2.36.26.25.2.21.8.84 1.59.63.8 1.96 1.83 2.47 2.77 1.04 1.93 1.21 3.59-1.71 2.73-.7-.2-1.46-.3-1.96-.05-.4.2-.28.37-.96 1.06a3.82 3.82 0 0 1-1.41.95c-.5.18-.94-.04-1.42-.11-.47-.08-.96-.02-1.35-.34a3.34 3.34 0 0 1-.92-1.29z" transform="matrix(-.3224 -.9955 1 -.32386 0 .13)"/>
  <path fill="#21231e" d="m234.43 125.71-.04-.47a7.82 7.82 0 0 0 4.28-3c-.63 1.6-2.33 2.9-4.24 3.47m.18.83.16.45c1.86.04 3.53.65 5.1 1.73-1.15-1.28-3.23-2.1-5.26-2.18"/>
  <g stroke="#21231e" stroke-miterlimit="22.93">
    <g fill="#edb92e">
      <path stroke-width=".68" d="M242.63-132.12c-.6.18-1.26.38-1.86.84-.93.72-.66 2.1.13 3.52.26.45.29 1.22.16 1.97a3.6 3.6 0 0 1-.83 1.87c-1.3 1.25-2.1 2.63-1.44 3.64.45.68 1.05 1.07 1.6 1.44.12-.35.2-.81.2-1.41.03-.78.16-1.56.58-1.99.33-.33.46-.16 1.37-.6a3.98 3.98 0 0 0 1.4-1.11c.35-.44.28-.96.35-1.45.08-.5.3-.98.1-1.46a3.49 3.49 0 0 0-.99-1.34c-.7-.62-.89-.5-1.09-.86-.25-.47-.13-1.18.09-1.84.16-.51.24-.91.23-1.22z" transform="matrix(1 0 0 -.99504 0 .13)"/>
      <g stroke-width=".67">
        <path d="M230.37-122.2c2.23.1 4.39-1.83 4.7-4.2.32-2.37-1.24-4.21-3.38-4.24-2.14-.02-4.13 1.71-4.54 4-.4 2.29.99 4.33 3.22 4.44z" transform="matrix(.99997 0 0 -1 0 .13)"/>
        <path d="M230.56-123.36c1.63.07 3.2-1.33 3.43-3.07.25-1.73-.88-3.1-2.47-3.13-1.57-.03-3.05 1.29-3.34 2.96-.3 1.7.75 3.17 2.38 3.24z" transform="matrix(.99997 0 0 -1 0 .13)"/>
      </g>
    </g>
    <path fill="#0c4076" stroke-width=".67" d="M230.74-124.55c1.02.04 2-.83 2.16-1.92.15-1.08-.55-1.96-1.55-1.98-1-.02-1.94.8-2.12 1.87-.18 1.07.5 2 1.51 2.03z" transform="matrix(.99997 0 0 -1 0 .13)"/>
    <g fill="#fff" stroke-width=".67">
      <path d="M-312.8-107.74a3.53 3.53 0 0 0 3.53-3.53 3.53 3.53 0 0 0-7.06 0 3.53 3.53 0 0 0 3.53 3.53z" transform="matrix(-.99998 0 0 -1 0 .13)"/>
      <path d="M-342.86-115.13a3.28 3.28 0 0 0 3.27-3.28 3.28 3.28 0 1 0-6.55 0 3.28 3.28 0 0 0 3.28 3.28z" transform="matrix(-.99997 0 0 -1 0 .13)"/>
      <path d="M-345.99-109.14a3.28 3.28 0 1 0 0-6.55 3.28 3.28 0 0 0 0 6.55zm-2.95 6.05a3.28 3.28 0 1 0 0-6.56 3.28 3.28 0 0 0 0 6.56z" transform="matrix(-.99997 0 0 -1 0 .13)"/>
    </g>
    <path fill="#edb92e" stroke-width=".67" d="M-297.62-94.25c1.9 0 1.2-3.32.78-4.05-.55-.94-1-.94-1.56 0-.42.73-1.11 4.05.78 4.05z" transform="matrix(-.99925 -.06748 .06753 -1 0 .13)"/>
    <path fill="#fff" stroke-width=".67" d="M-297.4-96.07c4.45 0 2.82-7.8 1.83-9.5-1.3-2.22-2.36-2.22-3.66 0-1 1.7-2.62 9.5 1.83 9.5z" transform="matrix(-.99997 -.06753 .06753 -1 0 .13)"/>
    <path fill="#edb92e" stroke-width=".64" d="M-331.4-13.71c1.81 0 1.15-3.18.74-3.87-.52-.9-.95-.9-1.48 0-.4.69-1.07 3.86.74 3.87z" transform="matrix(-.99924 -.31799 .3182 -1 0 .13)"/>
    <path fill="#fff" stroke-width=".64" d="M-331.16-15.46c4.25 0 2.7-7.45 1.75-9.07-1.24-2.12-2.26-2.12-3.5 0-.95 1.62-2.5 9.08 1.75 9.08z" transform="matrix(-.99997 -.31822 .31821 -1 0 .13)"/>
    <g stroke-width=".67">
      <path fill="#edb92e" stroke-linejoin="round" d="M-279.99-78.92c-9.55.86-19.32-.11-28.98-3.95-8.15-3.23-7.35-12.68 2.58-25.79a13.74 13.74 0 0 1-1.49-6.11c1.05.06 1.79.03 2.72.06-.72 1.58.08 3.53 1 4.9.59.9.7.74-.01 1.74-5.91 8.24-9.83 15.47-7.53 19.83 2.8 5.3 13.67 8.06 32 7.65l-.11 1.47-.18.2z" transform="matrix(-.99997 0 0 -1 0 .13)"/>
      <g fill="#fff">
        <path d="M-326.32-81.6a3.4 3.4 0 1 0 0-6.81 3.4 3.4 0 0 0 0 6.8z" transform="matrix(-.99997 0 0 -1 0 .13)"/>
        <path d="M-319.66-79.43a3.4 3.4 0 1 0 0-6.8 3.4 3.4 0 0 0 0 6.8z" transform="matrix(-.99997 0 0 -1 0 .13)"/>
      </g>
    </g>
    <g fill="#edb92e" stroke-width=".67">
      <path d="m-318.77-82.33 1.02-1.35c-5.38-2.95-7.6-6.06-7.08-9.19.1-.54 1.73-6.26 5.38-17.35a32.6 32.6 0 0 0 5.58-4.63c-.14-.15.4-.64.23-.77.37-1.7-1.54-1.35-2.82-.93-.62 1.62-2.5 3.35-3.58 4.1-.23.14-1.02.53-1.1.79-1.96 6.24-3.92 12.01-5.6 17.39-1.7 5.4 1.97 9.22 7.97 11.94z" transform="matrix(-.99997 0 0 -1 0 .13)"/>
      <path stroke-linejoin="round" d="m-346.69-98.93-.28-1.07a10.52 10.52 0 0 0-4.01 0c1.97 1.68 3.38 1.98 4.29 1.07z" transform="matrix(-.99997 -.0678 .0678 -1 0 .13)"/>
      <path d="M119.94 340.26c.22-.98.38-1.07.46-1.5.1-.55.05-1.31-.4-1.83-1.28-2.13 1.02-2.18 2.74-1.35 1.24.6 2.65.3 3.72-.28 1.26-.67 1.83-.53 2.17-.05l.6.93c.68.57.57 1-.32 1.1-.87 2.11-2.9 2.82-4.7 3.45-2.62.93-3.24 4.3-4.27-.47z" transform="matrix(0 1 .99966 0 0 .13)"/>
      <path d="M-339.93-120.03c1.85-.66 2.06.37 3.3.32-.48-2.83-.98-4.3-3.94-2.78-1.63.84-3.72-.39-4.12-1.3-.14-.33-1.09.36-1.44 1.12-1.45 3.17 3.71 3.52 6.2 2.64z" transform="matrix(-.99818 0 0 -1 0 .13)"/>
    </g>
    <g fill="#fff" stroke-width=".67">
      <path d="M-282.96-71.61a3.39 3.39 0 1 0 0-6.78 3.39 3.39 0 0 0 0 6.78z" transform="matrix(-.99998 0 0 -1 0 .13)"/>
      <path d="M-289.9-71.61a3.39 3.39 0 1 0 0-6.78 3.39 3.39 0 0 0 0 6.78z" transform="matrix(-.99998 0 0 -1 0 .13)"/>
      <path d="M-296.84-72.16a3.38 3.38 0 0 0 3.39-3.39 3.39 3.39 0 0 0-6.78 0 3.39 3.39 0 0 0 3.39 3.39z" transform="matrix(-.99998 0 0 -1 0 .13)"/>
      <path d="M-303.24-73.38a3.4 3.4 0 0 0 3.39-3.4 3.39 3.39 0 1 0-3.39 3.4z" transform="matrix(-.99998 0 0 -1 0 .13)"/>
      <path d="M-345.33-90.84a3.4 3.4 0 1 0 0-6.8 3.4 3.4 0 0 0 0 6.8z" transform="matrix(-.99997 0 0 -1 0 .13)"/>
      <path d="M-339.5-87.16a3.4 3.4 0 1 0-3.4-3.4 3.4 3.4 0 0 0 3.4 3.4z" transform="matrix(-.99997 0 0 -1 0 .13)"/>
      <path d="M-332.87-84.05a3.4 3.4 0 1 0-3.4-3.4 3.4 3.4 0 0 0 3.4 3.4zm-16.98-12.32a3.4 3.4 0 1 0 0-6.8 3.4 3.4 0 0 0 0 6.8z" transform="matrix(-.99997 0 0 -1 0 .13)"/>
    </g>
    <g fill="#edb92e">
      <path stroke-width=".67" d="M133.71-331.77c-.4 1.34 2.56 3.44 2.5 3.93-1.7.66-5.74-.68-8.94-3.07-.53-1.61-1.57-1.76-3.98-2.1-.72-.1-.22-1.48 1-1.5 1.32-.03 2.05-.13 3.17.16.45.12.87.06 1.27-.44 1 2.52 2.22 3.14 4.98 3.02z" transform="matrix(0 1 -.99969 0 0 .13)"/>
      <path stroke-linejoin="round" stroke-width=".67" d="M123.33 332.97c.56.23 1.01.3 1.85.36.65.04 1.25-.2 1.78-.6.53-.42 1-1.01 1.39-1.67.24-.41.9-.89 1.64-1.26a5.79 5.79 0 0 1 2.18-.66c1.96-.05 3.68-.44 4.02-1.34.23-.59.2-.82.08-1.28-.35.12-.85.08-1.34.4-.64.4-1.37.77-2 .8-.5.03-.84.26-1.82.07-.63-.13-.87-.54-1.46-.47-1.13.14-3.3 1.04-3.3 2.36-.01 1.3-.15 1.9-1.86 2.57-.59.23-.87.53-1.16.72z" transform="matrix(0 1 .99969 0 0 .13)"/>
      <path stroke-width=".66" d="M-349.74-74.75c.39.21.83.34 1.25.43a3.18 3.18 0 0 0 2.08-.22c2.9-1.37 3.42-6.94-.11-7.72-.67.02-1.19.7-1.58 2.1-.43 1.8-.99 3.1-1.67 3.95-.4.69-.33 1.2.03 1.46z" transform="matrix(-.99836 -.15239 .15263 -1 0 .13)"/>
      <path stroke-width=".66" d="M-348.22-75.34c3.1.69 4.4-5.2 1.5-5.83-1.55-.34-1.4 1.5-1.54 2.55-.17 1.42-2.94 2.63.04 3.28z" transform="matrix(-.99846 -.15241 .15263 -1 0 .13)"/>
    </g>
    <path fill="#0c4076" stroke-width=".66" d="M-347.51-76.21c1.5.33 2.96-3.28 1.06-3.76-1.28-.32-2.13.5-2.36 1.55-.24 1.06.24 1.98 1.3 2.2z" transform="matrix(-.99998 -.15264 .15264 -1 0 .13)"/>
    <g fill="#fff" stroke-width=".67">
      <path d="M-315.52-101.96a3.53 3.53 0 1 0 0-7.06 3.53 3.53 0 0 0 0 7.06z" transform="matrix(-.99998 0 0 -1 0 .13)"/>
      <path d="M-318.1-96.1a3.53 3.53 0 0 0 3.52-3.53 3.52 3.52 0 0 0-3.52-3.53 3.53 3.53 0 1 0 0 7.06z" transform="matrix(-.99998 0 0 -1 0 .13)"/>
      <path d="M-309.65-75.45a3.4 3.4 0 1 0 0-6.8 3.4 3.4 0 0 0 0 6.8z" transform="matrix(-.99997 0 0 -1 0 .13)"/>
      <path d="M-315.37-78.05a3.53 3.53 0 1 0 0-7.05 3.53 3.53 0 0 0 0 7.05z" transform="matrix(-.99998 0 0 -1 0 .13)"/>
      <path d="M-319.58-83.03a3.53 3.53 0 1 0 0-7.06 3.53 3.53 0 0 0 0 7.06z" transform="matrix(-.99998 0 0 -1 0 .13)"/>
      <path d="M-320.26-89.31a3.53 3.53 0 1 0 0-7.06 3.53 3.53 0 0 0 0 7.06z" transform="matrix(-.99998 0 0 -1 0 .13)"/>
    </g>
  </g>
  <path fill="#21231e" d="m337.18 127.72-.38-.16a3.8 3.8 0 0 0 .72-3.44c.72.9.54 2.3-.34 3.6"/>
  <path fill="#edb92e" stroke="#21231e" stroke-miterlimit="22.93" stroke-width=".67" d="M-309.61-113.1c.73-.93.65-1.15 1.04-1.41.53-.35 1.23-.23 1.89.02 2.7 1.02 2.7-1.1 1.91-3.54-.38-1.18-1.53-2.46-2.04-3.46-.5-.98-.4-1.72-.62-1.97-.98-.16-1.81-.28-2.2-.32a52.9 52.9 0 0 0-2.16-.27c-.32.18-.56.88-1.45 1.65-.9.76-2.44 1.6-3.27 2.54-1.69 1.91-2.59 3.74.07 3.68.66-.01 1.32.1 1.61.58.23.36.06.53.29 1.6.14.71.4 1.28.74 1.68.34.41.84.32 1.3.4.46.1.87.36 1.39.1.5-.25 1.02-.67 1.5-1.28z" transform="matrix(-.99997 0 0 -1 0 .13)"/>
  <path fill="#21231e" d="m309.99 123.97.44-.02c.76-2.1 1.94-3.81 3.5-5.24-1.57.86-3.09 2.98-3.94 5.26m-.76-.1-.41-.14c.28-2.2-.04-4.14-.85-5.99 1.08 1.31 1.53 3.75 1.26 6.12"/>
  <path fill="#edb92e" stroke="#21231e" stroke-miterlimit="22.93" stroke-width=".67" d="M-305.43-114.23c-.1-.78-.2-1.63-.6-2.38-.58-1.12-2.03-.69-3.58.39a2.7 2.7 0 0 1-1.93.3c-.7-.13-1.32-.44-1.6-.9-.88-1.45-1.95-2.26-2.94-1.43a7.85 7.85 0 0 0-1.53 1.91c.27.12.65.18 1.16.16.66-.01 1.32.1 1.62.58.23.37.06.53.29 1.6.15.71.4 1.27.74 1.68.34.41.84.32 1.3.4.45.1.87.37 1.38.11.51-.26 1.03-.68 1.5-1.29.74-.92.65-1.15 1.05-1.42.52-.34 1.23-.21 1.89.03.5.2.92.28 1.25.26z" transform="matrix(-.99997 0 0 -1 0 .13)"/>
  <path fill="#edb92e" stroke="#21231e" stroke-miterlimit="22.93" stroke-width=".68" d="M-320.12-125.32c.43.52.6.4.68.73.1.42-.15 1.09-.48 1.71-1.29 2.53.08 2.31 1.95 1.32.47-.25 1.02-.7 1.56-1.16.55-.47 1.1-.95 1.55-1.28.93-.66 1.5-.68 1.77-.95.4-1.02.75-1.91.89-2.31.16-.4.49-1.3.86-2.31-.07-.29-.6-.37-1-1.1-.38-.71-.7-2.02-1.17-2.64-.7-.93-1.34-1.48-1.84-1.39-.5.1-.85.82-.98 2.42a2.8 2.8 0 0 1-.82 1.68c-.32.3-.4.18-1.2.62a5.25 5.25 0 0 0-1.3 1.04c-.34.38-.4.8-.55 1.23-.17.43-.44.85-.4 1.26.05.4.2.8.48 1.13z" transform="matrix(-1 0 0 -.99584 0 .13)"/>
  <path fill="#21231e" d="m311.95 127.65-.12.52a4.9 4.9 0 0 1 3.36 2.69 3.59 3.59 0 0 0-1.07-2 4.92 4.92 0 0 0-2.17-1.2m.33-.93.24-.51a8.27 8.27 0 0 0 2.6-.66c.83-.36 1.65-.86 2.46-1.47a7.93 7.93 0 0 1-2.4 1.77 8.7 8.7 0 0 1-2.9.87"/>
  <path fill="#edb92e" stroke="#21231e" stroke-linejoin="round" stroke-miterlimit="22.93" stroke-width=".67" d="M-320.36-120.74c.55-.2.92-.45 1.55-.97.48-.4.75-.97.84-1.62.1-.66.02-1.4-.16-2.14-.12-.46.02-1.24.3-2 .27-.77.67-1.52 1.08-1.93 1.35-1.35 2.3-2.77 1.93-3.65a1.84 1.84 0 0 0-.83-1c-.16.34-.54.63-.68 1.19a4.27 4.27 0 0 1-.86 1.92c-.33.35-.4.74-1.23 1.26-.53.32-.99.18-1.35.62-.7.86-1.63 2.96-.73 3.92.9.95 1.21 1.48.46 3.1-.25.56-.25.96-.32 1.3z" transform="matrix(-.99997 0 0 -1 0 .13)"/>
  <path fill="#edb92e" stroke="#21231e" stroke-miterlimit="22.93" stroke-width=".63" d="M-28.63-305.91c-.34-.82-.18-.94-.46-1.23-.35-.36-1.02-.47-1.69-.46-2.63 0-1.95-1.38-.47-2.84.74-.72 2.23-1.36 3.06-1.96.84-.6 1.02-1.17 1.33-1.3 1 .08 1.89.17 2.29.21.4.04 1.3.13 2.35.27.26.2.22.8.84 1.58.64.8 1.97 1.84 2.47 2.78 1.04 1.93 1.22 3.59-1.7 2.73-.7-.2-1.46-.3-1.97-.05-.4.2-.28.37-.95 1.06-.44.45-.92.77-1.41.95-.5.18-.95-.04-1.42-.12-.47-.07-.97-.01-1.35-.33a3.37 3.37 0 0 1-.92-1.29z" transform="matrix(.3224 -.9955 -1 -.32386 0 .13)"/>
  <path fill="#21231e" d="m305.64 125.71.04-.47a7.8 7.8 0 0 1-4.28-3c.63 1.6 2.33 2.9 4.24 3.47m-.18.83-.16.45a9.07 9.07 0 0 0-5.1 1.73c1.15-1.28 3.23-2.1 5.26-2.18"/>
  <g stroke="#21231e" stroke-miterlimit="22.93">
    <path fill="#edb92e" stroke-width=".68" d="M-297.45-132.12c-.6.18-1.26.38-1.86.84-.93.72-.66 2.1.13 3.52.26.45.29 1.22.16 1.97a3.6 3.6 0 0 1-.83 1.87c-1.3 1.25-2.1 2.63-1.44 3.64.45.68 1.05 1.07 1.6 1.44.12-.35.19-.81.2-1.41.03-.78.17-1.56.58-1.99.32-.33.46-.16 1.37-.6a3.97 3.97 0 0 0 1.4-1.11c.34-.44.27-.96.35-1.45.07-.5.3-.98.1-1.46a3.52 3.52 0 0 0-.99-1.34c-.71-.62-.89-.5-1.09-.86-.25-.47-.13-1.18.09-1.84.16-.5.23-.91.23-1.22z" transform="matrix(-1 0 0 -.99504 0 .13)"/>
    <g stroke-width=".67">
      <path fill="#edb92e" d="M309.72-122.2c-2.23.1-4.39-1.83-4.7-4.2-.32-2.37 1.24-4.21 3.38-4.24 2.14-.02 4.13 1.71 4.54 4 .4 2.29-.99 4.33-3.22 4.44z" transform="matrix(.99997 0 0 -1 0 .13)"/>
      <path fill="#edb92e" d="M309.54-123.36c-1.63.07-3.2-1.33-3.44-3.07-.24-1.73.88-3.1 2.48-3.13 1.57-.03 3.05 1.29 3.34 2.96.3 1.7-.75 3.17-2.38 3.24z" transform="matrix(.99997 0 0 -1 0 .13)"/>
      <path fill="#0c4076" d="M309.35-124.55c-1.02.04-2-.83-2.15-1.92-.16-1.08.54-1.96 1.55-1.98 1-.02 1.93.8 2.11 1.87.18 1.07-.49 2-1.51 2.03z" transform="matrix(.99997 0 0 -1 0 .13)"/>
      <path fill="#edb92e" d="M322.58-164.62c1.11-.17 1.7-.86 1.66-1.57.04-.72-.55-1.41-1.66-1.58a4.59 4.59 0 0 0-.85-.15 619.66 619.66 0 0 0-103.37 0 4.7 4.7 0 0 0-.85.15c-1.1.17-1.7.86-1.66 1.58-.04.7.55 1.4 1.66 1.57.25.07.54.12.85.14a619.02 619.02 0 0 0 103.37 0 5.07 5.07 0 0 0 .85-.14z" transform="matrix(.99997 0 0 -1 0 .13)"/>
    </g>
  </g>
  <path fill="none" stroke="#21231e" stroke-linecap="round" stroke-width=".67" d="M231.26-167.68a592.5 592.5 0 0 0 25.84 1.07 617.67 617.67 0 0 0 25.87-.02 618.9 618.9 0 0 0 25.85-1.08" transform="matrix(1 0 0 -.99502 0 .13)"/>
  <path fill="none" stroke="#21231e" stroke-linecap="round" stroke-width=".67" d="M231.26 167.79c4.3.27 8.61.5 12.91.67m51.72-.03c4.31-.18 8.62-.4 12.92-.67" transform="matrix(1 0 0 .99502 0 .13)"/>
  <g stroke-miterlimit="22.93">
    <path fill="#c6363c" stroke="#fff" stroke-width="1.33" d="M168.74 175.52H321.8c27.39 0 52.26 10.61 70.28 27.73 18.02 17.13 29.2 40.75 29.2 66.78s-11.18 49.66-29.2 66.78c-18.02 17.12-42.9 27.74-70.28 27.74H168.74z" transform="matrix(0 .99807 1 0 0 .13)"/>
    <g stroke="#21231e">
      <g fill="#fff">
        <path stroke-width=".67" d="M413.43 270.9c-.14.82.04 2.2-.79 3.25-1.1 1.4-5.52.84-8.32.72-14.3-.65-38.39-1.23-72.2-1.96a9.4 9.4 0 0 1 .04-2.87 9.44 9.44 0 0 1-.05-2.87c33.82-.73 57.9-1.32 72.21-1.96 2.8-.12 7.23-.67 8.32.72.83 1.04.65 2.43.79 3.25z" transform="matrix(0 .99791 1 0 0 .13)"/>
        <path stroke-width=".67" d="M260.23-412.16c.83.06 2.2-.24 3.3.48 1.5.96 1.62 5.48 1.75 8.28.65 14.27 1.98 38.19 4.31 71.86a9.42 9.42 0 0 1-2.87.22l-.38.1c-5.38-33.32-7.4-56.96-11.09-71.21-.5-1.97-1.6-6.9.1-8.5.97-.91 2.37-.87 3.17-1.08z" transform="matrix(.99997 0 0 -1 0 .13)"/>
        <path stroke-width=".67" d="M249.71-410.66c.83-.02 2.16-.43 3.34.18 1.57.83 1.5 5.34 2.2 8.05 3.69 14.26 5.71 37.9 11.09 71.22-1.14.38-2 .45-2.83.48l-.12.04c-8.55-32.4-11.1-55.24-17.74-69.34-.61-1.96-2.29-7.15-.69-8.96.89-1 2.28-1.08 3.06-1.36z" transform="matrix(.99997 0 0 -1 0 .13)"/>
        <path stroke-width=".64" d="M313.54 329.19c-.13.79.21 2.28-.58 3.29-1.06 1.34-5.59.3-8.23.71-14.89 2.39-36.83-1.36-69.33-2.06a9 9 0 0 1 .04-2.76c-.12-.78-.32-.7-.16-1.84 32.5-.7 54.11 2.25 69.5-2.8 2.5-.81 6.95-.65 8 .69.8 1 .63 2.33.76 3.13z" transform="matrix(-.28733 .9979 1 .28794 0 .13)"/>
        <path stroke-width=".61" d="M-226.57-347.27c.25-.65.3-1.76 1.22-2.53 1.23-1.02 5.24-.23 7.82.09 13.6-.57 35.56 3.24 66.66 7.25a6.8 6.8 0 0 1-.48 2.29 6.65 6.65 0 0 1-.4 2.29c-31.1-3.25-52.46-8.05-67.23-4.14-2.44.64-6.8-.03-7.61-1.23-.6-.9-.24-2-.24-2.66z" transform="matrix(.45267 -.99325 -1 -.45577 0 .13)"/>
        <path stroke-width=".64" d="M-282.93-338.67c.22-.7.21-1.88 1.12-2.72 1.22-1.12 5.42-.38 8.1-.1 13.68 1.42 36.78 3.4 69.22 6.1a7.18 7.18 0 0 1-.37 2.44c.03.7.01 1.44-.28 2.44-32.61-1.46-55.83-6.52-69.68-2.77-2.52.69-7.03.14-7.92-1.11-.67-.95-.35-2.12-.39-2.82z" transform="matrix(.30182 -.99916 -1 -.30208 0 .13)"/>
        <path stroke-width=".66" d="M-339.39-313.06c.18-.72.1-1.96.98-2.87 1.17-1.2 5.52-.55 8.28-.35 14.12 1.06 37.92 2.4 71.36 4.18a7.55 7.55 0 0 1-.23 2.56c.08.73.1 1.5-.13 2.55-33.52-.5-57.7-1.5-71.6-.7-2.77.14-7.2.35-8.2-.93-.74-.96-.49-2.18-.57-2.91z" transform="matrix(.15041 -.99831 -1 -.15066 0 .13)"/>
        <path stroke-width=".67" d="M388.99 270.81c-.14.74.04 1.99-.79 2.93-1.1 1.26-5.55.76-8.37.65-14.37-.58-38.57-1.1-72.56-1.76a7.58 7.58 0 0 1 .05-2.6 7.61 7.61 0 0 1-.05-2.59c33.99-.65 58.19-1.18 72.56-1.76 2.82-.11 7.27-.6 8.37.65.83.95.65 2.2.79 2.93z" transform="matrix(0 .99304 1 0 0 .13)"/>
        <path stroke-width=".65" d="M282.43 324.19c-.1.56.13 1.5-.62 2.22-1 .97-5.27.67-7.97.64-13.68 1.7-36.92.53-69.5.01a4.5 4.5 0 0 1-.09-1.95 4.55 4.55 0 0 1-.16-1.95c32.4-.12 55.3 1.95 69.34-2.65 2.31-.76 6.92-.6 8.03.33.84.69.73 1.63.9 2.19z" transform="matrix(-.25239 1 .993 .25064 0 .13)"/>
        <path stroke-width=".66" d="M315.69 309.26c-.1.56.1 1.51-.67 2.23-1.04.97-5.43.65-8.2.6-14.13-.26-37.9-.35-71.3-.42-.2-.82-.14-1.4-.04-1.97a4.45 4.45 0 0 1-.13-1.96c33.35-.92 57.78 1.62 71.18-2.25 2.45-.7 7.11-.55 8.24.38.84.71.71 1.66.87 2.22z" transform="matrix(-.16491 .99501 1 .16573 0 .13)"/>
        <path stroke-width=".67" d="M342.78 292.01c-.13.56.07 1.52-.73 2.25-1.07.97-5.49.61-8.27.54-14.25-.35-38.22-.6-71.88-.88a4.48 4.48 0 0 1 0-1.98 4.47 4.47 0 0 1-.09-1.98c33.64-.72 57.96-.75 71.82-1.81 2.76-.21 7.18-.51 8.29.44.84.72.68 1.67.83 2.24z" transform="matrix(-.08204 .99884 1 .08214 0 .13)"/>
        <path stroke-width=".67" d="M366.65 270.67c-.14.57.04 1.52-.79 2.25-1.09.96-5.5.58-8.3.5-14.28-.45-38.3-.86-72.06-1.36a4.48 4.48 0 0 1 .04-1.98 4.47 4.47 0 0 1-.04-1.99c33.75-.5 57.78-.9 72.06-1.35 2.8-.09 7.21-.47 8.3.5.82.72.65 1.68.79 2.25z" transform="matrix(0 1 .99988 0 0 .13)"/>
      </g>
      <g fill="#edb92e">
        <path stroke-linejoin="round" stroke-width=".66" d="M352.36 188.11c-.14-1.79.62-4.1 5.4-11.14 5.37-3.48 10.77-6.97 15.25-11.44a14.8 14.8 0 0 0 1.42-3.62c.23-1.14-1.02-9.15-1.38-9.3-2.59-2.23-1.43-6.26 1.14-5.27.82-1.1 4.54.67 3.32 2.6-1.12 1.76.8 7.22.35 9.17 1.6-.91 2.09-6.11 1.92-9.68-.26-3.25 3-3.43 5.66-2.4 1.15 1.4-.22.3.55.77 2.34 1.19 2.43 4.32.33 4.68-2.16.37-4.09 8.27-5.63 9.6 3.15-1.78 5.86-5.35 8.9-7.32 1.51-1.92 1.73-2.99 5.47-1.2.02 2.47-.62 2.7 1 4.03.03 3.38-.9 4.05-3.62 3.82-2.88-.23-7.67 2.72-9.01 3.67-1.24.88-2.59 1.22-3.33 2.01-1.3 1.4-3.48 7.51-2.5 8.9 1.78 2.55 1.16 4.73-1.45 5.39-.79-.8-4.47.32-4.86-1.55-.31-1.52.05-2.5 1.04-4.05 1.56-2.45 2.39-3.71 2.1-4.42-.7-1.68-2.5 3.5-7.82 8.65-7.37 7.14-11.44 8.06-14.25 8.1z" transform="matrix(.12042 .99535 1 -.12098 0 .13)"/>
        <path stroke-width=".66" d="M376.71 136.23c-1.63-2.02-1.77-3.3-.94-4.3.46-.55.1-1.11-.68-.64-3.26 2-3.34 4.4-1.4 6.27l1.72 1.31c.47-.43.94-2.3 1.3-2.64z" transform="matrix(.15013 .99966 1 -.15019 0 .13)"/>
        <path stroke-width=".65" d="M383.63-143.53c-1.07-2.65-.91-4.88.22-5.88.62-.54.41-1.26-.51-.86-3.86 1.67-4.63 4.44-3.2 6.96.5.71.93 1.28 1.36 1.86a7.47 7.47 0 0 0 2.13-2.08z" transform="matrix(.21494 1 -.99442 .21375 0 .13)"/>
        <path stroke-width=".66" d="M-144.65 395.59c1.89 2.62 2.95 4.45 2.56 6.07-.22.95.32 1.7 1.1.79 3.18-3.72 2.62-7.32-.1-9.4-.92-.7-1.84-1.1-2.67-1.57-.82 1.04-.98 3.98-.89 4.1z" transform="matrix(-.9986 .15606 .15628 1 0 .13)"/>
        <path stroke-width=".61" d="M381.15 35.17c-.02-2.22.7-3.3 2.03-3.78.74-.27.8-.86-.14-.77-6.36-.03-6.35 2.8-4.67 6.18a7.87 7.87 0 0 0 2.78-1.63z" transform="matrix(.42431 .99781 1 -.42524 0 .13)"/>
      </g>
      <g fill="none">
        <path stroke-width=".49" d="M-84.1-292.84c-.27 1.23.2 1.75.74 1.85 1.15.23 1.2-.54 1.29-2" transform="matrix(.91227 -1 -.99998 -.91229 0 .13)"/>
        <path stroke-width=".49" d="M-82.03-292.85c-.26 1.23.21 1.75.75 1.85 1.14.23 1.2-.54 1.28-2" transform="matrix(.91227 -1 -.99998 -.91229 0 .13)"/>
        <path stroke-width=".67" d="M-347.23-220.91c1.11 1.63 2.34 1.73 3.18 1.3 1.75-.9.9-1.81-.72-3.51" transform="matrix(0 -1 -.99656 0 0 .13)"/>
        <path stroke-width=".68" d="M-344.76-223.55c1.26 1.73 2.65 1.83 3.59 1.38 1.98-.96 1.03-1.93-.8-3.74" transform="matrix(0 -1 -.99509 0 0 .13)"/>
        <path stroke-width=".67" d="M-342.14-225.14c1.33 1.6 2.65 2.1 3.81 1.37 1.82-1.14 1.1-1.92-.85-3.72" transform="matrix(0 -1 -.99883 0 0 .13)"/>
      </g>
      <path fill="#edb92e" stroke-linejoin="round" stroke-width=".66" d="M-275.11 146.01c.92 1.18 4.57 1.9 9.5 3.2 8 1.86 13.13.34 15.17-4.6-3.72 3-7.67 4.07-11.57 2.26-5.25-2.44-8.22-4.04-9.53-4.04-.9.13-2.44 1.43-3.57 3.18z" transform="matrix(-.99998 -.19529 -.19528 1 0 .13)"/>
      <g fill="#fff" stroke-width=".67">
        <path d="M265.95-313.66a644.12 644.12 0 0 1-.1-7.84h-.02l-5.97-1.24c-.02-2.73 6.72-31.21 10.19-31.21 3.47 0 10.2 28.5 10.19 31.23l-5.98 1.22h-.02c-.02 2.76-.05 5.44-.1 7.84-1.25-1.04-2.63-2.86-4.1-4.5-1.45 1.64-2.84 3.46-4.09 4.5z" transform="matrix(.99997 0 0 -1 0 .13)"/>
        <g stroke-linejoin="round">
          <path d="m329.69 253.93-3.11-5.3c1.58-2.28 7.55-4.04 12.5-.27 6.18 4.7 10.64 6.58 15.6 7.67-4.42 3.56-9.09 4.84-13.7 2.69-6.23-2.9-9.74-4.79-11.29-4.79z" transform="matrix(.01547 1 .99997 -.01547 0 .13)"/>
          <path d="m325.48 258.37-3.11-5.3c1.58-2.28 7.31-7.07 12.27-3.3 6.17 4.7 10.87 9.6 15.83 10.7-4.41 3.56-9.09 5.12-13.7 2.98-6.22-2.9-9.74-5.08-11.29-5.08z" transform="matrix(.01547 1 .99997 -.01547 0 .13)"/>
          <path d="m323.13 246.59-3.11-5.3c1.58-2.28 7.55-4.04 12.5-.26 6.19 4.7 10.64 6.57 15.6 7.67-4.41 3.55-9.09 4.83-13.7 2.68-6.23-2.9-9.74-4.79-11.3-4.79z" transform="matrix(.01547 1 .99997 -.01547 0 .13)"/>
        </g>
        <path d="M264.2 226.8c4.91.1 37.66-.77 42.29-1.04 4.6-.27 7.75-2.3 9.55-4.48-2.75-1.98-6.45-3.17-10.84-3.45-2.24-.15-33.23.26-39.6.44-9.71 3.65-10.08 6.36-1.4 8.53z" transform="matrix(0 .99513 1 0 0 .13)"/>
        <path d="m256.19 205.58 45.03-1.38c4-.44 27.76 4.74 32.45 7.58-3 7.01-19.13 8.5-34.85 7.17-15.71-1.31-29.28.22-32.1 1.3-3.56.09-7.27-.5-10.97-.54.27-4.47.17-9.66.44-14.13z" transform="matrix(0 .99513 1 0 0 .13)"/>
        <path d="m263.55 197.27 45.04.95c4.02-.23 27.47 6.18 32 9.26-5.54 7.11-28.19 5.68-35.04 4.6-13.65-2.18-29.47-1.81-32.03-1.06-3.56-.1-7.81-.19-11.51-.41l1.54-13.34z" transform="matrix(0 .99513 1 0 0 .13)"/>
        <path d="m274.22 191.1-.3 11.8c4.91-1 20.17-.2 31.8 1.83 10.91 1.9 39.2 4.57 46-6.75-14.93-7.01-29.44-1.67-42.4-5.2-13.77-2.77-25.27-3.31-35.1-1.68zm-18.29 45.1c4.92-.05 37.62-1.9 42.24-2.31 4.6-.42 7.67-2.55 9.4-4.77-2.8-1.9-6.55-2.98-10.95-3.13-2.24-.08-33.2 1.27-39.57 1.64-9.58 3.94-9.87 6.66-1.12 8.57zm-26.68-20.96c10.55-.32 33.44-.5 35.39-.43 4.4.15 10 1.88 12.8 3.79-1.72 2.22-4.8 4.34-9.4 4.76-3.78.33-22.34.45-31.64.5a39.78 39.78 0 0 0-5.5-6.8s-1.56-1.75-1.65-1.82z" transform="matrix(0 .99513 1 0 0 .13)"/>
        <path d="M236.05 223.66c11.37-.21 29.27-.09 30.73-.04 4.4.15 8.14 1.23 10.95 3.13a13.47 13.47 0 0 1-9.52 4.98c-2.83.26-14.96 1.04-24.27 1.11-.95-2.99-5.87-6.76-7.89-9.18zm-7.75-7.25-11.62-8.03c5.74-1.62 46.84-3.6 50.2-1.28 4.4.15 8.13 1.73 10.94 3.64-1.73 2.22-4.85 5.54-9.5 4.58s-35.22.12-40.02 1.09z" transform="matrix(0 .99513 1 0 0 .13)"/>
        <path d="M254.15 199.95c6.36-.36 10.66-.62 12.9-.54 4.4.14 8.15 1.22 10.96 3.13-1.74 2.22-4.8 5.05-9.41 4.76-17.8-1.12-34.56.82-50.68 3.08-1.4-1.91-2.92-5.12-4.32-7.03 21.7-3.8 35.17-5.08 40.55-3.4z" transform="matrix(0 .99513 1 0 0 .13)"/>
        <path stroke-linejoin="round" d="m265.8 191.91 8.28 2.18c4.4.15 8.03 2.86 10.84 4.76-1.73 2.22-4.58 4.24-9.15 3.68-26.3-3.26-43.69-2.1-65.11 3.4 8.51-12.43 26.47-18.2 55.14-14.02z" transform="matrix(0 .99513 1 0 0 .13)"/>
        <path d="m273.94 192.55-3.8-11.4c11.44-1.46 25.81.77 44.77 3.85 16.27 2.64 29.14 1.25 37.4-.77-1.66 12.17-17.4 17.32-47.01 11.21-7.75-1.6-17.65-3.2-31.36-2.89z" transform="matrix(0 .99513 1 0 0 .13)"/>
      </g>
      <path fill="none" stroke-linecap="round" stroke-width=".67" d="M192.21-327.71c.27 7.54-1 15.78-2.43 22.71a141.2 141.2 0 0 0-3.05 28.21" transform="matrix(.99997 0 0 -1 0 .13)"/>
      <g fill="#fff">
        <path stroke-linejoin="round" stroke-width=".67" d="m206.63-192.1 1.26-7.48c1.61.36 11.5 2.26 13.18 2.6 13.74 2.8 29.92 4.65 47.67 2.54 6.59-.79 11.97-2.18 16.14-4.22-.94 8.2-8.98 13.47-23.01 12.79-16.39 1.43-29.42.8-39.22-1.84-2.87-.78-13.7-3.27-16.02-4.39z" transform="matrix(0 .99513 -1 0 0 .13)"/>
        <path stroke-width=".67" d="m208.41-187.56 4.2-3.68c.76 1.05 3.98-.72 10.25.23 3.56.61 7.76 2.73 12.3 3.16 15.04 1.45 33.89 1.45 45.93-3.05-.94 8.2-8.4 11.03-22.45 11.3-11.61.21-25.3.25-41.11-2.66a14.5 14.5 0 0 1-9.12-5.3z" transform="matrix(0 .99513 -1 0 0 .13)"/>
        <path stroke-width=".59" d="m83.47 252.63 2.47-6.26c6.16 1.89 10.54 3.17 12.63 4.02 4.1 1.69 7.04 4.77 8.98 7.54-2.47 1.48-5.88.96-10.38-.27-4.52-1.24-9.04-3.35-13.7-5.03z" transform="matrix(-.5338 .99821 1 .53476 0 .13)"/>
        <path stroke-width=".67" d="m248.95 211.52-.37-6.7c6.15-.63 10.3-1.07 12.48-1.1 4.28-.06 7.95.76 10.77 2.4-1.56 2.15-4.44 4.27-8.87 4.86-4.45.6-9.26.27-14.01.54z" transform="matrix(.06514 .99756 1 -.0653 0 .13)"/>
        <path stroke-width=".66" d="m259.33 209.01-.36-6.69c6.12-.62 10.27-1.06 12.44-1.09 4.26-.06 7.93.76 10.74 2.4-1.57 2.13-4.42 4.25-8.84 4.84-4.45.6-9.23.27-13.98.54z" transform="matrix(.10014 .99756 1 -.10039 0 .13)"/>
        <path stroke-width=".67" d="m228.04 224.51-.37-6.71c6.16-.64 10.33-1.07 12.5-1.1 4.29-.07 7.97.76 10.8 2.4-1.57 2.15-4.45 4.27-8.89 4.87-4.46.6-9.27.27-14.04.54z" transform="matrix(-.0159 .99757 1 .01593 0 .13)"/>
        <path stroke-width=".67" d="m217.06 221.67-2.81-7.45c5.01-1.09 21.44-2.25 28.25.99-1.74 2.39-4.95 4.76-9.9 5.42-4.97.67-10.23.74-15.54 1.04z" transform="matrix(-.03259 .99785 1 .03266 0 .13)"/>
        <path stroke-linecap="round" stroke-linejoin="round" stroke-width=".67" d="m197.43 222.2 2-11.65c6.92-2.14 13-3.42 18.44-3.84-1.4 5.36-4.38 9.09-9.35 10.1-6.7 1.37-9.85 4.49-11.09 5.39zm0 0" transform="matrix(-.0827 1 .99547 .08232 0 .13)"/>
      </g>
      <g fill="#edb92e">
        <g stroke-width=".66">
          <path d="M-216.79 510.25c-4.5 4.66-8.6-6-4.62-20.08 2.95-10.42 17.36-6.38 9.33 7.64-.38.67-.92.35-.84-.4.45-2.88-.96-4.54-3.14-4.02-5.97 1.45-6.16 16.11.33 12.77 1.19-.1.12 2.86-1.06 4.1z" transform="matrix(-1 0 0 .77147 0 .13)"/>
          <path d="M231.53 510.25c-4.5 4.66-8.6-6-4.62-20.08 2.95-10.42 17.36-6.38 9.33 7.64-.38.67-.91.35-.84-.4.46-2.88-.96-4.54-3.14-4.02-5.97 1.45-6.16 16.11.33 12.77 1.18-.1.12 2.86-1.06 4.1z" transform="matrix(1 0 0 .77147 0 .13)"/>
          <path d="M223.73-464.99v-.1c-.59-2.44-2.77-5.5-4.47-7.79-2.63-3.55-2.01-8.94-.19-11.8a24.13 24.13 0 0 0 3.27-9.36c.3-1.68.83-5.46.45-11.32-.2-2.89-1.54-4.38-2.8-5.67-.65-.66.27-2.23 2.39-4.3.23-.21.87-.78 1.17-2.2.12-.35 1.1-.35 1.22 0 .3 1.42.94 1.99 1.18 2.2 2.12 2.08 3.03 3.65 2.4 4.3-1.27 1.3-2.62 2.78-2.81 5.67-.39 5.86.15 9.63.44 11.32.4 2.73 1.29 6.24 3.28 9.36 1.82 2.86 2.44 8.25-.19 11.8-1.7 2.3-3.88 5.35-4.47 7.8v.09c-.03.48-.23.71-.44.71-.2 0-.4-.23-.43-.71z" transform="matrix(1 0 0 -.77147 0 .13)"/>
        </g>
        <path stroke-width=".67" d="M458.1 220.92v6.5c0 1.1 1.07 2.02 2.37 2.02s2.37-.91 2.37-2.03v-6.49c0-1.12-1.06-2.03-2.37-2.03-1.3 0-2.37.91-2.37 2.03z" transform="matrix(0 .84 1 0 0 .13)"/>
        <g stroke-width=".66">
          <path d="M-308.54 510.25c-4.49 4.66-8.6-6-4.62-20.08 2.95-10.42 17.36-6.38 9.33 7.64-.38.67-.91.35-.84-.4.46-2.88-.96-4.54-3.14-4.02-5.97 1.45-6.16 16.11.33 12.77 1.19-.1.13 2.86-1.06 4.1z" transform="matrix(-1 0 0 .77147 0 .13)"/>
          <path d="M323.28 510.25c-4.5 4.66-8.6-6-4.62-20.08 2.95-10.42 17.35-6.38 9.33 7.64-.38.67-.91.35-.84-.4.46-2.88-.96-4.54-3.14-4.02-5.97 1.45-6.16 16.11.33 12.77 1.19-.1.12 2.86-1.06 4.1z" transform="matrix(1 0 0 .77147 0 .13)"/>
          <path d="M315.47-464.99v-.1c-.59-2.44-2.77-5.5-4.47-7.79-2.63-3.55-2.01-8.94-.19-11.8a24.04 24.04 0 0 0 3.27-9.36c.3-1.68.84-5.46.45-11.32-.2-2.89-1.54-4.38-2.8-5.67-.65-.66.27-2.23 2.39-4.3.23-.21.87-.78 1.17-2.2.12-.35 1.1-.35 1.22 0 .3 1.42.95 1.99 1.18 2.2 2.12 2.08 3.03 3.65 2.4 4.3-1.27 1.3-2.62 2.78-2.81 5.67a46.8 46.8 0 0 0 .44 11.32c.4 2.73 1.29 6.24 3.28 9.36 1.82 2.86 2.44 8.25-.19 11.8-1.7 2.3-3.88 5.35-4.47 7.8v.09c-.03.48-.23.71-.44.71-.2 0-.4-.23-.43-.71z" transform="matrix(1 0 0 -.77147 0 .13)"/>
        </g>
        <path stroke-width=".67" d="M458.1 312.67v6.5c0 1.1 1.07 2.02 2.37 2.02s2.37-.91 2.37-2.03v-6.49c0-1.12-1.06-2.03-2.37-2.03-1.3 0-2.37.91-2.37 2.03z" transform="matrix(0 .84 1 0 0 .13)"/>
      </g>
      <g fill="#fff" stroke-linejoin="round" stroke-width=".67">
        <path stroke-linecap="round" d="M241.78-316.65c15.74567-23.79038 19.29344-13.65549-.01 0z" transform="matrix(.0827 1 -.99547 .08232 0 .13)"/>
        <path d="M300.63-232.45c.9.19 1.81.45 2.74.77-4.3 2.7-7.87 5.96-12.12 12.46-4.34 6.66 1.9 18.55 4.47 24.86 5.36 3.96 10.4 9.79 12.01 17.46.63 4.13-10.77 2.64-18.61-1.06-9.59-4.52-10.9-3.27-14.31-4.03-1.22-5.87 1.33-6.37 3.77-6.08-5.28-8.46-7.48-16.88-8.54-29-1.05 12.12-3.25 20.54-8.54 29 2.45-.29 5 .2 3.78 6.08-3.42.76-4.73-.5-14.32 4.03-7.84 3.7-19.24 5.19-18.6 1.06 1.6-7.67 6.65-13.5 12-17.46 2.57-6.31 8.82-18.2 4.48-24.86-4.25-6.5-7.82-9.77-12.13-12.46.89584-.31527 1.81107-.57247 2.74-.77-.65-.89-6.23-2.63-6.88-2.16-4.27 3.02-8.44 10.1-12.07 14.22-10.3 11.67-15.43 20.67-13.61 27.93 2.58 7.82 11.8 16.6-.41 15.08-12.21-1.52-22.34-18.26-25.59-38.4-1.2-7.47-1.9-13.73-2.72-18.85 6.67 2.38 9.62 4.75 11.39 7.67-.75655-2.60534-1.35761-5.25335-1.8-7.93 5.46.96 9.42 3.64 10.83 8.52.49169 1.72972 1.16545 3.40241 2.01 4.99 1.68-.6 3.85-.56 6.5.08 1-2.39 8.51-10.75 12.55-16.9 4.56-6.93 11.4-12.23 13.66-12.53 1.14-.14 1.48 2.36 1.23 5.82 11.83374-.15935 23.66949-.0793 35.5.24 11.68-.4 23.58-.33 35.5-.24-.25-3.46.1-5.96 1.22-5.82 22.31502 23.09445 46.47161 14.2746 43.76 23.77 1.77-2.92 4.73-5.29 11.39-7.67-.81 5.12-1.51 11.38-2.72 18.85-3.25 20.14-13.37 36.88-25.59 38.4-12.21 1.52-3-7.26-.4-15.08 1.81-7.26-3.33-16.26-13.62-27.93-3.63-4.11-7.8-11.2-12.07-14.22-.65-.46-6.23 1.27-6.88 2.16z" transform="matrix(.99997 0 0 -1 0 .13)"/>
      </g>
    </g>
  </g>
  <g fill="none" stroke="#21231e" stroke-miterlimit="22.93">
    <path stroke-linecap="round" stroke-width=".86" d="M263.67-112.07c2.33.73 5.01.32 8.44 0 .97-.1 4.35-.51 5.25-.13" transform="matrix(.99998 .25807 .25806 -1 0 .13)"/>
    <path stroke-linecap="round" stroke-width=".63" d="M-291.93 92.08c2.6.4 4.06.54 5.33.6" transform="matrix(-.99997 -.32891 -.3289 1 0 .13)"/>
    <path stroke-width=".69" d="M224.15 53.7c1.68-.32 3.87-.85 5.7-.13 1.39.55 1.41 2.4.56 4.45" transform="matrix(.81664 1 .99997 -.81667 0 .13)"/>
  </g>
  <path fill="#21231e" d="m240.39 185.3-1.23-1.23c-.6-.77-.26-1.78 1.04-3.04l2.47 1.04c-.5 1.71-1.26 2.79-2.28 3.23"/>
  <g stroke="#21231e" stroke-miterlimit="22.93" stroke-width=".67">
    <g fill="none" stroke-linecap="round">
      <g stroke-linejoin="round">
        <path d="M236.72-231.68c5.35-1.88 10.18-1.5 13.8 2.07l1.64 1.61" transform="matrix(.99997 0 0 -1 0 .13)"/>
        <path d="M252.81-224.74c-.5-3.6-1.42-6.48-2.7-9.34 3.78.98 6.76 2.71 8.58 5.31m11.29-7.03a20.6 20.6 0 0 0-4.95 12.33" transform="matrix(.99997 0 0 -1 0 .13)"/>
        <path d="M257.94-224.21c.33-3.61 1.36-6.7 3.04-9.09a12.14 12.14 0 0 1 4.37 6.83" transform="matrix(.99997 0 0 -1 0 .13)"/>
        <path d="M-303.37-231.68c5.35-1.88 10.18-1.5 13.8 2.07l1.64 1.61" transform="matrix(-.99997 0 0 -1 0 .13)"/>
      </g>
      <path d="M204.25-200.44c3.04 4.24 25.06 12.05 31.52 12.65 14.95 1.4 33.44 1.33 45.33-3.11" transform="matrix(0 .99513 -1 0 0 .13)"/>
    </g>
    <path fill="#edb92e" stroke-linejoin="round" d="M-227.04 178.33c9.38 1.01 8.93 7.16.16 15.84-1.67 1.66-2.25 1.6-2.6-.12-.63-3.02-3.97-4.8-5.72-2.5-1.19 1.57-.92 2.46-4.9 1.9-5 4.22-9.09 7.18-2.53 6.94 2.9-.11 5.12 1.57 8.87 1.42-1.1 2.17-1.3 2.42-1.9 2.6-3.65.72-7.5-1.56-11.17-.88-8.06 1.49 12.9-21.82 12.65-22.74-.67-2.35 5.04-6.55 7.14-2.46z" transform="matrix(-1 0 0 .99686 0 .13)"/>
    <path fill="none" stroke-linecap="round" d="M227.26-178.09a14.24 14.24 0 0 1 4.44-6.1" transform="matrix(1 0 0 -.99706 0 .13)"/>
  </g>
  <path fill="#21231e" d="M225.26 182.2a.82.82 0 0 1 .89-.69.74.74 0 0 1 .67.85.81.81 0 0 1-.88.68.74.74 0 0 1-.68-.85"/>
  <g stroke="#21231e" stroke-miterlimit="22.93">
    <g fill="#fff">
      <path stroke-linejoin="round" stroke-width=".59" d="m-44.94 349.21-2.73-4.67c1.39-2 6.64-3.55 11-.23 5.44 4.14 9.36 5.79 13.73 6.75-3.89 3.13-8 4.25-12.06 2.37-5.48-2.55-8.57-4.22-9.94-4.22z" transform="matrix(-.99998 .5396 .53958 1 0 .13)"/>
      <path stroke-width=".6" d="m174.43 320.31.28-6.52c5.6-.08 9.37-.15 11.34 0 3.84.31 7.08 1.42 9.47 3.25-1.61 1.94-4.39 3.75-8.43 3.95-4.06.19-8.35-.53-12.66-.68z" transform="matrix(-.47247 1 .99997 .47249 0 .13)"/>
      <path stroke-width=".65" d="m268.03 292.69.3-7.07c6.07-.1 10.17-.17 12.3 0 4.18.33 7.69 1.54 10.28 3.52-1.74 2.11-4.76 4.07-9.15 4.28-4.4.21-9.06-.57-13.73-.73z" transform="matrix(-.19727 1 .99998 .19727 0 .13)"/>
      <path stroke-linejoin="round" stroke-width=".66" d="m344.03-190.35.58-4.17c1.56-2.25 7.47-3.99 12.37-.26 6.11 4.66 10.52 6.51 15.43 7.6-4.37 3.51-9 4.78-13.56 2.65-6.16-2.86-13.29-5.82-14.82-5.82z" transform="matrix(.14684 1 -.99997 .14685 0 .13)"/>
      <path stroke-width=".62" d="m184.83 317.46.29-6.68c5.73-.09 9.6-.16 11.62 0 3.95.31 7.26 1.45 9.7 3.33-1.63 1.99-4.3 4.28-8.44 4.48-4.17.2-8.75-.98-13.17-1.13z" transform="matrix(-.40408 1 .99997 .4041 0 .13)"/>
      <path stroke-linejoin="round" stroke-width=".51" d="m12.56 297.8-3.67-6.14c.7-1.02 3.72.1 5.95.34.52.06 1.06.06 1.6.21 1.12.33 2.27.87 3.33 1.68a27.29 27.29 0 0 0 11.91 5.52c-3.37 2.72-6.95 3.7-10.48 2.06-4.76-2.22-7.45-3.67-8.63-3.67z" transform="matrix(-.99997 .84188 .84187 1 0 .13)"/>
    </g>
    <path fill="#c6363c" stroke-width="1.33" d="M-323.29-236.47v-61.13a39.58 39.58 0 0 1 11.65-28.04 39.58 39.58 0 0 1 56.1 0 39.58 39.58 0 0 1 11.65 28.04v61.13z" transform="matrix(-.95223 0 0 -1 0 .13)"/>
    <g fill="#fff">
      <path stroke-width=".67" d="M324.05-273.96v-15.75h-31.5v-46.7a39.74 39.74 0 0 0-8.3-.88c-2.84 0-5.61.3-8.29.87v46.7h-31.5v15.76h31.5v37.5h16.58v-37.5z" transform="matrix(.94998 0 0 -1 0 .13)"/>
      <g stroke-linejoin="round">
        <path stroke-width=".68" d="M-245.41-257.65h-22.14c-1.3 4.84-5.98 16.62 4.28 17.23 4.75.29 7.88-5.9 3.68-7.57-1.98-.78-3.38.07-3.84 1.24-.49 1.25.52 2.5 2.04 2.17-2.62 5-8.16-4.48-.95-8.76 2.1-1.25 4.3 2.1 5.86 2.1 1.55.01 3.89-3.29 5.85-2.1 7.18 4.34 1.67 13.77-.94 8.76 1.5.33 2.52-.92 2.04-2.17-.46-1.17-1.86-2.02-3.85-1.24-4.2 1.67-1.06 7.86 3.68 7.58 10.27-.62 5.59-12.4 4.29-17.24z" transform="matrix(0 -1 -.99769 0 0 .13)"/>
        <g stroke-width=".67">
          <path d="M-245.41 283.68h-22.14c-1.3 4.84-5.98 16.62 4.28 17.23 4.75.3 7.88-5.9 3.68-7.56-1.98-.8-3.38.06-3.84 1.23-.49 1.25.52 2.5 2.04 2.17-2.62 5-8.16-4.48-.95-8.76 2.1-1.25 4.3 2.1 5.86 2.11 1.55 0 3.89-3.3 5.85-2.1 7.18 4.33 1.67 13.76-.94 8.75 1.5.33 2.52-.92 2.04-2.17-.46-1.17-1.86-2.03-3.85-1.23-4.2 1.66-1.06 7.85 3.68 7.57 10.27-.62 5.59-12.4 4.29-17.24z" transform="matrix(0 -1 .99769 0 0 .13)"/>
          <path d="M318.28-257.65h-22.15c-1.3 4.84-5.98 16.62 4.3 17.23 4.74.29 7.87-5.9 3.67-7.57-1.98-.78-3.39.07-3.84 1.24-.49 1.25.52 2.5 2.04 2.17-2.61 5-8.16-4.48-.95-8.76 2.1-1.25 4.3 2.1 5.86 2.1 1.56.01 3.89-3.29 5.85-2.1 7.18 4.34 1.67 13.77-.94 8.76 1.5.33 2.52-.92 2.03-2.17-.45-1.17-1.86-2.02-3.84-1.24-4.2 1.67-1.06 7.86 3.68 7.58 10.27-.62 5.59-12.4 4.3-17.24z" transform="matrix(0 1 -.99769 0 0 .13)"/>
          <path d="M318.28 283.68h-22.15c-1.3 4.84-5.98 16.62 4.3 17.23 4.74.3 7.87-5.9 3.67-7.56-1.98-.8-3.39.06-3.84 1.23-.49 1.25.52 2.5 2.04 2.17-2.61 5-8.16-4.48-.95-8.76 2.1-1.25 4.3 2.1 5.86 2.11 1.56 0 3.89-3.3 5.85-2.1 7.18 4.33 1.67 13.76-.94 8.75 1.5.33 2.52-.92 2.03-2.17-.45-1.17-1.86-2.03-3.84-1.23-4.2 1.66-1.06 7.85 3.68 7.57 10.27-.62 5.59-12.4 4.3-17.24z" transform="matrix(0 1 .99769 0 0 .13)"/>
        </g>
      </g>
    </g>
    <path fill="none" stroke-width="1.33" d="M-323.29-236.47v-61.13a39.58 39.58 0 0 1 11.65-28.04 39.58 39.58 0 0 1 56.1 0 39.58 39.58 0 0 1 11.65 28.04v61.13z" transform="matrix(-.95223 0 0 -1 0 .13)"/>
  </g>
</svg>