<svg xmlns="http://www.w3.org/2000/svg" xmlns:xlink="http://www.w3.org/1999/xlink"
     width="1200" height="600" viewBox="0 0 1400 700" fill="#f8c300">
    <path d="M0 0H1400V700H0z" fill="#060"/>
    <path d="M0 0H1400V500H0z" fill="#fff"/>
    <path d="M0 0H1400V200H0z" fill="#c00"/>
    <path d="m672 341a12.5 12.5 0 0123 6v50h10v-50a12.5 12.5 0 0123-6 29.5 29.5 0 10-56 0"/>
    <path d="m679 327a20 20 0 0121 9 20 20 0 0121-9 21.5 21.5 0 00-42 0" fill="#fff"/>
    <path id="w" d="m695 377a38 38 0 01-64 25 39.5 39.5 0 01-60 17c4 37 58 29 63-6 17 31 54 22 65-15z"/>
    <use xlink:href="#w" transform="translate(1400,0) scale(-1,1)"/>
    <path id="r" d="m659 441c-8 17-23 20-36 6 0 0 5-4 11-4-1-5 0-10 4-15 5 3 8 7 9 12 6-1 9 0 12 1z"/>
    <use xlink:href="#r" transform="rotate(9.37, 700,804)"/>
    <use xlink:href="#r" transform="rotate(18.74, 700,804)"/>
    <path d="m603 478a340 340 0 01194 0" fill="none" stroke-width="16" stroke="#f8c300"/>
    <g transform="translate(700,380)">
        <path id="s" d="M0-165 15-120-24-148 24-148-15-120"/>
        <g id="h" transform="translate(0,140)">
            <use xlink:href="#s" transform="rotate(-30) translate(0,-140) rotate(30)"/>
            <use xlink:href="#s" transform="rotate(-60) translate(0,-140) rotate(60)"/>
            <use xlink:href="#s" transform="rotate(-90) translate(0,-140) rotate(90)"/>
        </g>
        <use xlink:href="#h" transform="scale(-1,1)"/>
    </g>
</svg>