<svg xmlns="http://www.w3.org/2000/svg" xmlns:xlink="http://www.w3.org/1999/xlink"
     width="1800" height="900">
    <g id="b">
        <g id="a">
            <path d="M1 0H0v.5z" transform="translate(0 -.325)"/>
            <path d="M1 0H0v-.5z" transform="rotate(-36 .5 -.1625)"/>
        </g>
        <use transform="rotate(72)" xlink:href="#a"/>
        <use transform="rotate(144)" xlink:href="#a"/>
        <use transform="rotate(216)" xlink:href="#a"/>
        <use transform="rotate(288)" xlink:href="#a"/>
    </g>
    <path fill="#012169" d="M0 0h1800v900H0z"/>
    <path fill="#ffd100" d="m329.38 777.27c529.41-393.27 970.16-660.11 1099.74-703.47c13.54-4.53-11.12 7.2-33.14 32.02c-138.34 163.74-27.93 472.72 144.97 628.05c51.99 39.76 49.33 41.85 145.71 45.75v9l-1357.28-11.34zm-11.25 18.05s-13.16 9.4-13.13 16.41c.04 7.77 14.77 18.05 14.77 18.05l1338.74 14.77 24.61-16.41-34.45-21.33-1330.54-11.48z"/>

    <g fill="#fff">
        <use transform="matrix(45 0 0 45 342.9565 112.5812)" xlink:href="#b"/>
        <use transform="matrix(37.5 0 0 37.5 521.20459 267.53)" xlink:href="#b"/>
        <use transform="matrix(45 0 0 45 135 321.8075)" xlink:href="#b"/>
        <use transform="matrix(52.5 0 0 52.5 342.9565 652.5812)" xlink:href="#b"/>
    </g>
</svg>