<svg xmlns="http://www.w3.org/2000/svg" width="2100" height="1400" viewBox="0 0 14 21">
    <path fill="#198a00" d="M0 0h21v14H0z"/>
    <path fill="#de2010" d="M13.5 5h5v9h-5z"/>
    <path fill="#ef7d00" d="M16 5h5v9h-5z"/>
    <path d="M16 5h2.5v9H16z"/>
    <g fill="#ef7d00" stroke="#000" stroke-linecap="round" stroke-linejoin="round" stroke-width=".022">
        <path d="M19.164 1.683s.86-.337.944-.406c.037.041-.345.465-1.088.622.675-.146 1.25-.605 1.368-.59.034.006.026.447-1.52.83 1.07-.258 1.69-.73 1.683-.678.007.01-.106.372-1.042.653.261-.055.97-.452.962-.375.023.031-.685.865-1.966.594 1.023.243 1.686-.344 1.78-.333.02.003-.189.514-1.477.545.618-.059.44-.003.44-.003s-.364.26-.804.083c.345.087.383.09.39.118-.022.035-.306.087-.579-.048.22.083.417.097.42.128a.307.307 0 0 1-.268.031c-.125-.052-1.277-.702-1.277-.702l1.962-.493zm-2.307 1.758c-.172 0-.177.14-.177.14s-.014.011-.005.08a.45.45 0 0 1 .043-.062c.019.003.098.025.223-.065-.114.109-.046.15-.046.15s-.027.085.06.103c-.027-.035-.01-.066-.01-.066s.121-.011.113-.148c.005.124.078.154.078.154s0 .068.079.074c-.043-.035-.033-.088-.033-.088s.103-.069.016-.185c.052-.027.095-.104.095-.104s-.072-.028-.105-.051c-.016-.03-.002-.198-.002-.198l-.042-.216-.122.337c.005-.048.008.145-.165.145z"/>
        <path d="M17.71 2.955c.003.004.128.132.25.125.045-.035-.095-.111-.095-.128.049.041.257.205.39.146.053-.07-.095-.06-.258-.247.114.07.398.222.53.163.058-.055-.295-.23-.412-.365l-.303-.142-.413.31zm-.467-1.056s.14-.077.701-.038c.061.007.383-.101.485-.132.163-.028.682-.133.822-.23.099-.01-.026.167-.151.209-.133.055-.614.208-.784.187.204.004.09.157-.25.084.162.083.102.097.102.097s-.288.014-.364-.045c.193.066.114.09.114.09s-.197.018-.288-.02c.14.038.068.062.068.062s-.114.017-.208-.014c-.095-.031-.239-.25-.247-.25zm.225 1.128.02.34s-.01.017-.02.028c-.01.01-.263-.037-.228.14 0 .073.002.092.056.133-.015-.048-.01-.082-.01-.082s.071.04.141-.068c-.047.106-.014.144-.003.147.011.019-.02.104.076.103-.036-.032-.02-.079-.02-.079s.1-.014.066-.18c.036-.033.05-.001.05-.001s.012.099.099.078c.04.02-.007.074-.007.074s.064.002.083-.048c.019-.049.04-.138-.064-.174-.012-.035.042-.038.042-.038s.066.02.085.051c.019.03.013-.08-.07-.091-.101-.003-.107-.022-.107-.026 0-.005-.018-.247-.026-.317z"/>
        <path d="M17.82 3.317c.002-.016-.172-.23-.128-.259.044.009.117.106.175.075-.018-.038-.07-.017-.13-.114-.059-.11-.068-.276-.276-.457.135.191.44.303.454.247.013-.055-.27-.266-.255-.317.056.104.34.337.549.318.014-.045-.172-.135-.22-.22-.133-.082-.49-.364-.497-.43-.13-.174-.211-.226-.249-.246-.015-.016-.018-.031-.021-.04-.08-.175.026-.232.089-.24.051-.006.066.001.103-.015l-.131-.046c.057.038.203.004.171.115.064-.022.2-.17-.154-.204-.116-.122-.59-.192-.71.339.01.007.015.013.045.034-.15-.067-.554-.118-.7-.14-.393-.104-.802-.355-.841-.324-.053.021.238.269.223.274a6.972 6.972 0 0 0-.696-.316c-.15-.052-.302-.172-.318-.15-.056.106.241.37.296.402.056.03.49.214.483.217-.654-.273-.763-.322-.796-.353-.058-.012-.198-.186-.237-.175-.022.02.021.294.333.417.051.034.67.238.663.254-.001.004-.708-.268-.735-.277-.136-.05-.304-.221-.335-.202-.03.018.077.204.215.262.072.029.349.155.598.235.016.005-.448-.162-.671-.247-.101-.052-.149-.116-.164-.102-.023.014.036.288.753.443.02.008.253-.05.241-.043a3.217 3.217 0 0 1-.254.046.67.67 0 0 0-.147.02c-.008.018.045.117.415.096.048-.002.304-.086.283-.068-.011.01-.35.11-.376.112-.022.003-.141.015-.146.026-.005.016.088.086.287.097.176.009.51-.098.504-.091-.007.007-.322.106-.33.112-.012.006-.128.012-.132.02-.01.02.167.171.688.01-.052.065-.305.109-.304.12-.002.01.055.06.143.077a.504.504 0 0 0 .16 0 .675.675 0 0 0 .337-.167c.016.035-.332.197-.316.212.076.064.326-.008.343-.017.016-.008.482-.249.48-.277.007.036-.6.339-.594.351.04.057.247-.003.257-.008l.272-.135c.007-.004-.3.164-.273.19-.013.11.48-.076.518-.099.02-.011-.237.103-.237.158.082.128.346.087.386.059.02-.014-.024.095-.01.085a.424.424 0 0 0 .078-.1c-.006.036-.035.092-.052.156-.017.065-.022.138-.045.215-.005.034.163-.066.138-.306.015.124-.053.358-.035.37.035.024.133-.116.142-.211.03.048.09.148.142.17-.005-.072.001-.068-.022-.14.013-.094.015-.225.019-.373.142.249.198.354.159.545.042.017.11-.133.104-.21.054.214.288.246.292.24z"/>
        <path d="M15.456 1.733s-.097.067-.217.063c.03.11.279.026.279.026s-.12.122-.206.141c.051.04.268.026.305.006.036-.02.1-.096.1-.096s-.223.236-.255.234c-.004.028.234.018.284-.024.05-.04.174-.102.174-.102s-.327.209-.342.209c.123.03.367-.036.524-.124-.232.142-.253.167-.371.214.105.022.159.087.515-.055.204-.088.32-.25.32-.25-.127.156-.326.288-.548.418-.012.023.237.12.554-.183m.61.18s.022.093.108.164c.086.071.092.14.092.14m-.242-.906s.03.083.118.136c.09.053.225.22.236.25.01.036.062.294.058.321"/>
        <path d="M16.592 1.916c.006.032-.127.191.056.378-.166.185-.166.21-.166.21s.093.046.258-.084c.273.308.182.448.182.448"/>
        <path d="M16.9 2.651s-.025-.033.02-.156c.04.045.085.054.105.072.02.018.225.046.238.172m-.121-1.245c0-.009-.041-.09-.196.011.083.005.165.049.196-.01zm1.477.374c.007.003.462.093.613.048-.193.236-.58.077-.58.077.19.052.198.048.258.097.02.045-.348.024-.47-.038.338.097.345.09.357.128.015.052-.553-.014-.603-.083.152.108.235.128.319.177-.103.042-.292.083-.64-.142.458.382.87.358.935.427-.159.215-.777-.129-1.06-.302-.285-.174.62.42.704.41-.042.059-.341.007-.36-.021"/>
        <path d="M18.736 2.267a1.828 1.828 0 0 1-.235.004m-3.178-.601s.345.167.491.155c-.038.034-.096.048-.096.048.036.014.137.063.29.031-.037.034-.084.071-.084.071s.13.045.28-.025c-.046.05-.072.088-.072.088l.103.006"/>
    </g>
</svg>