<svg xmlns="http://www.w3.org/2000/svg" width="1260" height="630">
    <path fill="#006400" d="M0 0h1260v630H0z"/>
    <path fill="#ffd200" d="M0 90h1260v450H0z"/>
    <path fill="#d40000" d="M0 180h1260v270H0z"/>
    <path d="M0 270h1260v90H0z"/>
    <path stroke="#000" stroke-width="30" d="M0 0v630l420-315z"/>
    <path fill="#fff" d="M0 0v630l420-315z"/>
    <path fill="#d40000" d="M160 157.5 245.5 414 23.2 254.4h273.6L74.5 414"/>
    <path fill="#ffd200" fill-rule="evenodd" d="M152.9 218.7a14.2 14.2 0 0 0-22.6 1.6c-2.5 0-5.1.2-7.6.6a7.9 7.9 0 0 0-6 10.7l8.7-.5c3.5 2 5.7 5.7 5.8 9.7l1 34.2a24.5 24.5 0 0 0-2.5 11c0 4.5.4 9.1 1.1 13.7.7 4.5-.8 9.1-4 12.4a86 86 0 0 0-13 17 13 13 0 0 0 1.3 14.9l9.7 37.9h73.5l4-32.2a45.7 45.7 0 0 1 21.2-33l3 .8a4.2 4.2 0 0 0 3.7-7.4l-69.5-54.3-1.8-22.9a24.7 24.7 0 0 0-6-14.2"/>
    <path d="m152.2 219.3 1.3-1.3zm0 0-1.3-1.3 1.2-1.4 1.4 1.4zm0-2.7-.7.7zm-1.3 1.4-1.4-1 1-1.6 1.6 1.2zm-1.4-1a13.2 13.2 0 0 0-8.3-2.2V213a15 15 0 0 1 9.4 2.5zm-8.3-2.2-.2-1.9h.1zm-.2-1.9v1zm.2 2c-.6 0-1.2 0-1.7.2l-.4-1.9a15 15 0 0 1 2-.3zm-1.7.2c-.6 0-1.2.2-1.7.4l-.6-1.8 1.9-.5zm-1.7.4c-2.7 1-5.1 2.8-6.7 5.3l-1.6-1c1.8-2.8 4.6-5 7.7-6zm-6.7 5.3-.8.5v-1zm-.8.5h-.3v-2h.3v2zm-.3 0v-1zm0 0h-1v-2h1zm-1 0h-1l-.1-1.9h1zm-1 0c-1.8 0-3.5.2-5.1.5l-.4-1.8 5.4-.6zm-5.1.5-.4-1.8.4 1.8zm-.4-1.8.2.9-.2-1zm.3 1.8a7 7 0 0 0-.8.2l-.6-1.8 1-.2zm-.8.2a7 7 0 0 0-.8.3l-.8-1.7 1-.4zm-1.6-1.4.4.9zm.8 1.7a7 7 0 0 0-3.2 3l-1.7-1c1-1.6 2.4-2.9 4-3.7zm-4.9 2 .9.5zm1.7 1-1.7-.8v-.1zm-1.7-.8.8.4-.8-.4zm1.6.9-.3.8-1.8-.7.5-1zm-2 .1.8.3-.9-.3zm1.7.7-.3.8-1.8-.5.3-1zm-2.1.3.9.3zm1.8.5a7 7 0 0 0 .3 4.3l-1.7.7a8.8 8.8 0 0 1-.4-5.5zm-.5 5.6-.9-.6.9-.4zm0-2 8.5-.4.1 1.9-8.6.5zm8.5-.4h.5l-.4 1zm.5 0 .2.2-1 1.6h-.1l1-1.7zm.2.2 1.5 1-1.2 1.5-1.2-.9zm1.5 1c.5.4 1 .8 1.3 1.3l-1.4 1.2-1-1zm1.3 1.3c2 2.1 3.3 5 3.4 8.1h-2c0-2.6-1-5-2.8-6.9zm3.4 8.1 1 34.1h-2l-1-34zm1 34.1-.2.5-.8-.4h1zm-.2.5-.2.4-1.7-.8.2-.5zm-1.9-.4.9.4-.9-.4zm1.7.8-.6 1.4-1.7-.7.6-1.5zm-2.3.7.9.4zm1.7.7-.5 1.4-1.8-.5.6-1.6zm-.5 1.4c-.7 2.4-1 4.9-1 7.3h-2c0-2.6.4-5.3 1.2-7.8l1.8.5zm-1 7.3v.5h-2v-.4h2zm0 .5v2h-1.9v-2h1.9zm0 2 .1 1.8-1.9.1v-1.9zm.1 1.8c.2 3.1.5 6.3 1 9.3l-2 .3c-.4-3.2-.7-6.3-.9-9.5zm1 9.3-1.9.3zm0 0-1 .2zm0 0 .1 2.1H130l-.1-1.8 1.9-.2zm.1 2.1v2l-2-.2.1-1.8h2zm0 2c-.5 3.4-2 6.7-4.5 9.2l-1.3-1.3c2.2-2.3 3.5-5.1 3.8-8.1zm-4.5 9.2-.6-.7zm0 0 .2-.2-1.6-1 .1-.2zm.2-.2-.2.2-.6-.7zm-.2.2-2 2.1-1.4-1.2 2.1-2.2zm-3.4.9.7.6zm1.4 1.2-2 2.3-1.4-1.3 2-2.2zm-3.4 1 .7.6-.7-.6zm1.4 1.3c-3.2 3.8-6.2 8-8.7 12.4l-1.7-1c2.7-4.5 5.7-8.7 9-12.7zM113 328.6l.8.5-.8-.5zm1.7 1-1.7-1zm0 0-1 2-1.7-.7c.2-.8.6-1.5 1-2.2zm-1 2-.5 2-1.8-.4c0-.8.3-1.6.6-2.3zm-.5 2c-.6 3.4.3 7 2.6 9.8l-1.5 1.2a14 14 0 0 1-3-11.4zm2.6 9.8.2.4-1 .2zm.2.4 9.8 37.8-1.9.5-9.7-37.9zm8.8 39-.9-.7 1-.2zm0-1.9h73.5v2h-73.5zm74.4 1-.9 1v-1zm-1.8-.2 4-32 2 .2-4.2 32zm6-31.8-1-.2zm-2-.3s0 .3 0 0l2 .2c-.1.3 0-.1 0 0l-2-.2zm2 .2-1-.1 1 .1zm-2-.2c.3-2 .7-4 1.2-5.8l1.8.5c-.5 1.8-.8 3.7-1 5.5zm1.2-5.8a35 35 0 0 1 1.7-5.5l1.8.7c-.7 1.7-1.3 3.5-1.7 5.3zm1.7-5.5c3.7-9.2 10.2-17 18.8-22.4l1 1.6a44.8 44.8 0 0 0-18 21.5zm18.8-22.4.7-.1-.2.9zm.7-.1 2.9.8-.5 1.8-2.9-.8zm2.9.8-.3 1zm0 0-.5 1.8zm-.5 1.8.3-.9zm.5-1.8.7.1-.2 2-1-.3zm.7.1h.6l.2 1.9h-1zm.6 0c1-.1 2-.8 2.5-1.8l1.7.9a5.2 5.2 0 0 1-4 2.8zm4.2-1-.8-.3zm-1.7-.8 1.7.9zm0 0 .3-.6 1.8.5-.4 1zm2 0-.8-.3zm-1.7-.6v-.6l2 .1-.2 1zm2-.5h-1zm-2-.1c.1-1-.3-2.1-1.2-2.8l1.2-1.5c1.4 1 2 2.8 2 4.4zm-1.2-2.8-69.5-54.4 1.2-1.4 69.5 54.3zm-69.5-54.4-.3-.6 1-.1zm-.3-.6-1.9-22.9 2-.1 1.8 22.8zm-1.9-22.9 2-.2zm2-.2h-1zm-2 .1-.2-2 1.8-.4c.2.8.3 1.5.3 2.3zm-.2-2-.5-2.2 1.8-.4.5 2.2zm-.5-2.2c-1-3.4-2.6-6.7-5-9.4l1.4-1.3c2.6 3 4.4 6.5 5.4 10.3m-6.3 52.4-1.8-.5v-.1l1.8.6zm0 0-1-.2zm0 0-.4 1.6-1.9-.4.5-1.7zm-.4 1.6-.3 1.5-1.8-.2.2-1.7zm-.3 1.5c-.2 2.6.3 5.3 1.5 7.6l-1.6 1a16 16 0 0 1-1.7-8.8zm1.5 7.6-1.6 1 1.6-1zm0 0 .9 1.4-1.6 1-1-1.5zm.9 1.4.9 1.2-1.4 1.3-1.1-1.4zm.9 1.2c1.7 2 4 3.5 6.6 4.2l-.5 1.8a15 15 0 0 1-7.5-4.7"/>
    <path d="M161.2 256.6 132.7 276l-1-1.6 28.5-19.5"/>
    <path fill="#ffd200" fill-rule="evenodd" d="M145.5 225.7a3.7 3.7 0 1 0-7.4 0 3.7 3.7 0 0 0 7.4 0"/>
    <path d="M144.6 225.7h1.9zm0 0c0-.8-.3-1.5-.8-2l1.3-1.4c.9.9 1.4 2 1.4 3.3zm-.8-2c-.5-.5-1.2-.8-2-.8v-2c1.3 0 2.5.6 3.3 1.4l-1.3 1.4zm-2-2.7v1zm0 1.9v-2zm0 0v-2zm0 0c-.8 0-1.5.3-2 .8l-1.3-1.4c.8-.8 2-1.3 3.3-1.3zm-2 .8c-.5.5-.8 1.2-.8 2h-1.9c0-1.3.5-2.5 1.4-3.4l1.3 1.4zm-2.7 2h1zm1.9 0h-1.9zm0 0h-1.9zm0 0c0 .7.3 1.4.8 2l-1.3 1.3c-.9-.9-1.4-2-1.4-3.3zm.8 2c.5.4 1.2.8 2 .8v1.8c-1.3 0-2.5-.5-3.3-1.3l1.3-1.4zm2 2.6v-.9zm0-1.8v1.8zm0 0v1.8zm0 0c.8 0 1.5-.4 2-.9l1.3 1.4c-.8.8-2 1.3-3.3 1.3zm2-.9c.5-.5.8-1.2.8-2h1.9c0 1.4-.5 2.5-1.4 3.4l-1.3-1.4zm2.7-2h-1zm-1.9 0h1.9M138 315l.9 1.7-1-1.7zm.9 1.6-.4-.8zm-.9-1.6a15 15 0 0 0 2.2-1.4l1.1 1.5a12 12 0 0 1-2.4 1.5zm2.2-1.4 1.9-1.6 1.4 1.3c-.7.6-1.4 1.3-2.2 1.8zm1.9-1.6a15 15 0 0 0 4.1-11.8l2-.1a17 17 0 0 1-4.7 13.2m7.4-18.2-.9-1.7 1 1.7zm-.9-1.7.4.9zm.9 1.7-.8.5-1.1-1.5 1-.7zm-.8.5a5 5 0 0 0-.6.5l-1.4-1.3.9-.7zm-.6.5a5 5 0 0 0-1.4 4l-1.9.1a7 7 0 0 1 2-5.4m13.3 28-.7-1.8zm0 0-3 1.2-.7-1.7 3-1.3zm-3 1.2-3 1.3-.8-1.8 3-1.2zm-3 1.3a297 297 0 0 0-15.2 7l-.9-1.8c5-2.4 10.2-4.8 15.3-7"/>
    <path d="m160.8 321 .7 1.8zm.7 1.8-.3-1zm-.7-1.8c1.1-.4 2.1-1 3.1-1.5l1 1.6a26 26 0 0 1-3.4 1.7zm3.1-1.5 2.8-1.9 1.2 1.5-3 2zm2.8-1.9a24 24 0 0 0 8.7-14.5l1.9.4a25.8 25.8 0 0 1-9.4 15.6m-16.4 5.9h61.3v1.9h-61.3"/>
    <path fill="#ffd200" fill-rule="evenodd" d="M165.7 337.4a7.1 7.1 0 1 0-14.2 0 7.1 7.1 0 0 0 14.2 0"/>
    <path d="M164.7 337.4h2zm0 0a6 6 0 0 0-1.8-4.3l1.4-1.4a8 8 0 0 1 2.3 5.7zm-.5-5.7-.6.7.6-.7zm-1.3 1.4a6.1 6.1 0 0 0-4.3-1.8v-2a8 8 0 0 1 5.6 2.4zm-4.3-1.8v-2zm0 0v-2zm0 0c-1.7 0-3.3.7-4.4 1.8l-1.3-1.3a8 8 0 0 1 5.7-2.4zm-4.4 1.8a6.2 6.2 0 0 0-1.8 4.3h-1.9a8 8 0 0 1 2.4-5.6zm-1.8 4.3h-1.9zm0 0h-1.9zm0 0c0 1.7.7 3.3 1.8 4.4l-1.3 1.3a8 8 0 0 1-2.4-5.7zm1.8 4.4a6.2 6.2 0 0 0 4.3 1.8v1.9a8 8 0 0 1-5.6-2.4zm4.3 1.8v1.9zm0 0v1.9zm0 0c1.8 0 3.3-.7 4.4-1.8l1.4 1.3a8 8 0 0 1-5.7 2.4zm5.8-.5-.7-.6.7.6zm-1.4-1.3a6.2 6.2 0 0 0 1.8-4.3h2a8 8 0 0 1-2.4 5.6zm1.8-4.3h2"/>
    <path fill="#ffd200" fill-rule="evenodd" d="M194 337.4a7.1 7.1 0 1 0-14.3 0 7.1 7.1 0 0 0 14.2 0"/>
    <path d="M193 337.4h1.9zm0 0a6 6 0 0 0-1.8-4.3l1.3-1.4a8 8 0 0 1 2.4 5.7zm-.5-5.7-.6.7.6-.7zm-1.3 1.4a6.2 6.2 0 0 0-4.3-1.8v-2a8 8 0 0 1 5.6 2.4zm-4.3-1.8v-2zm0 0v-2zm0 0c-1.8 0-3.3.7-4.4 1.8l-1.4-1.3a8 8 0 0 1 5.7-2.4zm-4.4 1.8a6.2 6.2 0 0 0-1.8 4.3h-2a8 8 0 0 1 2.4-5.6zm-1.8 4.3h-2zm0 0h-2zm0 0c0 1.7.7 3.3 1.8 4.4l-1.3 1.3a8 8 0 0 1-2.4-5.7zm1.8 4.4a6.2 6.2 0 0 0 4.3 1.8v1.9a8 8 0 0 1-5.6-2.4zm4.3 1.8v1.9zm0 0v1.9zm0 0c1.7 0 3.3-.7 4.4-1.8l1.3 1.3a8 8 0 0 1-5.7 2.4zm5.7-.5-.6-.6.6.6zm-1.3-1.3a6.2 6.2 0 0 0 1.8-4.3h1.9a8 8 0 0 1-2.4 5.6zm1.8-4.3h1.9m-22.5-25.2 1 .3-.5 1.8-1-.3zm1 .3 1.5.4-.4 1.8-1.6-.4zm1.5.4 1.5.3-.3 1.8-1.6-.3zm1.5.3c2.4.4 4.8.6 7.2.6v2c-2.5 0-5-.3-7.5-.8m7.5-1.1 1-.1.2 1.8-1.2.1V314zm1-.1v1-1zm0 0 1.6-.3.4 1.8-1.8.3zm1.6-.3 1.5-.5.7 1.7-1.8.6zm1.5-.5a11 11 0 0 0 5.2-5.2l1.7.7a12 12 0 0 1-6.2 6.2"/>
    <path d="m223.3 317.6-62-17.6.6-1.8 61.9 17.6m-107.5 32h86.2v2h-86.2m19.9 16.8h64v1.9h-64"/>
    <path d="m166 360.2-6.9 6.9-1.3-1.4 7-6.8"/>
    <path d="m152.8 359.5 7 7-1.4 1.3-7-7"/>
    <path d="m153.4 360.2-7 6.9-1.2-1.4 7-6.8"/>
    <path d="m140.2 359.5 7 7-1.4 1.3-7-7m40-.6-7 6.9-1.4-1.4 7-6.8"/>
    <path d="m165.4 359.5 7 6.2-1.3 1.4-7-6.2m27.2-.7-7 6.9-1.3-1.4 7-6.8"/>
    <path d="m178 359.5 7 6.2-1.3 1.4-7-6.2m24.8 1.8L197 367l-1.3-1.4 4.5-4.4"/>
    <path d="m190.7 359.5 7 7-1.4 1.3-7-7m-23.2-10.2-7 7-1.3-1.4 7-7"/>
    <path d="m152.8 350 7 6.8-1.4 1.4-7-6.9"/>
    <path d="m153.4 350.6-7 7-1.2-1.4 7-7"/>
    <path d="m140.2 350 7 6.8-1.4 1.4-7-6.9m40-.7-7 7-1.4-1.4 7-7"/>
    <path d="m165.4 350 7 6.8-1.3 1.4-7-6.9m27.2-.7-7 7-1.3-1.4 7-7"/>
    <path d="m178 350 7 6.8-1.3 1.4-7-6.9m26.2.4-6 5.8-1.2-1.3 5.8-5.8"/>
    <path d="m190.7 350 7 6.8-1.4 1.4-7-6.9m-55.6-119.7-8.3.5-.1-2 8.3-.4m5.2 87-.8-1.7.8 1.7zm-.9-1.7.5.9zm.9 1.7a26 26 0 0 0-4.5 2.8l-1.1-1.5c1.5-1.1 3-2.1 4.7-3zm-4.5 2.8a25 25 0 0 0-3.8 3.5l-1.4-1.3a35 35 0 0 1 4-3.7zm-3.8 3.5a27.9 27.9 0 0 0-6.5 24.6l-1.8.4c-2.1-9.6.7-19.3 7-26.3m11 10.5v.1l-.9-1.7h.1zm-.9-1.6.4.9zm.8 1.7-2.2 1.4-1.1-1.6 2.5-1.5zm-2.2 1.4c-.7.5-1.4 1-2 1.7l-1.4-1.3 2.3-2zm-2 1.7a16.5 16.5 0 0 0-4.6 12.3h-1.9a18.3 18.3 0 0 1 5.1-13.6"/>
    <path d="m118.1 338.8-1.7-.1v.6-.6h1.7zm-1.8.5 1.8-.5-1.7-.1zm1.8-.5.5 1.3-1.8.7-.5-1.5zm.5 1.3.6 1.3-1.7.9-.7-1.5zm.6 1.3c1 2.2 2.6 4.1 4.5 5.7l-1.2 1.4a18.4 18.4 0 0 1-5-6.2"/>
    <path d="m118 339.4-2 5-1.8-.8 2.2-5m5.8 9.4v-.6l1.8.8zm1.8.2-1.7-.8zm-1.7-.8c.2-.5.4-1 .7-1.3l1.6.8-.6 1.3zm.7-1.3.6-1.4 1.7.8-.7 1.4zm.6-1.4c1-2.2 2-4.6 2.7-7l1.8.6c-.8 2.5-1.7 4.9-2.8 7.2"/>
    <path d="m129.4 347.7 1.8-.4zm1.8-.4-.9.2 1-.2zm-1.8.4-.3-1.3 1.8-.5.3 1.4zm-.3-1.3-.4-1.4 1.8-.5.4 1.4zm1.4-1.9-.9.3 1-.3zm-1.8.5c-.6-2.2-1.5-4.4-2.4-6.6v-.7h1.7c1 2.2 1.8 4.5 2.5 6.8m7.5 37.2-2.8-14 1.9-.5 2.7 14.1"/>
    <path d="M135.3 367.9 129 349l1.8-.6 6.4 18.7"/>
    <path d="m140.8 360.2-5 5-1.3-1.4 5-5m1.3-8.2-7.4 7.4-1.4-1.4 7.5-7.3"/>
</svg>