<svg xmlns="http://www.w3.org/2000/svg" width="1260" height="630">
    <path d="M0 0h1260v630H0z" fill="#006400"/>
    <path d="M0 90h1260v450H0z" fill="#ffd200"/>
    <path d="M0 180h1260v270H0z" fill="#d40000"/>
    <path d="M0 270h1260v90H0z"/>
    <path d="M0 0v630l420-315z" stroke="#000" stroke-width="30"/>
    <path d="M0 0v630l420-315z" fill="#fff"/>
    <path id="star5" fill="#d40000" d="M0-25L15,20L-24-8L24-8L-15,20" transform="translate(160,300)scale(5.7)" />
    <path d="M152.87609 218.66764c-2.92813-3.35331-7.26299-5.13388-11.70314-4.80568-4.43974.32744-8.46602 2.72595-10.8698 6.47271-2.5494-.062-5.09882.12521-7.61162.55712-2.35057.40443-4.38957 1.85453-5.5424 3.94294-1.154 2.08727-1.29511 4.58611-.38593 6.79034l8.58901-.50933c3.51889 1.98579 5.74011 5.66994 5.85554 9.70867l.96765 34.13051c-1.65948 3.42798-2.49771 7.19549-2.44981 11.0045.0588 4.58537.42251 9.16093 1.09098 13.69839.67038 4.55631-.82767 9.16319-4.04967 12.45348-4.99393 5.09954-9.33635 10.79927-12.92732 16.96716-2.75687 4.73852-2.27136 10.6914 1.21701 14.9195l9.78638 37.86561h73.45035l4.07609-32.12737c1.73041-13.63953 9.50761-25.77463 21.17757-33.04293l2.89042.82051c1.94165.55039 4.00138-.34967 4.91582-2.14954.91406-1.79981.42666-3.99499-1.16378-5.23876l-69.48182-54.33203-1.8262-22.86798c-.42143-5.2742-2.52676-10.27227-6.00533-14.25782" fill="#ffd200" fill-rule="evenodd"/>
    <path d="M152.17216 219.29009l-.0578-.0653 1.4075-1.24452.0578.0653zm-.0578-.0653c-.37952-.42967-.79336-.83826-1.22867-1.21811l1.23849-1.41578c.48666.42474.95589.8899 1.39768 1.38937zm.0117-2.63692v.003l-.61905.70812zm-1.23848 1.42221c-.43608-.37951-.89184-.72737-1.35693-1.03631l1.03929-1.56969c.54771.36368 1.06838.75934 1.55613 1.18377zm-1.35693-1.03631c-2.41403-1.60405-5.32557-2.38683-8.28993-2.1684l-.1327-1.88658c3.37402-.24895 6.69867.6492 9.46157 2.48527zm-8.28951-2.16838l-.0866.008-.13237-1.88658.0866-.008zm-.2266-1.88018h.009l.0662.94307zm.14735 1.8866c-.60096.0471-1.17282.13013-1.70889.24477l-.39117-1.84167c.66097-.14105 1.31544-.23953 1.95258-.28968zm-1.70889.24477c-.55906.11848-1.10982.27579-1.64439.46516l-.62654-1.7753c.61038-.21579 1.24036-.39459 1.87979-.53157zm-1.64439.46516c-2.73425.96765-5.10934 2.82516-6.7115 5.32099l-1.58439-1.01588c1.82962-2.85194 4.54349-4.97468 7.66931-6.08038zm-6.7115 5.32099l-.81484.43533.0224-.94348zm-.81484.43533c-.092-.002-.18703-.004-.25204-.004l.0224-1.88621c.11122.00099.1958.004.27611.004l-.0449 1.88658zm-.25204-.004h-.003l.0139-.94306zm-.003 0c-.34625-.004-.69486-.008-1.03704-.004l-.0139-1.88621c.36145-.003.72619-.002 1.08232.004zm-1.03704-.004c-.32744.002-.67605.0118-1.03332.0224l-.0662-1.88621c.34624-.0117.70887-.0224 1.08418-.0224zm-1.03332.0224c-1.71835.061-3.42725.23954-5.1037.52741l-.31685-1.8564c1.77944-.30595 3.57059-.49309 5.35455-.55724zm-5.1037.52741l-.0374.008-.31653-1.8564.0374-.008.31685 1.8564zm-.35845-1.85h.003l.15848.92798-.16264-.92798zm.32519 1.85641c-.29535.0513-.58098.12191-.8514.20521l-.55148-1.79869c.35685-.11014.71946-.19997 1.07778-.26296zm-.8514.20521c-.26627.0823-.53788.18821-.80619.30893l-.77409-1.71719c.32475-.14672.66813-.2792 1.0287-.39043zm-1.58365-1.40824h.003l.38701.85858zm.78051 1.71719c-1.33769.60845-2.46453 1.63611-3.1877 2.9474l-1.65082-.90691c.92275-1.67457 2.35665-2.98474 4.058-3.7577zm-4.84191 2.04805l.003-.008.82542.4534zm1.65761.89184l-.0513.0952-1.65761-.89183.0513-.0952zm-1.7089-.79261v-.004l.82873.44592-.82873-.44174zm1.6576.88349c-.13046.24479-.25237.51115-.35951.79336l-1.75984-.67145c.12362-.32743.28092-.6662.46175-1.0054zm-2.11935.12597v-.004l.87975.33577-.87975-.33161zm1.75984.66321c-.10268.27236-.19014.55039-.2589.82767l-1.8262-.44934c.0866-.35277.19666-.70244.32519-1.04154zm-2.08502.38176v-.003l.91333.22446zm1.82621.4425c-.34518 1.40936-.24017 2.91191.32411 4.28281l-1.73872.71411c-.71752-1.74172-.84991-3.64831-.41159-5.43945zm-.48965 5.58316l-.92498-.58622.86959-.35683zm-.11121-1.8862l8.58904-.50934.11122 1.88659-8.58902.5089zm8.58904-.50934l.51233.12191-.45639.82126zm.51233.12191c.12822.0717.18414.10373.21697.12297l-.96005 1.621c-.0952-.0556-.17228-.10155-.17228-.10155l.91333-1.64251zm.21697.12297c.51874.30594 1.01513.65145 1.48106 1.02689l-1.17812 1.46709c-.39278-.31652-.81485-.60962-1.26074-.87259zm1.48106 1.02689c.46442.37428.90273.7817 1.30488 1.21586l-1.37732 1.2811c-.34026-.367-.7111-.71218-1.10568-1.02989zm1.30488 1.21586c2.03596 2.18648 3.25179 5.07087 3.33932 8.13859l-1.88619.0513c-.0738-2.60824-1.10456-5.05579-2.83045-6.90878zm3.33932 8.13859l.96797 34.13014-1.8866.0513-.96765-34.13051zm.96797 34.13014l-.0963.43417-.84735-.40819.94348-.0256zm-.0963.43417c-.0546.11345-.13154.27728-.20853.44516l-1.70891-.78917c.062-.13581.13154-.2837.22329-.47267zm-1.91755-.33996v-.003l.85441.39459-.85441-.39043zm1.7089.78052c-.20735.45234-.40443.92305-.58814 1.39995l-1.75379-.67787c.1913-.49724.40323-1.00122.63294-1.50256zm-2.34529.72501l.003-.003.87675.33877zm1.7602.67155c-.18082.47159-.34625.94947-.49607 1.42861l-1.79867-.56023c.16158-.51639.33984-1.03182.53457-1.53991zm-.49607 1.42861c-.73367 2.35702-1.09513 4.82942-1.06421 7.31998l-1.88621.0224c-.0343-2.68182.35728-5.35078 1.15173-7.90132l1.79867.56023zm-1.06421 7.31998c.00099.15933.003.32177.009.49607l-1.88619.03c-.002-.1573-.003-.33234-.009-.50473l1.88622-.0225zm.009.49607c.0117.61155.0256 1.24339.0513 1.88621l-1.88622.0662c-.0224-.62247-.0407-1.26604-.0513-1.9228l1.88619-.03zm.0513 1.88621c.0203.60097.0502 1.23095.0866 1.88546l-1.88619.10268c-.0343-.61188-.0631-1.25435-.0866-1.92167zm.0866 1.88546c.17121 3.12884.48324 6.23502.93439 9.30539l-1.86471.27161c-.46399-3.15788-.78393-6.32104-.95588-9.47439zm.93439 9.30539l.009.0438-1.8647.27161-.009-.0438zm.009.0438v.003l-.93215.1327zm0 .003c.0984.68244.15195 1.36373.16073 2.03295l-1.88658.0224c-.009-.59905-.0546-1.19887-.13892-1.78925l1.86471-.26509zm.16073 2.03295c.009.66619-.0258 1.34108-.1048 2.01144l-1.87151-.21388c.0662-.5783.0972-1.17509.0898-1.77604l1.88659-.0224zm-.1048 2.01144c-.39801 3.41326-1.91412 6.64586-4.37375 9.1579l-1.3407-1.3196c2.16084-2.20722 3.49323-5.04935 3.84294-8.05221zm-4.37375 9.1579l-.003.009-.66737-.66737zm-.003.009c-.0256.0256.15933-.21077.10897-.13463l-1.5697-1.04603c.0545-.0823.092-.11966.12585-.15388zm.10897-.13463l-.11454.13666-.67036-.65979zm-.11454.13666c-.64662.66097-1.32563 1.38071-2.03256 2.15368l-1.39242-1.27432c.63828-.69872 1.33357-1.43204 2.08425-2.19895zm-3.42498.88232v-.003l.69604.63712zm1.39242 1.26829c-.68129.7462-1.33771 1.48973-1.96241 2.22195l-1.42894-1.22318c.66844-.78351 1.33655-1.54177 1.99862-2.26684zm-3.39517.99857h.003l.71442.61187-.71859-.61187zm1.43727 1.22339c-3.2937 3.87013-6.23656 8.02015-8.78482 12.39688l-1.62742-.94305c2.61768-4.49634 5.62354-8.73953 8.97497-12.6772zm-10.41676 11.45381h.003l.81366.47157-.81827-.47157zm1.6361.94304l-.0374.0631-1.63612-.94349.0374-.0631zm-.0374.0631c-.36027.62663-.6568 1.26603-.88885 1.90319l-1.76849-.64172c.27814-.76544.61905-1.50557 1.02122-2.20497zm-.88885 1.90319c-.2374.65453-.41799 1.32412-.53755 1.9922l-1.85046-.33107c.14008-.78159.34742-1.55346.61903-2.30229zm-.53755 1.9922c-.6213 3.44989.26819 7.08232 2.58751 9.89279l-1.452 1.1932c-2.67588-3.24185-3.70274-7.43565-2.98597-11.41705zm2.58751 9.89279l.18414.36027-.9099.23622zm.18414.36027l9.78678 37.86556-1.82018.47265-9.78677-37.86556zm8.8765 39.04482l-.9099-.70652.9099-.23654zm0-1.88619h73.44978v1.88619h-73.45359zm74.38252 1.06079l-.93215.82543v-.94306zm-1.86471-.23537l4.0761-32.12736 1.86509.23536-4.07648 32.12736zm5.94458-31.89536l-.003.003-.93257-.11773zm-1.87194-.22808c.0139-.11464-.0256.22969.0117-.0578l1.86507.2436c-.0343.25546.0139-.10587-.003.0428l-1.87148-.22862zm1.8745.18189v.003l-.93257-.1219.93257.11774zm-1.86508-.23536c.25043-1.96127.62128-3.88068 1.10155-5.74122l1.82661.46398c-.46858 1.81454-.8265 3.6581-1.06303 5.51264zm1.10155-5.74122c.48549-1.88207 1.08646-3.72378 1.79339-5.50923l1.75381.6926c-.68021 1.72059-1.25772 3.48532-1.72059 5.28062zm1.79339-5.50923c3.63776-9.19112 10.14816-17.09056 18.71118-22.42438l.99481 1.59989c-8.21482 5.11689-14.46079 12.69718-17.95215 21.51709zm18.71118-22.42438l.75185-.10693-.25439.90648zm.75185-.10693l2.89043.82008-.5089 1.81339-2.89041-.82018zm2.89043.82008h.003l-.25771.90691zm.003 0l.0224.009-.51532 1.81343-.0224-.009zm-.48549 1.81982h-.009l.25772-.9065zm.50025-1.81343c.19462.0534.40965.0898.63755.10586l-.13923 1.88659c-.31536-.0224-.6522-.0834-.99857-.17879zm.63755.10586c.22326.0139.43607.0118.6308-.0117l.22039 1.87147c-.33577.0395-.6692.0492-.99021.0256zm.6308-.0117c1.06079-.12587 2.02764-.76886 2.53429-1.76776l1.68138.84693c-.80128 1.57838-2.32497 2.5924-3.99539 2.79231zm4.21866-.92392l-.003.003-.8405-.42325zm-1.68739-.8405l.0117-.0225 1.68741.84052-.0118.0224zm.0117-.0225c.10051-.20231.17965-.40666.23429-.60545l1.81379.50056c-.0898.32593-.21077.64588-.36069.94529zm2.05108-.10832l-.003.003-.90691-.25034zm-1.82021-.49382c.0524-.1958.0888-.4056.10479-.62246l1.88658.1389c-.0224.31878-.0823.64814-.1712.97749zm1.99146-.48666v.003l-.94349-.0695zm-1.88657-.1327c.0791-1.07023-.36552-2.14386-1.24567-2.83271l1.15701-1.48179c1.39353 1.08948 2.09822 2.77499 1.97523 4.4473zm-1.24567-2.83271l-69.48175-54.33215 1.15699-1.48218 69.48177 54.33254zm-69.48175-54.33215l-.36487-.66737.94316-.0738zm-.36487-.66737l-1.82619-22.86797 1.88618-.14746 1.82659 22.86798zm-1.82619-22.86797l-.009-.0802 1.88621-.14789.009.0802zm1.87979-.23087v.003l-.94316.0738zm-1.88622.15387c-.061-.74201-.15077-1.44784-.26626-2.11066l1.8564-.31684c.13581.78201.23622 1.54441.2961 2.27363zm-.26626-2.11066c-.11998-.69112-.27386-1.3807-.45651-2.06313l1.81982-.48516c.19687.73037.36143 1.47652.49307 2.23138zm-.45651-2.06313c-.93257-3.48044-2.65123-6.72283-5.04106-9.46122l1.41579-1.23849c2.58259 2.95983 4.43898 6.45988 5.44509 10.21456M152.68787 280.72077c-.009.0203.0139-.0395-.0117.0374l-1.8051-.54548c.009-.0257.0139-.0417.0396-.10982l1.7753.61786zm-.0117.0374l-.009.0225-.89482-.29536zm-.009.0225c-.16885.50772-.30551 1.01139-.40849 1.50333l-1.84131-.38294c.12308-.58813.27695-1.16001.45992-1.71076zm-.40849 1.50333c-.10694.51114-.18478 1.02347-.23205 1.52593l-1.8711-.16897c.0546-.58814.14339-1.17096.26166-1.73986zm-.23205 1.52593c-.24584 2.61351.26734 5.26967 1.51124 7.63423l-1.66629.87665c-1.41309-2.68666-1.9948-5.70645-1.71562-8.6795zm1.51124 7.63423l.0118.0203-1.66591.87676-.0117-.0203 1.66626-.87664zm.0118.0203c.24359.46293.51456.90991.80617 1.33543l-1.55368 1.05995c-.33267-.4855-.64053-.99439-.91739-1.51955zm.80617 1.33543c.29429.4301.61188.84169.94349 1.22567l-1.42257 1.22944c-.38476-.4459-.74737-.91406-1.07554-1.39428zm.94349 1.22567c1.72588 1.99523 4.01309 3.4676 6.59641 4.19908l-.5089 1.81376c-2.93835-.83218-5.54244-2.50863-7.51012-4.7834"/>
    <path d="M161.23804 256.57056l-28.52246 19.49093-1.06079-1.55463 28.52283-19.49091"/>
    <path d="M145.54444 225.65715c0-2.06727-1.67573-3.74298-3.74262-3.74298-2.06688 0-3.74261 1.67571-3.74261 3.74298 0 2.06691 1.67573 3.74262 3.74261 3.74262 2.06689 0 3.74262-1.67571 3.74262-3.74262" fill="#ffd200" fill-rule="evenodd"/>
    <path d="M144.60133 225.65715v-.008h1.88618v.008zm0-.008c-.00098-.77112-.31427-1.47164-.81784-1.97412l1.32602-1.33468c.84874.8481 1.37618 2.019 1.37805 3.3088zm-.81784-1.97412c-.50279-.50174-1.20111-.81591-1.96882-.81826l.009-1.88621c1.28109.004 2.44452.52815 3.28841 1.36976l-1.32604 1.33471zm-1.96583-2.70444h.003l-.003.94306zm0 1.88621h-.0139v-1.88621h.0139zm-.0139 0h-.009v-1.88621h.009zm-.009 0c-.77111.00098-1.47125.31461-1.9741.81827l-1.3343-1.32601c.84799-.84916 2.019-1.37616 3.3084-1.37844zm-1.9741.81827c-.5013.50248-.81559 1.20076-.81783 1.96881l-1.88622-.008c.003-1.28186.52815-2.44528 1.36978-3.28804l1.33431 1.32602zm-2.70408 1.96541v-.003l.94317.003zm1.88622 0v.0149h-1.88622v-.0149zm0 .0149v.008h-1.88622v-.008zm0 .008c.00099.77217.31429 1.47162.81783 1.9741l-1.32601 1.33469c-.84885-.8481-1.37618-2.02013-1.37807-3.30879zm.81783 1.9741c.50281.50174 1.20114.81603 1.96881.81827l-.009 1.8862c-1.28225-.004-2.44566-.52814-3.28842-1.36976l1.32698-1.33457zm1.96541 2.70445h-.003l.003-.94306zm0-1.88621h.0139v1.88621h-.0139zm.0139 0h.009v1.88621h-.009zm.009 0c.77186-.00099 1.47124-.31461 1.97412-.81827l1.33434 1.32603c-.84809.84916-2.01975 1.37618-3.30842 1.37845zm1.97412-.81827c.50131-.50248.81559-1.20076.81783-1.96844l1.88622.008c-.003 1.28073-.52814 2.44452-1.36975 3.28803l-1.3343-1.32601zm2.70406-1.96542v.003l-.94305-.003zm-1.88622 0v-.0149h1.88622v.0149M137.9747 314.99841l.0662-.0343.84052 1.68741-.0662.0342-.8405-1.68776zm.90991 1.65119l-.003.003-.42025-.84392zm-.84692-1.68098c.77217-.39042 1.50142-.83933 2.17518-1.33882l1.1204 1.51009c-.76544.56664-1.58555 1.07363-2.44868 1.50971zm2.17518-1.33882c.6756-.50025 1.3075-1.05738 1.88509-1.65837l1.35579 1.3045c-.64588.67145-1.35579 1.29809-2.12048 1.86396zm1.88509-1.65837c2.95265-3.07036 4.52535-7.3294 4.1417-11.7435l1.8862-.16264c.43192 4.95731-1.34185 9.74789-4.67211 13.21059M150.91671 295.08651l-.0662.0343-.8405-1.68739.0663-.0343.8405 1.68777zm-.91407-1.65119l.009-.003.42025.84393zm.85559 1.68097c-.26852.13807-.51458.28969-.72962.45116l-1.12683-1.50331c.32177-.24188.65754-.45341 1.00079-.62889zm-.72962.45116c-.22435.16779-.43725.35834-.63081.5613l-1.36221-1.29581c.26168-.27505.55381-.535.86618-.76887zm-.63081.5613c-.97963 1.02871-1.50026 2.45657-1.37202 3.93651l-1.88621.16265c-.17548-2.019.5444-3.97502 1.89602-5.39493M161.50775 322.76431l-.0139.009-.69935-1.74738.0139-.009zm-.0139.009c-.97182.39117-1.98129.80501-3.01342 1.23282l-.72373-1.73963c.97857-.40516 1.99107-.82018 3.03678-1.2415zm-3.01342 1.23282c-1.00603.41726-2.00916.84051-3.00471 1.26491l-.73786-1.73231c1.00605-.42967 2.0156-.85527 3.01984-1.27129zm-3.00471 1.26491c-5.12558 2.18685-10.20362 4.51291-15.22544 6.97328l-.8264-1.69473c5.03352-2.46603 10.14063-4.8057 15.31296-7.01179"/>
    <path d="M160.81893 321.01354l.0343-.0117.67785 1.7538-.0343.0118zm.72619 1.73794l-.0139.003-.33876-.87665zm-.708-1.74738c1.07287-.43415 2.09821-.93781 3.06583-1.50142l.94348 1.62741c-1.06004.61712-2.1646 1.16039-3.30123 1.62139zm3.06583-1.50142c.95706-.55606 1.88771-1.19248 2.78025-1.89714l1.17209 1.48217c-.93256.7356-1.93864 1.4203-3.00887 2.04238zm2.78018-1.89714c4.51295-3.56193 7.65989-8.68297 8.72068-14.47665l1.85001.33804c-1.1453 6.25879-4.53709 11.78385-9.3986 15.62078M151.54256 325.00435h61.29377v1.88658h-61.29377"/>
    <path d="M165.66949 337.442c0-3.92556-3.1824-7.10797-7.10685-7.10797-3.92558 0-7.10686 3.18241-7.10686 7.10797 0 3.92444 3.18128 7.10685 7.10686 7.10685 3.92445 0 7.10685-3.18241 7.10685-7.10685" fill="#ffd200" fill-rule="evenodd"/>
    <path d="M164.72637 337.442v-.009h1.88622v.009zm0-.009c-.00098-1.69798-.69411-3.24013-1.8081-4.35413l1.33431-1.33468c1.45427 1.45427 2.35812 3.46797 2.36001 5.68881zm-.47799-5.68881h.003l-.66696.66738.66278-.66738zm-1.32601 1.33468c-1.11204-1.11023-2.64856-1.79981-4.34352-1.80321v-1.88622c2.21253.003 4.21758.90466 5.66957 2.35475zm-4.34352-1.80321h-.0139v-1.88622h.0139zm-.0139 0h-.009v-1.88622h.009zm-.009 0c-1.70136.00099-3.242.69068-4.35299 1.80396l-1.33468-1.32601c1.45654-1.45839 3.46987-2.36191 5.68767-2.36417zm-4.35299 1.80396c-1.11022 1.11212-1.7998 2.649-1.8032 4.34506h-1.88622c.003-2.21365.90467-4.21866 2.35474-5.67107zm-1.8032 4.34506v.0139h-1.88622v-.0139zm0 .0139v.009h-1.88622v-.009zm0 .009c.00099 1.70023.69186 3.24238 1.80397 4.35337l-1.32602 1.33431c-1.45865-1.45706-2.36214-3.47076-2.3644-5.68743zm1.80397 4.35337c1.11134 1.10984 2.64897 1.79943 4.34393 1.80284V345.49c-2.21253-.003-4.21871-.90467-5.66995-2.35474zm4.34393 1.80284h.0139V345.49h-.0139zm.0139 0h.009V345.49h-.009zm.009 0c1.69722-.00098 3.23899-.69412 4.35338-1.80813l1.33468 1.3343c-1.45464 1.45426-3.46798 2.35814-5.68806 2.36004zm5.68806-.478v.003l-.66739-.66737.66739.66321zm-1.33468-1.32603c1.10981-1.11212 1.79981-2.64898 1.80283-4.34354h1.88618c-.003 2.21215-.90466 4.21717-2.35433 5.66957zm1.80283-4.34354v-.0139h1.88618v.0139"/>
    <path d="M193.94634 337.442c0-3.92556-3.18241-7.10797-7.10682-7.10797-3.92558 0-7.10798 3.18241-7.10798 7.10797 0 3.92444 3.1824 7.10685 7.10798 7.10685 3.92441 0 7.10682-3.18241 7.10682-7.10685" fill="#ffd200" fill-rule="evenodd"/>
    <path d="M193.00324 337.442v-.009h1.88622v.009zm0-.009c-.00099-1.69798-.69411-3.24013-1.80849-4.35413l1.33468-1.33468c1.45425 1.45427 2.35777 3.46797 2.36003 5.68881zm-.47799-5.68881h.003l-.66738.66738.6632-.66738zm-1.32601 1.33468c-1.11212-1.11023-2.649-1.79981-4.34393-1.80321v-1.88622c2.21252.003 4.21754.90466 5.66994 2.35475zm-4.34393-1.80321h-.0139v-1.88622h.0139zm-.0139 0h-.009v-1.88622h.009zm-.009 0c-1.70137.00099-3.24353.69187-4.35451 1.80396l-1.33429-1.32601c1.45729-1.45839 3.46986-2.36191 5.6888-2.36417zm-4.35451 1.80396c-1.10985 1.11212-1.7998 2.649-1.80283 4.34506h-1.88621c.003-2.21365.90467-4.21866 2.35475-5.67107zm-1.80283 4.34506v.0139h-1.88621v-.0139zm0 .0139v.009h-1.88621v-.009zm0 .009c.00099 1.70023.69187 3.24238 1.80396 4.35337l-1.326 1.33431c-1.4586-1.45706-2.36249-3.47076-2.36438-5.68743zm1.80396 4.35337c1.11212 1.10984 2.64861 1.79943 4.34469 1.80284V345.49c-2.21366-.003-4.21829-.90467-5.67069-2.35474zm4.34469 1.80284h.0139V345.49h-.0139zm.0139 0h.009V345.49h-.009zm.009 0c1.69682-.00098 3.23899-.69412 4.35297-1.80813l1.33471 1.3343c-1.45427 1.45426-3.468 2.35814-5.68768 2.36004zm5.68768-.478v.003l-.66739-.66737.66739.66321zm-1.33467-1.32574c1.11023-1.11211 1.79984-2.64898 1.80324-4.34355h1.88619c-.003 2.21216-.90467 4.21718-2.35473 5.66958zm1.80324-4.34355v-.0139h1.88619v.0139M172.40852 312.32112c.33267.0995.66502.19356.99439.2821l-.4855 1.81981c-.35042-.0941-.70351-.1944-1.04763-.29727zm.99439.2821c.52323.14008 1.02677.26626 1.50594.37416l-.41308 1.83493c-.54964-.12416-1.0778-.25441-1.57839-.38935zm1.50594.37416c.50667.11314 1.01364.21815 1.51838.31119l-.33801 1.85c-.53457-.0984-1.06839-.20853-1.59348-.32626zm1.51838.31119c2.36417.43425 4.78193.64696 7.21174.63304l.009 1.88619c-2.52487.0139-5.05691-.21044-7.55611-.66919"/>
    <path d="M183.639 313.92178c.33342-.00099.65337-.0203.94723-.0481l.19237 1.8715c-.39117.0396-.77068.061-1.13326.0631l-.009-1.88619zm.94723-.0481h.003l.092.93588-.0963-.93588zm.003 0c.53157-.0524 1.06078-.15057 1.57761-.28638l.47875 1.81982c-.60396.15955-1.23168.27385-1.87222.33801zm1.57761-.28638c.50773-.13377 1.01022-.31117 1.49388-.52398l.75902 1.72363c-.56664.25034-1.16228.45874-1.77418.62022zm1.49388-.52398c2.27965-1.00528 4.16058-2.83797 5.198-5.20668l1.72361.75069c-1.23168 2.81347-3.46155 4.98824-6.16259 6.17958"/>
    <path d="M223.29231 317.60025l-61.90338-17.56172.5089-1.81375 61.90338 17.56208M116.30219 347.87575h86.19359v1.88618h-86.19359M136.19942 366.6084h63.90955v1.88621h-63.90955"/>
    <path d="M166.07673 360.20363l-6.97389 6.88046-1.31958-1.34069 6.97387-6.88085"/>
    <path d="M152.78708 359.53249l6.97463 6.88168-1.3196 1.3407-6.97461-6.88128"/>
    <path d="M153.4467 360.20363l-6.97503 6.88046-1.31958-1.34069 6.97501-6.88085"/>
    <path d="M140.15593 359.53249l6.97575 6.88168-1.3196 1.3407-6.97574-6.88128M178.70676 360.20363l-6.97389 6.88046-1.31958-1.34069 6.97387-6.88085"/>
    <path d="M165.41712 359.53249l6.97462 6.21091-1.3196 1.34069-6.97461-6.2105M191.33961 360.20363l-6.97558 6.88046-1.31958-1.34069 6.97557-6.88085"/>
    <path d="M178.04828 359.53249l6.97632 6.21091-1.31959 1.34069-6.9763-6.2105M201.47117 362.68169l-4.47632 4.4024-1.3196-1.34069 4.47633-4.40241"/>
    <path d="M190.67945 359.53249l6.97518 6.88168-1.31959 1.3407-6.97518-6.88128M166.07673 350.63209l-6.97389 6.88141-1.31958-1.34072 6.97387-6.88179"/>
    <path d="M152.78708 349.96187l6.97463 6.88075-1.3196 1.34069-6.97461-6.88033"/>
    <path d="M153.4467 350.63209l-6.97503 6.88141-1.31958-1.34072 6.97501-6.88179"/>
    <path d="M140.15593 349.96187l6.97575 6.88075-1.3196 1.34069-6.97574-6.88033M178.70676 350.63209l-6.97389 6.88141-1.31958-1.34072 6.97387-6.88179"/>
    <path d="M165.41712 349.96187l6.97462 6.88075-1.3196 1.34069-6.97461-6.88033M191.33961 350.63209l-6.97558 6.88141-1.31958-1.34072 6.97557-6.88179"/>
    <path d="M178.04828 349.96187l6.97632 6.88075-1.31959 1.34069-6.9763-6.88033M202.85944 351.74661l-5.86459 5.76689-1.3196-1.34072 5.86459-5.76727"/>
    <path d="M190.67945 349.96187l6.97518 6.88075-1.31959 1.34069-6.97518-6.88033M133.66283 231.56929l-8.25515.48998-.11122-1.88659 8.25552-.48965M138.80012 316.69337l-.0256.0118-.81034-1.70211.0256-.0119.81069 1.70211zm-.85215-1.68174l.0139-.009.40517.8511zm.84049 1.68739c-1.60289.80084-3.09902 1.7406-4.47294 2.79083l-1.14228-1.49499c1.4769-1.12911 3.07337-2.1333 4.77475-2.98323zm-4.47294 2.79083c-1.37541 1.05213-2.64144 2.22762-3.78561 3.50116l-1.40071-1.25997c1.21474-1.35241 2.56828-2.60673 4.04404-3.73618zm-3.78561 3.50116c-5.86648 6.53044-8.45964 15.64458-6.48554 24.61725l-1.84137.40442c-2.108-9.57817.66277-19.30834 6.92615-26.28164M140.24797 332.24172l-.11549.0568-.82543-1.69379.11549-.0567zm-.9484-1.63382l.009-.003.41267.84693zm.8405 1.68742c-.80425.40206-1.56444.86499-2.27137 1.37843l-1.10569-1.52483c.79335-.57638 1.6425-1.09398 2.53656-1.54102zm-2.27137 1.37843c-.7123.51757-1.37504 1.08832-1.97938 1.70022l-1.34073-1.31959c.68321-.69294 1.42521-1.33241 2.21442-1.90546zm-1.97938 1.70022c-3.11073 3.14809-4.8483 7.7052-4.61933 12.29166l-1.86168.0667c-.25547-5.11539 1.66249-10.15874 5.14028-13.67803"/>
    <path d="M118.12314 338.76914l-1.76848-.11774-.0258.69294c-.009-.0256.03-.67903.0258-.69294l1.76924.11881zm-1.79379.5753l1.79759-.56021-1.77228-.13273zm1.79759-.56021c.1327.45339.28861.90647.46291 1.35279l-1.75344.68428c-.19044-.48773-.35608-.96381-.50697-1.4769zm.46291 1.35279c.17345.44593.367.882.57456 1.30223l-1.68741.83183c-.23428-.47564-.4504-.96123-.64053-1.44973zm.57456 1.30223c1.07441 2.17819 2.62523 4.10854 4.54691 5.6356l-1.1721 1.47351c-2.13792-1.70022-3.86493-3.84863-5.0623-6.27731"/>
    <path d="M118.07828 339.40213l-2.16011 4.9713-1.72361-.75068 2.1601-4.97129M122.203 348.01268l.0845-.64129 1.6874.84052-.009.0203zm1.77192.19923l-1.67986-.85558zm-1.67986-.85558c.23313-.44475.45341-.88008.66098-1.3015l1.69378.82576c-.22777.46398-.4564.91631-.68245 1.34599zm.66098-1.3015c.24583-.5013.45875-.94423.62962-1.31733l1.70891.78052c-.23963.52217-.45532.97749-.64472 1.36261zm.62962-1.31733c1.03972-2.26158 1.93262-4.60045 2.67051-6.99444l1.7983.55157c-.75784 2.46186-1.681 4.87621-2.7599 7.22339"/>
    <path d="M129.40908 347.73239l-.009-.0256 1.83488-.41908.009.0256zm1.82847-.45116v.003l-.91738.20969.91738-.21386zm-1.83488.42742c-.1155-.49264-.22778-.94499-.33043-1.34073l1.82019-.47265c.13237.50773.24808.9699.34517 1.38598zm-.33043-1.34073c-.0984-.37533-.22211-.82008-.36894-1.33127l1.81379-.51574c.11122.38636.2374.84692.37535 1.37431zm1.44068-1.8511l.003.003-.90692.25803.90274-.26231zm-1.8051.52399c-.65219-2.25404-1.45992-4.47523-2.41246-6.64286l-.0396-.65487 1.76282-.10373c.97857 2.22536 1.81267 4.52539 2.49397 6.87788M137.97055 381.65813l-2.73089-14.04923 1.85156-.3599 2.73088 14.04923"/>
    <path d="M135.30763 367.85406l-6.40972-18.73268 1.78359-.60504 6.40972 18.73266"/>
    <path d="M140.81667 360.20363l-5.00847 4.94521-1.31957-1.34108 5.00844-4.94521M140.81667 350.63209l-7.45826 7.35634-1.31961-1.34109 7.45827-7.35635"/>
</svg>