<svg xmlns="http://www.w3.org/2000/svg" xmlns:xlink="http://www.w3.org/1999/xlink"
     width="1800" height="900" viewBox="0 0 4800 2400" fill="#fff">
    <defs>
        <clipPath id="s">
            <path d="M0,0 v30 h60 v-30 z"/>
        </clipPath>
        <clipPath id="t">
            <path d="M30,15 h30 v15 z v15 h-30 z h-30 v-15 z v-15 h30 z"/>
        </clipPath>
        <path id="S" d="M 0 -500 L 96.4 -200.2 L 390.9 -311.8 L 216.6 -49.4
        L 487.5 111.2 L 173.7 138.5 L 216.9 450.3 L 0 222.2 L -216.9 450.3
        L -173.7 138.5 L -487.5 111.2 L -216.63 -49.4 L -390.9 -311.8
        L -96.4 -200.2 z"/>
        <use id="B7" xlink:href="#S" transform="scale(.72)"/>
        <use id="S7" xlink:href="#S" transform="scale(.342857)"/>
    </defs>

    <path d="M0,0H5500V2750H0z" fill="#012169" />
    <g clip-path="url(#s)" transform="scale(40)">
        <path d="M0,0 L60,30 M60,0 L0,30" stroke="#fff" stroke-width="6"/>
        <path d="M0,0 L60,30 M60,0 L0,30" clip-path="url(#t)" stroke="#C8102E" stroke-width="4"/>
        <path d="M30,0 v30 M0,15 h60" stroke="#fff" stroke-width="10"/>
        <path d="M30,0 v30 M0,15 h60" stroke="#C8102E" stroke-width="6"/>
    </g>
    <use xlink:href="#B7" x="1200" y="1800"/>
    <use xlink:href="#S7" x="3600" y="400"/>
    <use xlink:href="#S7" x="3600" y="2000"/>
    <use xlink:href="#S7" x="3000" y="1050"/>
    <use xlink:href="#S7" x="4133" y="890"/>
    <path d="M0-250L150,200L-240-80L240-80L-150,200"
          transform="translate(3840,1300)scale(0.4)" fill-rule="nonzero"/>
</svg>