<svg xmlns="http://www.w3.org/2000/svg" xmlns:xlink="http://www.w3.org/1999/xlink" width="1500" height="1000" viewBox="0 0 24000 16000">
    <rect width="24000" height="16000" fill="#00267f" />
    <rect width="8000" height="16000" fill="#ffc726" x="8000" />
    <path id="h" d="M12000 4124C11740 4833 11475 5571 10908 6136C11084 6078 11392 6026 11590 6031L11590 9013 10748 9138C10718 9135 10708 9088 10708 9024C10627 8098 10408 7320 10156 6515C10138 6405 9819 5985 10065 6059C10095 6063 10424 6197 10372 6133C9924 5669 9269 5335 8633 5236C8577 5222 8544 5250 8594 5315C9438 6614 10144 8147 10138 9966C10466 9966 11261 9772 11590 9772C11590 9772 11590 11876 11590 11876L12005 11876 12100 6000z"/>
    <use xlink:href="#h" transform="translate(24000,0) scale(-1,1)"/>
</svg>
