<svg xmlns="http://www.w3.org/2000/svg" width="1000" height="600" viewBox="0 0 500 300" fill="#fcd116">
    <defs>
        <path id="a" d="M0-1v1h.5" transform="rotate(18 0 -1)" fill="#fcd116"/>
    </defs>
    <path fill="#ce1126" d="M0 0h500v300H0z"/>
    <path fill="#007a5e" d="M42 42h416v216H42z"/>
    <path d="M42 42h416L42 258h416z" fill="#fcd116"/>
    <circle r="36" cy="150" cx="250" fill="#ce1126"/>
    <path d="M67.749 150.41c4.504 8.39 13.265 17.52 20.916 20.73.123-8.52-2.9-19.44-7.034-28.14z" fill="#ce1126"/>
    <path d="M60.112 121.63c6.529 13.61-16.933 46.08 22.156 53.69-4.822-6.58-7.931-17.44-6.755-26.16 8.201 3.12 16.83 12.25 20.317 19.23 10.23-37.15-26.24-34.89-35.718-46.76z" fill="#fcd116"/>
    <path d="M150.0001 259.50008l-11.46174 35.27563 30.00724-21.80154h-37.091l30.00725 21.80154zM249.9999 259.50008l-11.46174 35.27563 30.00724-21.80154h-37.091l30.00725 21.80154zM350.0001 259.50008l-11.46174 35.27563 30.00724-21.80154h-37.091l30.00725 21.80154zM349.9999 1.5000786L338.53816 36.775709l30.00724-21.80154h-37.091l30.00725 21.80154zM250 1.5l-11.46174 35.27563 30.00724-21.80154h-37.091l30.00725 21.80154zM149.9999 1.5000786L138.53816 36.775709l30.00724-21.80154h-37.091l30.00725 21.80154zM250 117l-19.39683 59.69733 50.78158-36.89498h-62.7695l50.78159 36.89498z"/>
</svg>