<svg xmlns="http://www.w3.org/2000/svg" xmlns:xlink="http://www.w3.org/1999/xlink" width="1000" height="600">
    <path d="M0 0h1000v600H0z" fill="#d21034"/>
    <path d="M0 0h1000v300H0z" fill="#00209f"/>
    <g fill="#f1b517" stroke="#000" stroke-width=".083">
        <path d="M292.626 134.847h414.741v330.226H292.626z" fill="#fff" stroke="none"/>
        <path d="M402.191 115.087l-38.628 1.12-38.454.438s-19.756 7.307-27.833 8.947c-8.052 1.635-7.005 4.28-13.236 5.673-4.99 1.115-5.566 1.467-8.495 1.66-1.772.116-3.955 1.479-6.09 2.981v20.899H458.74v-19.878c-2.052-1.118-4.007-1.888-6.008-2.568-2.78-.945-4.655-1.979-9.646-3.094-6.23-1.393-5.184-4.038-13.236-5.673-8.076-1.64-27.658-10.505-27.658-10.505z" transform="matrix(2.19112 0 0 2.19153 -297.782 121.428)" fill="#016a16" stroke="#016a16" stroke-width=".076"/>
        <g transform="matrix(4.38223 0 0 4.38307 -595.56 -357.302)">
            <g id="a">
                <path d="M244.529 143.512l1.397-.033 2.555 10.75-.545 3.385z"/>
                <path d="M243.064 136.346l.954 8.284 1.022-.066z" fill="#fff"/>
                <path d="M245.722 154.589l-4.293-11.538 1.601-.098 5.009 14.101z"/>
                <path d="M239.419 136.477l1.772 8.02h1.43z" fill="#fff"/>
                <path d="M241.906 150.546l-2.521-5.424 1.09-.23 4.6 9.007z"/>
                <path d="M236.08 138.778l2.794 7.626h1.43z" fill="#fff"/>
                <path d="M242.249 151.364l-11.436-12.484c-3.571 2.828-2.908 8.021-2.908 8.021l12.957 10.166z" fill="#0a328c"/>
                <path d="M248.861 158.235l-8.483-8.594c-3.587.125-.741 5.48-.56 6.152l9.043 7.734z" fill="#d20014"/>
                <path d="M248.139 156.757l-17.54-18.78-.684.483 18.561 20.622zm-18.553-19.985l-.385-.446.038-.891-3.619-2.303 1.617 3.64 1.232.223.385.446z"/>
                <path d="M227.738 138.11c.616-.743 1.348-1.486 2.657-2.192l1 1.45-2.155 1.82z"/>
                <path d="M225.811 141.278l.588 1.026c.364-.135 4.031-3.457 4.031-3.457l2.632-.08.756-.838c-1.932-2.08-3.752.297-3.752.297z" fill="#0a328c" stroke="#0a328c"/>
                <path d="M227.911 143.007c.14-.918 1.876-3.214 2.128-3.295 1.303.391 2.515 1.141 3.835-1.837-1.148 1.459-3.471-.027-3.471-.027l-1.008.838.028.405-3.052 2.836z" fill="#d20014" stroke="#d20014"/>
                <path d="M237.252 154.672l-14.367-11.411c-2.46 2.503-.415 10.231-.415 10.231l14.043 7.608z" fill="#0a328c"/>
                <path d="M249.166 163.917l-11.818-9.467c-4.036.566-.864 6.506-.623 7.16l12.481 6.77z" fill="#d20014"/>
                <path d="M248.697 162.005l-25.554-19.182-.587.591 26.837 20.955zm-26.769-20.198l-.46-.374-.122-.885-3.979-1.662 2.248 3.314 1.254.014.459.374z"/>
                <path d="M220.349 143.433c.473-.835 1.06-1.689 2.222-2.603l1.246 1.259-1.795 2.153z"/>
                <path d="M218.925 146.641l.16 1.06c.337-.188 3.56-3.726 3.56-3.726l2.586-.477.527-.833c-1.797-2.114-3.713.698-3.713.698z" fill="#0a328c" stroke="#0a328c"/>
                <path d="M220.971 148.545c-.123-.982 1.22-3.863 1.455-3.98 1.547.46 2.894 1.152 3.462-2.07-.897 1.614-3.46.363-3.46.363l-.86.979.121.53-2.61 3.37z" fill="#d20014" stroke="#d20014"/>
                <path d="M236.224 161.651c-.19-.046-18.517-10.442-18.517-10.442-1.334 2.252-.128 5.52.457 6.029.034 1.5-.602 2.306.707 5.439.386 2.036 1.328 3.913 2.7 5.027 1.671 6.417 8.222 6.848 10.746 1.624z" fill="#0a328c"/>
                <path d="M248.352 168.512l-12.548-7.355c-4.036.567.085 8.056.326 8.71l12.116 4.304z" fill="#d20014"/>
                <path d="M246.243 165.846l-28.35-15.089-.484.672 29.905 16.647zm-29.715-15.909l-.514-.3-.265-.856-4.2-1.04 2.758 2.934 1.24-.177.515.301z"/>
                <path d="M215.232 151.782c.332-.896.773-1.828 1.772-2.907l1.436 1.056-1.425 2.398z"/>
                <path d="M214.1 155.181l.593 1.167c.307-.232 3.004-4.578 3.004-4.578l2.492-.82.469-1.014c-2.002-1.85-3.498 1.342-3.498 1.342z" fill="#0a328c" stroke="#0a328c"/>
                <path d="M216.772 156.836c-.2-.999.484-4.197.7-4.345 1.56.465 2.863.597 3.223-2.622-.907 1.529-3.328.953-3.328.953l-.71 1.085.15.38-2.059 3.95z" fill="#d20014" stroke="#d20014"/>
            </g>
            <use xlink:href="#a" transform="matrix(-1 0 0 1 499.859 0)" width="100%" height="100%"/>
        </g>
        <g transform="matrix(4.38223 0 0 4.38307 -595.56 -357.302)">
            <path d="M248.757 125.603l-.465 9.07h2.9l-.425-8.992 3.023-.424-.335-3.582-7.51.29.041 3.253 2.77.385z" fill="#016a16" stroke="#016a16"/>
            <g id="b" fill="#016a16">
                <path d="M249.817 121.898c-7.764-7.771-13.878-3.98-15.334-2.902.963.187 1.826-.412 2.273-.48-.28.353-.865 1.229-.865 1.229s2.4-1.134 2.668-1.03c-.346.276-.727.936-.727.936.178.069 1.528-1.057 1.795-1.077-.411.466-.539 1.528-.539 1.528l1.17-.545c.304.216-.085.63.18.609 1.944-.16 4.677 1.777 5.053 2.372"/>
                <path d="M247.895 123.321c-.81-1.854-15.588-5.005-18.56.244 1.164.293 2.276-.976 2.276-.976l-.101 1.171 1.972-1.512-.708 1.56 1.568-1.268-.05 1.269 1.921-2.098-.253 1.22 1.72-.732-.203 1.024"/>
                <path d="M247.238 123.614c-3.793-2.537-9.66-.83-9.66-.83-3.741 2.099-5.736 1.72-6.22 5.611.355-.146 1.366-1.366 1.366-1.366l.759 1.513.252-2.147.607 1.659.91-2.732.203 1.854 1.416-1.854.657.536.607-1.415.556.927s.961-.585 1.518-.244l1.062-1.22.252.879.91-1.073.355.78.91-.83-.05.586 3.135.05"/>
                <path d="M246.38 124.053c-2.643-.05-10.226 2.812-12.188 5.806a13.29 13.29 0 011.263-.635l.387 1.203.473-1.203.1.927c.29-.724.618-.806 1.164-.049l.202-1.122.304 1.073.505-1.17s.318 1.269.506 1.22c0 0 .838-2.195 1.214-2.294l.1 1.366.506-1.366.456 1.025.1-1.464.506 1.122s.266-1.103.658-1.317l.758.683 3.378-2.427"/>
                <path d="M246.888 124.678c-3.521 1.35-6.67 6.179-6.43 8.226 1.565-1.941 1.229-1.674 1.928.56 0 0 .264-1.955.53-2.187l.459 1.446.17-1.892.47.022-.12-1.187.7.535c-.164-.678-.339-.907.385-1.489 0 0-.917.117-.193-1.535l.675.651s-.12-.721.12-1l2.485-.861"/>
                <path d="M247.229 125.04l-1.33 2.534.682.197-1.535 1.152 1.296-.132s-1.978.724-2.217 2.665l2.013-.888s-1.706 1.744-1.945 2.797l1.16-1.02s-1.125 1.217-.955 3.06l.853-.954c-.205 2.237-.137 2.435.887 4.146 0 0-.273-2.633.034-2.962l2.25 2.337-1.261-3.324s1.398 2.106 2.25 1.909l-1.773-2.698 1.74 1.414-1.978-2.961 1.841.56s-1.33-1.679-1.228-2.732l1.262 1.382s-.477-1.58-.34-2.04l.647.132-1.262-1.448.853-.165-.102-.954.614-.197-.034-1.053m-1.092 0c-2.183 2.961-1.51 7.502-2.387 9.838"/>
            </g>
            <use xlink:href="#b" transform="matrix(-1 0 0 1 499.859 0)" width="100%" height="100%"/>
            <path d="M251.036 166.535s1.189-9.945 1.186-14.225c-.002-3.37-.814-10.835-.814-10.835h-3.417s-.52 7.429-.442 10.789c.1 4.281 1.186 14.27 1.186 14.27h2.301z"/>
            <path d="M247.765 141.953h3.96l-.465-2.666h-2.87z"/>
            <path d="M248.018 139.816h3.539l-.667-2.666h-2.18z"/>
            <path d="M248.246 137.655h2.95l-.5-2.666h-1.876z"/>
            <path d="M250.8 134.673h-2.062l-.21.964h2.44z"/>
            <path d="M251.31 164.367h-2.794m2.937-1.947h-3.128" stroke-width=".086"/>
            <path d="M251.683 160.473h-3.582" stroke-width=".082"/>
            <path d="M251.846 158.277h-3.9"/>
            <path d="M252.018 156.139H247.8m4.334-1.968h-4.493" stroke-width=".084"/>
            <path d="M252.217 152.38h-4.665m4.564-2.161h-4.578m4.516-2.135h-4.429"/>
            <path d="M251.842 145.914h-4.152" stroke-width=".084"/>
            <path d="M251.652 143.955h-3.823" stroke-width=".085"/>
            <path d="M249.909 119.044c-.688-.324-2.245-1.313-1.783-1.903l.713-1.214c1.01-2.277-.018-1.395-.126-2.106-.103-.682 3.865-.149 3.924 1.397.016.426-.295.176-.252 2.611l-.755 1.458c-.565.053-1.234-.014-1.721-.243z" fill="#0a328c" stroke="#0a328c"/>
            <path d="M250.392 124.934l-.986-.83.273-7.105.965.283z"/>
            <path d="M251.672 119.246c.62-.362 1.024-1.443.65-2.085-1.016-1.287-1.673-.756-3.378-1.336-.34.362-1.055 1.059-.902 1.579 2.242 1.056 1.372.156 2.114.288.4.07.658.545 1.516 1.554z" fill="#d20014" stroke="#d20014"/>
        </g>
        <g transform="matrix(4.38223 0 0 4.38307 -595.56 -357.302)">
            <use xlink:href="#c" transform="matrix(1 0 0 -1 -.002 320.37)" width="100%" height="100%"/>
            <path d="M238.358 161.75c0 1.299-.815 2.353-1.818 2.353-1.004 0-1.819-1.054-1.819-2.353v-1.276h3.637z" fill="#016a16" stroke="#fff" stroke-linecap="round"/>
            <ellipse cx="236.539" cy="160.063" rx="1.806" ry=".898" fill="#fff" stroke="none"/>
            <path d="M236.126 161.075l-.31-3.297h1.382l-.226 3.297z" fill="#016a16" stroke="#f1b517"/>
            <path id="c" d="M238.538 160.118c-.265.493-1.06.852-1.999.852-.938 0-1.728-.359-1.993-.852a.756.756 0 00-.099.359c0 .669.937 1.21 2.092 1.21s2.092-.541 2.092-1.21a.748.748 0 00-.093-.359z" fill="#016a16" stroke="#fff" stroke-width=".108" stroke-linecap="round"/>
            <g id="d">
                <path d="M246.035 172.786l-7.06-2.19-3.076-5.254-10.893-.535.378 3.94 9.28 1.777.882 1.581 10.666 2.968z"/>
                <path d="M238.662 174.254l-11.149-16.398-.547.411 11.06 16.467z" fill="#503200"/>
                <path d="M228.551 158.5l-1.19-1.992c-.223-.368-.561-.49-1.059-.228-.484.255-.437.76-.24 1.123l1.101 1.852z" fill="#fff"/>
                <path d="M239.986 164.127l-22.496-2.286-.547 3.27 22.387 2.252z"/>
                <path d="M217.089 160.997l-.583 4.538h.948l.656-4.151zm3.755.738l-.255 4.08.583.07.474-3.622zm15.241 1.759l-.547 3.834 1.094-.035.437-3.799zm3.351.105l-.779 4.434 1.238.18.354-2.332c.1.468.531.824 1.046.824.589 0 1.07-.464 1.07-1.032 0-.568-.481-1.026-1.07-1.026-.409 0-.78.24-.94.687l.231-1.662zm-8.119.72l-3.094 3.482.361.423 3.97-2.711zM224.124 173l3.094-3.482-.361-.423-3.97 2.711zm8.096-.871l-3.764-2.91-.387.273 2.965 3.756zm-9.282-6.716l3.816 2.81.464-.348-2.99-3.755zm4.152-2.319l.365 4.573.513-.022 1.207-4.452zm1.251 11.095l-.365-4.573-.565-.053-.691 4.626zm5.06-6.163l-4.795.51-.073.457 4.85.634zm-11.408 1.583l4.68-.74.1-.364-4.842-.54z"/>
                <ellipse cx="227.693" cy="168.548" rx="1.27" ry="1.225"/>
                <path d="M234.438 168.548c0 3.592-3.022 6.507-6.745 6.507-3.723 0-6.745-2.915-6.745-6.507 0-3.592 3.022-6.507 6.745-6.507 3.723 0 6.745 2.915 6.745 6.507zm-1.347 0c0 2.874-2.419 5.207-5.398 5.207-2.98 0-5.398-2.333-5.398-5.207 0-2.874 2.419-5.207 5.398-5.207 2.98 0 5.398 2.333 5.398 5.207z" fill-rule="evenodd" stroke-linecap="round"/>
                <path d="M223.48 165.264l-1.057-.796m8.611.025l.902-.92m1.031 9.128l-1.109-.87m-8.378 1.865l.954-1.02m21.762-10.554l1.155 5.886-.942.497-1.014-6.299z"/>
                <path d="M245.592 161.364c-.535-.224-1.232.155-2.374-1.292-1.878 1.723-.107 1.98.179 3.686.53.218.858-1.323 2.302-1.481.179-.018 2.298-.203 2.298-.203l-.532-.726s-1.474.04-1.873.016z" fill="#fff"/>
                <path d="M246.359 162.518l-.214-1.756c-.232-.62-1-.087-1 .275l.197 1.619z" fill="#fff"/>
                <path d="M240.765 167.372l.019 1.637c-.536.183-.454.585-.437 1.168l.019 4.772c-.19.316-.778.331-1.054.58-.277.247-.242.729 1.02 1.046l.975.035c1.486-.325 1.793-.818 1.048-1.095-.397-.148-.919-.324-1.117-.557l.033-1.137.964.035c.26 0 .753-.652.77-1.185l.005-2.47c-.035-1.401-1.085-1.559-1.38-1.542l.021-1.29zm1.63 2.73c.018-.4-.555-.757-.786-.767-.23-.01-.734.467-.751.867v1c.034.367.327 1.61.915 1.701.28.043.64-.4.64-.767l-.017-2.034z" fill-rule="evenodd"/>
                <path d="M234.275 172.328c-.636-.257-.63 1.172-.63 1.172l1.002.01c.44.2.792.843.512 1.159-.231.261-2.177-.441-2.308-.037.344 1.941 2.917 2.688 3.848 1.839.91-.83 1.141-3.048-1.817-3.629zm.595.528l-.292.639" fill="#fff"/>
                <path d="M214.943 173.055l-.963-4.05m2.132 3.817l-1.48-3.153m4.026 2.324l-3.337-1.792m4.782 1.427l-6.192-2.688"/>
                <path d="M210.215 166.013s-2.254-.036-2.656.122c-.162.064.567.825.416 1.115-.563 1.083-4.394.934-4.697.698-.519-.405 3.568-.753 3.595-1.029.03-.316-.605-1.146-.506-1.655.128-.661 1.788-.907 1.788-.907z" fill="#d20014" stroke="#d20014"/>
                <path d="M213.233 168.05l-5.102-4.222s-.225-.238-.413-.033c-.184.2.069.431.069.431l5.263 4.348z" fill="#503200"/>
                <path d="M218.146 172.217c-.09-.087-4.155-3.608-4.155-3.608l-.271-1.028s-.628.425-.858.645c-.23.22-.587.819-.587.819l1.138.052 3.595 3.294z"/>
                <ellipse cx="232.534" cy="177.056" rx=".74" ry=".715"/>
                <ellipse cx="230.641" cy="175.716" rx=".74" ry=".715"/>
                <ellipse cx="228.091" cy="176.593" rx=".74" ry=".715"/>
                <ellipse cx="224.153" cy="177.445" rx=".74" ry=".715"/>
                <ellipse cx="222.487" cy="177.64" rx=".74" ry=".715"/>
                <ellipse cx="220.846" cy="177.64" rx=".74" ry=".715"/>
                <ellipse cx="219.18" cy="177.591" rx=".74" ry=".715"/>
                <ellipse cx="219.988" cy="176.325" rx=".74" ry=".715"/>
                <ellipse cx="221.604" cy="176.398" rx=".74" ry=".715"/>
                <ellipse cx="223.144" cy="176.203" rx=".74" ry=".715"/>
                <ellipse cx="222.361" cy="174.961" rx=".74" ry=".715"/>
                <ellipse cx="220.846" cy="174.937" rx=".74" ry=".715"/>
                <path d="M236.47 177.991c0-.316-.769-.18-.769-.55 0-.412 1.173-.11 1.335.252.66-.596.944-.16 1.348.02.575-.855 1.287-.823 1.981-.197.401-.443 1.41-.297 1.757.197.664-.66 1.255-.497 1.715-.02.186-.346.458-.27.654-.02.354-.628 1.242-.44 1.616-.024.332-.366.673-.08 1.114.19.297-.28.778-.227.778.05 0 .29-.628.188-.628.474 0 .256.458.127.458.45 0 .255-.68.35-.785-.056-.23.44-1.062.271-1.144-.138-.276.335-.897.436-1.246-.059-.286.234-.63.267-.787.031-.517.556-1.388.442-1.688-.17l-.294.012c-.508.69-1.302.37-1.52-.01-.853.615-1.362.42-1.838.02-.548.666-1.381.62-1.573 0-.368.267-1.137.33-1.137.017 0-.301.653-.192.653-.469zm1.655.15c0 .143-.195.26-.436.26-.24 0-.435-.117-.435-.26 0-.143.195-.26.435-.26s.436.117.436.26zm1.82-.218c0 .172-.235.312-.524.312-.289 0-.524-.14-.524-.312 0-.173.235-.312.524-.312.29 0 .524.14.524.312zm3.575.197c0 .175-.212.316-.474.316s-.474-.141-.474-.316c0-.174.212-.316.474-.316s.474.142.474.316zm-1.904-.083c0 .22-.207.4-.463.4s-.464-.18-.464-.4c0-.22.208-.4.464-.4s.463.18.463.4zm4.06.01c0 .198-.186.358-.414.358-.229 0-.415-.16-.415-.358 0-.197.186-.357.415-.357.228 0 .414.16.414.357zm-1.244.083c0 .128-.12.231-.267.231-.148 0-.268-.103-.268-.23 0-.128.12-.231.268-.231.147 0 .267.103.267.23zm2.422.094c0 .183-.135.331-.302.331-.166 0-.301-.148-.301-.331 0-.183.135-.332.301-.332.167 0 .302.149.302.332z" fill-rule="evenodd"/>
            </g>
            <use xlink:href="#d" transform="matrix(-1 0 0 1 499.859 0)" width="100%" height="100%"/>
            <g stroke-width=".105">
                <path d="M249.837 165.718c-2.512 0-4.55.944-4.55 2.102 0 .199.057.39.169.572.543.629 2.307 1.087 4.398 1.087 1.957 0 3.625-.402 4.277-.97.164-.216.256-.446.256-.689 0-1.158-2.038-2.102-4.55-2.102z" fill="#0a328c" stroke="#0a328c"/>
                <path d="M254.427 167.981v7.058c0 .828-2.048 1.5-4.572 1.5s-4.573-.672-4.573-1.5v-7.058c0 .828 2.049 1.5 4.573 1.5 2.524 0 4.572-.672 4.572-1.5z" stroke-width=".085"/>
                <path d="M245.282 167.982v1.082l2.22 6.845 1.772-5.264 1.946 5.465 1.425-5.159 1.783 3.469v-1.92l-1.656-3.363a8.25 8.25 0 01-.593.134l-1.028 3.812-1.447-3.604a14.522 14.522 0 01-.715-.023l-1.453 3.627-1.661-4.367c-.376-.217-.593-.466-.593-.734z" fill="#d20014" stroke="#d20014" stroke-width=".083"/>
                <path d="M254.427 173.721v1.318c0 .827-2.048 1.499-4.572 1.499s-4.573-.672-4.573-1.5v-1.317c0 .828 2.049 1.5 4.573 1.5 2.524 0 4.572-.672 4.572-1.5z" fill="#0a328c" stroke="#0a328c" stroke-width=".085"/>
                <path d="M251.737 175.085c-.372.055-.769.097-1.185.118l.011 1.317a12.24 12.24 0 001.186-.118zm-4.869-.23l-.012 1.312c.353.1.75.185 1.186.246v-1.317a8.907 8.907 0 01-1.174-.241zm-1.586-1.132v1.317c0 .246.185.474.506.679l.023-1.3c-.336-.21-.529-.444-.529-.696zm9.146.14l-.023.006c-.08.267-.379.516-.831.723l.006 1.312c.53-.245.848-.54.848-.863z" stroke-width=".085"/>
                <path d="M254.427 168.027v7.012c0 .828-2.048 1.5-4.572 1.5s-4.573-.672-4.573-1.5v-7.012" fill="none" stroke-width=".085"/>
                <path d="M253.392 167.52c0 .501-1.584.907-3.537.907-1.954 0-3.538-.406-3.538-.907s1.584-.907 3.538-.907c1.953 0 3.537.406 3.537.907z" fill="#fff" stroke="#fff" stroke-width=".087"/>
                <path d="M248.698 168.19l.157 1.25c.307.022.626.038.953.04l.232-1.29zm4.103-.303l-.912.247.058 1.177a8.91 8.91 0 00.866-.19zm-5.404-1.908c-.259.076-.5.165-.72.263l.127.945.581-.185zm2.44-.373c-.122 0-.241.007-.36.011l.197 1.183.605-.012.238-1.154a9.727 9.727 0 00-.68-.028zm2.673.418l-.122 1.034.691.244.076-1.015a5.259 5.259 0 00-.645-.263z"/>
                <path d="M245.993 168.8l.184-1.288-.935-.506.028 1.465zm8.403-.278l.042-1.288-.876.262z" stroke-width=".083"/>
            </g>
            <path d="M263.686 160.029c.83-.115 2.062 1.024 2.136 2.433.06 1.118-1.69 1.06-1.69 1.06-.09.458-1.055.881-1.84.916-.763.033.207-1.432.207-1.432-.475-1.26.148-2.748.148-2.748z"/>
            <path d="M262.499 162.948l.801-.029s.061.414.208.43c.157.017.326-.401.326-.401l1.217-.029"/>
            <path d="M264.131 160.859c.68-.491.084-1.48-.386-1.489l-1.098.029c-.517.01-1.392.573-1.276 1.06.102.423.387.617.831.543.202-.033.626-.563.831-.572.275-.013.878.588 1.098.429z" fill="#d20014" stroke="#f1b517"/>
            <path d="M214.242 174.855c-.617.078-.731.788-.5 1.44-2.686.756-5.086 1.74-7.455 2.406-.095-.474 1.174-1.845 1.174-1.845.336.162.587.93.587.93.084-1.578 1.639-2.628 1.639-2.628-.924-.122-3.732.967-4.068 1.412 0 0 1.087-.121 1.255 0 0 0-2.14 2.312-2.237 3 .333.75 4.027 1.311 4.027 1.311-.058.195-1.087.93-1.087.93 1.47.323 3.685-.717 4.347-1.35 0 0-1.728-.143-3.074-1.234 0 0 .277.68.11 1.004 0 0-2.1-.605-2.318-.953.006-.03 4.966-1.315 7.368-2.001.088.429.565 1.24 1.138 1.048.374-.125.256-.866.117-1.39a.77.77 0 00.505.185c.422 0 .767-.327.767-.735 0-.407-.345-.74-.767-.74a.757.757 0 00-.72.505c-.096-.453-.345-1.354-.808-1.295zm1.889 1.528c0 .19-.16.345-.358.345a.352.352 0 01-.358-.345c0-.19.16-.345.358-.345.197 0 .358.154.358.345z" fill-rule="evenodd"/>
            <path d="M293.068 177.884c.183-.367-.162-2.212-.162-2.212-.373.042-.882.681-.882.681.48-1.511-.865-4.037-.865-4.037.91.19 3.945 3.128 4.103 3.657 0 0-1.33-.474-1.53-.415.217 1.506 1.258 2.205 1.65 2.988 0 0-1.726.38-1.553 1.822l-1.127.021c-.39-.481.152-1.276.152-1.276l-7.739-3.241c-.499-.21-1.62-.718-1.452-1.318.17-.604 2.016.251 2.47.398z"/>
            <path d="M285.635 176.541l.91-1.673c.326-.44-.346-.92-.823-.356l-1.02 1.527c-.454.837.5 1.067.933.502z"/>
        </g>
        <g fill="#fff">
            <path d="M231.367 180.366l-.063-1.825-2.207.122-.126 1.987z" transform="matrix(4.38223 0 0 4.38307 -595.56 -357.302)"/>
            <path d="M215.237 182.924l-2.95-1.655c12.168 1.115 14.653-3.13 17.593-3.356 1.808-.141 2.09 2.002-1.412.982l.905 2.241s-8.638 4.86-17.129 2.853zm53.012-2.558l.063-1.825 2.7.062.125 1.988z" transform="matrix(4.38223 0 0 4.38307 -595.56 -357.302)"/>
            <path d="M284.939 182.477l2.777-1.515c-13.94.415-10.766-2.29-17.74-3.048-1.802-.196-3.156 2.12 1.413.982l-.906 2.241 2.193.002c4.748 3.127 11.156 3.406 15.401 2.402z" transform="matrix(4.38223 0 0 4.38307 -595.56 -357.302)"/>
            <path d="M228.418 178.908v3.154s7.728 2.868 21.519 2.868c13.85 0 21.519-2.868 21.519-2.868v-3.154s-5.85 2.695-21.52 2.695c-15.61 0-21.518-2.695-21.518-2.695z" transform="matrix(4.38223 0 0 4.38307 -595.56 -357.302)"/>
        </g>
        <path d="M410.482 440.766l2.988-10.121 1.388.38-2.635 8.929 5.166 1.42-.353 1.194-6.554-1.801zm9.8-4.45l.167-1.99.446-1.704 1.479.36-.446 1.705-.845 1.823-.8-.195zm14.572-.684l1.415.278-1.257 5.958c-.22 1.037-.514 1.836-.886 2.398s-.915.972-1.63 1.23c-.715.257-1.587.285-2.618.082-1-.196-1.785-.524-2.351-.982-.567-.458-.92-1.03-1.059-1.713-.138-.684-.093-1.573.138-2.666l1.257-5.958 1.414.278-1.256 5.95c-.188.897-.241 1.574-.159 2.032.083.459.31.844.683 1.156.372.313.861.529 1.469.648 1.04.204 1.83.122 2.368-.245.538-.37.943-1.2 1.217-2.494zm1.592 11.002l1.76-10.386 1.462.23 4.271 9.047 1.383-8.155 1.365.216-1.76 10.387-1.462-.23-4.27-9.055-1.383 8.162zm11.136 1.682l1.498-10.425 1.43.19-1.498 10.426zm4.108-4.598c.205-1.736.85-3.041 1.931-3.917 1.083-.875 2.387-1.23 3.915-1.06 1 .11 1.875.44 2.624.99a4.56 4.56 0 011.608 2.132c.324.87.423 1.83.3 2.876-.126 1.06-.46 1.985-1.002 2.773a4.538 4.538 0 01-2.11 1.693 5.608 5.608 0 01-2.708.355c-1.02-.112-1.904-.45-2.651-1.015a4.63 4.63 0 01-1.595-2.148 5.746 5.746 0 01-.312-2.68zm1.476.184c-.15 1.26.084 2.292.7 3.094.617.803 1.455 1.263 2.514 1.38 1.08.119 2.011-.15 2.795-.805.784-.656 1.256-1.656 1.415-3.002.101-.851.04-1.61-.183-2.278a3.336 3.336 0 00-1.134-1.621 3.64 3.64 0 00-1.87-.737c-1.016-.112-1.929.128-2.74.72-.812.592-1.31 1.675-1.497 3.25zm10.116 6.207l.889-10.49 1.475.117 5.012 8.686.698-8.235 1.38.108-.89 10.49-1.475-.117-5.011-8.693-.699 8.243-1.38-.11zm15.29 1.064l.477-10.515 7.35.31-.055 1.24-5.91-.25-.147 3.258 5.114.215-.056 1.24-5.114-.214-.216 4.776-1.442-.06zm8.035.343l4.4-10.444 1.554.03 4.252 10.606-1.644-.03-1.208-3.211-4.56-.085-1.261 3.164zm3.234-4.262l3.697.069-1.08-2.936a28.013 28.013 0 01-.73-2.196 13.062 13.062 0 01-.628 1.998l-1.26 3.065zm8.386 4.43l.022-10.525 1.443.003-.022 10.524zm6.758-.03l-.138-9.283-3.593.05-.017-1.242 8.644-.12.018 1.243-3.609.05.138 9.28-1.444.023zm10.702-.254l-.51-10.513 1.442-.065.45 9.273 5.365-.243.06 1.24-6.807.309zm7.339-.32l3.403-10.785 1.551-.107 5.228 10.192-1.64.113-1.504-3.092-4.55.313-.96 3.26-1.528.107zm2.82-4.527l3.69-.253-1.351-2.83a28.253 28.253 0 01-.932-2.123 13.014 13.014 0 01-.439 2.045l-.967 3.16zm12.805 3.323l-1.197-10.46 7.314-.78.141 1.235-5.879.626.37 3.24 5.088-.542.141 1.234-5.087.542.543 4.753-1.435.153zm7.997-6.006c-.255-1.73.027-3.15.843-4.26.818-1.111 1.988-1.771 3.51-1.981.997-.137 1.93-.03 2.798.318.868.35 1.573.906 2.114 1.67.542.765.89 1.668 1.044 2.71.156 1.057.075 2.033-.244 2.928a4.42 4.42 0 01-1.598 2.152 5.544 5.544 0 01-2.527 1.005c-1.016.14-1.96.026-2.83-.336a4.754 4.754 0 01-2.106-1.69 5.818 5.818 0 01-1.004-2.515zm1.477-.181c.185 1.256.682 2.196 1.488 2.823.807.626 1.738.866 2.794.72 1.075-.147 1.906-.634 2.493-1.46.587-.825.781-1.908.583-3.25-.126-.847-.384-1.567-.774-2.16a3.422 3.422 0 00-1.522-1.29 3.69 3.69 0 00-2.003-.257c-1.011.14-1.832.594-2.462 1.365-.63.77-.83 1.94-.597 3.509zm11.454 3.533l-1.948-10.356 4.758-.833c.957-.167 1.701-.202 2.234-.103.533.099.992.358 1.379.776.386.42.633.913.74 1.483.138.735.009 1.397-.39 1.987-.398.59-1.1 1.044-2.103 1.36.408.109.726.23.953.367a7.44 7.44 0 011.438 1.17l2.397 2.492-1.786.313-1.826-1.906a20.367 20.367 0 00-1.293-1.247c-.33-.283-.614-.471-.851-.566a2.239 2.239 0 00-.7-.162c-.168-.004-.434.026-.8.089l-1.647.288.865 4.599zm.332-6.034l3.052-.535c.65-.113 1.145-.267 1.486-.46.342-.194.581-.45.718-.77.137-.317.173-.643.11-.977a1.569 1.569 0 00-.78-1.111c-.427-.252-1.039-.307-1.834-.168l-3.397.595zm17.227-1.147l1.488.04c-.035 1.18-.367 2.146-.998 2.898-.63.753-1.499 1.25-2.607 1.49-1.147.25-2.132.227-2.956-.068-.824-.294-1.523-.828-2.097-1.6a7.038 7.038 0 01-1.205-2.631c-.249-1.07-.255-2.048-.017-2.936a4.28 4.28 0 011.384-2.207c.685-.583 1.497-.976 2.436-1.18 1.064-.232 2.02-.165 2.868.2.848.366 1.525.99 2.032 1.878l-1.313.616c-.421-.693-.906-1.16-1.455-1.4-.549-.237-1.179-.28-1.89-.125-.818.177-1.457.515-1.918 1.012a3.02 3.02 0 00-.803 1.775 6.095 6.095 0 00.127 2.044c.203.874.513 1.607.929 2.2.416.595.939.993 1.57 1.194a3.662 3.662 0 001.92.09c.79-.17 1.406-.535 1.85-1.092.445-.558.663-1.29.655-2.196zm4.009 2.862l-2.933-10.137 7.596-2.047.346 1.196-6.206 1.672.899 3.105 5.811-1.566.344 1.19-5.811 1.565.998 3.45 6.45-1.737.346 1.197z" fill="#000" stroke="none"/>
    </g>
</svg>