<svg xmlns="http://www.w3.org/2000/svg" width="1280" height="640" viewBox="0 0 640 320">
    <path fill="#e6b319" d="M0 0h640v320H0z"/>
    <path fill="red" d="M16 16h608v288H16z"/>
    <g>
        <path fill="#e65900" d="M389.64 157.4c1.87-.53 8.39-2.43 12.98-6.16 4.6-3.72 5.49-6.7 5.86-8.32.37-1.61.53-2.88-.66-1.96a69.07 69.07 0 01-7.18 5.08 26.85 26.85 0 01-5.99 2.35c-1.32.37-2.37.6-1.1.1 3.19-1.1 6.12-2.85 8.6-5.15 3.19-3.2 5.71-7.99 5.77-10.93.05-2.94-.16-2.73-1.1-2-.95.74-4.32 4.9-6.2 6.47a60.01 60.01 0 01-6.47 4.57c-1.52.9-3.67 1.89-.68-.16 3-2.05 8.67-6.88 10.98-13.13 2.31-6.25 1.89-9.93 1.84-10.56-.05-.63-.58-1.9-1.1-.73-.53 1.15-4.31 8.71-7.36 11.97-3.05 3.26-2.31 2.63-3 3.15-.68.53-1.83 1.47-.36-.37 2.5-3.12 4.56-6.59 6.1-10.29a34.31 34.31 0 002.04-10.82 19.41 19.41 0 00-1.47-6.78c-.47-1-.95-1.73-1.1-.58-.16 1.16-2.58 8.62-3.9 12.24a47.14 47.14 0 01-4.46 8.51c-.52.8-1.89 2.42-.42-.31a51.61 51.61 0 004.68-18.39c.37-7.61-.68-11.82-1.74-13.92a9.17 9.17 0 00-1.96-2.84c0 4.26-.45 8.5-1.37 12.67-.72 3.97-2 7.81-3.82 11.41 0 0-.95 1.08-.3-.72a31.8 31.8 0 001.77-8.35c.44-4.72.5-10.1-.88-14.66a18.69 18.69 0 00-4.1-7.53c-.73 7.15-.59 16.35-3.2 23.8-.5-.43-1.14-1.24-1.4.4a42.09 42.09 0 01-4.65 12.92c-3.23 5.86-4.54 6.63-4.54 6.63s-.6-1.43-1.02-2.2c-.41-.79-.65-1.2-1.19-.13a41.16 41.16 0 01-6.27 9.74c-3.93 4.55-6.14 6.76-6.02 10.16.12 3.41 1.9 5.14 4.3 6.7 2.38 1.55 2.8 2.39 2.44 4.24-.36 1.85-2.5 2.51-4.35 2.57-1.86.06-4.18-.12-5.02.36-.83.48-.9 1.67-1.73 2.5-.83.84-1.2 1.32-1.97 1.44l-.66.09c-.18-8.99 3.3-13 3.3-13l-9.73-11.43c-.5.25-1 .48-1.5.7-.09-.15-.18-.3-.29-.43a7.46 7.46 0 01-1.72-5.18c.76.2 1.55.28 2.34.22.88-.17.22-1.06-.05-1.9-.34-1.6-.46-3.23-.35-4.86l.26-1.55s1.42 1.55 2.3 1.55c.88 0 .8-.89.93-1.86.18-1.63.9-3.15 2.02-4.34a6.6 6.6 0 003.31 1.07 8.7 8.7 0 006.04-2.3c1.9-1.82 1.86-2.26 1.86-2.26 2 .7 4.1 1.16 6.21 1.37 2.7.13 5.56-.3 6.93-3.14a5.98 5.98 0 00-.7-5.88c-.32-.44-1.2-.8-1.2 0s.05 2.92-1.59 3.98a4.67 4.67 0 01-4.45.53 13.68 13.68 0 00-6.17-.75c-.88.04-1.74.22-2.56.52a11.9 11.9 0 014.1-2.78 3.37 3.37 0 013.88 1.02c.66.8 1.23 2.08 1.76.22a6.9 6.9 0 00-.66-5.35 5.05 5.05 0 00-4.76-2.04c-.92.06-1.82.24-2.69.53 0 0-1.01-2.87-3.57-3.4-3.12-.65-6.56.52-9.26 2.03a9.57 9.57 0 01-4.28-.13 13.96 13.96 0 01-3.64-1.81l.73-2.35s.62-.2 1.27-.44c.64-.24.5-.45.59-1 .08-.53-1.22-1.47-1.22-1.47s-.18-1.61 1.94-2.72c2.13-1.11 1.9-.93 1.9-.93s1.25.23 1.76-.14c.5-.37.5-.6.5-.6.5-.16.95-.46 1.3-.87.34-.63.4-1.38.15-2.05-.25-.67-.57-.8-.22-1.1.4-.45.64-1.02.69-1.62l.03-.66c.5-.25.78-.8.7-1.35a1.6 1.6 0 00-.98-1.65 2.38 2.38 0 00-.57-.09c-.1-.55-.3-1.08-.63-1.55a8.35 8.35 0 00-.94-1.26.93.93 0 00.19-1.04 1.94 1.94 0 00-1.23-1.32c-.34-.1-.7-.1-1.04 0 0 0-1.66-1.01-2.45-1.42l-.98-.5a2.34 2.34 0 00-.31-1.08 1.8 1.8 0 00-1.3-.54c-.24.02-.49.08-.71.2 0 0-2.84-.73-4-.92-1.16-.2-1.23-.29-1.23-.29a24.56 24.56 0 00-3.49-1.38 12.4 12.4 0 01-1.25-.29c.6-.76.98-1.68 1.08-2.65 0-1.37-.72-2.64-1.89-3.36-.57-.33-.87-.39-1.06-.5l-.02-.98 1.9.19.15-3.04-1.84.23.28-1.83-3.86-.05.29 1.83-1.86-.12.16 3 1.95-.26-.19 1.14c-.47.1-.92.29-1.32.56a3.59 3.59 0 00-1.8 3.2c.09.95.4 1.87.92 2.67 0 0-.25.07-1.23.25-1.2.38-2.36.84-3.49 1.4 0 0-.06.09-1.23.28-1.16.19-4 .91-4 .91a1.9 1.9 0 00-.71-.19c-.49 0-.95.2-1.3.54-.18.33-.3.7-.3 1.07l-.98.5c-.8.42-2.46 1.43-2.46 1.43-.34-.1-.7-.1-1.04 0-.6.2-1.06.7-1.22 1.32a.93.93 0 00.19 1.04c-.36.4-.67.81-.95 1.26-.32.47-.53 1-.63 1.55-.19 0-.38.04-.56.1a1.6 1.6 0 00-.98 1.63c-.09.56.2 1.11.7 1.36l.03.66c.05.6.3 1.16.69 1.61.34.32.03.44-.22 1.1-.25.68-.2 1.43.16 2.06.33.4.78.71 1.28.87 0 0 0 .23.51.6s1.76.14 1.76.14-.23-.18 1.9.93 1.93 2.72 1.93 2.72-1.3.94-1.21 1.48c.08.54-.06.75.59 1 .65.24 1.27.42 1.27.42l.72 2.36a13.96 13.96 0 01-3.63 1.81c-1.4.37-2.86.41-4.28.13-2.7-1.5-6.14-2.68-9.26-2.03-2.56.53-3.57 3.4-3.57 3.4-.87-.29-1.78-.47-2.7-.53a5.06 5.06 0 00-4.76 2.04 6.9 6.9 0 00-.66 5.35c.53 1.86 1.1.57 1.77-.22a3.37 3.37 0 013.88-1.02 11.9 11.9 0 014.1 2.78 8.59 8.59 0 00-2.56-.52c-2.09-.23-4.2.03-6.17.75-1.48.6-3.16.4-4.46-.53-1.63-1.06-1.59-3.19-1.59-3.98s-.88-.45-1.19 0a5.98 5.98 0 00-.7 5.88c1.37 2.83 4.23 3.27 6.92 3.14 2.12-.21 4.2-.67 6.22-1.37 0 0-.04.44 1.85 2.26a8.7 8.7 0 006.04 2.3 6.6 6.6 0 003.31-1.07 7.52 7.52 0 012.03 4.34c.13.97.04 1.86.93 1.86.88 0 2.29-1.55 2.29-1.55s.09.44.26 1.55c.12 1.63 0 3.26-.35 4.86-.26.84-.93 1.73-.04 1.9.78.06 1.57-.01 2.33-.22a7.46 7.46 0 01-1.72 5.18c-.1.13-.19.26-.27.4-.48-.2-.96-.43-1.44-.67l-9.73 11.44s3.5 4.02 3.3 13.06v-.07c-.17-.01-.4-.04-.7-.09-.78-.12-1.14-.6-1.97-1.43-.84-.84-.9-2.03-1.73-2.51s-3.17-.3-5.02-.36c-1.85-.06-4-.72-4.35-2.57-.36-1.85.06-2.69 2.44-4.24 2.4-1.56 4.18-3.29 4.3-6.7.12-3.4-2.09-5.62-6.03-10.16a41.27 41.27 0 01-6.26-9.74c-.54-1.07-.78-.66-1.2.12-.41.78-1.01 2.21-1.01 2.21s-1.31-.77-4.54-6.63a42 42 0 01-4.65-12.91c-.26-1.65-.9-.84-1.4-.4-2.62-7.46-2.47-16.66-3.2-23.8a18.69 18.69 0 00-4.1 7.52c-1.38 4.57-1.33 9.94-.89 14.66.22 2.85.81 5.66 1.77 8.35.66 1.8-.3.72-.3.72a41.99 41.99 0 01-3.81-11.41 58.9 58.9 0 01-1.38-12.67 9.2 9.2 0 00-1.96 2.84c-1.05 2.1-2.1 6.3-1.73 13.92.4 6.37 2 12.6 4.68 18.39 1.47 2.73.1 1.1-.43.31a47.3 47.3 0 01-4.46-8.5c-1.31-3.63-3.73-11.09-3.89-12.25-.16-1.15-.63-.42-1.1.58a19.47 19.47 0 00-1.47 6.78c.1 3.7.79 7.35 2.05 10.82a42.29 42.29 0 006.09 10.3c1.47 1.83.31.89-.37.36s.05.1-3-3.15-6.82-10.82-7.35-11.97c-.52-1.16-1.05.1-1.1.73-.05.63-.47 4.3 1.84 10.56 2.31 6.25 7.98 11.08 10.98 13.13 3 2.05.84 1.05-.69.16a60.01 60.01 0 01-6.46-4.57c-1.89-1.58-5.25-5.73-6.2-6.46-.94-.74-1.15-.95-1.1 2s2.58 7.72 5.77 10.92a24.3 24.3 0 008.6 5.15c1.27.5.21.27-1.1-.1a26.8 26.8 0 01-6-2.35 69.26 69.26 0 01-7.17-5.08c-1.19-.92-1.03.35-.66 1.96.37 1.61 1.26 4.6 5.85 8.32 4.6 3.73 11.11 5.63 12.99 6.16 1.87.53.55.53.55.53s-.74-.1-4.54-.96c-3.8-.84-9.55-3.85-11.1-4.83-1.56-.98-1.8-1.35-1.59.71a13.54 13.54 0 005.91 8.54c3.51 2.06 9.84 3.12 11.48 3.2 1.63.08 1.21.31.47.36-1.85.06-3.7-.03-5.54-.28a42.92 42.92 0 01-7.3-1.9c-.14-.52-.27-1.03-.33-1.34-.14-.79-.55-.67-.8-.5-.4.3-.84.55-1.28.76-.88.44-.9-.09-.93-.35-.03-.26-.2-1.4-.24-1.98-.03-.58-.35-.61-.75-.44l-3.08 1.32c-.72.31-.06.9.32 1.6.38.7.96 1.71.96 1.71l-2.41.64c-.58.15-.4.56-.26.97.14.4 1.04 2.44 1.28 3.02a.48.48 0 00.75.24l1.83-1.08.64 2.44c-.63.2-1.23.48-1.77.85-.93.64-.7 1.48.41 1.8 1.11.33 2.4.89 3.84 3.48 1.43 2.6 1.8 7.28 2.68 14.65a17.2 17.2 0 006.24 11.58c.64.47.27.84.27.84a3.27 3.27 0 00-.37 2.36 3.55 3.55 0 002.17 2.5c.37.13.57.52.47.88a15.69 15.69 0 000 4.45c.47 2.5 1.62 4.8 3.32 6.68.65.55.7.83.6 1.06-.09.24-.5.05-1.29.65-.9.66-1.65 1.5-2.22 2.46-.55 1.02-.37 1.62-.18 3.01.18 1.4 2.22 2.64 2.22 2.64s-.37.1-.47 1.12a3.75 3.75 0 001.58 2.92c.81.53 1.72.9 2.68 1.1l.23 1.5c.09.6 1.24 1.2 1.98 1.61.9.32 1.9.29 2.78-.09.6-.28 1.01.05 1.38.65.37.6.23 2.92.23 3.85 0 .92-.55 1.9-.23 2.36.32.46 1.2.14 2.08-.37.88-.51 1.11-.14 1.9.37a6 6 0 002.35.93c.33-.05.19-.88.19-1.58s.12-2.27.45-2.5c.86-.16 1.71-.38 2.55-.65.49-.2 1.11-.42 1.16-.88.04-.46-.65-.46-2.18-1.25-.97-.55-1.9-1.19-2.77-1.9-.97-.65-.5-.88-.5-1.16 0-.28.46-.6.64-.97.11-.4.15-.8.1-1.2 0 0 .78-.8 1.15-1.21a13 13 0 011.34-1.49c.5-.41 1.3-2.4 1.8-3.06.5-.64 1.66-1.34 2.36-2.22a19.46 19.46 0 013.6-3.01c1.06-.7 3.93-2.04 3.93-2.04-.04.9.2 1.79.7 2.54.73.84 1.7-.64 4.98-2.96a24.87 24.87 0 015.78-3.15s.69 1.06 1.57 2.18c.87 1.1 1.66-.05 5.68-5.61a72.84 72.84 0 018.97-9.9l.9.4-.25.72c-.51 1.2-1.1 2.38-1.75 3.5-.79 1.61-1.98 1.98-3.36 4.15a10.47 10.47 0 00-1.7 5.85c-.15 2.2 1.1 2.67 1.1 2.67-1.05 1-1.94 2.17-2.63 3.45a22.53 22.53 0 00-.92 4.47s-.32.13-1.06 1.65c-.73 1.52-2.07 1.75-4 3.69a19.8 19.8 0 01-5.11 3.36c-1.02.6-.74 1.2-.46 1.98.27.78 1.65 1.56 3.26 2.16a6.1 6.1 0 003.27.32c1.1-.04.23.83-.23 1.3a6.05 6.05 0 00-.96 3.86c.09 1.8 1.43 1.38 3.08 1.1a18.7 18.7 0 003.6-1.1l-.19.5a5.68 5.68 0 00-.28 2.31c0 1.43.23 2.12.65 2.48.41.37 1.24-.4 1.84-.6 1-.44 2.03-.81 3.09-1.1a3.82 3.82 0 002.02-.96 2.9 2.9 0 00-.46 1.47c-.1 1.14-.04 2.29.19 3.4.35 1.11 1 2.1 1.88 2.86 1.02.92 1.25.5 1.98-.64a19.1 19.1 0 012.26-2.63s.09.37 1.1 3.64c1.02 3.27 4.33 5.98 4.33 5.98s3.32-2.71 4.33-5.98 1.1-3.64 1.1-3.64a19 19 0 012.26 2.63c.74 1.15.97 1.56 1.98.64a6.29 6.29 0 001.89-2.85c.22-1.12.29-2.27.18-3.41a2.91 2.91 0 00-.46-1.47c.57.51 1.27.85 2.03.96 1.05.29 2.09.66 3.08 1.1.6.2 1.43.97 1.85.6.4-.36.64-1.05.64-2.48a5.68 5.68 0 00-.28-2.3l-.18-.51c1.16.49 2.36.86 3.6 1.1 1.65.28 2.98.7 3.08-1.1a6.06 6.06 0 00-.97-3.87c-.46-.46-1.34-1.33-.23-1.29 1.1.2 2.23.09 3.27-.32 1.6-.6 3-1.38 3.27-2.16.27-.79.55-1.38-.46-1.98a19.83 19.83 0 01-5.11-3.36c-1.94-1.94-3.27-2.17-4.01-3.69-.73-1.52-1.06-1.65-1.06-1.65a22.56 22.56 0 00-.92-4.47 14.1 14.1 0 00-2.62-3.45s1.24-.46 1.1-2.67c.03-2.08-.57-4.11-1.7-5.85-1.38-2.17-2.58-2.53-3.36-4.15a30.44 30.44 0 01-1.75-3.5l-.24-.7 1.19-.51a72.7 72.7 0 018.99 9.9c4.02 5.57 4.8 6.73 5.68 5.62a32.98 32.98 0 001.57-2.18c2.06.79 4 1.85 5.78 3.15 3.28 2.32 4.25 3.8 4.99 2.97.34-.51.52-1.12.52-1.73a69.69 69.69 0 017.85 2.78c2.84 1.2 3.15 1.82 5.4 3.61s5.49 1.61 8.54.69c3.04-.93 11.16-3.6 14.42-5.02 3.25-1.4 5.58-2.64 5.92-3.3.4-1 .65-2.05.72-3.12a3.16 3.16 0 00-.96-1.79c-.24-.17-.13-.69-.07-1.1a3.45 3.45 0 00-.64-2.2c-.52-.55-.45-.75-.38-2.34.14-3.35-2.25-7.57-5.64-8.92a1.3 1.3 0 00-.36-.62 3.8 3.8 0 00-.73-.43s.06-1.93.04-2.34c-.02-.42.16-.37.4-.25.33.3.72.54 1.13.7.55.14.9-.25 1.01-.86.22-.84.48-1.67.78-2.48.2-.62-.05-.71-.3-.78-.25-.07-1.07-.16-1.46-.26-.4-.09-.4-.1-.3-.32.2-.45.45-.89.73-1.3.5-.78.05-.8-.43-.97-.48-.16-2.66-.82-3.25-.91a.61.61 0 00-.73.66c0 .25.02 1.35.04 1.77s-.36.3-.6.18c-.4-.22-.8-.47-1.16-.76-.41-.32-.7-.02-.87.44-.16.46-.66 2.34-.82 2.9-.16.54-.11.98.11 1.07.65.05 1.3.05 1.95 0 .64 0 .27.37.27.37s-.68 1.12-.91 1.56c-.23.43-.62.5-1.15.5h-1.4c-2.18.13-4.29.84-6.1 2.05a10.12 10.12 0 00-3.72 4.44c-.4.93-.86.73-1.26 1.06-.4.34-1.52 1.53-1.52 2.26 0 .73.26 1.13-.86 1.85-1.13.73-2.06 3.92-.54 5.58a17.27 17.27 0 012.6 4.1c.45.8 0 1.13-.4 1.13s-1.24-.67-1.93-1.2c-.7-.5-4.2-3.24-5.7-4.37-1.5-1.12-.4-1-.4-1 .44-.01.87-.13 1.26-.33.88-.37 1.02-.83.14-1.1-1.1-.42-2.13-1-3.05-1.72-.46-.47-.7-.98.19-1.44.87-.46 2.81-1.72 1.29-2.13-1.53-.42-3.33-.74-4.8-1.16-1.49-.42-1.62-.84-1.62-.84l.97-1.39s.78-1.1-.14-1.25c-1.78-.2-3.52-.64-5.18-1.3a12.5 12.5 0 01-7.54-8.38l.06-.09c.76 1.5 2.53 4.3 5.19 4.4 3.64.12 4.06-1.02 3.22-2.22s-1.79-2.27-2.03-2.63c-.24-.35-.3-.83.66.06s2.77 3.95 8.26 3.6c5.5-.37 5.47-1.44 5.47-1.74 0-1.06-1.12-1.22-1.78-1.88-.35-.35-.55-.85.55-.43 2.45.72 5.05.76 7.52.13 1.46-.3 5.33-2 5.7-3.96a14.65 14.65 0 01-4.17-.87c-1.71-.74-2.74-1.35-.92-.98 1.82.37 5.36 1.11 8.47.05 1.82-.61 4.17-2.09 4.17-4.78 0 0-3.38-.71-4.62-1.16a5.76 5.76 0 01-1.63-.8c3.05.87 6.31.62 9.2-.68 4.38-2.22 4.57-5.26 4.57-5.97.02-.31-.01-.63-.1-.93-2.3.56-4.62.87-6.97.95-1.31.05-2.62-.05-3.9-.29 0 0 8.33-.24 12.52-2.8 4.2-2.56 4.44-7.6 4.44-7.6a46.3 46.3 0 01-7.73 2.03c-1.84.25-3.7.34-5.54.29-.74-.06-1.16-.3.47-.37 1.64-.08 7.97-1.14 11.48-3.2a13.54 13.54 0 005.91-8.54c.21-2.06-.03-1.69-1.58-.7-1.56.97-7.31 3.98-11.11 4.83-3.8.84-4.54.95-4.54.95s-1.46-.07.42-.6l.13.07zm-150.1 9.58l-1.68.96s-.67-1.37-.85-1.77c-.17-.41-.08-.59.15-.59.23 0 .93-.2 1.48-.26l.21-.03c.2.57.45 1.13.75 1.66a.2.2 0 01-.06.04v-.01zm51.18 29.97c-1.02 1.9-3.79 3.9-5.82 4.77-1.66.66-3.4 1.1-5.18 1.3-.92.14-.14 1.25-.14 1.25l.97 1.4s-.13.41-1.61.83-3.28.74-4.8 1.16c-1.53.41.4 1.67 1.29 2.13.87.46.64.97.18 1.44-.92.73-1.95 1.3-3.05 1.71-.88.28-.74.74.14 1.11 1.07.35 2.17.63 3.28.84a12.1 12.1 0 01-7.3 3.15c-2.61.15-5.23.16-7.84.05-3.43-.16-3.82-.24-3.82-.24s-.12-1.14-.36-2.84a14.36 14.36 0 00-2.05-5.2c-.78-1.1-2.44-3.3-2.44-3.3.04-.35.09-.7.16-1.03.1-.75-.02-1.5-.36-2.18a9.4 9.4 0 00-2.4-2.57s-.08-1.12-.08-2.16a36.78 36.78 0 00-1.37-7.05c-.64-1.92-3.76-6.97-5.2-9.37a26.3 26.3 0 01-2.74-8.73 10.86 10.86 0 01-.11-4.4c.07-.3.18-.59.33-.86a8.6 8.6 0 002.31 2.08c4.2 2.56 12.54 2.8 12.54 2.8-1.3.24-2.6.34-3.9.3-2.36-.09-4.7-.4-6.97-.96-.1.3-.13.61-.11.93 0 .71.19 3.75 4.57 5.97 2.89 1.3 6.15 1.55 9.2.69-.5.34-1.05.61-1.63.79-1.24.45-4.62 1.16-4.62 1.16 0 2.7 2.35 4.17 4.17 4.78 3.11 1.06 6.65.32 8.47-.05 1.82-.37.8.24-.92.98-1.34.49-2.75.78-4.17.87.37 1.96 4.24 3.65 5.7 3.96 2.47.63 5.07.59 7.52-.13 1.1-.42.9.08.55.42-.66.67-1.78.83-1.78 1.89 0 .3-.03 1.37 5.47 1.73s7.3-2.69 8.26-3.59c.95-.9.9-.42.65-.06-.23.36-1.19 1.44-2.02 2.63-.84 1.2-.42 2.33 3.22 2.22 2.68-.1 4.45-2.94 5.2-4.43l.05.07.15.2c-.46 1.2-.99 2.39-1.58 3.54h-.01zM335 78.19c-.5-.94-.76-1.39-.76-1.39 1.23.6 2.34 1.39 3.3 2.36a5.02 5.02 0 011.39 2.81 9.6 9.6 0 01-.19 3.13c-.21.75-.2 1.56.06 2.3.12.23.27.45.44.64-.6.16-1.2.35-1.78.57-.86.35-1.99.66-2.62.14-.63-.53-.78-.9-.39-1.24a3.63 3.63 0 002.04-3.28 12.3 12.3 0 00-1.49-6.04zm-11.28 6.86c.57-1.54.68-3.2.3-4.8-.37-2-.64-4.01-.8-6.04a9.3 9.3 0 013.72 2.34 7.34 7.34 0 012.7 5.07c0 1-.53 2.23-.61 3.2-.04.63.05 1.26.27 1.85-.53.22-1.04.5-1.52.83a3.2 3.2 0 01-2.34.75c-.86-.09-1.7-.4-2.42-.89a3.54 3.54 0 00-1.05-.39 4.43 4.43 0 001.74-1.92h.01zm-10.7-8.5a9.32 9.32 0 013.72-2.34 55.57 55.57 0 01-.8 6.04 8.33 8.33 0 00.3 4.8c.38.8.99 1.47 1.75 1.92-.37.07-.72.2-1.05.39-.72.5-1.55.8-2.42.9a3.2 3.2 0 01-2.33-.76c-.49-.33-1-.6-1.53-.84.22-.58.32-1.2.27-1.83-.08-.98-.6-2.2-.6-3.2a7.4 7.4 0 012.7-5.08h-.01zm-7.91 12.2c-.63.52-1.75.2-2.62-.13-.58-.23-1.18-.42-1.78-.58.17-.2.32-.4.45-.63.24-.75.26-1.56.05-2.31a9.6 9.6 0 01-.19-3.13 5.01 5.01 0 011.4-2.8c.95-.98 2.06-1.78 3.3-2.37 0 0-.27.45-.77 1.39-1 1.85-1.52 3.93-1.49 6.04 0 1.4.79 2.67 2.04 3.28.4.34.23.71-.4 1.24h.01zm29.24 21.07c-2.16 1.2-3.4.93-3.3 1.82.08.88 2.02 1.55 2.02 1.55a23.57 23.57 0 01-3.53 3.1 18.34 18.34 0 01-3.35 1.59s-.62.08-.27 1.06c.26.78.77 1.45 1.46 1.9.24.14.5.25.75.35 0 0-2.69 2.88-3.88 3.8-.85.7-1.8 1.25-2.82 1.64-.97.4-.49 2-.27 2.7.28.77.83 1.42 1.55 1.82.48.13.66.48.04 1.46-.46.72-2 2.65-2.74 3.72l-.04.02c-.73-1.06-2.29-3.01-2.75-3.74-.62-.98-.44-1.33.04-1.46a3.38 3.38 0 001.54-1.82c.22-.7.71-2.3-.26-2.7a10.16 10.16 0 01-2.82-1.63c-1.2-.93-3.88-3.8-3.88-3.8a3.6 3.6 0 002.2-2.26c.35-.98-.26-1.06-.26-1.06a18.4 18.4 0 01-3.36-1.6 23.68 23.68 0 01-3.52-3.1s1.94-.66 2.03-1.54c.08-.89-1.15-.62-3.31-1.82a6.87 6.87 0 01-2.87-2.7 7.09 7.09 0 003.75-3.36c.37-.73.55-1.56.5-2.39l.1.04a46.32 46.32 0 0025.77 0l.1-.04c-.05.83.12 1.66.5 2.4a7.1 7.1 0 003.74 3.36 6.85 6.85 0 01-2.86 2.7z"/>
        <path fill="#e6b319" d="M347.47 158.5a20.13 20.13 0 013.12-11.08l-8.5-9.73c-8.08 3.13-15.5 3.32-22.09-.04-6.6 3.36-14 3.17-22.1.04l-8.5 9.73c2.1 3.31 3.2 7.16 3.13 11.08a61.13 61.13 0 01-2.08 15.1c-.76 3.29-1.42 9.41.33 13.8 1.75 4.37 3.61 8.2 11.16 11.37s11.5 4.82 14.12 7a26.42 26.42 0 013.94 3.95 26.37 26.37 0 013.94-3.94c2.63-2.2 6.57-3.83 14.12-7 7.55-3.18 9.4-7.01 11.16-11.39 1.75-4.38 1.1-10.5.33-13.79-1.32-4.92-2.01-10-2.07-15.1h-.01z"/>
        <path fill="#e65900" d="M344.8 161.3c-1.07-6.48 2.67-12.19 2.67-12.19l-7.27-8.5c-5.6 3.15-13.4 2.72-20.17-.4-6.78 3.12-14.58 3.55-20.18.4l-7.27 8.5s3.74 5.7 2.67 12.19c-1.07 6.48-3.36 16.74-2.79 20.92a20.53 20.53 0 006.56 11.57 38.4 38.4 0 0010.75 5.82 30.98 30.98 0 017.8 4.51c.85.67 1.68 1.38 2.45 2.14a29.1 29.1 0 012.47-2.14 31.02 31.02 0 017.79-4.5 38.36 38.36 0 0010.75-5.83 20.53 20.53 0 006.56-11.57c.57-4.2-1.73-14.45-2.8-20.93l.01.01z"/>
        <path fill="#06c" d="M344.1 162.07c-.59-4.33.15-8.73 2.1-12.63l-6.56-7.31c-5.55 2.85-12.29 2.11-19.63-.44-7.35 2.55-14.09 3.29-19.64.44l-6.56 7.3c1.96 3.9 2.7 8.31 2.1 12.64-1.05 7-2.66 14.92-2.35 19.57.02.32.06.64.1.97h5.98c.29-.3.63-.53 1.01-.68.31-.12.6-.28.86-.48 0 0 .12-1.21.85-1.46.42-.18.88-.26 1.33-.26.34 0 .65-.15.86-.41a6.42 6.42 0 001.7-2.41c.37-.79.6-1.62.67-2.48.04-.7.13-1.39.29-2.07 0 0-.16-.38-.76-.15-.6.22-.7-.38-.76-.99-.1-.82 0-1.65.31-2.41l.48-.76-.25-.96s-3.8.77-4.47-2.19c-.66-2.95-.79-4.38-.88-4.7-.1-.32-.2-.48-.7-.44-.5.03-1.58-.32-2.34-1.84-.76-1.53-.83-2.16-.6-2.77.22-.6.63-.38.75-.19.13.2 1.14 1.65 1.56 1.24.4-.41.19-.41-.38-1.56a2.73 2.73 0 01-.32-2.1 9.96 9.96 0 00-.2-1.64.48.48 0 01.7-.42c.32.15.6.35.83.6.16.2.22.49.54.3s.12-1.25.12-1.6c0-.34.42-.6.92-.31.44.25.73.7.76 1.2 0 .39.03.74.22.74s.42-.58.45-.96c.03-.38.25-.95.6-.47.36.56.49 1.24.35 1.9-.13.73.12.35-.13 1.62a10.9 10.9 0 00-.35 2.8c-.01.91.17 1.82.54 2.66.48 1.18.85 2.54 1.74 2.58l1.14.03a7.95 7.95 0 011.74-2.35c.82-.37 1.7-.57 2.6-.6.76-.1 1.08-.33 1.08-.52s-.26-.25-1.18-.38c-.91-.12-1.67-.35-1.7-1.05-.04-.7.15-1.3-.45-1.33-1.05-.1-2-.64-2.62-1.5-.38-.5-.5-1.13-.35-1.74.06-.54.76-1.62 1.2-.6s.73 1.14 1.1 1.36c.39.23.9.29.64-.41a3.5 3.5 0 01-.35-1.65c.05-.43.4-.77.83-.82.4-.1 1.64-.48 2.28-.6.63-.13.66-.2.66-.2s.06-.44.89-.7c.63-.2 1.3-.3 1.96-.28.63.08 1.26-.02 1.84-.29.6-.3 1.26-.45 1.93-.41.46.04.9.2 1.26.48.38.25.26.6.26.95s.06.54.6.54a4.1 4.1 0 011.52.19c.5.19 1.2.47.76 1.01-.44.55-.47 1.15-.76 1.12-.28-.04-.25.28-.38.47-.13.2-.22.35.1.54.31.2.34.38.79.8.44.4 1.1.85.44 1.52-.55.49-1.17.9-1.84 1.2 0 0-.66.32.1.77.76.44 1.1 1.37 1.4 1.52.28.16.56.42.75.51.2.1.16.73.16.73-.82.51-1.73.85-2.69.99-.54 0-.82 0-.6.5.22.51.6 1.05.7 1.34.09.28.22.8.22.8.55.1 1.11.17 1.67.18.97.02 1.93-.03 2.89-.16 1.3-.2 2.62-.23 3.92-.06.8.03 1.6.12 2.38.29.3.1.6.24.88.38 1.23-.01 2.46-.12 3.68-.32 1.3-.28 1.61-1.11 1.42-1.55-.19-.45-.16-1.12-2.44-1.43-2.27-.32-3.2-.2-5-.55-1.8-.34-4.62-1.27-5.13-3.52-.5-2.25 1.33-3.2 2.25-3.65.92-.45 2.91-1.14 3.83-1.52a8.83 8.83 0 014.37-.51c1.77.25 2.79.73 3.48.31.7-.4 1.27-.1 1.14.54a3.76 3.76 0 01-2.82 2.54c-1.84.57-3.8.68-5.7.32-1.3-.35-2.27-.86-3.06-.57a1.54 1.54 0 00-.83 2.44c.86 1.18 5.23 1.53 6.4 1.66 1.17.12 5.5-.2 6.74 1.96 1.24 2.17.25 4.58-1.2 5.12-1.23.48-2.5.83-3.8 1.05l-1.1.15c.23.52.4 1.07.5 1.63 0 .47-.07 1.36.47 1.7.66.43 1.44.6 2.22.52.92-.1 2.03.54 2.09 1.36.06.83.32 1.97.41 3.62.06 1 .06 2.02 0 3.02-.05.42-.14.84-.28 1.24-.23.6-1.37 2.94-1.37 2.94h6.38c.05-.33.08-.65.1-.97.26-4.71-1.35-12.63-2.4-19.63l.04.06z"/>
        <path fill="#4db300" d="M294.42 185.72a18.27 18.27 0 007.75 9.55c5.45 3.28 7.8 2.85 12.94 6.2 5.14 3.34 4.83 3.9 4.9 3.9s-.25-.57 4.89-3.9c5.14-3.35 7.5-2.92 12.94-6.2 3.61-2.2 6.35-5.57 7.75-9.55h-51.17z"/>
        <path fill="#e6b319" d="M298.88 158.13c.45.58 1.19.85 1.91.71.9-.1 1.1.56 1.26 1.26.1 1.33.38 2.65.8 3.92.65 1.54 2.8 1.63 2.8 1.63.1-.88.32-1.74.65-2.56.06-.14.34-.83-.43-.83s-.74-.31-1.2-1.05a14.44 14.44 0 01-1.57-3.97c-.11-1.29.02-2.59.4-3.82.22-.68.25-1.14 0-1.26a1.4 1.4 0 00-.74 0s.19.58-.03.67c-.22.1-.4-.3-.55-.74-.16-.43-.34-.37-.65-.34-.3.04-.3.31-.1.62.14.27.17.57.1.86-.3-.22-.62-.43-.96-.61-.27-.13-.92.12-.98.49.02.7.32 1.35.83 1.82.5.53.65 1.29.4 1.97-.18.46-1.05.4-1.23.18a.53.53 0 00-.8 0c-.25.28-.5.44.09 1.05zM298.54 156.5a4.35 4.35 0 01-.46-.43l-.37-.5c-.05.17-.07.35-.06.53.04.3.18.56.4.77l.49-.37zM299.83 152.22c.28-.12.5-.19.28-.5-.22-.3-.4-.64-.62-.7a1 1 0 00-.4-.03c.13.29.23.59.3.9.07.33.17.45.44.33zM301.44 150.92c-.03.28.03.4.28.28a.54.54 0 00.21-.71c-.1-.17-.23-.32-.4-.43l-.18-.13c.04.33.07.66.08.98l.01.01zM303.74 151.29c.01-.22-.02-.44-.1-.65 0 .2-.05.41-.15.59-.15.21-.12.15.03.34.15.19.18.03.21-.28h.01zM307.36 166.95c.45 1.05 1.6-.6 2.65-1.93 1.04-1.32 1.01-.3.87.77a5.1 5.1 0 00.7 2.98c.42.73.77.31.94-.21.14-.74.36-1.45.66-2.13.35-.53.7-.07.73.38.2.77.6 1.47 1.12 2.06.52.6.77-.2.94-.94s.38-1.85.52-2.31c.14-.45.63-.07.63-.07l1.05 1.02c.7.66.76-.39.83-.91.07-.53-.1-1.68.1-1.86.22-.17.8.25 1.72.7.9.46.87-.42.76-.9a4.95 4.95 0 00-1.36-2.24c-.73-.63-.83-1.37-.59-1.68.25-.32 1.12-.04 1.67-.1.56-.08.84-.15 1.26-.22a.5.5 0 00.42-.49 4.98 4.98 0 00-.9-1.04 3.74 3.74 0 00-1.68-1.12c-.58-.1-1.17-.1-1.74 0l-.1-.21c-.11-.21-.32-.21-.46 0-.23.27-.49.51-.77.73-.28.24-.45.38-.63.28-.17-.1.14-.35.14-.35.32-.27.57-.6.73-.98.35-.7.46-1.37.18-1.68-.28-.32-1.05 0-1.46 0-.42 0-.67.07-.7-.14-.04-.21.42-.1.94-.18.52-.06.84-.7 1.01-1.22s.31-.45.63-.14c.31.32.6.25.66.03.19-.44.42-.86.7-1.25.41-.5.48-1.19.17-1.75a1.36 1.36 0 00-1.7-.1c-.45.33-.71.84-.74 1.4-.1.76-.31.34-.31.1s-.32-.63-.18-.95a1.18 1.18 0 00-.8-1.47 5.71 5.71 0 00-2.3.21.69.69 0 00-.6.76v.05c.01.02-.55.03-1.14.1-.63.12-1.25.27-1.85.46-.56.14-.77.2-.77.48.01.25.05.5.1.74.25 0 .48.05.7.14.25.14.1.38-.17.49-.28.1-.38.14-.38.49s.14.42.41.42c.54-.01 1.08.1 1.57.31.53.2.86.73.8 1.3-.07.35-1.04.8-1.53.8s-.63.1-.63.42c0 .32.6.28.6.28s.59.04 1.74.17c.7.02 1.37.32 1.85.84.52.46.14.56-.1.7-.33.23-.66.43-1.02.6-.38.14-.63.42-.98.49-.97.08-1.92.3-2.82.66a4.38 4.38 0 00-2.16 2.73c.32-.13.63-.28.94-.45.73-.39 1.64-.8 2.48-1.33.83-.53.83.24.41.98-.41.73.39.59.63.38.42-.33.88-.61 1.36-.84.8-.42.52.25.52.25-.2.52-.3 1.08-.31 1.64-.07 1.16 1.15.07 1.7-.66s.81 0 .4.84c-.43.84-1.23 1.5-1.68 1.5a.97.97 0 01-.84-.77c-.03-.28.14-1.12-.14-1.33-.28-.2-1.08.04-1.67.39-.6.35-.73.07-.87-.25-.14-.31.2-.42.07-.63-.14-.2-.46 0-.7.1-.25.11-.8.43-1.88.99-1.09.55-1.01.87-1.01 1.67s.2 1 .65 2.04l.01-.04z"/>
        <path fill="#e6b319" d="M317.82 149.44c.2-.12.42-.22.64-.3 0 0 .51-.13.99-.2.47-.06.39-.33.28-.55-.1-.23-.28-.31-.9-.31-.48.04-.95.2-1.36.45-.25.1-.5.18-.76.25l.3.43c.14.28.47.4.75.27l.05-.03.01-.01zM320.34 151.94c.18-.01.36-.06.52-.15.28-.13.56-.26.86-.36.38-.08.69-.35.82-.7.25-.5-.27-.5-.99-.68-.72-.2-1.07.06-1.15.32-.05.38-.17.75-.35 1.1-.29.5.04.47.3.47h-.01zM320.11 152.57c-.7 0-1.48 1.05-1.77 1.24s-.12.37-.12.37a4.2 4.2 0 01.39 1.95c.56.14 1.16-.03 1.56-.45.37-.27.8-.44 1.26-.5.5-.08 1-.26 1.44-.53.62-.33-.33-.9-.99-1.44a2.46 2.46 0 00-1.77-.62v-.02zM310.8 154.99c.55-.06.8-.34.8-.65s-.28-.64-.99-.58c-1.73.15-3.41-.47-3.72-2.19-.34.79-.14 1.7.5 2.28a4.3 4.3 0 003.42 1.14h-.01zM304.89 182.31c.07.13.18.24.3.3h2.66c.46-.12.46-.54.48-.83.03-.34.3-1.31.66-3.08.3-1.28.72-2.54 1.26-3.74.26-.71-.26-.95-.45-1.4-.22-.53-.4-1.07-.55-1.63-.08-.4-.7-.34-1.05-.32s-.4.58-.45 1.11c-.05.52-.29 2.08-.55 3.42a9.04 9.04 0 01-2.2 3.53c-.27.32-.65.51-1.06.56-.42-.03-.84.03-1.23.18-.36.26-.6.65-.66 1.08-.02.4.6.61.6.61.26-.14.49-.32.7-.53.18-.23.6-.29 1.02-.37.42-.07.47.08.31.3-.16.2-.11.24.21.8v.01zM300.82 182.17a.9.9 0 00-.44.44h1.74a.93.93 0 00-.17-.44c-.21-.26-.77-.13-1.13 0z"/>
        <path fill="#e6b319" d="M303.18 182.12c-.23.12-.43.29-.6.49h1.87c.1-.2.04-.45-.14-.6-.42-.35-.84-.05-1.13.1v.01zM319.4 181.35c-.2 0-.39.18-.68.39-.24.18-.4.46-.43.77l.01.1h.8a.14.14 0 00.05-.1c0-.23.1-.44.43-.73.35-.3.03-.43-.17-.43h-.01zM320.96 182.21c0-.25-.1-.47-.27-.45s-.48.34-.72.52c-.12.1-.23.2-.32.34h1.17c.08-.13.13-.27.14-.41z"/>
        <path fill="#e6b319" d="M328.18 173.58c.56-.4.47-.52.5-.95.02-.43.02-.57-.2-.73-.57-.32-1.2-.5-1.86-.52a6.74 6.74 0 00-2.84.57 3.7 3.7 0 00-.84 2.49c0 .72.11.84.32.84s.54-.52.54-.52.74.97 1.2 1.65c.45.68.24.95.04 1.47-.32.85-.85 1.6-1.53 2.2-.6.3-1.04.02-1.74-.1a1.5 1.5 0 00-1.5.5c-.4.41-.01.73.23.73.33-.05.65.07.86.32.19.23.06.77-.03 1.08h3.46c.55-.35.96-.89 1.15-1.52.34-.57.77-1.07 1.3-1.49.35-.34.4-.56.4-1.31 0-.6-.17-1.19-.48-1.7a3.1 3.1 0 01-.38-1.7c.06-.46.8-.93 1.37-1.34l.03.03z"/>
        <path fill="#e6b319" d="M322.49 164.95c.35.56.17.67-.32.78-.6.14-1.2.18-1.81.13-.78-.07-.76.04-.78.43 0 .64-.2 1.27-.54 1.8a.9.9 0 01-1.36.14c-.34-.24-.54-.17-.67.26-.2.48-.44.94-.73 1.38-.37.64-.6.67-.86.6s-.5-.45-.76-.47-.67-.54-1.05-1.17c-.4-.62-.59.07-.84.6-.26.54-.52.93-1.02.87-.5-.07-1.05-1-1.33-1.55-.29-.57-.46-1.1-.89-1.08-.43.02-1.14.92-1.62 1.16-.47.24-.6.15-.82-.15-.21-.3-.5.1-.77.82-.27.53-.1 1.18.4 1.5.4.2 1.17-.36 1.7-.7.37-.25.84-.35 1.28-.26.54 0 .5.88.74 2.18.23 1.29.99 1.46.99 1.46s.26.22.84-.77c.58-1 .65-1.96 1.2-1.96.57 0 .61.12 1.17.9.56.78 1.04 1.36 1.36.78.25-.63.57-1.21.97-1.75.37-.3.71-.39.32.17-.38.56-.56 1.17.24.93s3.84-1.47 5.07-1.7c0 0 1.44-.24 3.1-.33 1.66-.08 2.07-.2 2.72-.2.65 0 .67-.06.71-.49.04-.43-.3-.34-1.5-.34-.98 0-1.94.1-2.9.28-.84.13-1.23.1-1.08-.1.16-.22.4-.38 1.36-.53a39.7 39.7 0 014-.28c1.03-.02.7.3.62 1-.03.78.02 1.57.15 2.35.03.63.25 1.24.64 1.74.57.9 2.5 1.47 3.07 1.77.56.3.47 0 .45-.54-.02-.54.43-.52.93-.24.6.3 1.24.52 1.9.67.58.15.66.26.66.56s.07.97.13 1.6c.11.42.03.86-.21 1.2-.43.53-.88 1.04-1.36 1.52a7.4 7.4 0 00-1.56.26c-1.05.26-1.38.75-1.48 1.18s.2.56.23.74c.02.17.02.34 0 .51h.25c.11-.2.24-.38.38-.56.51-.48 1.26-.6 1.9-.3.3.17.45.53.36.86h2.41c.33-.63 1.1-2.13 1.3-2.59.28-.54.43-1.13.43-1.74.08-1.35.07-2.7-.04-4.06-.15-.17.04-.69 0-1.55-.04-.86 0-1.5-1.6-1.66-1.03-.05-1.99-.54-2.63-1.36-.54-.54-.4-1.79-.84-3.3-.43-1.5-1.48-1.74-3.36-2.11-1.53-.33-3.1-.42-4.66-.28-1.36.18-2.74.26-4.12.24-.95-.12-.8.16-.45.72l-.02.03z"/>
        <path fill="#e6b319" d="M331.55 182.27c-.14.09-.26.2-.35.34h1.63a.64.64 0 00-.16-.47c-.24-.3-.72-.13-1.12.13zM334.47 182.16c-.21.1-.4.26-.54.45h1.65v-.19c-.06-.26-.56-.54-1.1-.26h-.01zM293.75 183.19c.1.52.21 1.04.36 1.55h51.79c.14-.5.26-1.03.36-1.55h-52.51zM328.65 158.45c1.64 1.09 6.83 1.15 9.27 1.64 2.44.48 2.27 2.35 1.52 3.32-.75.98-4.18 1.1-4.8 1.18.32.28.6.6.84.95l1.4-.12a7.5 7.5 0 004.08-1.38 2.52 2.52 0 00.06-3.81c-1.1-1.12-2.9-1.23-4.74-1.44-1.83-.2-3.27-.34-5.33-.68-2.07-.35-3.07-1.18-3.07-2.39 0-1.2 1.12-1.83 1.92-2.06a5.33 5.33 0 013.24-.15 9.8 9.8 0 004.77.2 3.18 3.18 0 002.78-1.86c-.47.14-.95.2-1.44.17-1.14.03-1.98-.48-4.07-.52-2.1-.02-2.84.72-3.82 1.07-.97.34-3.58.6-4.36 2.3-.77 1.7.12 2.5 1.76 3.58h-.01z"/>
        <ellipse cx="315.04" cy="150.64" fill="#e65900" rx=".98" ry=".96"/>
        <path fill="#e65900" d="M336.02 152.28c-1-.04-2 .03-2.99.23.22.16.48.24.75.23.83-.05 1.66 0 2.47.17.75.14 1.52 0 2.18-.37 0 0-1.12-.14-2.41-.26z"/>
        <path fill="#06c" d="M323.74 176.38c-.32-.5-.4-.45-.77-.13-.36.31-.73-.78-.77-1.45.03-.93.12-1.85.27-2.76 0 0-1.76.36-2.71.67-.87.25-1.74.44-2.63.6-.5.19-1.04.28-1.58.27-.64-.1-1.3-.15-1.94-.14-.68 0-.64.14-1.32.81a5.75 5.75 0 00-1.4 2.31c-.5 1.27-.8 2.62-.9 3.98-.08.7-.22 1.4-.44 2.06h8.11l.33-.83a2 2 0 01.98-.9c.32-.16.6-.16.74-.52.22-.39.56-.7.98-.85a3.15 3.15 0 011.85.1c.68.2.91-.27 1.1-.52.2-.26.28-.62.64-1.09a.8.8 0 00.1-.89c-.27-.2-.49-.44-.66-.72h.02zM336.75 176.6c-.1-.47-.06-.53-.34-.6a6.95 6.95 0 01-1.15-.31c-.4-.17-.36.91-.36.91-.68.06-1.36.05-2.04-.02a7.17 7.17 0 01-2.8-1.42c-.36-.3-.67-.66-.93-1.04-.21.19-.44.36-.68.5-.34.2-.54.88-.6 1.56-.06.68.79 1.5.85 2.18a5.67 5.67 0 01-1.15 2.6c-.32.52-.6 1.08-.83 1.65h3.92a2 2 0 01.42-.66c.3-.26.68-.43 1.08-.49.02-.18.07-.36.15-.53.15-.36.55-.78 1.53-1.16.69-.25 1.41-.4 2.14-.45.31-.27.59-.57.81-.91.22-.58.21-1.23-.02-1.8v-.01z"/>
        <g>
            <path fill="#e6b319" d="M304.15 219.77c1.05.12 2.1-.3 2.77-1.12.53-.9 1-1.85 1.41-2.82l.84-1.27c-.12.97-.37 1.91-.75 2.81-.53 1.45-.72 3-.57 4.54.29 1.8 1.46 2.1 2.14 1.85a5.28 5.28 0 002.02-2.18c.22-.38.38-.9.6-1.32.47-.88.88-2.31 1.08-2.27.45.09.16 1.1 0 1.78-.48 1.5-.84 3.02-1.08 4.57-.04 1.22.1 3.4 1.32 3.5 1.21.1 1.85-.97 2.53-3.45.68-2.48.82-3.26 1.11-3.26.3 0 .3 1.7.3 2.43 0 .55.03 1.1.1 1.64.1 1.15.42 2.26.97 3.28.59.58 1.54.58 2.14 0 .58-.54 1.07-4.19 1.07-4.92s0-2.43.29-2.43.43.78 1.12 3.26c.68 2.48 1.3 3.55 2.52 3.45 1.22-.1 1.37-2.28 1.32-3.5-.24-1.55-.6-3.08-1.07-4.57-.34-1.36.14-1.27 1.07.49.29.54.59 1.21.88 1.68.39.76 1 1.4 1.74 1.82.68.24 1.85-.05 2.14-1.85.3-1.8-1.07-6.96-1.07-6.96l.59.88c.4.97.88 1.91 1.4 2.82a3.12 3.12 0 002.78 1.12c.73-.24.83-1.6.3-4.04-.54-2.43-2.73-3.8-4.29-5.74a21.13 21.13 0 01-2.7-5.43c-1.95.91-3.72 2.16-5.23 3.7-3.22 3.35-3.92 4.2-3.92 4.2s-.7-.85-3.91-4.2a18.03 18.03 0 00-5.27-3.71c-.8 1.84-1.79 3.6-2.96 5.23-.72.9-1.71 1.57-2.42 2.44a8.28 8.28 0 00-1.6 3.5c-.52 2.43-.42 3.79.3 4.04l-.01.01z"/>
            <path fill="#e6b319" d="M304.06 228.01c.94-.83 1.43-1.29 1.43-1.29s.68-.57.51.52c-.3 1.4-.4 2.84-.31 4.28.23.97.34 1.8 1.54 1.08a7.48 7.48 0 002.05-1.74c.57-.6 1.17-.85 1.03.09-.34 1.4-.47 2.84-.37 4.28.2 1.91 1.14 2.2 2.37.57.91-1.22 1.7-2.53 2.34-3.91.37-.8 1.11-1.48 1.11 0 0 3.2.73 7.84 4.25 9.07 3.52-1.23 4.25-5.88 4.25-9.07 0-1.48.74-.8 1.11 0 .64 1.38 1.43 2.7 2.34 3.9 1.23 1.64 2.17 1.35 2.37-.56.1-1.44-.03-2.88-.37-4.28-.14-.94.46-.69 1.03-.09.57.7 1.27 1.3 2.05 1.74 1.2.72 1.32-.11 1.54-1.08.1-1.44-.01-2.88-.3-4.28-.18-1.09.5-.52.5-.52s.49.46 1.43 1.29a4 4 0 002.24.88s.6-3.35-.8-5.36-1.9-2.65-1.9-2.65a5.5 5.5 0 01-1.4-.28 5.9 5.9 0 01-1.2-.67v1.86s1.72 1.63 2.12 2.11c.4.48 1.2 1.31.03.51s-2.14-1.6-2.14-1.6-.23 1.69-.72 2.12c-.4.35-.93.49-1.45.37l-.28-.12-.1.66c.5.88.9 1.8 1.2 2.77.15.8-.08.71-.56-.32-.49-1.02-1.43-2.34-1.86-3.05s-1.05-1.2-1-.28c0 1.08-.2 2.16-.62 3.16-.14.29-.31.56-.52.8 0 0 .66 2.31.74 2.74.09.43.03.91-.34.37s-1.43-2.82-1.43-2.82-1.4-.06-1.8-.46a9.4 9.4 0 01-1.02-1.94c-.25.9-.6 1.77-1.05 2.6-.45.5-.98.92-1.57 1.26 0 0-.08 3.41-.16 4.02-.08.6-.1.86-.36.86-.25 0-.28-.26-.36-.86-.08-.6-.16-4.02-.16-4.02a6.37 6.37 0 01-1.57-1.26c-.45-.83-.8-1.7-1.05-2.6a9.36 9.36 0 01-1.02 1.94c-.4.4-1.8.46-1.8.46s-1.06 2.28-1.43 2.82c-.37.54-.43.06-.34-.37s.74-2.74.74-2.74c-.2-.24-.38-.51-.51-.8a8.2 8.2 0 01-.63-3.16c.06-.92-.57-.43-1 .28s-1.37 2.03-1.85 3.05c-.49 1.03-.72 1.12-.57.32.3-.96.7-1.89 1.2-2.77l-.1-.66-.28.12a1.64 1.64 0 01-1.45-.37c-.49-.43-.72-2.12-.72-2.12s-.97.8-2.14 1.6-.37-.03.03-.51c.4-.49 2.11-2.11 2.11-2.11v-1.86c-.37.27-.77.5-1.19.67a5.5 5.5 0 01-1.4.28s-.5.65-1.9 2.65-.8 5.36-.8 5.36c.83-.05 1.6-.35 2.25-.86l-.01-.02zM321.23 250.32c-.44-.5-.85-1.02-1.2-1.58a12.2 12.2 0 01-1.2 1.58 28.7 28.7 0 01-3.01 2.7c.1 1.5.5 2.97 1.2 4.3.76 1.3 1.79 2.42 3 3.3a10.97 10.97 0 003.02-3.3 10.7 10.7 0 001.2-4.3 28.75 28.75 0 01-3.01-2.7z"/>
            <path fill="#e65900" d="M319.57 253.73c.08.65.03 2.28.42 2.28s.34-1.63.42-2.28c.08-.65.11-2.2.11-2.2h-1.06s.04 1.55.12 2.2h-.01z"/>
            <path fill="#e6b319" d="M319.98 100.87c-3.59.11-7.17-.35-10.61-1.36l-2.6.57c4.01 1.5 7.36 2.1 13.21 2.15 5.85-.06 9.2-.64 13.2-2.15l-2.59-.57a33.98 33.98 0 01-10.62 1.36h.01zM333.68 97.73c-.79-.61-1.61-1.18-2.46-1.7-.45-.22-.1-.82-.02-1.07.07-.25 2-.8 3.08-1.07 1.06-.27.9-.5.9-.5s-.63-.72-4.5-1.15c-3.88-.42-10.69-.32-10.69-.32s-6.8-.1-10.68.32c-3.87.43-4.5 1.15-4.5 1.15s-.17.23.9.5 3 .82 3.08 1.07c.07.25.42.85-.02 1.07-.85.52-1.68 1.09-2.46 1.7-.3.25-.33.64.14.67a5.7 5.7 0 001.82-.25 64.8 64.8 0 0123.45 0c.59.18 1.2.26 1.81.25.47-.03.45-.42.15-.67z"/>
            <path fill="#e6b319" d="M329.27 99.37a54.88 54.88 0 00-9.27-.61c-3.1-.01-6.2.2-9.27.61 1.67.67 4.38 1.01 9.27 1.01s7.6-.34 9.27-1zM319.18 62.89l2.03-.17-.19-1.77 2.18.3.09-1.75-2.29.21.4-1.89-2.52-.02.44 1.91-2.22-.2v1.74l2.2-.25zM323.61 65.76h-2.73v-2.32a4.02 4.02 0 00-1.51-.02v2.34h-2.82c-.14.43-.18.88-.12 1.33h7.3a2.9 2.9 0 00-.14-1.33h.02z"/>
            <path fill="#06c" d="M320.08 70.03c1.52.04 2.9-.87 3.48-2.27h-6.97a3.67 3.67 0 003.5 2.27h-.01zM321.58 63.65v1.6h1.8a3.5 3.5 0 00-1.8-1.6zM318.57 63.65c-.77.3-1.41.87-1.8 1.6h1.8v-1.6z"/>
            <path fill="#e65900" d="M322.17 93.31c-.69-.32-2.19-.96-2.19-.96l-2.2 1.09c-.77.39-.67.27-.91.84s.02.76.36.91c.34.15 2.79 1.4 2.79 1.4l3.01-1.4c.6-.27.48-.55.32-.98-.16-.42-.5-.57-1.17-.9h-.01z"/>
            <path fill="#e6b319" d="M317.64 94.03l2.4 1.22 2.37-1.22-2.43-1.14zM319.98 84.65c-.1.42-.26.83-.47 1.2-.3.3-.44.7-.4 1.12a.88.88 0 001.74 0c.04-.41-.1-.82-.4-1.12a4.7 4.7 0 01-.47-1.2z"/>
            <circle cx="320" cy="88.56" r=".45" fill="#e6b319"/>
            <path fill="#e6b319" d="M318.39 86.24c.4-.44.76-.91 1.07-1.42.29-.54.52-1.03.52-1.03s.24.49.53 1.03c.3.5.67.98 1.06 1.42a4.4 4.4 0 001.73-2.68c.64-2.11-.14-4.33-.43-6.73s-.52-6.52-.52-6.52c-1.45.92-3.3.92-4.74 0 0 0-.23 4.13-.52 6.52-.29 2.4-1.07 4.62-.43 6.73a4.43 4.43 0 001.73 2.68z"/>
            <ellipse cx="319.98" cy="81.51" fill="#e65900" rx="1.89" ry="1.83"/>
            <ellipse cx="319.98" cy="77.22" fill="#e65900" rx="1.82" ry="1.76"/>
            <ellipse cx="319.98" cy="73.12" fill="#e65900" rx="1.74" ry="1.68"/>
            <ellipse cx="319.98" cy="81.18" fill="#e6b319" rx="1" ry=".97"/>
            <ellipse cx="319.98" cy="76.9" fill="#e6b319" rx=".97" ry=".93"/>
            <ellipse cx="319.98" cy="72.82" fill="#e6b319" rx=".85" ry=".82"/>
            <path fill="#e65900" d="M319.93 224.04c.12.02.14-.28.16-.84.03-.9.11-1.8.23-2.68.14-.8-.2-.75-.41-.7-.21.05-.33.65-.33 1s.1 2.34.1 2.76.13.44.25.46z"/>
        </g>
        <g>
            <path fill="#e6b319" d="M300.28 239.41c.84-.53 1.57-1.13 3.48-2.4a7.86 7.86 0 002.6-2.66h-.67c-.36 0-.67-.51-.7-1.02-.02-.92.03-1.84.14-2.75.08-.74.02-1.49-.2-2.2-.62.55-1.3 1.02-2.04 1.4-1.24.65-1.74.34-1.74.34l-.31-1.23s-.53 1.12-1.29 2.44c-.76 1.33-2.8 2.79-4.26 3.89a19.2 19.2 0 01-4.27 2.67c-1.2.42-.5.99-.5.99a8.49 8.49 0 004.32 1.77c1.9.43 3.9-.03 5.44-1.24z"/>
            <path fill="#e6b319" d="M311.17 238.2a1.92 1.92 0 01-2-1.74c-.05-1.27-.03-2.54.07-3.8-.29.25-.55.52-.8.81-.37.35-.85.56-1.37.62-.14.39-.33.75-.56 1.1a6.19 6.19 0 01-2.02 2.17 33.62 33.62 0 00-3.11 2.13c-.88.78-1.83 1.46-2.83 2.06a4.66 4.66 0 00-2.39 3.12c-.36 1.58-.08 2.08 1.15 2 1.14 0 2.27-.16 3.37-.48 1.99-.5 4.82-2.73 6.9-4.05a13.2 13.2 0 003.59-3.94z"/>
            <path fill="#e6b319" d="M316.69 240.02a7.05 7.05 0 01-1.15-2.28l-.9-3.6s-.28.76-.95 2.2c-.34.8-1 1.45-1.82 1.77a4.19 4.19 0 01-1.01 1.83 14.03 14.03 0 01-3.8 3.18c-1.63.84-3.1 2.01-4.28 3.43-1.01 1.43-1.1 2.92-.62 3.57.48.65 1.15-.09 2.1-.56s3.68-.9 7.44-2.93c3.76-2.02 4.99-6.61 4.99-6.61z"/>
            <path fill="#e6b319" d="M318.32 248.44c1.04-1.55 1.2-5.31 1.2-5.31s-.36-.26-.86-.68c-.55-.6-1.05-1.23-1.49-1.91 0 0-.62 1.29-1.29 2.5a9.4 9.4 0 01-2.41 2.93c-1.4 1.29-3.31 2.56-4.13 3.93-.8 1.38-.36 4.14.17 5.07.54.93 1.3.62 2.08-.14s1.04-.96 2.41-2.14a24.74 24.74 0 004.32-4.25z"/>
            <path fill="#e65900" d="M305.98 216.89c.49-1.1 1.05-2.17 1.68-3.19.33-.47.62-.97.86-1.49a13.3 13.3 0 00-1.87 2.09c-.5.82-.87 1.7-1.1 2.64-.24.93-.12 1.08.43-.05zM311.31 217.85c.22-.74.34-1.24.34-1.24s.21-.72.1-.77c-.13-.05-.68.45-1.06 1.67-.38 1-.66 2.03-.84 3.07.62-.83 1.11-1.75 1.46-2.73zM315.51 221.23c.09-.18.17-.36.24-.55.18-.55.32-1.11.43-1.68 0-.29-.14-.62-.5.1-.24.54-.4 1.13-.46 1.72-.07.31-.48 1.4-.36 1.5.12.09.41-.56.65-1.09zM302.47 234.03l-.56-.34c-.26.33-.53.65-.81.96-.48.5-1.02.7-1.38 1.18a5.3 5.3 0 01-1.8 1.52c-.86.45-1.2.6-1.03.73.17.14.75-.2.75-.2a10.13 10.13 0 003.25-2.2c.56-.51 1.09-1.07 1.58-1.65zM307.02 239.41c.4-.42.81-.7.59-.93-.23-.22-.5-.2-.87.11s-1.4 1.3-1.88 1.72c-.48.42-.87.68-1.35 1.04-.65.44-1.32.84-2.02 1.2-.5.3-.02.32-.02.32.26-.13.53-.24.81-.34.42-.14 1.63-.67 1.63-.67.39-.2.76-.43 1.12-.68.71-.53 1.38-1.13 1.99-1.77zM312.26 243.04c.34-.67-.03-.48-.59-.25-.56.22-1.82 1.6-2.55 2.1-.63.4-1.28.74-1.96 1.02-.62.31-.62.48-.6.62.04.14.29.14.54.03.25-.12 1.12-.62 1.12-.62.23-.07.47-.12.7-.14.34-.03.82-.4 1.58-1.04.75-.65 1.42-1.04 1.76-1.72zM314.7 247.85a9.71 9.71 0 00-2.94 2.67c-.43.85-.7 1.44-.57 1.58.14.14.6-.14.79-.48.19-.3.4-.58.62-.84.68-.7 1.41-1.34 2.18-1.94a5.55 5.55 0 001.77-2.03c.14-.3.16-.64.06-.96a8.4 8.4 0 01-1.91 2z"/>
            <path fill="red" d="M289.99 113.28a14.87 14.87 0 00-5.56-1.68c-2.13-.16-4.27.08-6.31.7-1.22.4-2.52.44-3.77.14a5.23 5.23 0 01-3.54-3.95 3.6 3.6 0 00.03 4.29 4.8 4.8 0 002.86 1.95c3.4.68 6.73-1.4 9.56-1.57 1.75-.05 3.46.5 4.86 1.54.46.33 1.08.33 1.55.01.9-.53 1.17-.93.32-1.43z"/>
            <path fill="#e6b319" d="M280.2 211.66s-.33-.03-.8-.1c-.6-.13-1.2-.3-1.77-.54a.93.93 0 00-1.07.17c-.88.64-1.8 1.24-2.75 1.78h4.05a3.25 3.25 0 002.34-1.31z"/>
            <path fill="#e6b319" d="M291.59 210.97v-.4l-.54-1.16c-.45.3-.87.64-1.24 1.02-.71.79-1.39 1.6-2.02 2.46-.67.86-1.61 1.68-.8.3.8-1.38 1.07-1.98 1.72-2.9.64-.91 1.13-1.32 1.05-1.37-.75-.18-1.52-.3-2.3-.35a8.54 8.54 0 01-3.52-1.33c-.78-.46-2.18-1.21-2.18-1.21s-2.88 1.21-3.96 1.48-1.73.43-.68.95c1.05.51 1.94.67 2.45 1 .96.48 2 .77 3.08.83.96 0 2.6.03 1.96.7a11.6 11.6 0 00-2.07 3.95 13.5 13.5 0 00-.73 4.6c0 .57.04 1.15.1 1.72a22.24 22.24 0 014.37-3.32 56.11 56.11 0 014.96-2.94c.59-.27.89-.27.78-1.03-.1-.76-.43-2.62-.43-3z"/>
            <path fill="#e6b319" d="M303.73 201.31l-.59-.27a.7.7 0 00-.15.05c-1.2.7-2.25 1.65-3.1 2.77-.77 1.26-1.56 1.38-.7 0a11.94 11.94 0 012.84-3.33c-1.7-.8-3.34-1.75-4.9-2.8-.28.59-.64 1.15-1.07 1.65-.65.55-1.38 1-2.17 1.3a9.96 9.96 0 001.6-2.16c.23-.52.4-1.06.53-1.62a21.1 21.1 0 01-3.21-3.06 11.85 11.85 0 01-2.76 4.9c-2.5 2.8-7.5 4.22-7.5 4.22s-1.74.19-.33.56c1.64.68 3.45.86 5.19.52 1.12-.14 2.23-.38 3.32-.7.37-.12 1.38-.04 0 .48-1.89.6-3.85.9-5.82.9-1.23-.12-2.91-.38-1.16.55s2.5 1.3 3.58 1.3 1.53.35 2.58.35c.7-.02 1.4-.13 2.08-.34.75-.15 1.23.11 1.23.4a5.87 5.87 0 00-.96 3.18c-.03 1.34.1 2.68.37 3.99.25.73.57 1.44.93 2.13.3.55.41 1.11.7-.08.3-1.2.98-2.9 1.24-4.06.26-1.16.4-1.2.52-1.8.11-.6.75-1.04.45.04s-.64 2.46-.86 3.43c-.22.97-.74 2.76.15 1.35.9-1.42 4.25-5.19 4.8-5.86s1.02-1.3 1.43-1.86c.4-.56 1.56-1.3 2.12-2.13.78-.98 1.66-1.89 2.63-2.7-.95-.4-1.95-.83-3.01-1.3zM257.37 115.23c.09 2.06 2.36 5.99 3.66 8.09 1.3 2.1 1.65 2.94 1.43 3.08-.23.13-.76-.94-1.48-1.88-.71-.93-2.1-3.12-3.25-4.78a61.23 61.23 0 01-3.08-5.94c-.22-.36-.31-.58-.9-.13-.57.44-1.69 4.78-.35 7.73a26.15 26.15 0 004.2 6.12c.84 1.02 1.96 2.63 1.78 2.77-.18.13-.5-.27-1.52-1.34s-2.72-2.9-3.84-4.25a31.7 31.7 0 01-2.56-4.09c-.16-.3-.37-.21-.53-.06-.36.37-.95 1.23-.7 3.57.36 3.26 2.06 5.14 3.57 6.8 1.52 1.65 3.03 3.03 2.81 3.25s-1.78-1.16-2.85-2.19a95.39 95.39 0 01-4.28-4.28c-.59-.72-1.43-.36-1.39 2.45s3.17 5.68 4.46 7.24c1.3 1.56 2.9 2.5 2.77 2.81-.13.32-1.43-.49-2.28-1.07-.84-.58-4.01-2.63-4.63-3.08-.63-.45-.94.4-.14 3.08a12.18 12.18 0 004.5 5.8c1.39.99 3.62 2.2 3.49 2.51-.14.31-1.07-.09-2.37-.72a26.26 26.26 0 00-3.97-1.51c-1.11-.32-1.11.49-1.11.49a5.81 5.81 0 001.42 4.1 8.86 8.86 0 005.31 2.86c1.79.32 2.05.4 2 .68-.04.26-.21.3-.62.3s-2.05.19-3.56.19-2.32.35-2.32 1.02-.05 1.57 2.23 3.09c1.8 1.06 3.8 1.73 5.88 1.96 1.07.23 1.12.32.9.63-.23.31-.72.27-2.41.45-1.7.17-2.72.84-2.95 1.29-.22.45.14 1.79 1.52 2.73 1.38.93 3.17 1.25 5.84 1.07 2.68-.18 3.35-.23 3.44.22.09.45-.8.58-2.14.8-1.34.23-2.37.23-3.12.86-.76.62-.18 1.92 1.11 2.85s4.5.94 5.84.85 3.4-.58 3.53-.22-.98.9-2.36 1.38c-1.39.5-1.8.8-2.06 1.39-.27.58-.04 1.12 1.6 1.74a8 8 0 005.32.05c1.25-.58 1.91-.8 2.14-.58.22.22 0 .44-.27.76a6.15 6.15 0 01-2.72 1.51c-1.38.36-1.52.36-2 1.48-.5 1.12.75 2.01 3.25 2.1 2.38 0 4.74-.52 6.91-1.52 1.07-.63 1.47-.76 1.65-.54.18.23.14.36-.4.76-.94.75-1.98 1.36-3.08 1.84-.84.22-.93.84-.93 1.42s-.23 1.75 2 2.28a8.96 8.96 0 007.27-1.56 5.5 5.5 0 001.48-1.39c-.19-1.76-.13-3.55.19-5.3a8.81 8.81 0 01-2.3-.55 4.3 4.3 0 01-2.18-2.46c-.31-.67-.76-.67-1.3-.49-.57.25-1.2.37-1.82.36a5.26 5.26 0 01-3.52-1.83 4.73 4.73 0 01-.99-3.4c-.04-.67-1.11-.17-1.65-.17a6.95 6.95 0 01-3.52-1.21 3.82 3.82 0 01-1.56-2.86c-.2-.51-.63-.9-1.16-1.07a6.38 6.38 0 01-2.14-1.16 4.76 4.76 0 01-1.39-2.9c-.04-.54-.62-.59-2.63-1.61s-1.83-3.18-1.74-4.03c.1-.85 1.03-1.56 1.03-1.87 0-.32-.67-.4-1.34-.8a3.8 3.8 0 01-2.4-3.58c-.05-2.5 1.6-2.77 1.6-2.77a9.65 9.65 0 01-.98-.54c-.67-.4-2.5-1.65-2.5-3.12a2.83 2.83 0 011.16-2.5c.58-.32 1.2-.56 1.83-.72-.58-.42-1-1.01-1.2-1.7a3.86 3.86 0 01.35-3.62 3.77 3.77 0 013.03-1.02c.76 0 1.43.4 1.7.18.27-.23.31-.4.04-.99-.27-.8-.3-1.67-.09-2.5a2.79 2.79 0 012.19-2.1c1.92-.62 3.92.67 4.55 1.03s.36-.5.36-1.12c0-.62-1.3-2.19-2.77-4.42a48.74 48.74 0 01-3.8-6.8 43.78 43.78 0 01-2.94-8.88c-.22-1.12-.66-.58-.66-.58s-.45.18-1.48 2.77a16.66 16.66 0 00-1.11 7.01z"/>
            <path fill="#e6b319" d="M291.02 160.92a5.02 5.02 0 01-3.8-2.36c-1.14-1.67-2.86-2.07-5.85-2.01a4.75 4.75 0 01-5.12-3.46c-.74-2.07.12-4.43 3.16-5.92s4.43-3.17 4.54-5.76c.12-2.59-3.04-5.81-6.2-9.44a45.9 45.9 0 01-5.63-8.74c-.53.7-.85 1.54-.92 2.41 0 1.21.46 2.48 0 2.82-.46.35-.63-.51-2.47-1.32-1.84-.8-3.34-.92-4.49.4s0 3.63 1.04 4.72c1.03 1.1 1.9 1.9 1.6 2.3s-1.83-.63-2.35-.97-1.72-1.67-3.5-1.5-2.42.69-2.59 2.19c-.17 1.5 1.61 2.81 2.76 3.4 1.15.57 1.6 1.08 1.32 1.31-.29.23-.57 0-1.1-.17a5.35 5.35 0 00-2.86 0c-.92.35-2.42 1.61-1.04 3.17 1.38 1.55 4.25 2.13 4.83 2.24.57.12.86-.06.92.4.05.46-1.21.46-2.76.52s-2.01 1.56-1.78 2.7 2.81 2.42 4.25 2.65c1.44.23 1.95 0 2.07.4.11.4-.17.58-.98.81-.8.23-2.35.4-2.64 1.67-.47 1.06-.1 2.3.86 2.94a4.72 4.72 0 003.73.8c.58-.11 1.27-.75 1.84-.17.58.57-.51 1.03-1.5 1.73-.97.69-.91 2.01.76 2.93 1.23.66 2.69.79 4.02.35.69-.23 1.6-1.33 2.07-.64.46.7-1.44.92-2.25 1.9-.8.98-.51 2.6 1.1 3.57 1.5.69 3.24.65 4.7-.12.47-.4 1.04-.57 1.39-.22.34.34-.17 1.26-.52 2.07-.34.8-.98 3.16 1.44 4.08 2.41.92 4.6-1.15 5-1.55a.95.95 0 011.14-.29c.35.17.18.52-.11.92a2.44 2.44 0 00.8 3.34c.93.62 2.06.85 3.16.64.36-1.35.83-2.79 1.3-4.8H290c-.23 0-.27.34-.27.48s.07.25-.14.25c-.2 0-.23.12-.53.33-.3.2-.58.46-.74.34-.16-.11.62-.53.83-.78.2-.26.62-.65.65-.92.02-.28.16-.44.57-.78.12-.1.23-.23.31-.36.28-1.35.55-2.92.8-4.82.16-1.29.26-2.5.3-3.64l-.76-.04zM241.91 125.05a26.16 26.16 0 006.2 8.12s-.48-1.3-.7-2.18a5.62 5.62 0 01-.04-1.9s-.91-1.16-2.6-3.75a23.9 23.9 0 01-2.56-6.42c.81 2 1.74 3.96 2.78 5.86a31.4 31.4 0 002.61 3.69s.5-1.8.84-1.9c.35-.08.61.2.91.6.3.39.57.35.57.35s-.42-.85-1.06-1.88c-.29-.47-.71-.97-1-1.45a39.52 39.52 0 01-4.09-7.25c-1.05-2.88-3.37-10.09-3.77-12.2-.4-2.12-.8-.96-1.21.6-.66 2.3-.87 4.72-.6 7.1a35.7 35.7 0 003.72 12.61zM245.23 139.07c.96.7 2.37 1.66 2.37 1.66a7.41 7.41 0 01-.57-3.05l-1.9-1.68a27.83 27.83 0 01-3.73-3.98c-1.95-2.42-.38-.97 1.2.76a60.22 60.22 0 004.63 4.25l.02-.56c.01-.47.17-.91.46-1.27.29-.36.14-.41-1.57-1.72a49.3 49.3 0 01-7.96-9.28c-1.81-2.98-3.77-7.01-3.77-7.01-.42 4.34.5 8.7 2.66 12.5 3.63 6.56 7.2 8.67 8.16 9.38zM264.25 176.6a2.3 2.3 0 001.44-2.76c0-.03-1.22.39-2.34.8a23.8 23.8 0 01-4.96 1.25c-1.09.03-1.09-.12-1.12-.29-.04-.15.83 0 2.4-.28 1.69-.47 3.3-1.16 4.8-2.06.48-.32.42-.38-.28-.45a3.02 3.02 0 01-1.57-.6c-.26-.23-1 .1-2.79.5a43.2 43.2 0 01-8.36 1.07c-2-.02-4-.2-5.96-.58-.45-.1-.93.16.45 2.47 1.38 2.31 6.21 3.56 9.58 3.53 3.36-.03 6.72-1.83 8.71-2.6zM255.31 171.83c3.47.03 4.76-1 4.76-1s0-.18-.47-.88c-.3-.6-.43-1.26-.38-1.92 0 0-.82.15-2.26.36-1.64.3-3.32.32-4.97.08-1.86-.32-1.06-.53.4-.35a16.2 16.2 0 005.21-.68c.92-.32.53-.62-.08-.82a18.5 18.5 0 01-2.3-1.27c-2.7.3-5.41.34-8.11.09a47 47 0 01-7.18-1.56c-.8-.12-.76.2-.76.2s-.21.36 1.14 2.48a11.22 11.22 0 006.24 4.15c2.86.76 5.8 1.13 8.76 1.12zM254.42 163.7a3.5 3.5 0 01-.35-.91c-.1-.45.04-.93.38-1.24a25.92 25.92 0 00-3.38-.56c-1.47-.18-2.91-.47-4.33-.88-1.58-.36-2.64-.83-2.61-1s.53.08 1.47.44c2.17.44 4.37.78 6.58 1 1.68.23 2.62.41 2.92.23.42-.18.87-.33 1.32-.44-.52-.14-1.06-.26-1.59-.35a5.6 5.6 0 01-2.15-.86c-.47-.32-.61-.41-2.73-.64-2.12-.24-3.82-.92-7.62-2.3-2.61-.9-5.1-2.12-7.4-3.65-.77-.62-.71-.18-.5.62a7.33 7.33 0 002.08 4.03c1.91 2.24 2.85 3.21 7.67 4.98 3.3 1.1 6.77 1.61 10.24 1.53zM240.16 151.95a27.03 27.03 0 0010.32 4.24c.24-.28-.26-1.28-.03-1.88.28-.73.74-.74 1.77-.8 1.03-.06.35-.27.11-.27-.68-.09-1.35-.24-2-.47-1.96-.4-3.9-.93-5.79-1.59-2.35-.88-3.06-1.53-3-1.7.06-.18 1.09.56 3.27 1.38 1.98.64 4.02 1.13 6.08 1.44 1.39.3.18-.3-.47-.68a7.6 7.6 0 01-1.56-1.8c-1.36-.26-2.7-.6-4.02-1.02a32.52 32.52 0 01-6.68-2.8c-.74-.45-1.46-.94-2.16-1.47-1.43-1.02-2.87-2.07-3.43-2.48-.85-.61-.58-.11-.5.27a14.27 14.27 0 002.03 4.1c1.36 1.94 1.8 2.53 6.06 5.53zM239.46 143.5a28.13 28.13 0 008.44 4.62c.62.27.56-.08.44-.44-.1-.5-.17-1-.2-1.5 0 0-1.5-.85-3.18-1.83-1.68-.97-3.53-2.3-4.77-3.15-1.23-.85-.5-.8-.11-.47.38.33 2.08 1.33 3.79 2.39 1.7 1.06 4.3 2.59 4.3 2.59.03-.34.18-.66.4-.91.36-.36 1.24-.27 1.24-.27-.26-.26-.5-.55-.7-.85-.27-.42-1.65-.86-3.21-1.6a38.48 38.48 0 01-6.41-4.53 83.88 83.88 0 01-6.33-6.45c-.26-.35-.44-.3-.47.15-.1.92-.01 1.85.27 2.74a18.43 18.43 0 006.5 9.51zM254.34 112.03c.48.99 1 1.74 1.37 2.38.57.98.9 1.6.9 1.6.07-.3.08-.61.02-.92a7.34 7.34 0 01-.03-2.36c.11-.5.17-1 .17-1.5a6.56 6.56 0 00-.28-1.27c-.13-.56-.74-3.02-1.03-4.75a38.8 38.8 0 01-.59-6.39c.03-2.18.34-1.08.34-.02.04 1.73.2 3.46.45 5.17.35 2.13.82 4.23 1.4 6.3.07-.48.2-.96.38-1.41.31-.84.83-1.78 1.23-2.82.4-1.03.26-1.2.26-1.2s-1.47-7.07-1.86-10.41c-.39-3.34-1.01-12.12-1.01-12.12-2.16 2.18-3.77 7.9-4.05 13.3-.09 3.14.12 6.28.63 9.38.2 2.42.78 4.8 1.7 7.04zM249.55 123.18c.07-1.6.44-2.81 1.47-3.17a25.92 25.92 0 01-2.94-8.98c-.56-3.8-1.02-7.7.11-1.3 1.13 6.38 2.49 8.64 2.49 8.64l1.63 2.66c-.22-1.07-.3-2.17-.21-3.26.05-1.47.25-2.94.6-4.37a50.38 50.38 0 01-3.2-8.7 54.61 54.61 0 01-1.98-11.65l-.17-3.45s-2.03 1.53-2.71 9.27c-.41 6.1.4 12.2 2.37 17.98 1.02 2.82 2.54 6.33 2.54 6.33zM271.71 182.24s-.32-.22-1.28-.83-.67-2.44-.67-2.44-.26.19-.97.67c-.76.56-1.59 1.04-2.46 1.41-.96.39-1.44.65-2.05.84-.61.19-.45-.07.06-.36.62-.38 1.28-.7 1.96-.96 1.38-.78 2.66-1.7 3.84-2.76 0 0-.6-.06-1.67-.1a8.56 8.56 0 01-2.4-.57s-1.05.96-5.32 2.79a33.34 33.34 0 01-7.88 2.3 4.2 4.2 0 002.5 2.93c1.7.74 4.04 1.19 8.62.1 2.7-.63 5.3-1.65 7.72-3.02zM277.32 186.61a3.9 3.9 0 00-.67-3.05c-.31.21-.6.45-.87.7a12.98 12.98 0 01-3.36 2.57c-1.8.9-2.44.84-.7-.1a24.35 24.35 0 004.25-3.56l-.67-.25c-.67-.26-1.82.19-6.63 3.08-4.8 2.88-7.62 2.98-7.62 2.98s2.14 2.6 7.97 2.4c5.83-.18 7.95-2.98 8.3-4.77zM288.34 184.52a6.73 6.73 0 01-1.5 1.48c-1.01.46-2.08.77-3.18.93-.14.3-.32.58-.54.83-.7 1-1.53 1.9-2.47 2.7-1.02.73-2.63 1.21-2.72 1.02s.93-.58 1.92-1.19c.97-.7 1.83-1.55 2.56-2.5.68-.77-.28-.64-.28-.64s-1.22.03-2.34-.06c-1.12-.1-.9 0-1.22.54-.48.7-1.01 1.37-1.6 2-1.02 1.17-1.98 2.23-2.95 3.39-.64.77-.16 1-.16 1s.29.48 2.88.77c1.8.22 3.61-.16 5.17-1.08 1.3-.82 2.48-1.83 3.48-3 3.11-3.4 2.95-6.19 2.95-6.19zM289.72 191.54c-.3.41-.64.81-1 1.19.23-.7.5-1.37.84-2.02.2-.35.43-.67.6-.9-.45-1-.8-2.05-1.05-3.12a26.29 26.29 0 01-2.27 5.4c-1.35 2.14-2.53 2.92-1.77 3.5.77.57 2.28.7 3.98-.14a4.37 4.37 0 002.34-3.34c-.28-.45-.55-.91-.8-1.4-.34.22-.63.5-.87.83z"/>
            <ellipse cx="289.34" cy="105.75" fill="#e6b319" rx="1.19" ry="1.09"/>
            <path fill="#e6b319" d="M286.83 103.69c1.09-.03 1.67-.54 2.87-.43 2 .4 3.93 1.15 5.67 2.2a9.7 9.7 0 006.55.58 9.33 9.33 0 001.91-.9 4.54 4.54 0 002.15-4.77 11.12 11.12 0 01-7.09 2.16c.21.17.41.36.6.55.41.42 1.16.9.91 1.1-.25.21-1.28-.78-2.15-1.42a12.91 12.91 0 00-4.34-2.15c-2.2-.65-4.66-.7-6.3.22-1.66.92-1.8 2.07-1.56 2.53.17.25.48.38.78.33zM317.64 126.8a5.02 5.02 0 01-2.51-1.33c-1.5-1.45-2.91-3-4.21-4.63-.32-.55-.19-1.06.6-1.38.55-.3 1.01-.77 1.32-1.33-1-.38-1.95-.88-2.84-1.47a29.5 29.5 0 01-4.16-3.8c-.36-.6-.18-.7.37-.88.3-.07.55-.27.69-.55 0 0-1.24-.78-2.38-1.7-1.15-.9-2.7-2.42-2.7-2.42-1.71.68-4.4.4-5.85.13a15.54 15.54 0 01-4.44-1.5c-.1.4-.24.8-.4 1.18a1.77 1.77 0 01-2.7.46 2.65 2.65 0 01-.92-2.47c-.94-.53-1.92-.98-2.93-1.33a6.35 6.35 0 00-5.16-.1c-1.6.74-2.38 2.94-2.38 4.6 0 1.64.87.95 1.05.72a3.1 3.1 0 012.56-1.74c2.01-.32 3.84.64 6.13 2.52 1.37 1 2.68 2.07 3.93 3.21 1.14 1.2.23 1.84-1.74 2.48s-4.48-.64-4.57-.6c-.38.2.85 1.94 2.54 2.6a8 8 0 005.55-.44c1.15-.46 1.36.01 1.7.37a9.7 9.7 0 012.65 6 2.7 2.7 0 001.73-2.01c.07-.38.19-1.2.83-.6.64.6 1.14 3.9 1.14 5.41a19.6 19.6 0 01-.46 3.54l.46-.05c.55-.2 1.07-.46 1.56-.78.73-.41.77.05.77.87.16 1.8.62 3.55 1.37 5.18a7.41 7.41 0 002.7 3.72c.28-.53.5-1.08.64-1.65.39-1.69.57-3.41.55-5.14 0-1.88-.5-5.92-.5-5.92s2.29 2.8 4.66 3.5c2.38.68 4.76.27 5.77-.88 1-1.15.08-1.65-.42-1.79zM302 134.04c-.33.74-.7 1.47-1.12 2.17-.14.25-.33.47-.56.65a5.6 5.6 0 001.77.94c1.05.33 1.99.53 1.99.53a10.63 10.63 0 01-2.08-4.29z"/>
            <path fill="#e6b319" d="M316.28 133.1c-.35-.9-.57-1.4-.57-1.4a9.99 9.99 0 01-5.43-1.12 10.05 10.05 0 002.2 3c.38.3.8.58 1.24.81 0 0-1.1.18-2.56-1.27a10.1 10.1 0 01-2.12-3.1c.17 2.07.09 4.16-.27 6.2-.59 2.37-.72 2.68-.72 2.68 2.2.3 4.43.16 6.57-.42 3.45-.96 3.72-1.27 3.72-1.27s.41-.1-.13-.83a18.68 18.68 0 01-1.93-3.28z"/>
            <path fill="#e65900" d="M310 124.64a7.73 7.73 0 01-1.17-1.52.73.73 0 00-.05.9c.8.98 1.78 1.8 2.87 2.45a7.4 7.4 0 002.07.78l-.05-.22c-1.35-.59-2.59-1.4-3.67-2.39zM305.78 132.67s-.27-4.84-.27-5.56-.45-.53-.45-.53l-.53.24 1.04 7.08c.11.76.49.7.68.66-.38-.2-.45-1.67-.47-1.89zM299.25 111.72c-.4-.4-1.28-.69-.43.26.94.9 1.72 1.96 2.3 3.13.34.99.53 2.2-.03 1.94a5.18 5.18 0 01-1.54-.75 9.85 9.85 0 00-2.18-1.45c-.46-.13-1.28 0-.62.72.8.87 1.67 1.66 2.63 2.34 1.25.92 1.98 1.31 2.64 1.77.65.47 1.31.86 1.31.86s-.6-3.95-1.68-5.7a17.52 17.52 0 00-2.4-3.12zM277.91 177.87c-.56.4-1.19.69-1.85.86 0 0-.5-.03-.5.16s.58 0 1.19-.1c.63-.21 1.22-.53 1.74-.95.3-.22.75-.5.6-.88-.13-.4-.38.3-1.18.91zM284.8 181.56c-.17.2-1.5 1.19-1.5 1.19-.26.18-.55.32-.85.44a.95.95 0 00-.55.42s.08.1.55-.03c.82-.4 1.6-.9 2.3-1.5.44-.38.63-.5.46-.66-.16-.16-.24-.05-.41.14zM256.87 131.93c.25.3.55.71.69.58.14-.14-.03-.28-.36-.66-.33-.39-.52-.58-.52-.58-.22-.36-.47-.7-.75-1.02-.27-.28-.68-.42-.16.22.52.63.85 1.16 1.1 1.46zM254.75 136.58c.3.28.58.52.9.88s.58.74.78.55c.19-.2-.5-.6-.8-.99a5 5 0 00-1.79-1.49c.28.37.59.72.91 1.05zM255.54 144.09c.53.55 1.3.72 1.41.5.11-.22-.06-.4-.5-.62a15.9 15.9 0 01-1.5-.94 7.61 7.61 0 01-.97-.77c-.25-.25-.54-.47-.63-.38-.1.08.72.96.97 1.1.45.32.86.7 1.22 1.11zM257.06 150.1c0-.22.05-.33-.39-.36-.44-.03-1.05-.1-1.05-.1s-.86-.34-.91-.18c-.06.17.72.5 1.05.56.32.05.64.14.94.27.2.11.36.03.36-.19zM257.72 156.63c-.94 0-1.74-.22-1.8-.08s.44.36.92.52c.64.16 1.3.25 1.96.25.6.03.72-.1.7-.41-.04-.3-.84-.28-1.78-.28zM265.08 163.78c-.14-.14-.47-.03-1 .08-.61.15-1.24.24-1.88.25a84.2 84.2 0 00-1.57-.05l-.61.14c0 .14.8.1 1.96.24.84.08 1.68.01 2.5-.19.54-.08.74-.33.6-.47zM268.12 168.87c-.46.19-.95.28-1.44.28-.5.03-1 .1-1.5.19 0 0-.49.06-.4.25.08.2.24 0 .68-.06.45-.05.78 0 1.55-.02a9.01 9.01 0 001.69-.3c.47-.1 1-.34.75-.65-.25-.3-.75.09-1.33.31zM274.04 172.72a18.6 18.6 0 01-2.35 1.63c-.5.25-.47.36-.39.5s.39-.2.66-.3a10.9 10.9 0 001.66-1.1c.47-.4 1.08-.7.97-.98-.1-.28-.22-.08-.55.25zM264.19 122.87c.33.54.71 1.05 1.13 1.53 1.02 1.28.48.07.22-.25-.26-.33-1.75-2.45-2.26-3.03-.51-.59-.58-.3-.33.07.26.37 1.24 1.68 1.24 1.68zM262.04 129.43c.15-.15-.18-.3-.77-1.02l-1.75-2.23s-.33-.69-.43-.62c.13.62.43 1.2.87 1.65.48.47 1.1 1.38 1.42 1.78s.51.59.66.44zM264.87 141.73c0-.36-1.16-.3-1.68-.41l-1.46-.3s-1.1-.2-1.12-.06c-.03.14.22.27.82.39.6.1 1.52.38 2.2.49s1.24.25 1.24-.11zM262.04 135.09c.52.43 1.08.81 1.68 1.13.4.22.73.55.95.3.22-.26-.19-.45-.84-.74a5.15 5.15 0 01-.99-.54l-.7-.37c-.32-.18-.87-.4-.1.22zM268.64 130.71a6.03 6.03 0 00-.88-.62s-.58-.55-.69-.37c-.1.19.66.73 1.02 1.06.37.33 1.02 1.28 1.35 1.1.33-.19-.33-.77-.8-1.17zM264.33 147.85s-.64.16-1.05.28-.44.3.3.3a8.1 8.1 0 001.8-.33c.75-.14 1-.22.89-.47-.11-.25-.5-.17-.8-.08l-1.14.3zM265.49 154.06c-.06.14.52 0 .91-.14s1.2-.55 1.66-.69c.47-.14.47-.22.47-.5 0-.27-.5-.05-1.1.14-.5.2-.97.47-1.39.8 0 0-.5.25-.55.39zM273.48 157.82c.55-.33.67-.58.47-.75-.2-.16-.36-.14-.8.22-.44.36-1.3.97-1.3.97s-.44.17-.77.34-.75.44-.64.6c.1.17.8 0 1.16-.3.6-.4 1.24-.75 1.88-1.08zM277.25 162.81c.22-.2.88-.41 1.19-.64.3-.22.5-.88.25-.97s-.39.28-.91.67c-.53.39-2.33 1.58-2.33 1.58l-.47.19c-.5.2-.27.33.14.28.44-.01.85-.17 1.19-.45.5-.38.72-.47.94-.66zM282.83 167.54c.55-.3 1.05-.67 1.5-1.1.32-.31.74-.7.5-.9-.26-.19-.53.06-.92.42s-1.41 1.44-1.41 1.44c-.26.12-.49.28-.7.47-.55.44.03.36.23.17.22-.23.5-.4.8-.5z"/>
            <path fill="#e6b319" d="M305.58 96.59l2.25-1.6-2.65-.68-1.7 1.36z"/>
            <ellipse cx="312.78" cy="94.72" fill="#e65900" rx="2.15" ry="2.07"/>
            <ellipse cx="312.78" cy="94.28" fill="#e6b319" rx="1.3" ry="1.24"/>
            <path fill="#e6b319" d="M308.3 87.6c.41.13.84.17 1.27.12 0 0 .22-.95-.3-1.41-.53-.46-1-.8-1.32-1.1a4.86 4.86 0 01-.38-.42s0 .82-.04 1.34c-.06.6.24 1.18.77 1.48z"/>
            <ellipse cx="309.44" cy="88.65" fill="#e6b319" rx=".39" ry=".37"/>
            <path fill="#e6b319" d="M306.51 88.25c-.16.21-.34.41-.52.6.28.02.55.12.79.27.35.29.8.44 1.24.43a.59.59 0 00.52-.74c-.1-.28-.3-.57-.99-.83-.7-.26-.87.04-1.04.27zM308.01 90.76c-1.35.12-3.13-1.37-3.13-1.37a2.29 2.29 0 01-2.04 2.04l.1.05c.73.36 1.5.6 2.3.73.56.06 1.13.02 1.67-.13.7-.1 1.37-.32 2-.63.81-.5.57-1.8.57-1.8s-.12.98-1.47 1.1zM302.76 89.4a10.3 10.3 0 00-1.73-.62c-.35-.02-.85-.1-.76.54a1.3 1.3 0 001.38.97c.48 0 .95-.15 1.35-.42.38-.19.31-.26-.24-.47zM298.54 87.11a3.5 3.5 0 00-1.14-.55 3.12 3.12 0 00-.17 1.68c.16.55.7.88 1.26.8.57-.02 1.41-.31 1.17-.75a3.38 3.38 0 00-1.12-1.18z"/>
            <ellipse cx="299.09" cy="90.04" fill="#e6b319" rx=".47" ry=".34"/>
            <path fill="#e6b319" d="M300.38 84.86a7.39 7.39 0 011.37-6.16 10.21 10.21 0 014.6-3.45c.31-.43.66-.82 1.03-1.19.88-.83 1.83-1.58 2.84-2.24 0 0-2.2.55-3.46.95v.06c0 .85-.67 1.54-1.5 1.55-.32 0-.62-.1-.87-.28-1.25.5-2.44 1.16-3.52 1.97.15.24.23.52.23.81 0 .84-.67 1.53-1.51 1.54-.25 0-.48-.06-.7-.17l-.19.33c-.43.79-.8 1.62-1.08 2.48.42.3.66.8.64 1.33.06.78-.5 1.46-1.28 1.54-.04.33-.05.67-.02 1 .06.5.24.8 1.12 1.06.87.25 2.05 1.77 2.05 1.77.5-.88.6-1.94.25-2.9z"/>
            <path fill="#e6b319" d="M305.74 73.5a.57.57 0 00.12-.87.82.82 0 00-1.03.06.57.57 0 00-.12.88c.32.22.74.2 1.03-.06zM300.1 77.32a.77.77 0 00.16-1.08l-.02-.03a.86.86 0 00-1.17.08.77.77 0 00-.16 1.07l.03.03c.35.28.85.25 1.16-.07z"/>
            <ellipse cx="296.74" cy="82.11" fill="#e6b319" rx=".87" ry=".86"/>
            <path fill="#e6b319" d="M315.54 70.02c-.89.23-1.74.57-2.54 1.02h.02a1.41 1.41 0 011.55 1.28 1.7 1.7 0 01-1.66 1.5 1.49 1.49 0 01-1.46-1.47c0-.17.04-.33.11-.49l-1.19.77a11.66 11.66 0 00-4.8 5.33c-1.36 2.55-1.86 5.35-1.27 7 .6 1.65 2.77 2 2.8 2a1.38 1.38 0 01-.28-.57c.01-.37.07-.73.16-1.09a7 7 0 00.03-1.37c.29-.03.58.07.78.28.28.34.68.75.96 1.1.33.34.67.67 1.03.99.27-.41.42-.88.44-1.37 0-.75-.5-1.56-.6-2.87.06-1.93.7-3.8 1.87-5.35a15.05 15.05 0 014.39-3.61c.5-.2.83-.66.87-1.18.03-.32.1-.53.16-1.31s-.65-.75-1.37-.6z"/>
            <path fill="#e6b319" d="M312.79 72.97c.48 0 .88-.37.94-.84a.8.8 0 00-.87-.72.82.82 0 00-.9.73c.01.46.38.83.83.83zM316.91 89.25c.58.23 1.23.19 1.78-.12a.75.75 0 00.05-1.19 1.34 1.34 0 00-1.43-.12c-.39.22-1.26.84-1.26.84.22.27.52.48.86.59z"/>
            <path fill="#e6b319" d="M319.05 90c-.22.43-.68.68-1.16.63a2.69 2.69 0 01-2.03-.5c-.33-.35-.6-.74-.82-1.17l-.84-.01a3.98 3.98 0 01-.65 1.48c-.7.36-1.53.34-2.22-.04-.57-.42-1.08-.94-1.18-.88s0 .49.58.99c.5.53 1.2.83 1.92.8h5.32s1.08.07 1.39-.58c.3-.64.32-1.05.17-1.2-.14-.17-.24.1-.48.48z"/>
            <path fill="#e6b319" d="M310.96 89.1c.8.44 1.24.17 1.53-.19.14-.15.26-.32.34-.51a8.9 8.9 0 01-1.12-.5c-.36-.2-.61-.41-.98-.37-.36.05-.42.1-.42.1a1.5 1.5 0 00.65 1.47z"/>
            <ellipse cx="307.11" cy="81.24" fill="#e65900" rx="1.77" ry="1.76"/>
            <path fill="#e65900" d="M310.19 75.14a1.79 1.79 0 00-2.33.43 1.45 1.45 0 00.24 2.16c.78.47 1.78.28 2.34-.43a1.45 1.45 0 00-.25-2.16z"/>
            <ellipse cx="307.04" cy="81.01" fill="#e6b319" rx="1.03" ry=".98"/>
            <path fill="#e6b319" d="M309.45 75.34c-.48-.12-.99.08-1.26.5-.24.4.01.83.62.96 1.12.22 1.66-1.18.64-1.46z"/>
        </g>
        <g>
            <path fill="#e6b319" d="M282.34 212.67a39.27 39.27 0 01-3.61 1.54c-.35.12-.7.2-1.07.24-1.01.92-2.1 1.76-3.24 2.51a12.18 12.18 0 01-4.75 1.65c-2.14.23-8.03.16-10.67.06s-4.28.54-5.42 1.82a3.14 3.14 0 00.04 4.52 2.25 2.25 0 003.58-.16c.4-.78.4-1.7.03-2.49-.23-.5.47-.67 1.2-.7 1.04 0 2.08.07 3.11.23 1.4.26 2.74.7 4.02 1.31.87.47.36.54-.24.44-.8-.17-1.58-.42-2.34-.74a9.28 9.28 0 00-2.64-.64c-.67-.03-.44.34-.3.57.22.35.42.7.6 1.08 0 .43-.06.86-.2 1.27l.33.64c.2-.31.38-.64.54-.97.13-.34-.04-.98.1-1.28s.7-.3 1.14.2a4.47 4.47 0 011.17 2.38c.14.73.07 1.5-.2 2.18.25.2.47.46.63.74.02.5-.02 1.02-.13 1.51 0 0 .36.24.7-.47.34-.77.62-1.57.83-2.38.1-.44.4-1.24.94-.64.44.5.79 1.08 1 1.71.06.22.1.45.1.68.6-.57 1.13-1.19 1.6-1.85.66-1 1.46-1.88 2.38-2.62 1.14-.93 3.11-2.81 4.08-3.45.97-.64 3.45-1.98 4.22-2.45s.9-.5 1.03-1.81c.22-1.17.58-2.3 1.07-3.39.3-.9.36-1.24.36-1.24h.01zM238.49 163.52c-.02-.22-.47-1-.58-1.4-.11-.4-.51-.16-.51-.16-.48.27-1 .5-1.52.67-.64.18-.73-.07-.8-.4-.07-.34-.22-1.4-.33-2.13-.12-.74-.27-.7-.54-.58-.27.11-1.07.4-1.63.65-.55.24-.38.51-.2.82.18.32.83 1.64 1.12 2.1.29.48.02.68-.32.83-.33.16-.82.23-1.49.45s-.62.38-.56.6c.22.54.47 1.06.76 1.57.24.42.47.13.47.13.4-.36.84-.67 1.31-.94.6-.28.65-.2.8.25.16.45.85 2.8.99 3.24.13.45.35.4.67.27.3-.13.73-.2 1.09-.31.35-.11.49-.83.49-.83s-1.32-2.37-1.67-2.97c-.36-.6 0-.74.26-.78.27-.05 1.05-.16 1.72-.32.66-.17.48-.55.46-.78l.01.02zM253.35 227.9c-.1-.57 0-1.14-.43-1.58a5.4 5.4 0 01-1.17-2c-.2-.71.16-1.05.1-1.45-.07-.4-.6-.4-1.14.03a2.38 2.38 0 00-1.24 2.12c-.13 1.5.8 2.88 2.24 3.31 1.77.54 1.74.14 1.64-.43zM255.15 227.29s-.37-.23-.54.1-.13.5.34 1.24c.3.53.76.96 1.3 1.24.54.34.17-.33.1-.53-.06-.2 0-.47-.13-.64a1.3 1.3 0 01-.2-.9c0-.54-.87-.5-.87-.5v-.01z"/>
            <path fill="#e6b319" d="M257.32 233.33c.33-.5.64-.64 1.44-1 .89-.34 1.82-.54 2.77-.61a2.05 2.05 0 001.47-2.01 1.83 1.83 0 00-1.54-1.55c-.63-.13-1.2-.13-1.4.17-.3.45-.75.78-1.27.94-.7.23-.8.47-1.24.6-.43.14-.1.4-.46.7-.37.31-.87 0-1.44-.16-.4-.17-.81-.27-1.24-.3l-2.3-.13a1.34 1.34 0 00-.44-.04c-.37 0-.4.07-.57.47a2.5 2.5 0 00.44 1.91c.4.5 1.7.74 2.57 1 .67.22 1.35.4 2.04.51.76.13.86 0 1.2-.5h-.03zM265.45 234.13c.7-.47.3-1.27.13-1.78-.16-.5-1.13-.6-1.63-.6s-.77 0-1.04.23a3.5 3.5 0 01-1.37.8c-.74.24-1.3.51-2.31.91-1 .4-1.3 1.08-1.74 1.35-.41.14-.86.14-1.27 0 0 0-.6-.17-.8 0-.2.16 0 .5.4.93.4.44 1.17.4 2.04.68.87.26 1.03.06 1.37-.17.33-.24.6-.74 1.2-1.1a7.44 7.44 0 012.55-.51 6.15 6.15 0 002.48-.74h-.01zM265.45 231.08c.3.27.64.64.9.2.27-.43.7-1.34.4-1.88-.2-.35-.42-.68-.66-1-.21.66-.46 1.3-.74 1.94-.22.41-.19.47.11.74h-.01zM262.74 226.45a4.91 4.91 0 00-.6-1.95 7.9 7.9 0 01-.57 1.51c-.2.4-.44.75-.74 1.08.4.1.8.19 1.2.23.34 0 .72.01.72-.86l-.01-.01zM257.73 228.3a3.9 3.9 0 001.84-.9c.44-.45.59-1.12.37-1.71a2.2 2.2 0 00-1.2-.98h-.5c-.15.47-.36.91-.64 1.31-.37.44-.8.74-.77 1.3.03.57-.04 1.17.9.97v.01zM259.63 224.04a1.6 1.6 0 00-.43-1.2l-.5-.5s-.07.66-.14 1.03c-.02.15-.05.3-.1.44.15.14.32.27.5.37.23.09.63.3.66-.14h.01zM248.07 200.25l.63-3.95c-.47-3.95-2.53-7.7-4.16-10.28-1.64-2.79-3-5.74-4.06-8.8a24.93 24.93 0 01-1.23-6.66c-.04-.84.2-1.66.66-2.35 0 0 .29-.42.02-.68-.26-.27-.68-.03-1.1.4a5.01 5.01 0 00-1.21 2.5 7.68 7.68 0 00-2.19-.1c-1.34.11-1.98.23-2.03.51-.04.3.18.51 1.15.93.77.22 1.48.63 2.07 1.18a21.9 21.9 0 012.1 4.86c.68 2.68 1.2 5.4 1.53 8.15a32.52 32.52 0 002.73 9.57c.46.99 2.97 5.67 5.09 4.73v-.01zM250.52 207.21c-.91.51-.88 4.25-.48 6.19.6 1.85 1.59 3.55 2.89 5 .57.64.7.64 1.01.47.14-.08.29-.14.44-.17.51-.17 1-.43 1.43-.74.6-.48.37-1.67.27-2.72-.44-2.01-1.26-3.91-2.4-5.62-1.49-2.44-2.24-2.92-3.15-2.41h-.01zM251.53 204.18a2.21 2.21 0 00-2.27-2.14c-.5-.03-1 .12-1.4.43-1.23 1.1-.49 3.89 1.3 3.89.66.05 1.33-.15 1.86-.56.38-.45.57-1.03.51-1.62zM269.21 239.32a3.7 3.7 0 01-1.5-.77c-.8-.53-1.5-1.2-2.06-1.98-.2-.5-.2-.52-.89-.29a9.6 9.6 0 01-2.4.23c-.75.03.08.86.6 1.64.51.77.34 3.38.34 3.38-.01.2-.05.41-.12.6-.11.38-.03.64.17.72.2.09.32-.08.84-.69.53-.7 1.01-1.42 1.46-2.18l.95.23c.91.17 1.85.13 2.75-.11.68-.2.36-.7-.13-.78h-.01z"/>
            <path fill="#e6b319" d="M266.14 241.34c-.34-.06-.49-.09-.66.14-.17.28-.3.58-.4.9a.5.5 0 00.14.6c.2.17.5.37.5.37.16.18.35.34.57.46.28.14.34-.29.34-.6 0-.32.17-.9.17-1.27s-.3-.55-.65-.6h-.01z"/>
            <path fill="#06c" d="M396.62 216.11a2.9 2.9 0 01-1.2-.52s-.35-.04-.64.48c-.37.48-.83.88-1.35 1.2 0 0-1.52.4-1.72 1.43-.2 1.04.52 1.4 1.24 1.28a5.86 5.86 0 003.23-1.4c.46-.52.8-1.13 1.04-1.8.14-.34.23-.46-.61-.66l.01-.01zM398.97 207.85a9.81 9.81 0 00-4.9-6.58s-1.08 3.79-1.4 4.99c-.32 1.19-.32 1.15.6 1.4.91.23 3.86.87 4.46 1.03s1.6.67 1.24-.85v.01zM385.29 205.7c.68.12.6-.16.84-1.08l1.43-5.46c-1.95-.03-3.88.37-5.66 1.16a8.81 8.81 0 00-3.79 3.62c.8.3 1.63.52 2.48.68 1.8.4 4.03.95 4.7 1.07v.01zM378.27 211.96c-1.08-.2-1.48-.32-1.48-.32.38 1.43.99 2.8 1.8 4.03a5.3 5.3 0 004.67 2.2c2.3.03 4.06-1.24 4.34-2.24.18-.62.43-1.2.76-1.75 0 0-4.19-.56-5.9-.96-1.74-.4-3.13-.76-4.21-.96h.02z"/>
            <path fill="#e6b319" d="M377.55 210.32c1.04.24 9.57 1.87 10.29 2.03.72.16 1.32.32 1.52.12.3-.29.67-.5 1.07-.6.44-.15.73-.57.72-1.03.13-.47.22-.95.28-1.44.08-.72.48-.96 1.32-.08a5.77 5.77 0 011.15 3.4c.16 1.23 2.12 1.55 2.87 1.67.76.12 1.12-.12 1.56-.84.44-.97.7-2.01.8-3.07.12-.92.04-.84-.92-1.08-.96-.24-5.38-1.23-6.18-1.44-.8-.2-.64-.71-.52-1.27s1.87-6.18 1.87-6.18a12.67 12.67 0 00-5.1-1.48s-1.28 5.74-1.52 6.62c-.24.88-.8.88-1.71.72-.92-.16-7.54-1.71-7.54-1.71l-.52 1.23c-.45 1.1-.7 2.28-.76 3.47 0 .76.27.74 1.3.97l.02-.01z"/>
            <path fill="#e6b319" d="M400.2 215.51c-.88-.58-1.53-.73-1.98.34-.46 1.07-.5 2.64-1.65 3.75-1.14 1.11-2.75 2.26-4.35 2.14-1.6-.11-2.52-.5-2.14-2.33.38-1.83 2.83-2.4 3.4-3.36.59-.9.4-2.1-.42-2.8a2.64 2.64 0 00-2.4-.65 5.29 5.29 0 00-1.84 2.45c-.5 1.38-.8 2.49-1.87 3.37a8.1 8.1 0 01-5.96 1.26c-2.13-.5-2.9-1.15-3.7-3.25-.8-2.1-1.76-5.58-2.18-5.97a1.29 1.29 0 00-1.87-.04 3.07 3.07 0 00-1.1 2.38c-.14 1 .2 2.02.91 2.75.94.97 1.7 2.11 2.22 3.36.34 1.15 1.37 2.91-.08 2.99-1.45.07-2.1.11-3.2-.96-1.11-1.07-5.43-4.02-6.61-4.97a19.3 19.3 0 00-1.68-1.26c-2.17-.14-4.26-.91-6-2.22.53 1.33.99 2.68 1.38 4.05.13.57.2 1.14.19 1.72 0 0 4.35 2.22 6.07 3.06 1.72.84 5.2 2.83 6.87 3.86 1.68 1.04 3.1 2.64 6.07 2.03 2.98-.61 9.01-2.45 10.96-3.02 1.95-.57 7.33-1.91 9.32-3.29s2.17-1.3 2.52-2.68c.41-.99.04-2.13-.88-2.69v-.02zM388.71 194.92c.33-.04.46-.09 1.48-.22s.64.84.46 1.22c-.27.62-.57 1.23-.9 1.83-.42.7.13.82.42.93.28.11.7.15 1.52.38.82.22.66-.38.69-.69.02-.31.06-1.93.15-2.5.09-.57.62-.42.82-.3l1.12.6a.44.44 0 00.7-.26c.19-.43.34-.87.47-1.32.18-.64-.22-.51-.62-.51s-.97 0-1.63-.02c-.66-.02-.24-.67-.24-.67L394 192c.37-.6.24-.68-.13-.8l-1.88-.46c-.33-.09-.49-.05-.49.18s-.04 1.37-.04 1.81c0 .44-.04.7-.62.73-.57.02-.93-.31-1.39-.82-.46-.5-.66-.3-.7-.1-.05.19-.43 1.65-.52 2.05-.1.39.11.37.44.32l.03.01zM391.91 209.41a10.1 10.1 0 01-.16 1.55c-.12.4-.4 1 .08 1.16.37.19.78.28 1.2.28.27-.08.15-.64 0-1.11a4.27 4.27 0 00-.76-1.48l-.35-.4h-.01zM398.93 214.03c.15.27.41.47.72.52.24.08.56.08.56-.36.08-.5-.02-1.03-.28-1.48-.36-.47-.55-.82-.76-.12-.2.72-.4 1.1-.24 1.44zM374.48 209.37c.2.04.96.28.96.28 0-.63.05-1.26.16-1.88.16-.75.48-1.27.2-1.27s-.44.24-.64.56c-.2.32-.76.4-.96 1.31-.2.91.08.95.28 1z"/>
            <circle cx="379.27" cy="207.45" r="1.56" fill="#e65900"/>
            <circle cx="383.65" cy="208.53" r="1.6" fill="#e65900"/>
            <circle cx="396.42" cy="211.24" r="1.6" fill="#e65900"/>
            <circle cx="388.04" cy="209.57" r="1.6" fill="#e65900"/>
            <circle cx="389.2" cy="205.74" r="1.6" fill="#e65900"/>
            <circle cx="390.32" cy="201.91" r="1.6" fill="#e65900"/>
            <circle cx="379.38" cy="207.3" r=".78" fill="#e6b319"/>
            <circle cx="383.77" cy="208.37" r=".8" fill="#e6b319"/>
            <circle cx="396.54" cy="211.08" r=".8" fill="#e6b319"/>
            <circle cx="388.16" cy="209.41" r=".8" fill="#e6b319"/>
            <circle cx="389.32" cy="205.58" r=".8" fill="#e6b319"/>
            <circle cx="390.44" cy="201.75" r=".8" fill="#e6b319"/>
        </g>
        <g>
            <path fill="#e6b319" d="M339.69 239.41c-.85-.53-1.58-1.13-3.48-2.4a7.86 7.86 0 01-2.61-2.66h.67c.37 0 .68-.51.7-1.02a18.4 18.4 0 00-.14-2.75 5.53 5.53 0 01.2-2.2c.62.55 1.31 1.02 2.05 1.4 1.23.65 1.74.34 1.74.34l.3-1.23s.54 1.12 1.3 2.44c.75 1.33 2.8 2.79 4.26 3.89a19.2 19.2 0 004.26 2.67c1.2.42.5.99.5.99a8.49 8.49 0 01-4.31 1.77c-1.91.43-3.91-.03-5.44-1.24z"/>
            <path fill="#e6b319" d="M328.8 238.2c1.02.04 1.9-.73 1.99-1.74.06-1.27.04-2.54-.06-3.8.28.25.55.52.79.81.38.35.86.56 1.37.62.15.39.34.75.56 1.1a6.19 6.19 0 002.02 2.17c1.08.65 2.12 1.36 3.12 2.13.87.78 1.82 1.46 2.83 2.06a4.66 4.66 0 012.38 3.12c.37 1.58.09 2.08-1.15 2-1.14 0-2.27-.16-3.36-.48-2-.5-4.83-2.73-6.9-4.05a13.2 13.2 0 01-3.6-3.94z"/>
            <path fill="#e6b319" d="M323.28 240.02c.51-.68.9-1.46 1.15-2.28l.9-3.6s.27.76.95 2.2c.34.8 1 1.45 1.82 1.77.18.68.52 1.31 1.01 1.83a14.03 14.03 0 003.79 3.18c1.64.84 3.1 2.01 4.29 3.43 1 1.43 1.1 2.92.61 3.57-.47.65-1.14-.09-2.1-.56s-3.67-.9-7.43-2.93c-3.76-2.02-5-6.61-5-6.61z"/>
            <path fill="#e6b319" d="M321.65 248.44c-1.04-1.55-1.21-5.31-1.21-5.31s.36-.26.87-.68c.55-.6 1.05-1.23 1.48-1.91 0 0 .62 1.29 1.3 2.5a9.4 9.4 0 002.4 2.93c1.41 1.29 3.32 2.56 4.13 3.93.81 1.38.37 4.14-.17 5.07-.53.93-1.29.62-2.07-.14-.79-.76-1.04-.96-2.41-2.14a24.74 24.74 0 01-4.32-4.25z"/>
            <path fill="#e65900" d="M333.99 216.89a26.96 26.96 0 00-1.68-3.19 9.94 9.94 0 01-.87-1.49c.7.63 1.33 1.33 1.87 2.09.5.82.88 1.7 1.1 2.64.25.93.13 1.08-.42-.05zM328.66 217.85c-.22-.74-.34-1.24-.34-1.24s-.22-.72-.1-.77c.12-.05.67.45 1.06 1.67.37 1 .66 2.03.84 3.07a10.37 10.37 0 01-1.46-2.73zM324.46 221.23a6.01 6.01 0 01-.24-.55 13.8 13.8 0 01-.44-1.68c0-.29.15-.62.5.1.25.54.4 1.13.46 1.72.07.31.48 1.4.36 1.5-.12.09-.4-.56-.64-1.09zM337.5 234.03l.56-.34c.25.33.52.65.81.96.48.5 1.01.7 1.38 1.18a5.3 5.3 0 001.8 1.52c.86.45 1.2.6 1.03.73-.17.14-.76-.2-.76-.2a10.13 10.13 0 01-3.25-2.2 19.33 19.33 0 01-1.57-1.65zM332.95 239.41c-.4-.42-.82-.7-.6-.93.23-.22.51-.2.88.11.36.31 1.4 1.3 1.88 1.72.47.42.86.68 1.34 1.04.65.44 1.33.84 2.02 1.2.5.3.03.32.03.32a6.96 6.96 0 00-.81-.34c-.42-.14-1.63-.67-1.63-.67a8.6 8.6 0 01-1.12-.68 16.14 16.14 0 01-2-1.77zM327.7 243.04c-.33-.67.03-.48.6-.25.56.22 1.82 1.6 2.55 2.1.62.4 1.28.74 1.96 1.02.62.31.62.48.59.62-.03.14-.28.14-.53.03-.26-.12-1.13-.62-1.13-.62a4.06 4.06 0 00-.7-.14c-.34-.03-.81-.4-1.57-1.04-.75-.65-1.43-1.04-1.76-1.72zM325.27 247.85a9.71 9.71 0 012.94 2.67c.42.85.7 1.44.56 1.58-.14.14-.59-.14-.78-.48-.2-.3-.4-.58-.62-.84-.69-.7-1.42-1.34-2.19-1.94a5.55 5.55 0 01-1.77-2.03c-.14-.3-.16-.64-.05-.96a8.4 8.4 0 001.9 2z"/>
            <path fill="red" d="M349.98 113.28a14.87 14.87 0 015.55-1.68c2.13-.16 4.27.08 6.32.7 1.22.4 2.52.44 3.77.14a5.23 5.23 0 003.54-3.95 3.6 3.6 0 01-.04 4.29 4.8 4.8 0 01-2.85 1.95c-3.4.68-6.74-1.4-9.57-1.57a7.73 7.73 0 00-4.85 1.54c-.47.33-1.08.33-1.55.01-.9-.53-1.17-.93-.32-1.43z"/>
            <path fill="#e6b319" d="M359.77 211.66s.33-.03.8-.1c.6-.13 1.2-.3 1.77-.54a.93.93 0 011.07.17c.88.64 1.8 1.24 2.74 1.78h-4.04a3.25 3.25 0 01-2.34-1.31z"/>
            <path fill="#e6b319" d="M348.38 210.97v-.4l.53-1.16c.45.3.87.64 1.25 1.02.71.79 1.38 1.6 2.01 2.46.68.86 1.62 1.68.81.3-.8-1.38-1.08-1.98-1.72-2.9-.65-.91-1.13-1.32-1.05-1.37.75-.18 1.52-.3 2.29-.35a8.54 8.54 0 003.53-1.33c.78-.46 2.18-1.21 2.18-1.21s2.88 1.21 3.96 1.48 1.72.43.67.95c-1.05.51-1.94.67-2.45 1-.95.48-2 .77-3.07.83-.97 0-2.61.03-1.97.7a11.6 11.6 0 012.08 3.95c.5 1.48.75 3.03.72 4.6 0 .57-.04 1.15-.1 1.72a22.24 22.24 0 00-4.37-3.32 56.11 56.11 0 00-4.95-2.94c-.6-.27-.9-.27-.78-1.03.1-.76.43-2.62.43-3z"/>
            <path fill="#e6b319" d="M336.24 201.31l.59-.27.14.05c1.2.7 2.26 1.65 3.1 2.77.78 1.26 1.56 1.38.7 0a11.94 11.94 0 00-2.83-3.33c1.7-.8 3.33-1.75 4.89-2.8.28.59.65 1.15 1.08 1.65.64.55 1.37 1 2.16 1.3a9.96 9.96 0 01-1.6-2.16 9.61 9.61 0 01-.52-1.62 21.1 21.1 0 003.2-3.06 11.85 11.85 0 002.76 4.9c2.5 2.8 7.5 4.22 7.5 4.22s1.75.19.33.56a9.05 9.05 0 01-5.18.52 20.88 20.88 0 01-3.32-.7c-.37-.12-1.38-.04 0 .48 1.88.6 3.84.9 5.82.9 1.23-.12 2.9-.38 1.15.55s-2.5 1.3-3.58 1.3-1.53.35-2.57.35a7.64 7.64 0 01-2.09-.34c-.74-.15-1.23.11-1.23.4.62.95.96 2.05.97 3.18.03 1.34-.1 2.68-.37 3.99-.26.73-.57 1.44-.93 2.13-.3.55-.42 1.11-.71-.08-.3-1.2-.97-2.9-1.23-4.06-.26-1.16-.41-1.2-.53-1.8-.1-.6-.74-1.04-.44.04s.63 2.46.85 3.43c.23.97.75 2.76-.14 1.35-.9-1.42-4.25-5.19-4.81-5.86s-1.01-1.3-1.42-1.86c-.41-.56-1.57-1.3-2.13-2.13-.78-.98-1.66-1.89-2.62-2.7.95-.4 1.95-.83 3-1.3zM382.6 115.23c-.1 2.06-2.37 5.99-3.66 8.09-1.3 2.1-1.65 2.94-1.43 3.08.22.13.76-.94 1.47-1.88.72-.93 2.1-3.12 3.26-4.78a61.23 61.23 0 003.08-5.94c.22-.36.31-.58.89-.13.58.44 1.7 4.78.35 7.73a26.15 26.15 0 01-4.19 6.12c-.85 1.02-1.96 2.63-1.78 2.77.18.13.49-.27 1.51-1.34s2.73-2.9 3.84-4.25a31.7 31.7 0 002.57-4.09c.16-.3.37-.21.52-.06.37.37.96 1.23.7 3.57-.35 3.26-2.05 5.14-3.57 6.8-1.51 1.65-3.03 3.03-2.8 3.25s1.78-1.16 2.85-2.19a95.4 95.4 0 004.28-4.28c.58-.72 1.43-.36 1.38 2.45s-3.16 5.68-4.46 7.24c-1.3 1.56-2.9 2.5-2.76 2.81.13.32 1.42-.49 2.27-1.07.85-.58 4.02-2.63 4.64-3.08.62-.45.94.4.13 3.08a12.18 12.18 0 01-4.5 5.8c-1.38.99-3.61 2.2-3.48 2.51.13.31 1.07-.09 2.36-.72 1.28-.6 2.61-1.12 3.97-1.51 1.12-.32 1.12.49 1.12.49a5.81 5.81 0 01-1.43 4.1 8.86 8.86 0 01-5.3 2.86c-1.79.32-2.06.4-2.01.68.04.26.22.3.62.3s2.05.19 3.57.19 2.32.35 2.32 1.02.04 1.57-2.23 3.09a14.79 14.79 0 01-5.89 1.96c-1.07.23-1.11.32-.89.63.22.31.71.27 2.4.45 1.7.17 2.73.84 2.95 1.29.23.45-.13 1.79-1.52 2.73-1.38.93-3.16 1.25-5.84 1.07-2.68-.18-3.34-.23-3.43.22-.1.45.8.58 2.14.8 1.34.23 2.36.23 3.12.86.76.62.18 1.92-1.11 2.85s-4.51.94-5.85.85-3.39-.58-3.52-.22.98.9 2.36 1.38c1.38.5 1.79.8 2.05 1.39.27.58.05 1.12-1.6 1.74a8 8 0 01-5.31.05c-1.25-.58-1.92-.8-2.14-.58-.22.22 0 .44.27.76.76.73 1.7 1.25 2.72 1.51 1.38.36 1.51.36 2 1.48.5 1.12-.75 2.01-3.25 2.1-2.39 0-4.75-.52-6.92-1.52-1.07-.63-1.47-.76-1.65-.54-.17.23-.13.36.4.76.95.75 1.98 1.36 3.08 1.84.85.22.94.84.94 1.42s.22 1.75-2 2.28a8.96 8.96 0 01-7.28-1.56 5.5 5.5 0 01-1.48-1.39c.2-1.76.13-3.55-.18-5.3a8.81 8.81 0 002.29-.55 4.3 4.3 0 002.18-2.46c.32-.67.76-.67 1.3-.49.57.25 1.2.37 1.83.36a5.26 5.26 0 003.52-1.83c.75-.96 1.1-2.18.98-3.4.05-.67 1.12-.17 1.65-.17a6.95 6.95 0 003.52-1.21 3.82 3.82 0 001.57-2.86c.2-.51.63-.9 1.16-1.07.78-.25 1.5-.64 2.14-1.16a4.76 4.76 0 001.38-2.9c.04-.54.63-.59 2.63-1.61s1.83-3.18 1.74-4.03c-.09-.85-1.02-1.56-1.02-1.87 0-.32.67-.4 1.33-.8a3.8 3.8 0 002.41-3.58c.05-2.5-1.6-2.77-1.6-2.77.33-.16.66-.34.98-.54.67-.4 2.5-1.65 2.5-3.12a2.83 2.83 0 00-1.16-2.5 7.96 7.96 0 00-1.83-.72c.58-.42 1-1.01 1.2-1.7.5-1.19.36-2.54-.35-3.62a3.77 3.77 0 00-3.04-1.02c-.76 0-1.42.4-1.7.18-.26-.23-.3-.4-.04-.99.28-.8.3-1.67.1-2.5a2.79 2.79 0 00-2.2-2.1c-1.91-.62-3.92.67-4.54 1.03s-.36-.5-.36-1.12c0-.62 1.3-2.19 2.77-4.42a48.74 48.74 0 003.79-6.8 43.78 43.78 0 002.94-8.88c.22-1.12.67-.58.67-.58s.45.18 1.47 2.77a16.66 16.66 0 011.12 7.01z"/>
            <path fill="#e6b319" d="M348.95 160.92a5.02 5.02 0 003.79-2.36c1.15-1.67 2.87-2.07 5.86-2.01 2.32.26 4.49-1.2 5.11-3.46.75-2.07-.11-4.43-3.16-5.92s-4.42-3.17-4.54-5.76c-.11-2.59 3.05-5.81 6.2-9.44a45.9 45.9 0 005.64-8.74c.52.7.84 1.54.92 2.41 0 1.21-.46 2.48 0 2.82.46.35.63-.51 2.47-1.32 1.84-.8 3.33-.92 4.48.4s0 3.63-1.03 4.72c-1.04 1.1-1.9 1.9-1.61 2.3s1.84-.63 2.35-.97 1.73-1.67 3.5-1.5 2.42.69 2.6 2.19c.17 1.5-1.61 2.81-2.76 3.4-1.15.57-1.61 1.08-1.32 1.31.28.23.57 0 1.09-.17a5.35 5.35 0 012.87 0c.92.35 2.41 1.61 1.03 3.17-1.37 1.55-4.25 2.13-4.82 2.24-.58.12-.86-.06-.92.4-.06.46 1.2.46 2.76.52s2 1.56 1.78 2.7-2.82 2.42-4.25 2.65c-1.44.23-1.96 0-2.07.4-.12.4.17.58.97.81.8.23 2.36.4 2.65 1.67.46 1.06.1 2.3-.86 2.94a4.72 4.72 0 01-3.74.8c-.57-.11-1.26-.75-1.84-.17-.57.57.52 1.03 1.5 1.73.97.69.92 2.01-.75 2.93-1.24.66-2.7.79-4.02.35-.7-.23-1.61-1.33-2.07-.64-.46.7 1.44.92 2.24 1.9.8.98.52 2.6-1.1 3.57-1.5.69-3.23.65-4.7-.12-.46-.4-1.04-.57-1.38-.22-.35.34.17 1.26.52 2.07.34.8.97 3.16-1.44 4.08-2.42.92-4.6-1.15-5-1.55a.95.95 0 00-1.15-.29c-.34.17-.17.52.12.92.7 1.15.33 2.64-.8 3.34-.93.62-2.07.85-3.17.64-.35-1.35-.82-2.79-1.3-4.8h.36c.23 0 .28.34.28.48s-.07.25.14.25c.2 0 .23.12.53.33.3.2.57.46.73.34.16-.11-.62-.53-.83-.78-.2-.26-.62-.65-.64-.92-.02-.28-.16-.44-.58-.78-.12-.1-.22-.23-.3-.36a65.26 65.26 0 01-.8-4.82c-.17-1.29-.26-2.5-.3-3.64l.76-.04zM398.06 125.05a26.16 26.16 0 01-6.2 8.12s.48-1.3.7-2.18c.11-.62.13-1.26.04-1.9 0 0 .9-1.16 2.59-3.75a23.9 23.9 0 002.57-6.42c-.82 2-1.75 3.96-2.78 5.86a31.4 31.4 0 01-2.62 3.69s-.49-1.8-.84-1.9c-.35-.08-.6.2-.9.6-.31.39-.57.35-.57.35s.41-.85 1.05-1.88c.3-.47.72-.97 1.01-1.45a39.52 39.52 0 004.08-7.25c1.06-2.88 3.38-10.09 3.78-12.2.4-2.12.8-.96 1.2.6.67 2.3.87 4.72.61 7.1a35.7 35.7 0 01-3.72 12.61zM394.74 139.07c-.96.7-2.37 1.66-2.37 1.66a7.4 7.4 0 00.56-3.05l1.91-1.68a27.83 27.83 0 003.72-3.98c1.95-2.42.39-.97-1.2.76a60.21 60.21 0 01-4.63 4.25l-.02-.56c0-.47-.17-.91-.46-1.27-.28-.36-.13-.41 1.58-1.72a49.3 49.3 0 007.95-9.28c1.82-2.98 3.78-7.01 3.78-7.01.42 4.34-.51 8.7-2.67 12.5-3.62 6.56-7.2 8.67-8.15 9.38zM375.72 176.6a2.3 2.3 0 01-1.45-2.76c0-.03 1.22.39 2.34.8 1.6.6 3.27 1.01 4.97 1.25 1.09.03 1.09-.12 1.12-.29.03-.15-.83 0-2.4-.28a19.61 19.61 0 01-4.8-2.06c-.49-.32-.42-.38.28-.45a3.02 3.02 0 001.57-.6c.25-.23 1 .1 2.79.5 2.74.63 5.54.99 8.36 1.07 2-.02 4-.2 5.96-.58.44-.1.92.16-.45 2.47-1.38 2.31-6.22 3.56-9.58 3.53-3.36-.03-6.73-1.83-8.71-2.6zM384.66 171.83c-3.47.03-4.77-1-4.77-1s0-.18.47-.88c.3-.6.43-1.26.38-1.92 0 0 .83.15 2.27.36 1.64.3 3.32.32 4.97.08 1.85-.32 1.06-.53-.41-.35a16.2 16.2 0 01-5.2-.68c-.92-.32-.54-.62.08-.82.8-.37 1.56-.8 2.3-1.27 2.69.3 5.4.34 8.1.09a47 47 0 007.18-1.56c.8-.12.77.2.77.2s.2.36-1.15 2.48a11.22 11.22 0 01-6.23 4.15c-2.86.76-5.8 1.13-8.76 1.12zM385.55 163.7c.16-.29.27-.6.35-.91a1.3 1.3 0 00-.38-1.24c1.11-.26 2.24-.45 3.38-.56 1.46-.18 2.9-.47 4.32-.88 1.59-.36 2.65-.83 2.62-1s-.53.08-1.47.44c-2.18.44-4.38.78-6.59 1-1.67.23-2.62.41-2.9.23a8.41 8.41 0 00-1.33-.44c.52-.14 1.05-.26 1.59-.35a5.6 5.6 0 002.14-.86c.47-.32.62-.41 2.74-.64 2.11-.24 3.82-.92 7.61-2.3 2.62-.9 5.1-2.12 7.41-3.65.77-.62.71-.18.5.62a7.33 7.33 0 01-2.08 4.03c-1.92 2.24-2.86 3.21-7.68 4.98a30.23 30.23 0 01-10.23 1.53zM399.8 151.95a27.03 27.03 0 01-10.32 4.24c-.23-.28.26-1.28.03-1.88-.27-.73-.73-.74-1.76-.8-1.03-.06-.35-.27-.12-.27.68-.09 1.35-.24 2-.47 1.96-.4 3.9-.93 5.8-1.59 2.35-.88 3.05-1.53 3-1.7-.07-.18-1.1.56-3.27 1.38a39.08 39.08 0 01-6.09 1.44c-1.38.3-.17-.3.47-.68a7.6 7.6 0 001.56-1.8c1.36-.26 2.7-.6 4.03-1.02a32.52 32.52 0 006.67-2.8c.75-.45 1.47-.94 2.16-1.47 1.43-1.02 2.87-2.07 3.43-2.48.86-.61.59-.11.5.27a14.27 14.27 0 01-2.03 4.1c-1.35 1.94-1.79 2.53-6.05 5.53zM400.5 143.5a28.13 28.13 0 01-8.43 4.62c-.62.27-.56-.08-.44-.44.1-.5.17-1 .2-1.5 0 0 1.5-.85 3.18-1.83 1.67-.97 3.53-2.3 4.76-3.15 1.24-.85.5-.8.12-.47-.38.33-2.09 1.33-3.8 2.39-1.7 1.06-4.29 2.59-4.29 2.59a1.7 1.7 0 00-.4-.91c-.36-.36-1.24-.27-1.24-.27.26-.26.5-.55.7-.85.27-.42 1.65-.86 3.2-1.6a38.48 38.48 0 006.42-4.53 83.89 83.89 0 006.32-6.45c.27-.35.44-.3.47.15.11.92.02 1.85-.26 2.74a18.43 18.43 0 01-6.5 9.51zM385.63 112.03c-.48.99-1 1.74-1.38 2.38-.57.98-.89 1.6-.89 1.6-.07-.3-.08-.61-.02-.92.13-.78.14-1.58.02-2.36-.1-.5-.16-1-.17-1.5.05-.43.15-.86.28-1.27.14-.56.74-3.02 1.04-4.75.37-2.1.56-4.25.58-6.39-.02-2.18-.34-1.08-.34-.02a40.7 40.7 0 01-.45 5.17 60.46 60.46 0 01-1.39 6.3c-.07-.48-.2-.96-.38-1.41-.32-.84-.83-1.78-1.24-2.82-.4-1.03-.26-1.2-.26-1.2s1.48-7.07 1.87-10.41c.38-3.34 1-12.12 1-12.12 2.17 2.18 3.77 7.9 4.06 13.3.09 3.14-.13 6.28-.64 9.38-.2 2.42-.77 4.8-1.7 7.04zM390.42 123.18c-.07-1.6-.44-2.81-1.47-3.17a25.92 25.92 0 002.93-8.98c.57-3.8 1.02-7.7-.1-1.3-1.14 6.38-2.5 8.64-2.5 8.64l-1.63 2.66c.23-1.07.3-2.17.22-3.26a20.97 20.97 0 00-.61-4.37 50.38 50.38 0 003.21-8.7c1.08-3.8 1.74-7.7 1.98-11.65.11-2.49.17-3.45.17-3.45s2.03 1.53 2.7 9.27c.42 6.1-.39 12.2-2.36 17.98-1.02 2.82-2.54 6.33-2.54 6.33zM368.26 182.24s.32-.22 1.28-.83.67-2.44.67-2.44.25.19.96.67c.77.56 1.6 1.04 2.47 1.41.96.39 1.44.65 2.05.84.6.19.44-.07-.07-.36-.61-.38-1.27-.7-1.95-.96a21.71 21.71 0 01-3.85-2.76s.61-.06 1.67-.1a8.56 8.56 0 002.4-.57s1.06.96 5.32 2.79a33.34 33.34 0 007.88 2.3 4.2 4.2 0 01-2.5 2.93c-1.7.74-4.03 1.19-8.62.1-2.7-.63-5.3-1.65-7.71-3.02zM362.65 186.61a3.9 3.9 0 01.67-3.05c.3.21.6.45.86.7.98 1.04 2.11 1.9 3.37 2.57 1.79.9 2.43.84.7-.1a24.35 24.35 0 01-4.26-3.56l.67-.25c.68-.26 1.83.19 6.63 3.08 4.81 2.88 7.63 2.98 7.63 2.98s-2.15 2.6-7.98 2.4c-5.83-.18-7.94-2.98-8.3-4.77zM351.63 184.52c.42.57.93 1.07 1.5 1.48 1 .46 2.08.77 3.17.93.15.3.33.58.55.83.7 1 1.53 1.9 2.46 2.7 1.03.73 2.63 1.21 2.73 1.02s-.93-.58-1.93-1.19c-.96-.7-1.83-1.55-2.56-2.5-.67-.77.29-.64.29-.64s1.22.03 2.34-.06c1.12-.1.9 0 1.22.54.47.7 1 1.37 1.6 2 1.01 1.17 1.98 2.23 2.94 3.39.64.77.16 1 .16 1s-.28.48-2.88.77c-1.8.22-3.6-.16-5.16-1.08a15.59 15.59 0 01-3.49-3c-3.1-3.4-2.94-6.19-2.94-6.19zM350.25 191.54c.3.41.64.81.99 1.19-.22-.7-.5-1.37-.83-2.02-.2-.35-.43-.67-.6-.9.45-1 .8-2.05 1.05-3.12a26.28 26.28 0 002.27 5.4c1.34 2.14 2.53 2.92 1.76 3.5-.77.57-2.27.7-3.97-.14a4.37 4.37 0 01-2.35-3.34c.29-.45.56-.91.81-1.4.34.22.63.5.87.83z"/>
            <ellipse cx="350.63" cy="105.75" fill="#e6b319" rx="1.19" ry="1.09"/>
            <path fill="#e6b319" d="M353.14 103.69c-1.1-.03-1.68-.54-2.88-.43-2 .4-3.92 1.15-5.67 2.2a9.7 9.7 0 01-6.55.58 9.33 9.33 0 01-1.9-.9 4.54 4.54 0 01-2.16-4.77 11.12 11.12 0 007.1 2.16c-.22.17-.42.36-.6.55-.42.42-1.17.9-.92 1.1.25.21 1.28-.78 2.15-1.42 1.3-.98 2.77-1.72 4.34-2.15 2.2-.65 4.67-.7 6.31.22 1.65.92 1.79 2.07 1.56 2.53a.78.78 0 01-.78.33zM322.33 126.8c.94-.2 1.82-.65 2.51-1.33 1.5-1.45 2.9-3 4.2-4.63.33-.55.2-1.06-.59-1.38a3.35 3.35 0 01-1.32-1.33c1-.38 1.94-.88 2.83-1.47a29.5 29.5 0 004.16-3.8c.37-.6.19-.7-.36-.88-.3-.07-.55-.27-.69-.55 0 0 1.23-.78 2.38-1.7 1.14-.9 2.7-2.42 2.7-2.42 1.7.68 4.4.4 5.85.13 1.54-.27 3.04-.78 4.43-1.5.11.4.25.8.41 1.18a1.77 1.77 0 002.7.46c.73-.6 1.07-1.54.92-2.47.93-.53 1.91-.98 2.92-1.33a6.35 6.35 0 015.17-.1c1.6.74 2.38 2.94 2.38 4.6 0 1.64-.87.95-1.05.72a3.1 3.1 0 00-2.56-1.74c-2.02-.32-3.85.64-6.13 2.52-1.37 1-2.69 2.07-3.93 3.21-1.15 1.2-.23 1.84 1.73 2.48s4.48-.64 4.58-.6c.37.2-.85 1.94-2.55 2.6a8 8 0 01-5.55-.44c-1.14-.46-1.35.01-1.69.37a9.7 9.7 0 00-2.65 6 2.7 2.7 0 01-1.74-2.01c-.06-.38-.18-1.2-.82-.6-.64.6-1.14 3.9-1.14 5.41.04 1.2.2 2.37.45 3.54l-.45-.05a7.75 7.75 0 01-1.56-.78c-.73-.41-.78.05-.78.87-.15 1.8-.62 3.55-1.37 5.18a7.41 7.41 0 01-2.7 3.72 8.03 8.03 0 01-.64-1.65c-.38-1.69-.57-3.41-.55-5.14 0-1.88.5-5.92.5-5.92s-2.28 2.8-4.66 3.5c-2.38.68-4.75.27-5.76-.88-1-1.15-.09-1.65.42-1.79zM337.97 134.04c.33.74.7 1.47 1.11 2.17.15.25.34.47.57.65a5.6 5.6 0 01-1.77.94c-1.05.33-2 .53-2 .53a10.63 10.63 0 002.08-4.29z"/>
            <path fill="#e6b319" d="M323.69 133.1l.56-1.4a9.99 9.99 0 005.43-1.12 10.05 10.05 0 01-2.19 3c-.39.3-.8.58-1.24.81 0 0 1.1.18 2.56-1.27.9-.9 1.61-1.95 2.12-3.1-.18 2.07-.1 4.16.26 6.2.6 2.37.73 2.68.73 2.68-2.2.3-4.43.16-6.57-.42-3.46-.96-3.72-1.27-3.72-1.27s-.42-.1.13-.83c.75-1.02 1.4-2.12 1.93-3.28z"/>
            <path fill="#e65900" d="M329.97 124.64c.45-.45.84-.96 1.17-1.52.22.26.24.63.05.9a11.1 11.1 0 01-2.87 2.45 7.4 7.4 0 01-2.08.78l.06-.22c1.34-.59 2.58-1.4 3.67-2.39zM334.19 132.67s.26-4.84.26-5.56.45-.53.45-.53l.53.24-1.04 7.08c-.1.76-.48.7-.68.66.38-.2.46-1.67.48-1.89zM340.72 111.72c.4-.4 1.28-.69.42.26-.94.9-1.72 1.96-2.3 3.13-.33.99-.53 2.2.03 1.94a5.18 5.18 0 001.55-.75 9.85 9.85 0 012.17-1.45c.46-.13 1.28 0 .63.72-.8.87-1.68 1.66-2.64 2.34-1.25.92-1.97 1.31-2.63 1.77-.66.47-1.32.86-1.32.86s.6-3.95 1.68-5.7a17.52 17.52 0 012.4-3.12zM362.06 177.87c.56.4 1.18.69 1.85.86 0 0 .5-.03.5.16s-.58 0-1.2-.1a5.43 5.43 0 01-1.73-.95c-.3-.22-.75-.5-.61-.88.14-.4.38.3 1.19.91zM355.17 181.56c.16.2 1.49 1.19 1.49 1.19.27.18.56.32.86.44.23.07.42.22.55.42 0 0-.08.1-.55-.03-.83-.4-1.6-.9-2.3-1.5-.44-.38-.64-.5-.47-.66.17-.16.25-.05.42.14zM383.1 131.93c-.25.3-.55.71-.7.58-.13-.14.04-.28.37-.66.33-.39.52-.58.52-.58.22-.36.47-.7.74-1.02.28-.28.69-.42.17.22-.53.63-.86 1.16-1.1 1.46zM385.22 136.58c-.3.28-.58.52-.91.88s-.58.74-.77.55c-.2-.2.5-.6.8-.99a5 5 0 011.78-1.49c-.28.37-.58.72-.9 1.05zM384.43 144.09c-.53.55-1.3.72-1.41.5-.12-.22.05-.4.5-.62.51-.28 1.02-.6 1.5-.94.35-.23.67-.49.97-.77.24-.25.54-.47.63-.38.1.08-.73.96-.98 1.1-.44.32-.85.7-1.21 1.11zM382.9 150.1c0-.22-.05-.33.4-.36.44-.03 1.04-.1 1.04-.1s.86-.34.92-.18c.05.17-.72.5-1.05.56-.33.05-.64.14-.94.27-.2.11-.36.03-.36-.19zM382.25 156.63c.93 0 1.74-.22 1.8-.08s-.45.36-.92.52c-.64.16-1.3.25-1.96.25-.61.03-.72-.1-.7-.41.03-.3.83-.28 1.78-.28zM374.89 163.78c.13-.14.47-.03 1 .08.6.15 1.24.24 1.87.25l1.58-.05.6.14c0 .14-.8.1-1.96.24-.83.08-1.67.01-2.49-.19-.55-.08-.74-.33-.6-.47zM371.85 168.87c.45.19.94.28 1.43.28.5.03 1 .1 1.5.19 0 0 .5.06.41.25-.08.2-.25 0-.69-.06-.44-.05-.77 0-1.55-.02a9.01 9.01 0 01-1.68-.3c-.47-.1-1-.34-.75-.65.25-.3.74.09 1.33.31zM365.93 172.72a18.6 18.6 0 002.35 1.63c.5.25.47.36.38.5s-.38-.2-.66-.3a10.9 10.9 0 01-1.66-1.1c-.47-.4-1.08-.7-.97-.98.11-.28.22-.08.56.25zM375.78 122.87c-.34.54-.72 1.05-1.14 1.53-1.02 1.28-.47.07-.21-.25.25-.33 1.75-2.45 2.26-3.03.5-.59.58-.3.33.07-.26.37-1.24 1.68-1.24 1.68zM377.93 129.43c-.15-.15.18-.3.76-1.02.59-.73 1.75-2.23 1.75-2.23s.33-.69.44-.62a3.4 3.4 0 01-.87 1.65c-.48.47-1.1 1.38-1.43 1.78s-.5.59-.65.44zM375.1 141.73c0-.36 1.15-.3 1.67-.41l1.46-.3s1.1-.2 1.13-.06c.03.14-.22.27-.83.39-.6.1-1.5.38-2.2.49s-1.23.25-1.23-.11zM377.93 135.09c-.52.43-1.09.81-1.68 1.13-.4.22-.73.55-.95.3-.22-.26.18-.45.84-.74.34-.14.68-.33.98-.54l.7-.37c.33-.18.87-.4.1.22zM371.33 130.71c.27-.23.56-.44.87-.62 0 0 .58-.55.7-.37.1.19-.66.73-1.03 1.06-.36.33-1.02 1.28-1.35 1.1-.32-.19.33-.77.8-1.17zM375.64 147.85l1.05.28c.42.12.44.3-.3.3a8.1 8.1 0 01-1.8-.33c-.75-.14-1-.22-.89-.47.11-.25.5-.17.8-.08l1.14.3zM374.48 154.06c.05.14-.53 0-.92-.14-.38-.14-1.19-.55-1.66-.69-.47-.14-.47-.22-.47-.5 0-.27.5-.05 1.11.14.5.2.96.47 1.38.8 0 0 .5.25.56.39zM366.49 157.82c-.56-.33-.67-.58-.47-.75.19-.16.35-.14.8.22.44.36 1.3.97 1.3.97s.44.17.77.34.75.44.64.6c-.11.17-.8 0-1.16-.3-.61-.4-1.24-.75-1.88-1.08zM362.72 162.81c-.23-.2-.89-.41-1.2-.64-.3-.22-.5-.88-.24-.97s.38.28.91.67 2.32 1.58 2.32 1.58l.47.19c.5.2.28.33-.14.28a1.95 1.95 0 01-1.18-.45c-.5-.38-.72-.47-.94-.66zM357.14 167.54a6.76 6.76 0 01-1.5-1.1c-.33-.31-.74-.7-.5-.9.25-.19.53.06.92.42.38.36 1.4 1.44 1.4 1.44.26.12.5.28.7.47.55.44-.03.36-.22.17-.23-.23-.5-.4-.8-.5z"/>
            <path fill="#e6b319" d="M334.39 96.59l-2.25-1.6 2.65-.68 1.7 1.36z"/>
            <ellipse cx="327.19" cy="94.72" fill="#e65900" rx="2.15" ry="2.07"/>
            <ellipse cx="327.19" cy="94.28" fill="#e6b319" rx="1.3" ry="1.24"/>
            <path fill="#e6b319" d="M331.67 87.6c-.42.13-.85.17-1.27.12 0 0-.22-.95.3-1.41.53-.46 1-.8 1.31-1.1l.39-.42s0 .82.04 1.34c.06.6-.25 1.18-.77 1.48z"/>
            <ellipse cx="330.53" cy="88.65" fill="#e6b319" rx=".39" ry=".37"/>
            <path fill="#e6b319" d="M333.46 88.25c.16.21.34.41.52.6a1.6 1.6 0 00-.8.27c-.35.29-.79.44-1.24.43a.59.59 0 01-.51-.74c.09-.28.3-.57.99-.83s.87.04 1.04.27zM331.96 90.76c1.34.12 3.12-1.37 3.12-1.37.11 1.08.97 1.93 2.04 2.04l-.1.05c-.73.36-1.5.6-2.3.73-.56.06-1.12.02-1.67-.13a7.06 7.06 0 01-2-.63c-.8-.5-.56-1.8-.56-1.8s.12.98 1.47 1.1zM337.2 89.4a10.3 10.3 0 011.73-.62c.35-.02.85-.1.77.54a1.3 1.3 0 01-1.39.97c-.48 0-.95-.15-1.35-.42-.38-.19-.3-.26.25-.47zM341.43 87.11a3.5 3.5 0 011.14-.55c.2.53.27 1.12.17 1.68-.16.55-.7.88-1.26.8-.57-.02-1.42-.31-1.18-.75.28-.48.66-.88 1.13-1.18z"/>
            <ellipse cx="340.88" cy="90.04" fill="#e6b319" rx=".47" ry=".34"/>
            <path fill="#e6b319" d="M339.59 84.86a7.39 7.39 0 00-1.37-6.16 10.21 10.21 0 00-4.61-3.45c-.3-.43-.65-.82-1.03-1.19a19.83 19.83 0 00-2.83-2.24s2.2.55 3.46.95v.06c-.01.85.66 1.54 1.5 1.55.31 0 .61-.1.86-.28 1.26.5 2.44 1.16 3.53 1.97-.15.24-.23.52-.23.81 0 .84.67 1.53 1.51 1.54.24 0 .48-.06.7-.17l.19.33c.43.79.79 1.62 1.08 2.48-.42.3-.66.8-.65 1.33-.06.78.51 1.46 1.28 1.54.04.33.05.67.03 1-.06.5-.25.8-1.12 1.06-.87.25-2.06 1.77-2.06 1.77-.5-.88-.59-1.94-.24-2.9z"/>
            <path fill="#e6b319" d="M334.23 73.5a.57.57 0 01-.13-.87.82.82 0 011.03.06.57.57 0 01.12.88.82.82 0 01-1.02-.06zM339.87 77.32a.77.77 0 01-.16-1.08l.02-.03a.86.86 0 011.16.08c.34.25.41.73.16 1.07l-.02.03a.86.86 0 01-1.16-.07z"/>
            <ellipse cx="343.23" cy="82.11" fill="#e6b319" rx=".87" ry=".86"/>
            <path fill="#e6b319" d="M324.43 70.02c.88.23 1.74.57 2.53 1.02h-.02a1.41 1.41 0 00-1.54 1.28c.1.84.8 1.49 1.66 1.5.8-.01 1.45-.67 1.46-1.47 0-.17-.04-.33-.11-.49l1.18.77a11.66 11.66 0 014.8 5.33c1.37 2.55 1.87 5.35 1.27 7-.59 1.65-2.77 2-2.8 2 .14-.17.23-.36.28-.57a4.9 4.9 0 00-.15-1.09 7 7 0 01-.03-1.37.93.93 0 00-.78.28c-.28.34-.69.75-.97 1.1-.32.34-.66.67-1.02.99-.27-.41-.42-.88-.44-1.37 0-.75.5-1.56.6-2.87a9.35 9.35 0 00-1.88-5.35 15.05 15.05 0 00-4.38-3.61 1.4 1.4 0 01-.88-1.18c-.03-.32-.09-.53-.15-1.31-.07-.78.65-.75 1.37-.6z"/>
            <path fill="#e6b319" d="M327.18 72.97a.96.96 0 01-.94-.84.8.8 0 01.86-.72h.01c.45-.04.84.29.89.73 0 .46-.37.83-.82.83zM323.06 89.25c-.58.23-1.24.19-1.78-.12a.75.75 0 01-.06-1.19c.42-.31.98-.36 1.44-.12.38.22 1.26.84 1.26.84-.22.27-.52.48-.86.59z"/>
            <path fill="#e6b319" d="M320.92 90c.21.43.68.68 1.16.63.71.11 1.45-.07 2.03-.5.32-.35.6-.74.82-1.17l.84-.01c.1.53.33 1.04.64 1.48.7.36 1.54.34 2.23-.04.56-.42 1.08-.94 1.17-.88s0 .49-.58.99c-.49.53-1.19.83-1.92.8H322s-1.08.07-1.39-.58c-.3-.64-.32-1.05-.18-1.2.15-.17.24.1.49.48z"/>
            <path fill="#e6b319" d="M329 89.1c-.8.44-1.23.17-1.52-.19a1.98 1.98 0 01-.35-.51c.39-.14.76-.3 1.12-.5.37-.2.62-.41.98-.37.37.05.42.1.42.1a1.5 1.5 0 01-.64 1.47z"/>
            <ellipse cx="332.86" cy="81.24" fill="#e65900" rx="1.77" ry="1.76"/>
            <path fill="#e65900" d="M329.78 75.14a1.79 1.79 0 012.33.43 1.45 1.45 0 01-.25 2.16c-.77.47-1.77.28-2.33-.43a1.45 1.45 0 01.25-2.16z"/>
            <ellipse cx="332.93" cy="81.01" fill="#e6b319" rx="1.03" ry=".98"/>
            <path fill="#e6b319" d="M330.52 75.34c.48-.12.98.08 1.26.5.23.4-.02.83-.63.96-1.12.22-1.65-1.18-.63-1.46z"/>
        </g>
    </g>
</svg>