<svg xmlns="http://www.w3.org/2000/svg" width="675" height="450">
    <path d="M0 0h675v450H0z" fill="#012a87"/>
    <path d="M0 0h675v225H0z" fill="#dc171d"/>
    <path d="M0 0v450l300-225z" fill="#fff"/>
    <path d="M-109.4928 93.8424l.0243-.9217s-.495-.7884.0795-1.6355c0 0-1.2203-.6455-.9363-1.6565 0 0-1.1035-.2821-1.0223-1.4959 0 0-1.1911-.0826-1.3144-1.0966 0 0-1.1911.1961-1.7153-.792 0 0-1.1619.2272-1.4897-.5873 0 0-1.1294.3912-1.7996-.5662 0 0-1.1927.4819-1.6925-.4218-.4933.9006-1.686.4218-1.686.4218-.6621.954-1.7997.5581-1.7997.5581-.3164.8178-1.475.5857-1.475.5857-.5226.9883-1.712.7918-1.712.7918-.117 1.011-1.3064 1.0935-1.3064 1.0935.0941 1.2169-1.0077 1.4928-1.0077 1.4928.2905 1.0108-.9282 1.6548-.9282 1.6548.589.852.099 1.634.099 1.634l-.0276.85 19.7131.091h-.003z" fill="#f9d90f" stroke="#000" stroke-width=".1058" transform="matrix(3.77953 0 0 3.77953 565.3851 -184.8315)"/>
    <g transform="matrix(1.8697 0 0 1.8687 193.6992 289.09)" stroke-width="2.022">
        <path d="M-42.4132-75.0462c1.0678 1.0787.0696 1.668-.9153 1.1144-2.4348-1.8435-5.2801-2.8656-9.1938-1.7512-5.623.0206-11.5965-.318-14.3278 2.6666-.1945.5758-1.7194 2.7453 4.179-.4378-.3678 2.2012 2.376.4018 4.4973-.597-1.4615 1.5285 2.2375 1.7792 4.577.2786-1.15 1.5434.8699 1.502 2.786 1.5124 2.8024.0877 1.2543 2.5262-3.5422 2.6267-.3498-.0243-1.6946.6068.1194 1.0746.84.0418.1567 1.2138 3.0645-.2786-.1806.8734 1.0654.7043 2.8258.1592.9984.785 1.8087-.0287 2.6666-.4378 3.674 1.4368 8.5253 2.8755 9.8305-2.1093 3.0663-.3534 5.6042-.8037 4.2302-1.9711 3.9945 1.6293 4.2258 1.0007 4.1651.197 1.9157.7242 4.1438 1.7047 3.2364.1126 1.8417.4707 3.8588.6345 5.4315 1.576 1.5936.8256 1.078-.617.7036-1.2665-.8161-1.3065-1.848-1.6919-4.1753-1.7396-1.9733-.0405-11.2208-2.6199-16.031.1636h.028c-.0843 0-1.998-1.801-1.998-1.801.4403-.0119.758-.2335 1.013-.563 1.8763.0946 3.7524-.0852 5.6286-.591.8548-.2668 1.3422.2422 1.3227.6192.782-1.376-.3006-1.661-1.0976-1.6041-3.1737.18-5.079.0138-6.6135-.2533-3.042-1.5184-6.7036.811-3.3208 2.7298z" fill="#bc715f" stroke="#000" stroke-width=".214"/>
        <path d="M-41.698-77.7415c-.6367.0948-1.2937.1712-1.5479.612.0187-.7255 1.0987-.7756 1.5479-.612z"/>
        <ellipse cx="-42.0358" cy="-77.4742" rx=".2744" ry=".2814"/>
    </g>
    <g stroke="#000">
        <path d="M-136.2067 91.4409c.6215 3.5272 1.3114 7.1423 1.6505 10.835.7384 5.4691-2.5884 10.0609-1.2237 15.4636.8146 2.5925 3.6657 4.0995 6.275 4.3982 3.4617.6542 7.6463.002 10.1731 2.591 2.5268-2.5894 6.7114-1.9368 10.173-2.591 2.6094-.2987 5.4605-1.8056 6.2751-4.3982 1.3647-5.4027-1.962-9.9945-1.2237-15.4636.3392-3.6927 1.029-7.3078 1.6505-10.835-6.0932 3.308-12.1138-.9955-16.8749 1.756-4.761-2.7515-10.7817 1.552-16.875-1.756z" fill="#dc171d" stroke-width=".1058" transform="matrix(3.77953 0 0 3.77953 565.3851 -184.8315)"/>
        <path d="M-133.935 94.2899c.5367 2.9102 1.1326 5.8929 1.4255 8.9396.6377 4.5125-2.2356 8.301-1.057 12.7587.7037 2.139 3.1662 3.3824 5.42 3.6288 2.9897.5398 6.604.001 8.7864 2.1379 2.1824-2.1365 5.7967-1.598 8.7865-2.1379 2.2538-.2464 4.7162-1.4898 5.4198-3.6288 1.1788-4.4577-1.6946-8.2462-1.0569-12.7587.293-3.0467.8888-6.0294 1.4256-8.9396-5.2628 2.7293-10.4628-.8214-14.575 1.4488-4.1122-2.2702-9.3122 1.2805-14.575-1.4488z" fill="#62afe1" stroke-width=".106" transform="matrix(3.77953 0 0 3.77953 565.3851 -184.8315)"/>
        <g stroke-width=".2381">
            <path d="M-90.0372-62.9374l-6.158 4.2202v5.081h18.0288v-5.081l-6.158-4.2202z" fill="#fff" stroke-linecap="round" transform="matrix(3.77953 0 0 3.77953 443.7628 440.2509)"/>
            <path d="M-97.6578-54.4773v.9713h.593v4.99h19.768v-4.99h.593v-.9713zM-87.1811-68.4404l-2.8561 2.78v2.723h5.7128v-2.723zM-95.3052-58.0276h1.8064v2.8607h-1.8064zM-90.1772-58.0276h1.8064v2.8607h-1.8064zM-79.0568-58.0276h-1.8064v2.8607h1.8064zM-84.1844-58.0276h-1.8064v2.8607h1.8064z" fill="#fff" stroke-linecap="round" transform="matrix(3.77953 0 0 3.77953 443.7628 440.2509)"/>
            <path d="M-95.3052-53.053h1.8064v2.8606h-1.8064zM-79.0568-53.053h-1.8064v2.8606h1.8064zM-85.765-53.215h-2.8317v4.699h2.8318zM-90.243-54.4773h-1.27v5.9613h1.27zM-84.1185-54.4773h1.2705v5.9613h-1.2705z" fill="#fff" stroke-linecap="round" transform="matrix(3.77953 0 0 3.77953 443.7628 440.2509)"/>
            <path d="M-82.3765-54.273v-1.4724h-9.6086v1.4724z" fill="#fff" stroke-linecap="round" transform="matrix(3.77953 0 0 3.77953 443.7628 440.2509)"/>
            <path d="M-90.0372-65.6604h5.7128M-96.1952-58.7172h18.0288" fill="#fff" transform="matrix(3.77953 0 0 3.77953 443.7628 440.2509)"/>
            <path d="M-98.1107-49.1387h21.8597v1.5449h-21.8597zM-86.091-65.071h-2.18v1.544h2.18z" fill="#fff" stroke-linecap="round" transform="matrix(3.77953 0 0 3.77953 443.7628 440.2509)"/>
            <path d="M-91.2988-55.7454v1.4724M-83.0629-55.7454v1.4724M-83.7492-55.7454v1.4724M-84.4355-55.7454v1.4724M-85.1218-55.7454v1.4724M-85.8082-55.7454v1.4724M-86.4945-55.7454v1.4724M-87.1808-55.7454v1.4724M-87.8672-55.7454v1.4724M-88.5535-55.7454v1.4724M-89.2398-55.7454v1.4724M-89.9261-55.7454v1.4724M-90.6125-55.7454v1.4724" fill="none" stroke-width=".2646" transform="matrix(3.77953 0 0 3.77953 443.7628 440.2509)"/>
            <path d="M-82.3765-55.645v1.372" fill="none" transform="matrix(3.77953 0 0 3.77953 443.7628 440.2509)"/>
        </g>
        <g fill="#008830" stroke-width=".2552">
            <path d="M-30.5428-85.287c2.9087 1.8564 4.2843 3.573 4.2912 5.1649-3.62-.1924-6.8935-1.8966-4.2912-5.165z" transform="matrix(1.76318 0 0 1.76283 133.1092 330.8528)"/>
            <path d="M-28.2003-83.5982c2.8012 1.5939 4.3795 3.3292 4.8663 5.191-2.8456.495-5.8816-.8481-4.8663-5.191zM-31.8215-80.8591c.3772 3.2008-.0845 5.5007-1.2951 6.9964-2.0859-1.998-2.8041-5.2392 1.2951-6.9964z" transform="matrix(1.76318 0 0 1.76283 133.1092 330.8528)"/>
            <path d="M-31.8178-80.8493c2.6313 1.861 4.0318 3.7428 4.3336 5.6433-2.8804.2136-5.77-1.421-4.3336-5.6433z" transform="matrix(1.76318 0 0 1.76283 133.1092 330.8528)"/>
            <path d="M-30.0702-83.4114l1.2125.7573 1.3012-.1284.5459.8992s-.1464 1.8478-.1473 2.0165c-.0011.1686.402 1.2021.402 1.2021l-.8856.6438-2.3722.972-2.2187-1.8024-1.3985.1449-.6133-1.7378.6892-1.4815 1.7315-1.1242z" transform="matrix(1.76318 0 0 1.76283 133.1092 330.8528)"/>
            <path d="M-32.347-82.4915c-1.14 3.0145-2.6096 4.843-4.3732 5.6126-.9306-2.7343-.0747-5.9419 4.3732-5.6126z" transform="matrix(1.76318 0 0 1.76283 133.1092 330.8528)"/>
            <path d="M-32.3531-82.272c-3.1622-.6226-5.2097-1.7674-6.262-3.3784 2.5413-1.3726 5.8466-1.0622 6.262 3.3784zM-26.3062-82.1642c3.2103.285 5.496-.2428 6.9562-1.496-2.0573-2.0275-5.3178-2.6521-6.9562 1.496z" transform="matrix(1.76318 0 0 1.76283 133.1092 330.8528)"/>
            <path d="M-26.2963-82.1608c1.936 2.5767 3.8573 3.9224 5.7656 4.1694.1307-2.8854-1.5863-5.7267-5.7656-4.1694zM-27.3049-80.5856c2.4128 2.1368 3.5998 4.1601 3.6926 6.0821-2.8866-.1016-5.5807-2.0414-3.6926-6.082z" transform="matrix(1.76318 0 0 1.76283 133.1092 330.8528)"/>
            <path d="M-28.2993-77.0447c1.651 2.768 2.1685 5.056 1.674 6.9156-2.7198-.9724-4.6987-3.638-1.674-6.9156z" transform="matrix(1.76318 0 0 1.76283 133.1092 330.8528)"/>
            <path d="M-29.4609-77.224c.3656 3.2022-.1044 5.5004-1.3205 6.9917-2.0785-2.0055-2.785-5.2492 1.3205-6.9916z" transform="matrix(1.76318 0 0 1.76283 133.1092 330.8528)"/>
        </g>
        <g fill="#f9d90f" stroke-width=".2615">
            <path d="M-31.378-80.6132c-.2376-.1686-.4166-.462-.4584-.7516-.0357-.2472-.0155-.406.096-.7545.0564-.1766.1012-.3252.0995-.3302-.0016-.005-.0458-.018-.0981-.0286-.091-.0188-.1021-.013-.2657.1382-.5595.5168-1.07.7645-1.4195.6887-.4051-.088-.5602-.6497-.3348-1.213.1913-.4788.5505-.7717 1.0092-.8237.1698-.0192.2414-.0124.4393.0418.1301.0356.2318.0542.2259.0413-.0059-.0129-.1047-.083-.2197-.156-.5657-.3587-.9002-.7737-.9226-1.1445-.0163-.2693.16-.5278.4618-.677.5073-.2506 1.1423-.072 1.4375.4044.1418.2287.1786.4106.1781.8813-.0002.273.0111.4295.0317.4381.0177.0073.0642.0499.1035.0944l.0715.081.2802-.2297c.2855-.234.4921-.3768.724-.5003.3207-.1708.6986-.2191.8879-.1136.4147.2313.413.9853-.0034 1.5015-.3379.4188-.8513.5665-1.3202.3796-.1052-.0419-.254-.0931-.3309-.1138l-.1396-.0377.216.2747c.2914.3706.4552.6358.568.92.213.5364.1046.95-.2953 1.1275-.308.1366-.7114.082-1.0218-.1383z" transform="matrix(1.7209 0 0 1.72057 131.4653 327.0887)"/>
            <path transform="scale(1.7209 1.72057) rotate(21.7271 -457.0992 294.0868)" d="M-59.3362-65.6398a.649.7294 0 01-.649.7293.649.7294 0 01-.6488-.7293.649.7294 0 01.6489-.7294.649.7294 0 01.6489.7294z"/>
        </g>
        <g fill="#f9d90f" stroke-width=".2552">
            <path d="M-28.6575-84.0026c.0022.248.044.404.1984.741.0783.1708.1415.3147.1407.3199-.001.005-.0403.0213-.0876.036-.0824.0255-.0937.0206-.2685-.1167-.5978-.4694-1.111-.6757-1.427-.5736-.3663.1185-.4304.6877-.1385 1.2291.248.4601.6261.723 1.0627.739.1616.006.2275-.0062.405-.0752.1165-.0454.2089-.0716.2052-.0584-.0037.0132-.086.0904-.183.1716-.4775.3995-.7306.837-.6982 1.2065.0235.2684.2256.5112.5295.6358.5106.2096 1.0789-.0166 1.2865-.512.0996-.2378.1078-.421.0396-.8879-.0395-.2708-.0515-.4268-.0334-.437.0154-.0086.0529-.0544.0832-.1016l.0552-.0858.2952.2062c.3007.21.5146.3358.7493.4403.3246.1447.685.1635.8468.0442.3547-.2614.2445-1.0092-.2194-1.4891-.3763-.3894-.8778-.4962-1.2895-.2747-.0924.0497-.2243.112-.2932.1385l-.1252.048.1625-.2891c.2192-.39.3342-.6658.3988-.9564.122-.5485-.039-.9504-.4386-1.0956-.3077-.1117-.6772-.0264-.9056.1876-.2283.214-.3535.5189-.3509.8094z" stroke-width=".2551" transform="matrix(1.76318 0 0 1.76283 133.1092 330.4765)"/>
            <path d="M-28.6225-82.5453a.6354.7317 32.5653 01.9-.4074.6354.7317 32.5653 01.2715.9102.6354.7317 32.5653 01-.9.4074.6354.7317 32.5653 01-.2715-.9102z" transform="matrix(1.76318 0 0 1.76283 133.1092 330.4765)"/>
        </g>
        <g fill="#f9d90f" stroke-width=".2241">
            <path d="M-31.603-77.2813c-.1197-.2276-.1582-.3907-.1827-.7744-.0124-.1945-.0253-.357-.0286-.3613-.0033-.0042-.0473.0003-.0977.0102-.0878.0171-.0957.0271-.188.2385-.3155.7226-.683 1.1633-1.0218 1.2253-.3928.0718-.731-.4166-.7302-1.0547.0006-.542.2169-.968.6078-1.1973.1447-.085.211-.1061.4069-.1303.1287-.0159.226-.0373.2162-.0475-.0098-.0103-.123-.0404-.2515-.0669-.6324-.1302-1.0785-.4053-1.2304-.7589-.1103-.2567-.0449-.5778.1714-.841.3636-.4424.9938-.515 1.4267-.1647.2078.1683.3053.3317.4723.7916.0969.2668.1626.4153.184.4157.0184.0002.0751.0237.126.0519l.0926.0512.1684-.3334c.1715-.3397.3052-.5597.4682-.7705.2254-.2917.5455-.486.752-.4566.4523.0645.7189.8017.5309 1.468-.1526.5407-.5582.8848-1.0431.8848-.1088 0-.26.0079-.3358.0176l-.138.0176.2905.1842c.3918.2485.6322.4439.834.6776.3807.4411.4312.8873.1374 1.2163-.2262.2533-.6057.357-.9194.2738s-.5778-.3002-.718-.5668z" transform="matrix(1.93975 .51978 -.5195 1.93888 97.4643 361.0161)"/>
            <path d="M-31.2585-79.217a.6234.767 0 01-.6234.767.6234.767 0 01-.6234-.767.6234.767 0 01.6234-.767.6234.767 0 01.6234.767z" transform="matrix(1.93975 .51978 -.5195 1.93888 97.4643 361.0161)"/>
        </g>
        <g fill="#f9d90f" stroke-width=".2294">
            <path d="M-28.1818-76.458c-.1198-.2277-.1583-.3907-.1828-.7745-.0124-.1945-.0253-.357-.0286-.3613-.0033-.0042-.0473.0003-.0977.0102-.0878.0171-.0957.0271-.188.2385-.3155.7226-.683 1.1633-1.0218 1.2253-.3928.0718-.731-.4166-.7302-1.0547.0006-.542.2169-.968.6078-1.1973.1447-.0849.211-.1061.4069-.1303.1287-.0159.226-.0373.2162-.0475-.0098-.0103-.123-.0404-.2515-.0669-.6324-.1302-1.0785-.4053-1.2304-.7589-.1103-.2567-.0449-.5778.1714-.841.3636-.4423.9938-.515 1.4267-.1647.2078.1683.3053.3317.4723.7916.0969.2668.1626.4153.184.4157.0185.0002.0751.0237.126.0519l.0926.0512.1684-.3334c.1715-.3397.3052-.5597.4682-.7705.2255-.2917.5455-.486.752-.4566.4523.0645.7189.8017.5309 1.468-.1526.5407-.5582.8848-1.0431.8848-.1088 0-.26.0079-.3358.0176l-.138.0176.2905.1842c.3918.2486.6322.4439.834.6776.3808.4411.4312.8874.1374 1.2163-.2262.2533-.6056.357-.9194.2738-.3137-.0832-.5777-.3002-.718-.5668z" transform="matrix(1.8813 -.55579 -.5556 -1.88072 94.0002 29.9743)"/>
            <path transform="matrix(-.04988 -1.96048 -1.961 .04996 94.0002 29.9743)" d="M-82.3328 7.2068a.69.7667 0 01-.69.7667.69.7667 0 01-.69-.7667.69.7667 0 01.69-.7667.69.7667 0 01.69.7667z"/>
        </g>
        <path d="M-107.3721 102.7579h-.7566v-.5377h-.6446v-.6145h-.738l-.0005-3.8993-.8404-1.4706-.8405 1.4706v3.8993h-.738v.6145h-.6444v.5377h-.7567v.7937l5.9597.017z" fill="#fff" stroke-width=".2117" transform="matrix(3.77953 0 0 3.77953 565.3851 -184.8315)"/>
    </g>
    <g>
        <path d="M114.5115 296.058c11.4446.0367 25.5203-2.2995 32.1135-5.7083l14.4806-1.2822.2882 17.6672c-12.2664 6.763-40.5896 8.2164-46.821 8.1673-6.2375.049-34.9103-1.4281-47.232-8.2164l.1595-17.6794 14.5112 1.306c6.5933 3.3918 21.0983 5.7459 32.5306 5.7459h-.0306" fill="#f9d90f"/>
        <path d="M67.3409 306.6856l14.933-3.4156-14.883-2.1297z" fill="#f9b60f"/>
        <path d="M30.0632 220.7007l12.757 4.0594-3.8578 20.6535-12.0763 1.8759s-2.0362-10.86 3.177-26.6011" fill="#f9d90f"/>
        <path d="M26.8861 247.2895l7.8444-10.8232 4.232 8.9473z" fill="#f9b60f"/>
        <path d="M-109.4251-58.0893l3.3753 1.074-1.0207 5.4646-3.1952.4963s-.5387-2.8733.8406-7.0382v.0033zM-99.562-35.3391l3.9761-.9038M-108.187-53.9353l1.1165 2.3846" fill="none" stroke="#000" stroke-width=".106" transform="matrix(3.77953 0 0 3.77953 443.6384 440.2509)"/>
        <path d="M161.3938 306.7347l-14.933-3.4156 14.883-2.1297z" fill="#f9b60f"/>
        <path d="M198.6715 220.7497l-12.757 4.0595 3.8577 20.6535 12.0764 1.8758s2.0362-10.86-3.177-26.601" fill="#f9d90f"/>
        <path d="M201.8486 247.3385l-7.8445-10.8231-4.2319 8.9473z" fill="#f9b60f"/>
        <path d="M-64.8141-58.0764l-3.3754 1.0741 1.0207 5.4646 3.1952.4963s.5388-2.8734-.8406-7.0382v.0033zM-74.6772-35.3262l-3.9762-.9037M-66.0522-53.9223l-1.1166 2.3846M-87.0815-38.151c3.028.0097 6.7523-.6084 8.4967-1.5104l3.8313-.3392.0763 4.6744c-3.2455 1.7894-10.7394 2.174-12.388 2.161-1.6504.013-9.2367-.3779-12.4968-2.174l.0421-4.6776 3.8395.3455c1.7444.8974 5.5822 1.5203 8.607 1.5203h-.008" fill="none" stroke="#000" stroke-width=".106" transform="matrix(3.77953 0 0 3.77953 443.6384 440.2509)"/>
        <path d="M206.3013 235.6268l-12.2972.8886c-.2759 10.419-1.5394 50.1796-49.0228 52.338l1.4781 14.4657c57.7995.6003 62.191-48.7686 59.8419-67.6923" fill="#f9d90f"/>
        <path d="M-62.7955-54.1401l-3.2536.235c-.073 2.7568-.4073 13.2768-12.9706 13.8479l.3911 3.8273c15.2928.1589 16.4547-12.9033 15.8332-17.9102z" fill="none" stroke="#000" stroke-width=".106" transform="matrix(3.77953 0 0 3.77953 443.6384 440.2509)"/>
        <path d="M22.4334 235.5777l12.2971.8886c.276 10.419 1.5395 50.1796 49.0229 52.3381L82.2753 303.27c-57.7995.6004-62.191-48.7686-59.8419-67.6923" fill="#f9d90f"/>
        <path d="M-111.4438-54.1531l3.2536.235c.073 2.7568.4073 13.2768 12.9706 13.8479l-.391 3.8273c-15.2928.1589-16.4547-12.9033-15.8332-17.9102z" fill="none" stroke="#000" stroke-width=".106" transform="matrix(3.77953 0 0 3.77953 443.6384 440.2509)"/>
        <g stroke-width=".0265" fill="#012a87">
            <path d="M106.4495 304.7657c-.325.2084-.7666.2643-1.2757.2391l-2.2938-.1165.1963-2.863 2.2754.122c.4477.0306.8035.1171 1.0243.2514.46.2391.6623.6813.6194 1.2939-.0306.5273-.2147.8713-.552 1.073m-3.8516 4.5078l.2269-3.4898 2.674.1846c.8648.0675 1.5088-.1594 1.9443-.6016.4538-.4292.6869-.9928.7176-1.6305.0552-.7426-.135-1.3497-.5765-1.7973-.4232-.4293-1.0243-.6561-1.7787-.7291l-3.821-.2392-.5274 8.2164 1.1346.0742M111.2854 302.3987l2.7968.0306c.4047.0366.7237.0858.9567.1962.4294.2024.6318.6071.6318 1.1958 0 .5525-.1595.9204-.4723 1.1412-.3005.2017-.736.2937-1.2573.2937l-2.6864-.0306.0246-2.827m-.043 7.2789l.0246-3.5076 2.625.0374c.4662 0 .8096.0363 1.0488.1527.3864.1778.5766.5525.595 1.067l.0675 1.3797c.0185.3311.0245.5341.0429.6684.0367.0981.0552.2024.1043.2766h1.4106l-.0246-.1785c-.1594-.0858-.2882-.2508-.3434-.5028-.049-.1594-.0737-.3986-.0858-.699l-.0246-1.0977c-.0185-.4967-.1043-.8395-.2944-1.0302-.1656-.2208-.3925-.4108-.7421-.5273.3925-.208.687-.447.9016-.742.2024-.325.3066-.7359.3066-1.2381 0-.9444-.3864-1.5888-1.1714-1.9378-.4232-.19-.963-.2888-1.6008-.3004l-3.9436-.0374-.0306 8.2415h1.1346M120.579 307.9544c-.5028-.6126-.7727-1.3792-.834-2.2867-.0552-1.1412.1656-2.0113.6869-2.6006.5274-.6378 1.2082-.9438 2.0976-.9928.8954-.049 1.6314.2391 2.1772.8027.5582.5525.8771 1.319.9323 2.2756.0306.9192-.1288 1.7348-.552 2.4522-.417.7304-1.1101 1.1412-2.1344 1.1651-1.0671.0558-1.8645-.1956-2.3735-.8155m-1.3493-5.1878c-.5275.8156-.7421 1.76-.687 2.901.0798 1.232.46 2.2506 1.1776 3.017.7974.7666 1.8523 1.1523 3.1525 1.0787 1.3923-.0613 2.441-.5887 3.1525-1.557.5765-.8768.8525-1.8954.7912-3.1524-.0797-1.1222-.4048-2.0359-1.012-2.7166-.7667-.9136-1.889-1.3177-3.41-1.2564-1.4353.0913-2.4902.6187-3.171 1.6857"/>
            <g>
                <path d="M28.0637 250.8794l.1901 1.0296c-.46.092-.828.2765-1.0978.5157-.4845.4532-.6501 1.1344-.4845 2.0604.0737.3918.2146.7781.3925 1.0854.3681.6254.8464.8762 1.4536.7781.4477-.0796.7421-.2508.8832-.5696.1349-.3134.2332-.7917.2638-1.4043l.0552-1.1596c.0378-.7174.1164-1.281.2759-1.5943.2513-.5642.7237-.9137 1.429-1.0296.7544-.1355 1.4168.0363 1.9872.4654.5765.3986.9568 1.0915 1.0978 2.0114.178.8407.0983 1.595-.2332 2.275-.319.6628-.9322 1.067-1.8706 1.2386l-.184-1.0418c.4353-.1594.7604-.3134.9751-.5274.3681-.4114.4784-1.0056.3371-1.8212-.1103-.6629-.3371-1.0921-.6808-1.3061-.3371-.252-.6746-.3502-1.0426-.2882-.411.0613-.6808.2882-.8096.6561-.0798.2447-.141.7536-.1962 1.533l-.0551 1.2013c-.0303.5642-.1165 1.0308-.3066 1.3497-.3004.588-.8096.9499-1.5517 1.0664-.9384.1594-1.6621-.0553-2.1773-.6562-.5274-.5887-.8525-1.2938-1.018-2.1707-.1841-1.0425-.0492-1.852.368-2.5013.4232-.6684 1.0918-1.0547 1.9995-1.1835M27.5424 261.7516l8.1081-2.4406 1.889 5.7084-.9874.3128-1.5456-4.691-2.4655.7425 1.429 4.3348-.9445.3005-1.4168-4.347-2.7476.821 1.57 4.7953-.969.2766-1.9197-5.8133M31.1365 271.6482l7.458-3.9546.7973 1.3914-5.1274 5.4208 7.4887-1.2816.7728 1.3803-7.4396 3.9307-.5275-.9143 4.3914-2.3112c.1595-.0926.4048-.2275.7605-.417.3496-.1594.7421-.3746 1.1347-.577l-7.458 1.2693-.5459-.9688 5.0906-5.4024-.2453.1232c-.1595.0914-.4355.227-.8096.441-.3681.2274-.644.3679-.8219.4414l-4.379 2.3486-.5398-.9314M45.0343 282.6308c-.3741-.0852-.742-.3004-1.104-.6745l-1.5762-1.625 2.1221-1.9439 1.5885 1.6195c.3066.3005.503.5942.6072.8462.147.4838 0 .926-.4477 1.3423-.4048.3741-.8096.5274-1.1899.4354m-5.9921.7543l2.6005-2.3854 1.846 1.8703c.595.607 1.2022.883 1.84.8713.6502-.0374 1.2083-.2765 1.699-.7425.552-.4906.8157-1.067.8157-1.6858-.0076-.6015-.282-1.165-.7912-1.6924l-2.6496-2.7049-6.17 5.666.7973.8034M46.4818 290.0077l4.4711-7.009 5.2868 3.2133-.552.8345-4.3423-2.6-1.3431 2.1217 3.9927 2.4216-.5152.804-3.9989-2.41-1.521 2.3725 4.3975 2.6436-.5274.8278-5.3482-3.22M59.7173 288.6525l2.6863.853c.3803.1159.6563.263.8403.4293.3435.325.4354.7904.2332 1.3545-.1656.4906-.4171.8095-.8096.945-.3497.0607-.7912.0607-1.3064-.0987l-2.533-.8088.8893-2.6742m-2.3184 6.8863l1.1163-3.342 2.5024.8156c.4477.1171.7727.2765.9322.4415.3065.276.3986.6868.2453 1.1964l-.3742 1.33c-.0858.325-.1289.5396-.1656.6378 0 .1048 0 .2152.019.2882l1.3186.4292.0797-.1901c-.141-.1104-.2207-.3121-.2146-.5636.0302-.1539.0737-.3985.1595-.6812l.319-1.067c.1288-.466.178-.8156.0612-1.0664-.0983-.2643-.2638-.5034-.5397-.7297.417-.0742.7789-.203 1.0855-.4299.2884-.2514.5336-.601.6808-1.0909.3005-.8897.135-1.6317-.5275-2.1959-.331-.2937-.8034-.5457-1.4228-.7787l-3.7536-1.1584-2.625 7.8178 1.0978.3373"/>
            </g>
            <g>
                <path d="M157.4182 290.3335c.7935-.1205 1.4796-.0706 2.1012.1549.9146.305 1.5215.9974 1.8888 2.0461l-1.1374.1387c-.235-.568-.5774-.9606-1.0457-1.1844-.4562-.2101-1.0317-.2703-1.6958-.1837-.7748.1024-1.4012.4768-1.848 1.0887-.4413.6537-.5862 1.5348-.4167 2.6658.1424.9354.4714 1.732 1.026 2.2696.5113.549 1.2744.753 2.2765.6303.7504-.109 1.3568-.3978 1.7893-.9057.4505-.4818.5928-1.222.4631-2.181l-2.6503.357-.1184-.91 3.6896-.4974.6379 4.3723-.7317.097-.4355-1.0137c-.3149.4487-.6279.7926-.9014.9894-.4602.3479-1.0776.5635-1.8462.6599-.9962.1345-1.9005-.06-2.7126-.6021-.8892-.6848-1.4536-1.6887-1.6492-3.0716-.2144-1.3593.0214-2.5148.6636-3.4169.611-.8714 1.485-1.3706 2.6531-1.5155M165.7512 289.8478l2.6543-.9083c.3643-.1277.6778-.1655.947-.1293.4839.0451.8343.3397 1.0261.9197.1812.494.1733.9231-.0468 1.2202-.2326.308-.5925.529-1.111.709l-2.4937.8437-.9759-2.655m2.5124 6.8604l-1.2274-3.3282 2.469-.8387c.4626-.1387.783-.2126 1.0217-.1831.4344.0625.7607.3328.9723.839l.535 1.2676c.117.3143.2116.5062.2898.5941.0346.111.1132.18.1732.254l1.3397-.4655-.0704-.1792c-.1963-.0036-.3843-.1174-.5215-.3352-.1014-.1545-.1955-.377-.3318-.6371l-.4166-1.0386c-.188-.4512-.3854-.7301-.6154-.9006-.2307-.133-.5234-.2242-.8725-.2545.2755-.3083.4775-.6174.5578-.984.0865-.3719.0573-.7895-.112-1.2587-.3213-.8829-.9319-1.3724-1.8015-1.4496-.4593-.045-.9884.0433-1.5994.2462l-3.728 1.2511 2.851 7.8037 1.0927-.3787M177.9842 292.801l-4.5781-6.9471 5.2234-3.1981.5552.8387-4.2806 2.626 1.409 2.1232 3.952-2.4424.5189.8129-3.9521 2.443 1.5521 2.3405 4.3551-2.6748.5555.8203-5.3165 3.2577M182.3204 280.7483l1.3762-1.459c.6375-.6508 1.3053-.9391 2.0273-.84.7225.0745 1.4514.468 2.2238 1.169.2116.1695.3978.3875.5897.6302.3352.4539.5304.8506.652 1.2447.1014.4931.0687.9402-.1108 1.3663-.1082.212-.2967.46-.5782.756l-1.382 1.4468-4.7978-4.3256m7.0666 3.3606c.976-1.0365 1.2051-2.167.6705-3.4585-.3124-.6994-.7967-1.3829-1.4728-1.984-.8506-.7822-1.745-1.191-2.694-1.2814-1.0533-.0995-1.9556.2649-2.75 1.1022l-2.3445 2.4227 6.2397 5.6467 2.3448-2.435M194.4159 277.7922l-7.219-4.4188.612-.9328 7.2318 4.3946-.6189.9694M197.3705 272.8667l-7.8223-3.2959 2.4253-5.5.95.3853-1.9783 4.533 2.3561.976 1.849-4.1742.9008.3911-1.8305 4.1678 2.6355 1.127 2.0283-4.5868.95.3786-2.47 5.598M201.1652 263.258l-8.2572-1.9847.2993-1.2763 7.7064-2.4475-6.7-1.6065.2637-1.001 8.2582 1.9349-.2865 1.2398-7.7196 2.503 6.7005 1.576-.2587 1.0624M200.7013 252.7183l.1233-1.0404c.4781.0216.8842-.0452 1.1938-.2045.607-.3146.9677-.9268 1.0764-1.8393.0445-.4279.0332-.8028-.0585-1.1602-.1653-.6893-.5447-1.0771-1.163-1.1498-.459-.0574-.7921.047-1.0359.2945-.2199.2842-.4543.6964-.6368 1.2825l-.4 1.0782c-.2583.7061-.4941 1.1925-.7445 1.464-.4018.5084-.957.676-1.6613.6142-.7528-.0935-1.3605-.4051-1.7854-.9894-.438-.5355-.6082-1.293-.4808-2.2235.089-.8502.3843-1.5624.8977-2.1295.4757-.5188 1.2039-.7576 2.128-.6426l-.1048 1.0407c-.4538-.0082-.817.0648-1.0841.244-.4831.2549-.757.808-.8516 1.622-.0798.6738.004 1.1285.2552 1.4772.2523.2929.574.4821.9536.5197.404.044.7253-.0787.9517-.3868.1634-.2123.362-.6748.6333-1.4242l.395-1.1335c.1935-.524.4217-.9246.6845-1.208.4686-.4698 1.0733-.6612 1.8265-.5916.918.1143 1.5673.507 1.8918 1.212.3182.7112.4328 1.4922.337 2.3736-.1226.9969-.4619 1.7763-1.0725 2.2926-.6108.528-1.3623.6982-2.2685.6081"/>
            </g>
        </g>
    </g>
</svg>