<svg xmlns="http://www.w3.org/2000/svg" xmlns:xlink="http://www.w3.org/1999/xlink" width="900" height="600" viewBox="-1440 -960 2880 1920">
    <defs>
        <clipPath id="d">
            <path d="M-224 0h448v400h-448z"/>
        </clipPath>
        <clipPath id="f">
            <circle cx="-158" cy="-149" r="324.5"/>
        </clipPath>
        <clipPath id="g">
            <circle cx="-199" cy="-118" r="324.5"/>
        </clipPath>
        <clipPath id="h">
            <circle cx="-212" cy="-100" r="324.5"/>
        </clipPath>
        <clipPath id="e">
            <circle cy="-38" r="576"/>
        </clipPath>
        <clipPath id="k">
            <circle cx="-182" cy="-96" r="324.5"/>
        </clipPath>
        <clipPath id="j">
            <circle cx="-213" cy="-91" r="324.5"/>
        </clipPath>
        <clipPath id="i">
            <circle cx="-234" cy="-64" r="324.5"/>
        </clipPath>
        <g id="l">
            <g id="b">
                <path id="a" fill="#ffde23" d="M0 0v1h.5z" transform="rotate(18 3.15687576 -.5)"/>
                <use transform="scale(-1 1)" xlink:href="#a"/>
            </g>
            <g id="c">
                <use transform="rotate(72)" xlink:href="#b"/>
                <use transform="rotate(216)" xlink:href="#b"/>
            </g>
            <use transform="rotate(72)" xlink:href="#c"/>
        </g>
    </defs>
    <path fill="#0f7562" d="M-1440-960h2880V960h-2880z"/>
    <g fill="#fff" clip-path="url(#d)">
        <circle cx="-209" cy="-7" r="324.5"/>
        <circle cx="209" cy="-7" r="324.5"/>
    </g>
    <circle cx="224" cy="-39" r="324.5" fill="#0f7562"/>
    <circle cx="-224" cy="-39" r="324.5" fill="#0f7562"/>
    <g fill="#fff" clip-path="url(#e)">
        <path d="M-500 285.5h291v32h-291zm0 65H500v16H-500zm0 49H500v25H-500zm0 50H500v32H-500zm0 48H500v50H-500zm1000-212H209v32h291z"/>
    </g>
    <circle cx="158" cy="-149" r="324.5" fill="#fff" clip-path="url(#f)"/>
    <circle cx="199" cy="-118" r="324.5" fill="#0f7562" clip-path="url(#g)"/>
    <circle cy="-346" r="130" fill="#0f7562"/>
    <circle cx="212" cy="-100" r="324.5" fill="#fff" clip-path="url(#h)"/>
    <g id="m">
        <circle cx="-379" cy="307" r="381.5" fill="#fff" clip-path="url(#i)"/>
        <circle cx="-370" cy="343" r="381.5" fill="#0f7562" clip-path="url(#j)"/>
        <circle cx="-485" cy="21" r="130" fill="#0f7562"/>
        <g fill="#fff" clip-path="url(#i)">
            <circle cx="-339" cy="372" r="381.5" clip-path="url(#k)"/>
            <path d="M-100 50l60 50h50v100h-60z"/>
        </g>
        <use transform="rotate(-35 -781.00522008 208.25) scale(73)" xlink:href="#l"/>
        <use transform="rotate(-65 -386.53507337 208.25) scale(73)" xlink:href="#l"/>
    </g>
    <use transform="scale(-1 1)" xlink:href="#m"/>
    <use transform="translate(0 -492.5) scale(105.5)" xlink:href="#l"/>
</svg>