<svg xmlns="http://www.w3.org/2000/svg" xmlns:xlink="http://www.w3.org/1999/xlink" width="900" height="600"
     fill="#ce1126" viewBox="-450 -228 900 600">
    <path fill="#000" d="M-450-228h900v600h-900z"/>
    <circle r="129"/>
    <path id="a" d="M0 0c-4 0-6 6-6 13c0 16 2 23 6 47c4-24 6-32 6-47C6 6 4 0 0 0z" transform="translate(0 -204)"/>
    <g id="c">
        <g id="b">
            <use xlink:href="#a" transform="rotate(5)"/>
            <use xlink:href="#a" transform="rotate(10)"/>
            <use xlink:href="#a" transform="rotate(15)"/>
            <use xlink:href="#a" transform="rotate(20)"/>
            <use xlink:href="#a" transform="rotate(25)"/>
        </g>
        <use xlink:href="#b" transform="rotate(25)"/>
        <use xlink:href="#b" transform="rotate(50)"/>
    </g>
    <use xlink:href="#c" transform="scale(-1 1)"/>
    <path d="M-450-28h900v200h-900z"/>
    <path fill="#339e35" d="M-450 172h900v600h-900z"/>
    <path fill="#000" d="M-450-42h900v15h-900z"/>
</svg>