<svg xmlns="http://www.w3.org/2000/svg" xmlns:xlink="http://www.w3.org/1999/xlink" width="1200" height="600" fill="#fcd116" viewBox="0 0 180 90">
    <path id="s" d="m0-25 15 45-39-28h48l-39 28"/>
    <path fill="#ce1126" d="M0 0h180v90H0z"/>
    <path fill="#0038a8" d="M0 0h180v45H0z"/>
    <path fill="#fff" d="M77.9423 45 0 90V0"/>
    <use xlink:href="#s" transform="translate(14,0)rotate(60,-14,0)scale(0.2)rotate(50)"/>
    <use xlink:href="#s" transform="translate(0,76)rotate(-30,0,-14)scale(0.2)rotate(20)"/>
    <use xlink:href="#s" transform="translate(63.9423,45)scale(0.2)rotate(18)"/>
    <clipPath id="c">
        <path d="M0-19-19 0h38"/>
    </clipPath>
    <clipPath id="b">
        <path d="M-22.11484529 0 0-17 5 0" transform="rotate(-7.25)"/>
    </clipPath>
    <g transform="translate(28 45)">
        <g id="h">
            <g id="g">
                <g id="f">
                    <g id="e" clip-path="url(#b)">
                        <path d="M0 0v-19l.76-.22" transform="rotate(-11.25)"/>
                        <path d="M0 0v-19l-.76-.22" transform="rotate(-7.25)"/>
                    </g>
                    <g clip-path="url(#c)">
                        <path id="d" d="M0-19V0l1.8-19.9" transform="rotate(-3.75)"/>
                        <use xlink:href="#d" transform="scale(-1 1)"/>
                    </g>
                    <use xlink:href="#e" transform="scale(-1 1)"/>
                </g>
                <use xlink:href="#f" transform="scale(-1)"/>
            </g>
            <use xlink:href="#g" transform="rotate(90)"/>
        </g>
        <use xlink:href="#h" transform="rotate(45)"/>
        <circle r="9"/>
    </g>
</svg>