<svg xmlns="http://www.w3.org/2000/svg" width="900" height="600"
     viewBox="-55 -30 180 60" fill="#fff">
    <path d="M-55-60h180v40H-60z"/>
    <path fill="#EE1C25" d="M-55 10h180v50H-60z"/>
    <path fill="#0B4EA2" d="M-55-20h180v40H-60z"/>
    <path d="m0 32.1c-10.7-5.35-25.68-14.98-25.68-35.31s1.07-28.89 1.07-28.89h24.61h24.61c0 0 1.07 9.095 1.07 28.89s-14.98 29.96-25.68 35.31z"/>
    <path fill="#EE1C25" d="m0 30c-10-5-24-14-24-33s1-27 1-27h23h23c0 0 1 8.5 1 27s-14 28-24 33z"/>
    <path d="m2 8v-10.3c3.2-.1 8.27-.01 12.53 1.42c0 0-.12-1.66-.12-3.6c0-1.94.12-3.6.12-3.6c-4.64 1.55-9.85 1.45-12.53 1.48v-6.5c2.44-.02 5.95.09 9.91 1.42c0 0-.12-1.66-.12-3.6c0-1.94.12-3.6.12-3.6c-3.96 1.33-7.47 1.44-9.9 1.42c.13-4.1 1.32-9.27 1.32-9.27s-2.46.19-3.44.19s-3.49-.03-3.44-.19s1.19 5.17 1.32 9.27c-2.44.02-5.94-.1-9.9-1.42c0 0 .12 1.66.12 3.6c0 1.94-.12 3.6-.12 3.6c3.97-1.33 7.48-1.44 9.93-1.42v6.5c-2.67.04-7.88.15-12.53-1.41c0 0 .12 1.66.12 3.6c0 1.94-.12 3.6-.12 3.6c4.26-1.43 9.53-1.53 12.53-1.53v10.34z"/>
    <path fill="#0B4EA2" d="m0 5.82c-4.98 0-7.64 6.9-7.64 6.9s-1.48-3.26-5.54-3.26c-2.74 0-4.76 2.44-6.06 4.7c5 7.94 12.96 12.84 19.24 15.86c6.26-3.02 14.24-7.92 19.22-15.86c-1.28-2.26-3.3-4.7-6.06-4.7c-4.06 0-5.54 3.26-5.54 3.26s-2.66-6.9-7.64-6.9z"/>
</svg>