<svg xmlns="http://www.w3.org/2000/svg" xmlns:xlink="http://www.w3.org/1999/xlink" viewBox="0 0 1000 500">
    <path fill="#1eb53a" d="M0 0h1000v500H0z"/>
    <path fill="#0099b5" d="M0 0h1000v250H0z"/>
    <path fill="#ce1126" d="M0 160h1000v180H0z"/>
    <path fill="#fff" d="M0 170h1000v160H0z"/>
    <circle cx="140" cy="80" r="60" fill="#fff"/>
    <circle cx="160" cy="80" r="60" fill="#0099b5"/>
    <g fill="#fff" transform="matrix(2 0 0 2 272 128)">
        <g id="e">
            <g id="d">
                <g id="c">
                    <g id="b">
                        <path id="a" d="M0-6v6h3" transform="rotate(18 0 -6)"/>
                        <use width="100%" height="100%" transform="scale(-1 1)" xlink:href="#a"/>
                    </g>
                    <use width="100%" height="100%" transform="rotate(72)" xlink:href="#b"/>
                </g>
                <use width="100%" height="100%" transform="rotate(-72)" xlink:href="#b"/>
                <use width="100%" height="100%" transform="rotate(144)" xlink:href="#c"/>
            </g>
            <use width="100%" height="100%" y="-24" xlink:href="#d"/>
            <use width="100%" height="100%" y="-48" xlink:href="#d"/>
        </g>
        <use width="100%" height="100%" x="24" xlink:href="#e"/>
        <use width="100%" height="100%" x="48" xlink:href="#e"/>
        <use width="100%" height="100%" x="-48" xlink:href="#d"/>
        <use width="100%" height="100%" x="-24" xlink:href="#d"/>
        <use width="100%" height="100%" x="-24" y="-24" xlink:href="#d"/>
    </g>
</svg>